M48
; DRILL file KiCad 10.0.4 date 2026-08-28T16:02:59
; FORMAT={-:-/ absolute / metric / decimal}
; #@! TF.CreationDate,2026-08-28T16:02:59-04:00
; #@! TF.GenerationSoftware,Kicad,Pcbnew,10.0.4
; #@! TF.FileFunction,Plated,1,2,PTH
FMAT,2
METRIC
; #@! TA.AperFunction,Plated,PTH,ViaDrill
T1C0.400
; #@! TA.AperFunction,Plated,PTH,ComponentDrill
T2C0.700
; #@! TA.AperFunction,Plated,PTH,ComponentDrill
T3C0.750
; #@! TA.AperFunction,Plated,PTH,ComponentDrill
T4C0.800
; #@! TA.AperFunction,Plated,PTH,ComponentDrill
T5C1.000
; #@! TA.AperFunction,Plated,PTH,ComponentDrill
T6C3.200
%
G90
G05
T1
X125.8Y-122.0
X127.2Y-114.4
X129.9Y-116.365
X131.5Y-122.2
X133.0Y-119.6
X135.6Y-111.5
X136.9Y-123.2
X137.6Y-126.8
X137.8Y-113.6
X138.438Y-105.6
X139.088Y-114.3
X142.8Y-123.9
X143.088Y-114.3
T2
X121.5Y-111.0
X121.5Y-114.5
X122.5Y-118.5
X146.5Y-120.0
X146.5Y-122.5
T3
X112.0Y-131.0
X114.0Y-131.0
X116.0Y-131.0
X118.0Y-131.0
X120.0Y-131.0
T4
X110.19Y-113.19
X110.19Y-115.73
X110.19Y-118.27
X110.19Y-120.81
X117.81Y-113.19
X117.81Y-115.73
X117.81Y-118.27
X117.81Y-120.81
T5
X112.0Y-125.5
X114.54Y-125.5
X117.08Y-125.5
X119.62Y-125.5
X122.16Y-125.5
T6
X105.0Y-105.0
X105.0Y-129.0
X145.0Y-105.0
X145.0Y-129.0
M30
