%TF.GenerationSoftware,KiCad,Pcbnew,10.0.4*%
%TF.CreationDate,2026-08-28T16:02:58-04:00*%
%TF.ProjectId,photomarker,70686f74-6f6d-4617-926b-65722e6b6963,rev?*%
%TF.SameCoordinates,Original*%
%TF.FileFunction,Legend,Bot*%
%TF.FilePolarity,Positive*%
%FSLAX46Y46*%
G04 Gerber Fmt 4.6, Leading zero omitted, Abs format (unit mm)*
G04 Created by KiCad (PCBNEW 10.0.4) date 2026-08-28 16:02:58*
%MOMM*%
%LPD*%
G01*
G04 APERTURE LIST*
%ADD10C,0.150000*%
%ADD11C,0.133333*%
%ADD12C,0.120000*%
G04 APERTURE END LIST*
D10*
X111800000Y-117000000D02*
X113000000Y-117000000D01*
X114000000Y-114800000D02*
X114000000Y-116000000D01*
X114000000Y-118000000D02*
X114000000Y-119200000D01*
X115000000Y-117000000D02*
X116200000Y-117000000D01*
D11*
X141200000Y-101563161D02*
X141200000Y-102210780D01*
X141200000Y-102210780D02*
X141161905Y-102286970D01*
X141161905Y-102286970D02*
X141123810Y-102325066D01*
X141123810Y-102325066D02*
X141047619Y-102363161D01*
X141047619Y-102363161D02*
X140895238Y-102363161D01*
X140895238Y-102363161D02*
X140819048Y-102325066D01*
X140819048Y-102325066D02*
X140780953Y-102286970D01*
X140780953Y-102286970D02*
X140742857Y-102210780D01*
X140742857Y-102210780D02*
X140742857Y-101563161D01*
X140400001Y-101639351D02*
X140361905Y-101601256D01*
X140361905Y-101601256D02*
X140285715Y-101563161D01*
X140285715Y-101563161D02*
X140095239Y-101563161D01*
X140095239Y-101563161D02*
X140019048Y-101601256D01*
X140019048Y-101601256D02*
X139980953Y-101639351D01*
X139980953Y-101639351D02*
X139942858Y-101715542D01*
X139942858Y-101715542D02*
X139942858Y-101791732D01*
X139942858Y-101791732D02*
X139980953Y-101906018D01*
X139980953Y-101906018D02*
X140438096Y-102363161D01*
X140438096Y-102363161D02*
X139942858Y-102363161D01*
X139600000Y-102286970D02*
X139561905Y-102325066D01*
X139561905Y-102325066D02*
X139600000Y-102363161D01*
X139600000Y-102363161D02*
X139638096Y-102325066D01*
X139638096Y-102325066D02*
X139600000Y-102286970D01*
X139600000Y-102286970D02*
X139600000Y-102363161D01*
X139600000Y-101867923D02*
X139561905Y-101906018D01*
X139561905Y-101906018D02*
X139600000Y-101944113D01*
X139600000Y-101944113D02*
X139638096Y-101906018D01*
X139638096Y-101906018D02*
X139600000Y-101867923D01*
X139600000Y-101867923D02*
X139600000Y-101944113D01*
X138723810Y-101563161D02*
X138266667Y-101563161D01*
X138495239Y-102363161D02*
X138495239Y-101563161D01*
X137619048Y-102363161D02*
X138000000Y-102363161D01*
X138000000Y-102363161D02*
X138000000Y-101563161D01*
X137466667Y-101563161D02*
X137200000Y-102363161D01*
X137200000Y-102363161D02*
X136933334Y-101563161D01*
X136742858Y-101563161D02*
X136247620Y-101563161D01*
X136247620Y-101563161D02*
X136514286Y-101867923D01*
X136514286Y-101867923D02*
X136400001Y-101867923D01*
X136400001Y-101867923D02*
X136323810Y-101906018D01*
X136323810Y-101906018D02*
X136285715Y-101944113D01*
X136285715Y-101944113D02*
X136247620Y-102020304D01*
X136247620Y-102020304D02*
X136247620Y-102210780D01*
X136247620Y-102210780D02*
X136285715Y-102286970D01*
X136285715Y-102286970D02*
X136323810Y-102325066D01*
X136323810Y-102325066D02*
X136400001Y-102363161D01*
X136400001Y-102363161D02*
X136628572Y-102363161D01*
X136628572Y-102363161D02*
X136704763Y-102325066D01*
X136704763Y-102325066D02*
X136742858Y-102286970D01*
X135942858Y-101639351D02*
X135904762Y-101601256D01*
X135904762Y-101601256D02*
X135828572Y-101563161D01*
X135828572Y-101563161D02*
X135638096Y-101563161D01*
X135638096Y-101563161D02*
X135561905Y-101601256D01*
X135561905Y-101601256D02*
X135523810Y-101639351D01*
X135523810Y-101639351D02*
X135485715Y-101715542D01*
X135485715Y-101715542D02*
X135485715Y-101791732D01*
X135485715Y-101791732D02*
X135523810Y-101906018D01*
X135523810Y-101906018D02*
X135980953Y-102363161D01*
X135980953Y-102363161D02*
X135485715Y-102363161D01*
X134990476Y-101563161D02*
X134914286Y-101563161D01*
X134914286Y-101563161D02*
X134838095Y-101601256D01*
X134838095Y-101601256D02*
X134800000Y-101639351D01*
X134800000Y-101639351D02*
X134761905Y-101715542D01*
X134761905Y-101715542D02*
X134723810Y-101867923D01*
X134723810Y-101867923D02*
X134723810Y-102058399D01*
X134723810Y-102058399D02*
X134761905Y-102210780D01*
X134761905Y-102210780D02*
X134800000Y-102286970D01*
X134800000Y-102286970D02*
X134838095Y-102325066D01*
X134838095Y-102325066D02*
X134914286Y-102363161D01*
X134914286Y-102363161D02*
X134990476Y-102363161D01*
X134990476Y-102363161D02*
X135066667Y-102325066D01*
X135066667Y-102325066D02*
X135104762Y-102286970D01*
X135104762Y-102286970D02*
X135142857Y-102210780D01*
X135142857Y-102210780D02*
X135180953Y-102058399D01*
X135180953Y-102058399D02*
X135180953Y-101867923D01*
X135180953Y-101867923D02*
X135142857Y-101715542D01*
X135142857Y-101715542D02*
X135104762Y-101639351D01*
X135104762Y-101639351D02*
X135066667Y-101601256D01*
X135066667Y-101601256D02*
X134990476Y-101563161D01*
X134419048Y-101639351D02*
X134380952Y-101601256D01*
X134380952Y-101601256D02*
X134304762Y-101563161D01*
X134304762Y-101563161D02*
X134114286Y-101563161D01*
X134114286Y-101563161D02*
X134038095Y-101601256D01*
X134038095Y-101601256D02*
X134000000Y-101639351D01*
X134000000Y-101639351D02*
X133961905Y-101715542D01*
X133961905Y-101715542D02*
X133961905Y-101791732D01*
X133961905Y-101791732D02*
X134000000Y-101906018D01*
X134000000Y-101906018D02*
X134457143Y-102363161D01*
X134457143Y-102363161D02*
X133961905Y-102363161D01*
X132895238Y-102363161D02*
X132971428Y-102325066D01*
X132971428Y-102325066D02*
X133009523Y-102286970D01*
X133009523Y-102286970D02*
X133047619Y-102210780D01*
X133047619Y-102210780D02*
X133047619Y-101982208D01*
X133047619Y-101982208D02*
X133009523Y-101906018D01*
X133009523Y-101906018D02*
X132971428Y-101867923D01*
X132971428Y-101867923D02*
X132895238Y-101829827D01*
X132895238Y-101829827D02*
X132780952Y-101829827D01*
X132780952Y-101829827D02*
X132704761Y-101867923D01*
X132704761Y-101867923D02*
X132666666Y-101906018D01*
X132666666Y-101906018D02*
X132628571Y-101982208D01*
X132628571Y-101982208D02*
X132628571Y-102210780D01*
X132628571Y-102210780D02*
X132666666Y-102286970D01*
X132666666Y-102286970D02*
X132704761Y-102325066D01*
X132704761Y-102325066D02*
X132780952Y-102363161D01*
X132780952Y-102363161D02*
X132895238Y-102363161D01*
X132285713Y-102363161D02*
X132285713Y-101829827D01*
X132285713Y-101982208D02*
X132247618Y-101906018D01*
X132247618Y-101906018D02*
X132209523Y-101867923D01*
X132209523Y-101867923D02*
X132133332Y-101829827D01*
X132133332Y-101829827D02*
X132057142Y-101829827D01*
X130799999Y-102363161D02*
X131180951Y-102363161D01*
X131180951Y-102363161D02*
X131180951Y-101563161D01*
X130533332Y-102363161D02*
X130533332Y-101563161D01*
X130533332Y-101563161D02*
X130266666Y-102134589D01*
X130266666Y-102134589D02*
X129999999Y-101563161D01*
X129999999Y-101563161D02*
X129999999Y-102363161D01*
X129695237Y-101563161D02*
X129199999Y-101563161D01*
X129199999Y-101563161D02*
X129466665Y-101867923D01*
X129466665Y-101867923D02*
X129352380Y-101867923D01*
X129352380Y-101867923D02*
X129276189Y-101906018D01*
X129276189Y-101906018D02*
X129238094Y-101944113D01*
X129238094Y-101944113D02*
X129199999Y-102020304D01*
X129199999Y-102020304D02*
X129199999Y-102210780D01*
X129199999Y-102210780D02*
X129238094Y-102286970D01*
X129238094Y-102286970D02*
X129276189Y-102325066D01*
X129276189Y-102325066D02*
X129352380Y-102363161D01*
X129352380Y-102363161D02*
X129580951Y-102363161D01*
X129580951Y-102363161D02*
X129657142Y-102325066D01*
X129657142Y-102325066D02*
X129695237Y-102286970D01*
X128819046Y-102363161D02*
X128666665Y-102363161D01*
X128666665Y-102363161D02*
X128590475Y-102325066D01*
X128590475Y-102325066D02*
X128552379Y-102286970D01*
X128552379Y-102286970D02*
X128476189Y-102172685D01*
X128476189Y-102172685D02*
X128438094Y-102020304D01*
X128438094Y-102020304D02*
X128438094Y-101715542D01*
X128438094Y-101715542D02*
X128476189Y-101639351D01*
X128476189Y-101639351D02*
X128514284Y-101601256D01*
X128514284Y-101601256D02*
X128590475Y-101563161D01*
X128590475Y-101563161D02*
X128742856Y-101563161D01*
X128742856Y-101563161D02*
X128819046Y-101601256D01*
X128819046Y-101601256D02*
X128857141Y-101639351D01*
X128857141Y-101639351D02*
X128895237Y-101715542D01*
X128895237Y-101715542D02*
X128895237Y-101906018D01*
X128895237Y-101906018D02*
X128857141Y-101982208D01*
X128857141Y-101982208D02*
X128819046Y-102020304D01*
X128819046Y-102020304D02*
X128742856Y-102058399D01*
X128742856Y-102058399D02*
X128590475Y-102058399D01*
X128590475Y-102058399D02*
X128514284Y-102020304D01*
X128514284Y-102020304D02*
X128476189Y-101982208D01*
X128476189Y-101982208D02*
X128438094Y-101906018D01*
X128171427Y-101563161D02*
X127676189Y-101563161D01*
X127676189Y-101563161D02*
X127942855Y-101867923D01*
X127942855Y-101867923D02*
X127828570Y-101867923D01*
X127828570Y-101867923D02*
X127752379Y-101906018D01*
X127752379Y-101906018D02*
X127714284Y-101944113D01*
X127714284Y-101944113D02*
X127676189Y-102020304D01*
X127676189Y-102020304D02*
X127676189Y-102210780D01*
X127676189Y-102210780D02*
X127714284Y-102286970D01*
X127714284Y-102286970D02*
X127752379Y-102325066D01*
X127752379Y-102325066D02*
X127828570Y-102363161D01*
X127828570Y-102363161D02*
X128057141Y-102363161D01*
X128057141Y-102363161D02*
X128133332Y-102325066D01*
X128133332Y-102325066D02*
X128171427Y-102286970D01*
X125504759Y-102363161D02*
X125504759Y-101829827D01*
X125504759Y-101982208D02*
X125466664Y-101906018D01*
X125466664Y-101906018D02*
X125428569Y-101867923D01*
X125428569Y-101867923D02*
X125352378Y-101829827D01*
X125352378Y-101829827D02*
X125276188Y-101829827D01*
X124704759Y-102325066D02*
X124780950Y-102363161D01*
X124780950Y-102363161D02*
X124933331Y-102363161D01*
X124933331Y-102363161D02*
X125009521Y-102325066D01*
X125009521Y-102325066D02*
X125047617Y-102248875D01*
X125047617Y-102248875D02*
X125047617Y-101944113D01*
X125047617Y-101944113D02*
X125009521Y-101867923D01*
X125009521Y-101867923D02*
X124933331Y-101829827D01*
X124933331Y-101829827D02*
X124780950Y-101829827D01*
X124780950Y-101829827D02*
X124704759Y-101867923D01*
X124704759Y-101867923D02*
X124666664Y-101944113D01*
X124666664Y-101944113D02*
X124666664Y-102020304D01*
X124666664Y-102020304D02*
X125047617Y-102096494D01*
X124399998Y-101829827D02*
X124209522Y-102363161D01*
X124209522Y-102363161D02*
X124019045Y-101829827D01*
X123142855Y-102134589D02*
X122761902Y-102134589D01*
X123219045Y-102363161D02*
X122952378Y-101563161D01*
X122952378Y-101563161D02*
X122685712Y-102363161D01*
X138095238Y-131563161D02*
X137600000Y-131563161D01*
X137600000Y-131563161D02*
X137866666Y-131867923D01*
X137866666Y-131867923D02*
X137752381Y-131867923D01*
X137752381Y-131867923D02*
X137676190Y-131906018D01*
X137676190Y-131906018D02*
X137638095Y-131944113D01*
X137638095Y-131944113D02*
X137600000Y-132020304D01*
X137600000Y-132020304D02*
X137600000Y-132210780D01*
X137600000Y-132210780D02*
X137638095Y-132286970D01*
X137638095Y-132286970D02*
X137676190Y-132325066D01*
X137676190Y-132325066D02*
X137752381Y-132363161D01*
X137752381Y-132363161D02*
X137980952Y-132363161D01*
X137980952Y-132363161D02*
X138057143Y-132325066D01*
X138057143Y-132325066D02*
X138095238Y-132286970D01*
X137371428Y-131563161D02*
X137104761Y-132363161D01*
X137104761Y-132363161D02*
X136838095Y-131563161D01*
X136647619Y-131563161D02*
X136152381Y-131563161D01*
X136152381Y-131563161D02*
X136419047Y-131867923D01*
X136419047Y-131867923D02*
X136304762Y-131867923D01*
X136304762Y-131867923D02*
X136228571Y-131906018D01*
X136228571Y-131906018D02*
X136190476Y-131944113D01*
X136190476Y-131944113D02*
X136152381Y-132020304D01*
X136152381Y-132020304D02*
X136152381Y-132210780D01*
X136152381Y-132210780D02*
X136190476Y-132286970D01*
X136190476Y-132286970D02*
X136228571Y-132325066D01*
X136228571Y-132325066D02*
X136304762Y-132363161D01*
X136304762Y-132363161D02*
X136533333Y-132363161D01*
X136533333Y-132363161D02*
X136609524Y-132325066D01*
X136609524Y-132325066D02*
X136647619Y-132286970D01*
X134780952Y-131601256D02*
X134857142Y-131563161D01*
X134857142Y-131563161D02*
X134971428Y-131563161D01*
X134971428Y-131563161D02*
X135085714Y-131601256D01*
X135085714Y-131601256D02*
X135161904Y-131677446D01*
X135161904Y-131677446D02*
X135199999Y-131753637D01*
X135199999Y-131753637D02*
X135238095Y-131906018D01*
X135238095Y-131906018D02*
X135238095Y-132020304D01*
X135238095Y-132020304D02*
X135199999Y-132172685D01*
X135199999Y-132172685D02*
X135161904Y-132248875D01*
X135161904Y-132248875D02*
X135085714Y-132325066D01*
X135085714Y-132325066D02*
X134971428Y-132363161D01*
X134971428Y-132363161D02*
X134895237Y-132363161D01*
X134895237Y-132363161D02*
X134780952Y-132325066D01*
X134780952Y-132325066D02*
X134742856Y-132286970D01*
X134742856Y-132286970D02*
X134742856Y-132020304D01*
X134742856Y-132020304D02*
X134895237Y-132020304D01*
X134399999Y-132363161D02*
X134399999Y-131563161D01*
X134399999Y-131563161D02*
X133942856Y-132363161D01*
X133942856Y-132363161D02*
X133942856Y-131563161D01*
X133561904Y-132363161D02*
X133561904Y-131563161D01*
X133561904Y-131563161D02*
X133371428Y-131563161D01*
X133371428Y-131563161D02*
X133257142Y-131601256D01*
X133257142Y-131601256D02*
X133180952Y-131677446D01*
X133180952Y-131677446D02*
X133142857Y-131753637D01*
X133142857Y-131753637D02*
X133104761Y-131906018D01*
X133104761Y-131906018D02*
X133104761Y-132020304D01*
X133104761Y-132020304D02*
X133142857Y-132172685D01*
X133142857Y-132172685D02*
X133180952Y-132248875D01*
X133180952Y-132248875D02*
X133257142Y-132325066D01*
X133257142Y-132325066D02*
X133371428Y-132363161D01*
X133371428Y-132363161D02*
X133561904Y-132363161D01*
X132190476Y-132134589D02*
X131809523Y-132134589D01*
X132266666Y-132363161D02*
X131999999Y-131563161D01*
X131999999Y-131563161D02*
X131733333Y-132363161D01*
X131314285Y-131563161D02*
X131161904Y-131563161D01*
X131161904Y-131563161D02*
X131085714Y-131601256D01*
X131085714Y-131601256D02*
X131009523Y-131677446D01*
X131009523Y-131677446D02*
X130971428Y-131829827D01*
X130971428Y-131829827D02*
X130971428Y-132096494D01*
X130971428Y-132096494D02*
X131009523Y-132248875D01*
X131009523Y-132248875D02*
X131085714Y-132325066D01*
X131085714Y-132325066D02*
X131161904Y-132363161D01*
X131161904Y-132363161D02*
X131314285Y-132363161D01*
X131314285Y-132363161D02*
X131390476Y-132325066D01*
X131390476Y-132325066D02*
X131466666Y-132248875D01*
X131466666Y-132248875D02*
X131504762Y-132096494D01*
X131504762Y-132096494D02*
X131504762Y-131829827D01*
X131504762Y-131829827D02*
X131466666Y-131677446D01*
X131466666Y-131677446D02*
X131390476Y-131601256D01*
X131390476Y-131601256D02*
X131314285Y-131563161D01*
X130019047Y-132363161D02*
X130019047Y-131563161D01*
X130019047Y-131563161D02*
X129828571Y-131563161D01*
X129828571Y-131563161D02*
X129714285Y-131601256D01*
X129714285Y-131601256D02*
X129638095Y-131677446D01*
X129638095Y-131677446D02*
X129600000Y-131753637D01*
X129600000Y-131753637D02*
X129561904Y-131906018D01*
X129561904Y-131906018D02*
X129561904Y-132020304D01*
X129561904Y-132020304D02*
X129600000Y-132172685D01*
X129600000Y-132172685D02*
X129638095Y-132248875D01*
X129638095Y-132248875D02*
X129714285Y-132325066D01*
X129714285Y-132325066D02*
X129828571Y-132363161D01*
X129828571Y-132363161D02*
X130019047Y-132363161D01*
X129219047Y-132363161D02*
X129219047Y-131563161D01*
X128838095Y-132363161D02*
X128838095Y-131563161D01*
X128838095Y-131867923D02*
X128761905Y-131829827D01*
X128761905Y-131829827D02*
X128609524Y-131829827D01*
X128609524Y-131829827D02*
X128533333Y-131867923D01*
X128533333Y-131867923D02*
X128495238Y-131906018D01*
X128495238Y-131906018D02*
X128457143Y-131982208D01*
X128457143Y-131982208D02*
X128457143Y-132210780D01*
X128457143Y-132210780D02*
X128495238Y-132286970D01*
X128495238Y-132286970D02*
X128533333Y-132325066D01*
X128533333Y-132325066D02*
X128609524Y-132363161D01*
X128609524Y-132363161D02*
X128761905Y-132363161D01*
X128761905Y-132363161D02*
X128838095Y-132325066D01*
X127504761Y-132363161D02*
X127504761Y-131563161D01*
X127504761Y-131563161D02*
X127314285Y-131563161D01*
X127314285Y-131563161D02*
X127199999Y-131601256D01*
X127199999Y-131601256D02*
X127123809Y-131677446D01*
X127123809Y-131677446D02*
X127085714Y-131753637D01*
X127085714Y-131753637D02*
X127047618Y-131906018D01*
X127047618Y-131906018D02*
X127047618Y-132020304D01*
X127047618Y-132020304D02*
X127085714Y-132172685D01*
X127085714Y-132172685D02*
X127123809Y-132248875D01*
X127123809Y-132248875D02*
X127199999Y-132325066D01*
X127199999Y-132325066D02*
X127314285Y-132363161D01*
X127314285Y-132363161D02*
X127504761Y-132363161D01*
X126704761Y-132363161D02*
X126704761Y-131563161D01*
X125980952Y-132363161D02*
X125980952Y-131944113D01*
X125980952Y-131944113D02*
X126019047Y-131867923D01*
X126019047Y-131867923D02*
X126095238Y-131829827D01*
X126095238Y-131829827D02*
X126247619Y-131829827D01*
X126247619Y-131829827D02*
X126323809Y-131867923D01*
X125980952Y-132325066D02*
X126057143Y-132363161D01*
X126057143Y-132363161D02*
X126247619Y-132363161D01*
X126247619Y-132363161D02*
X126323809Y-132325066D01*
X126323809Y-132325066D02*
X126361905Y-132248875D01*
X126361905Y-132248875D02*
X126361905Y-132172685D01*
X126361905Y-132172685D02*
X126323809Y-132096494D01*
X126323809Y-132096494D02*
X126247619Y-132058399D01*
X126247619Y-132058399D02*
X126057143Y-132058399D01*
X126057143Y-132058399D02*
X125980952Y-132020304D01*
%TO.C,R7*%
D12*
X144227064Y-111765000D02*
X143772936Y-111765000D01*
X144227064Y-113235000D02*
X143772936Y-113235000D01*
%TO.C,R15*%
X134272936Y-121265000D02*
X134727064Y-121265000D01*
X134272936Y-122735000D02*
X134727064Y-122735000D01*
%TO.C,U2*%
X131940000Y-114440000D02*
X131940000Y-114535000D01*
X131940000Y-119465000D02*
X131940000Y-119560000D01*
X131940000Y-119560000D02*
X136060000Y-119560000D01*
X136060000Y-114440000D02*
X131940000Y-114440000D01*
X136060000Y-114535000D02*
X136060000Y-114440000D01*
X136060000Y-119560000D02*
X136060000Y-119465000D01*
X136600000Y-114530000D02*
X136840000Y-114200000D01*
X136360000Y-114200000D01*
X136600000Y-114530000D01*
G36*
X136600000Y-114530000D02*
G01*
X136360000Y-114200000D01*
X136840000Y-114200000D01*
X136600000Y-114530000D01*
G37*
%TO.C,R4*%
X123772936Y-120265000D02*
X124227064Y-120265000D01*
X123772936Y-121735000D02*
X124227064Y-121735000D01*
%TO.C,R11*%
X125227064Y-108265000D02*
X124772936Y-108265000D01*
X125227064Y-109735000D02*
X124772936Y-109735000D01*
%TO.C,R5*%
X140227064Y-124265000D02*
X139772936Y-124265000D01*
X140227064Y-125735000D02*
X139772936Y-125735000D01*
%TO.C,R2*%
X140227064Y-121265000D02*
X139772936Y-121265000D01*
X140227064Y-122735000D02*
X139772936Y-122735000D01*
%TO.C,R9*%
X133772936Y-103265000D02*
X134227064Y-103265000D01*
X133772936Y-104735000D02*
X134227064Y-104735000D01*
%TO.C,C3*%
X127238748Y-120265000D02*
X127761252Y-120265000D01*
X127238748Y-121735000D02*
X127761252Y-121735000D01*
%TO.C,R13*%
X128272936Y-111265000D02*
X128727064Y-111265000D01*
X128272936Y-112735000D02*
X128727064Y-112735000D01*
%TO.C,J1*%
X109640000Y-133110000D02*
X109640000Y-131860000D01*
X109940000Y-130200000D02*
X110550000Y-130200000D01*
X109940000Y-131500000D02*
X110550000Y-131500000D01*
X110550000Y-128700000D02*
X121450000Y-128700000D01*
X110550000Y-132200000D02*
X110550000Y-128700000D01*
X110890000Y-133110000D02*
X109640000Y-133110000D01*
X111400000Y-133010000D02*
X111400000Y-132810000D01*
X111700000Y-132810000D02*
X111700000Y-133010000D01*
X111700000Y-132910000D02*
X111400000Y-132910000D01*
X111700000Y-133010000D02*
X111400000Y-133010000D01*
X112500000Y-132200000D02*
X110550000Y-132200000D01*
X112500000Y-132810000D02*
X112500000Y-132200000D01*
X112900000Y-128700000D02*
X112900000Y-129200000D01*
X112900000Y-129200000D02*
X113100000Y-129200000D01*
X113000000Y-128700000D02*
X113000000Y-129200000D01*
X113100000Y-129200000D02*
X113100000Y-128700000D01*
X114900000Y-128700000D02*
X114900000Y-129200000D01*
X114900000Y-129200000D02*
X115100000Y-129200000D01*
X115000000Y-128700000D02*
X115000000Y-129200000D01*
X115100000Y-129200000D02*
X115100000Y-128700000D01*
X116900000Y-128700000D02*
X116900000Y-129200000D01*
X116900000Y-129200000D02*
X117100000Y-129200000D01*
X117000000Y-128700000D02*
X117000000Y-129200000D01*
X117100000Y-129200000D02*
X117100000Y-128700000D01*
X118900000Y-128700000D02*
X118900000Y-129200000D01*
X118900000Y-129200000D02*
X119100000Y-129200000D01*
X119000000Y-128700000D02*
X119000000Y-129200000D01*
X119100000Y-129200000D02*
X119100000Y-128700000D01*
X119500000Y-132200000D02*
X119500000Y-132810000D01*
X121450000Y-128700000D02*
X121450000Y-132200000D01*
X121450000Y-132200000D02*
X119500000Y-132200000D01*
X122060000Y-130200000D02*
X121450000Y-130200000D01*
X122060000Y-131500000D02*
X121450000Y-131500000D01*
X109940000Y-128090000D02*
X122060000Y-128090000D01*
X122060000Y-132810000D01*
X109940000Y-132810000D01*
X109940000Y-128090000D01*
%TO.C,D1*%
X136500000Y-103040000D02*
X139185000Y-103040000D01*
X139185000Y-103040000D02*
X139185000Y-104960000D01*
X139185000Y-104960000D02*
X136500000Y-104960000D01*
%TO.C,R1*%
X139772936Y-109265000D02*
X140227064Y-109265000D01*
X139772936Y-110735000D02*
X140227064Y-110735000D01*
%TO.C,R8*%
X144227064Y-109265000D02*
X143772936Y-109265000D01*
X144227064Y-110735000D02*
X143772936Y-110735000D01*
%TO.C,R6*%
X106765000Y-117227064D02*
X106765000Y-116772936D01*
X108235000Y-117227064D02*
X108235000Y-116772936D01*
%TO.C,C1*%
X110261252Y-109265000D02*
X109738748Y-109265000D01*
X110261252Y-110735000D02*
X109738748Y-110735000D01*
%TO.C,R12*%
X125227064Y-111265000D02*
X124772936Y-111265000D01*
X125227064Y-112735000D02*
X124772936Y-112735000D01*
%TO.C,R3*%
X140227064Y-111765000D02*
X139772936Y-111765000D01*
X140227064Y-113235000D02*
X139772936Y-113235000D01*
%TO.C,J2*%
X110620000Y-124120000D02*
X110620000Y-125500000D01*
X112000000Y-124120000D02*
X110620000Y-124120000D01*
X113270000Y-124120000D02*
X113270000Y-126880000D01*
X113270000Y-124120000D02*
X123540000Y-124120000D01*
X113270000Y-126880000D02*
X123540000Y-126880000D01*
X123540000Y-124120000D02*
X123540000Y-126880000D01*
%TO.C,C2*%
X132738748Y-110265000D02*
X133261252Y-110265000D01*
X132738748Y-111735000D02*
X133261252Y-111735000D01*
%TO.C,R14*%
X128727064Y-108265000D02*
X128272936Y-108265000D01*
X128727064Y-109735000D02*
X128272936Y-109735000D01*
%TD*%
M02*
