%TF.GenerationSoftware,KiCad,Pcbnew,10.0.4*%
%TF.CreationDate,2026-08-28T16:02:59-04:00*%
%TF.ProjectId,photomarker,70686f74-6f6d-4617-926b-65722e6b6963,rev?*%
%TF.SameCoordinates,Original*%
%TF.FileFunction,Drillmap*%
%TF.FilePolarity,Positive*%
%FSLAX45Y45*%
G04 Gerber Fmt 4.5, Leading zero omitted, Abs format (unit mm)*
G04 Created by KiCad (PCBNEW 10.0.4) date 2026-08-28 16:02:59*
%MOMM*%
%LPD*%
G01*
G04 APERTURE LIST*
%ADD10C,0.100000*%
%ADD11C,0.200000*%
G04 APERTURE END LIST*
D10*
X10000000Y-10000000D02*
X15000000Y-10000000D01*
X10000000Y-13400000D02*
X10000000Y-10000000D01*
X15000000Y-10000000D02*
X15000000Y-13400000D01*
X15000000Y-13400000D02*
X10000000Y-13400000D01*
D11*
X10255777Y-13716484D02*
X10255777Y-13516484D01*
X10255777Y-13516484D02*
X10303396Y-13516484D01*
X10303396Y-13516484D02*
X10331967Y-13526008D01*
X10331967Y-13526008D02*
X10351015Y-13545055D01*
X10351015Y-13545055D02*
X10360539Y-13564103D01*
X10360539Y-13564103D02*
X10370063Y-13602198D01*
X10370063Y-13602198D02*
X10370063Y-13630769D01*
X10370063Y-13630769D02*
X10360539Y-13668865D01*
X10360539Y-13668865D02*
X10351015Y-13687912D01*
X10351015Y-13687912D02*
X10331967Y-13706960D01*
X10331967Y-13706960D02*
X10303396Y-13716484D01*
X10303396Y-13716484D02*
X10255777Y-13716484D01*
X10455777Y-13716484D02*
X10455777Y-13583150D01*
X10455777Y-13621246D02*
X10465301Y-13602198D01*
X10465301Y-13602198D02*
X10474824Y-13592674D01*
X10474824Y-13592674D02*
X10493872Y-13583150D01*
X10493872Y-13583150D02*
X10512920Y-13583150D01*
X10579586Y-13716484D02*
X10579586Y-13583150D01*
X10579586Y-13516484D02*
X10570063Y-13526008D01*
X10570063Y-13526008D02*
X10579586Y-13535531D01*
X10579586Y-13535531D02*
X10589110Y-13526008D01*
X10589110Y-13526008D02*
X10579586Y-13516484D01*
X10579586Y-13516484D02*
X10579586Y-13535531D01*
X10703396Y-13716484D02*
X10684348Y-13706960D01*
X10684348Y-13706960D02*
X10674824Y-13687912D01*
X10674824Y-13687912D02*
X10674824Y-13516484D01*
X10808158Y-13716484D02*
X10789110Y-13706960D01*
X10789110Y-13706960D02*
X10779586Y-13687912D01*
X10779586Y-13687912D02*
X10779586Y-13516484D01*
X11036729Y-13716484D02*
X11036729Y-13516484D01*
X11036729Y-13516484D02*
X11103396Y-13659341D01*
X11103396Y-13659341D02*
X11170063Y-13516484D01*
X11170063Y-13516484D02*
X11170063Y-13716484D01*
X11351015Y-13716484D02*
X11351015Y-13611722D01*
X11351015Y-13611722D02*
X11341491Y-13592674D01*
X11341491Y-13592674D02*
X11322443Y-13583150D01*
X11322443Y-13583150D02*
X11284348Y-13583150D01*
X11284348Y-13583150D02*
X11265301Y-13592674D01*
X11351015Y-13706960D02*
X11331967Y-13716484D01*
X11331967Y-13716484D02*
X11284348Y-13716484D01*
X11284348Y-13716484D02*
X11265301Y-13706960D01*
X11265301Y-13706960D02*
X11255777Y-13687912D01*
X11255777Y-13687912D02*
X11255777Y-13668865D01*
X11255777Y-13668865D02*
X11265301Y-13649817D01*
X11265301Y-13649817D02*
X11284348Y-13640293D01*
X11284348Y-13640293D02*
X11331967Y-13640293D01*
X11331967Y-13640293D02*
X11351015Y-13630769D01*
X11446253Y-13583150D02*
X11446253Y-13783150D01*
X11446253Y-13592674D02*
X11465301Y-13583150D01*
X11465301Y-13583150D02*
X11503396Y-13583150D01*
X11503396Y-13583150D02*
X11522443Y-13592674D01*
X11522443Y-13592674D02*
X11531967Y-13602198D01*
X11531967Y-13602198D02*
X11541491Y-13621246D01*
X11541491Y-13621246D02*
X11541491Y-13678388D01*
X11541491Y-13678388D02*
X11531967Y-13697436D01*
X11531967Y-13697436D02*
X11522443Y-13706960D01*
X11522443Y-13706960D02*
X11503396Y-13716484D01*
X11503396Y-13716484D02*
X11465301Y-13716484D01*
X11465301Y-13716484D02*
X11446253Y-13706960D01*
X11627205Y-13697436D02*
X11636729Y-13706960D01*
X11636729Y-13706960D02*
X11627205Y-13716484D01*
X11627205Y-13716484D02*
X11617682Y-13706960D01*
X11617682Y-13706960D02*
X11627205Y-13697436D01*
X11627205Y-13697436D02*
X11627205Y-13716484D01*
X11627205Y-13592674D02*
X11636729Y-13602198D01*
X11636729Y-13602198D02*
X11627205Y-13611722D01*
X11627205Y-13611722D02*
X11617682Y-13602198D01*
X11617682Y-13602198D02*
X11627205Y-13592674D01*
X11627205Y-13592674D02*
X11627205Y-13611722D01*
M02*
