%TF.GenerationSoftware,KiCad,Pcbnew,10.0.4*%
%TF.CreationDate,2026-08-28T16:02:58-04:00*%
%TF.ProjectId,photomarker,70686f74-6f6d-4617-926b-65722e6b6963,rev?*%
%TF.SameCoordinates,Original*%
%TF.FileFunction,Copper,L2,Bot*%
%TF.FilePolarity,Positive*%
%FSLAX46Y46*%
G04 Gerber Fmt 4.6, Leading zero omitted, Abs format (unit mm)*
G04 Created by KiCad (PCBNEW 10.0.4) date 2026-08-28 16:02:58*
%MOMM*%
%LPD*%
G01*
G04 APERTURE LIST*
G04 Aperture macros list*
%AMRoundRect*
0 Rectangle with rounded corners*
0 $1 Rounding radius*
0 $2 $3 $4 $5 $6 $7 $8 $9 X,Y pos of 4 corners*
0 Add a 4 corners polygon primitive as box body*
4,1,4,$2,$3,$4,$5,$6,$7,$8,$9,$2,$3,0*
0 Add four circle primitives for the rounded corners*
1,1,$1+$1,$2,$3*
1,1,$1+$1,$4,$5*
1,1,$1+$1,$6,$7*
1,1,$1+$1,$8,$9*
0 Add four rect primitives between the rounded corners*
20,1,$1+$1,$2,$3,$4,$5,0*
20,1,$1+$1,$4,$5,$6,$7,0*
20,1,$1+$1,$6,$7,$8,$9,0*
20,1,$1+$1,$8,$9,$2,$3,0*%
G04 Aperture macros list end*
%TA.AperFunction,ComponentPad*%
%ADD10C,1.500000*%
%TD*%
%TA.AperFunction,ComponentPad*%
%ADD11C,6.400000*%
%TD*%
%TA.AperFunction,ComponentPad*%
%ADD12RoundRect,0.250000X-0.550000X-0.550000X0.550000X-0.550000X0.550000X0.550000X-0.550000X0.550000X0*%
%TD*%
%TA.AperFunction,ComponentPad*%
%ADD13C,1.600000*%
%TD*%
%TA.AperFunction,SMDPad,CuDef*%
%ADD14RoundRect,0.250000X0.262500X0.450000X-0.262500X0.450000X-0.262500X-0.450000X0.262500X-0.450000X0*%
%TD*%
%TA.AperFunction,SMDPad,CuDef*%
%ADD15RoundRect,0.250000X-0.262500X-0.450000X0.262500X-0.450000X0.262500X0.450000X-0.262500X0.450000X0*%
%TD*%
%TA.AperFunction,SMDPad,CuDef*%
%ADD16RoundRect,0.150000X0.825000X0.150000X-0.825000X0.150000X-0.825000X-0.150000X0.825000X-0.150000X0*%
%TD*%
%TA.AperFunction,SMDPad,CuDef*%
%ADD17RoundRect,0.250000X-0.250000X-0.475000X0.250000X-0.475000X0.250000X0.475000X-0.250000X0.475000X0*%
%TD*%
%TA.AperFunction,ComponentPad*%
%ADD18RoundRect,0.250000X-0.350000X-0.625000X0.350000X-0.625000X0.350000X0.625000X-0.350000X0.625000X0*%
%TD*%
%TA.AperFunction,ComponentPad*%
%ADD19O,1.200000X1.750000*%
%TD*%
%TA.AperFunction,SMDPad,CuDef*%
%ADD20RoundRect,0.243750X0.243750X0.456250X-0.243750X0.456250X-0.243750X-0.456250X0.243750X-0.456250X0*%
%TD*%
%TA.AperFunction,SMDPad,CuDef*%
%ADD21RoundRect,0.250000X0.450000X-0.262500X0.450000X0.262500X-0.450000X0.262500X-0.450000X-0.262500X0*%
%TD*%
%TA.AperFunction,SMDPad,CuDef*%
%ADD22RoundRect,0.250000X0.250000X0.475000X-0.250000X0.475000X-0.250000X-0.475000X0.250000X-0.475000X0*%
%TD*%
%TA.AperFunction,ComponentPad*%
%ADD23R,1.700000X1.700000*%
%TD*%
%TA.AperFunction,ComponentPad*%
%ADD24C,1.700000*%
%TD*%
%TA.AperFunction,ViaPad*%
%ADD25C,0.800000*%
%TD*%
%TA.AperFunction,Conductor*%
%ADD26C,0.400000*%
%TD*%
%TA.AperFunction,Conductor*%
%ADD27C,0.250000*%
%TD*%
G04 APERTURE END LIST*
D10*
%TO.P,TP4,1*%
%TO.N,CMPA_OUT*%
X146500000Y-120000000D03*
%TD*%
%TO.P,TP3,1*%
%TO.N,THRESH_A*%
X146500000Y-122500000D03*
%TD*%
D11*
%TO.P,H3,1*%
%TO.N,GND*%
X105000000Y-129000000D03*
%TD*%
%TO.P,H1,1*%
%TO.N,GND*%
X105000000Y-105000000D03*
%TD*%
D10*
%TO.P,TP2,1*%
%TO.N,FILT*%
X122500000Y-118500000D03*
%TD*%
%TO.P,TP5,1*%
%TO.N,GND*%
X121500000Y-111000000D03*
%TD*%
D11*
%TO.P,H4,1*%
%TO.N,GND*%
X145000000Y-129000000D03*
%TD*%
%TO.P,H2,1*%
%TO.N,GND*%
X145000000Y-105000000D03*
%TD*%
D10*
%TO.P,TP1,1*%
%TO.N,OPT_OUT*%
X121500000Y-114500000D03*
%TD*%
D12*
%TO.P,U1,1*%
%TO.N,+3V3*%
X110190000Y-113190000D03*
D13*
%TO.P,U1,2*%
%TO.N,OPT_INN*%
X110190000Y-115730000D03*
%TO.P,U1,3*%
%TO.N,GND*%
X110190000Y-118270000D03*
%TO.P,U1,4*%
%TO.N,OPT_OUT*%
X110190000Y-120810000D03*
%TO.P,U1,5*%
X117810000Y-120810000D03*
%TO.P,U1,6*%
%TO.N,N/C*%
X117810000Y-118270000D03*
%TO.P,U1,7*%
X117810000Y-115730000D03*
%TO.P,U1,8*%
%TO.N,GND*%
X117810000Y-113190000D03*
%TD*%
D14*
%TO.P,R7,1*%
%TO.N,+3V3*%
X144912500Y-112500000D03*
%TO.P,R7,2*%
%TO.N,CMPA_OUT*%
X143087500Y-112500000D03*
%TD*%
D15*
%TO.P,R15,1*%
%TO.N,CMPB_OUT*%
X133587500Y-122000000D03*
%TO.P,R15,2*%
%TO.N,DI2*%
X135412500Y-122000000D03*
%TD*%
D16*
%TO.P,U2,1*%
%TO.N,CMPA_OUT*%
X136475000Y-115095000D03*
%TO.P,U2,2*%
%TO.N,FILT*%
X136475000Y-116365000D03*
%TO.P,U2,3*%
%TO.N,THRESH_A*%
X136475000Y-117635000D03*
%TO.P,U2,4*%
%TO.N,GND*%
X136475000Y-118905000D03*
%TO.P,U2,5*%
%TO.N,THRESH_B*%
X131525000Y-118905000D03*
%TO.P,U2,6*%
%TO.N,FILT*%
X131525000Y-117635000D03*
%TO.P,U2,7*%
%TO.N,CMPB_OUT*%
X131525000Y-116365000D03*
%TO.P,U2,8*%
%TO.N,+3V3*%
X131525000Y-115095000D03*
%TD*%
D15*
%TO.P,R4,1*%
%TO.N,OPT_OUT*%
X123087500Y-121000000D03*
%TO.P,R4,2*%
%TO.N,FILT*%
X124912500Y-121000000D03*
%TD*%
D14*
%TO.P,R11,1*%
%TO.N,+3V3*%
X125912500Y-109000000D03*
%TO.P,R11,2*%
%TO.N,THRESH_B*%
X124087500Y-109000000D03*
%TD*%
%TO.P,R5,1*%
%TO.N,CMPA_OUT*%
X140912500Y-125000000D03*
%TO.P,R5,2*%
%TO.N,DI1*%
X139087500Y-125000000D03*
%TD*%
%TO.P,R2,1*%
%TO.N,THRESH_A*%
X140912500Y-122000000D03*
%TO.P,R2,2*%
%TO.N,GND*%
X139087500Y-122000000D03*
%TD*%
D15*
%TO.P,R9,1*%
%TO.N,+3V3*%
X133087500Y-104000000D03*
%TO.P,R9,2*%
%TO.N,LED_A*%
X134912500Y-104000000D03*
%TD*%
D17*
%TO.P,C3,1*%
%TO.N,FILT*%
X126550000Y-121000000D03*
%TO.P,C3,2*%
%TO.N,GND*%
X128450000Y-121000000D03*
%TD*%
D15*
%TO.P,R13,1*%
%TO.N,THRESH_B*%
X127587500Y-112000000D03*
%TO.P,R13,2*%
%TO.N,CMPB_OUT*%
X129412500Y-112000000D03*
%TD*%
D18*
%TO.P,J1,1*%
%TO.N,+3V3*%
X112000000Y-131000000D03*
D19*
%TO.P,J1,2*%
%TO.N,GND*%
X114000000Y-131000000D03*
%TO.P,J1,3*%
%TO.N,FILT*%
X116000000Y-131000000D03*
%TO.P,J1,4*%
%TO.N,DI2*%
X118000000Y-131000000D03*
%TO.P,J1,5*%
%TO.N,DI1*%
X120000000Y-131000000D03*
%TD*%
D20*
%TO.P,D1,1*%
%TO.N,CMPA_OUT*%
X138437500Y-104000000D03*
%TO.P,D1,2*%
%TO.N,LED_A*%
X136562500Y-104000000D03*
%TD*%
D15*
%TO.P,R1,1*%
%TO.N,+3V3*%
X139087500Y-110000000D03*
%TO.P,R1,2*%
%TO.N,THRESH_A*%
X140912500Y-110000000D03*
%TD*%
D14*
%TO.P,R8,1*%
%TO.N,+3V3*%
X144912500Y-110000000D03*
%TO.P,R8,2*%
%TO.N,THRESH_A*%
X143087500Y-110000000D03*
%TD*%
D21*
%TO.P,R6,1*%
%TO.N,OPT_OUT*%
X107500000Y-117912500D03*
%TO.P,R6,2*%
%TO.N,OPT_INN*%
X107500000Y-116087500D03*
%TD*%
D22*
%TO.P,C1,1*%
%TO.N,+3V3*%
X110950000Y-110000000D03*
%TO.P,C1,2*%
%TO.N,GND*%
X109050000Y-110000000D03*
%TD*%
D14*
%TO.P,R12,1*%
%TO.N,THRESH_B*%
X125912500Y-112000000D03*
%TO.P,R12,2*%
%TO.N,GND*%
X124087500Y-112000000D03*
%TD*%
%TO.P,R3,1*%
%TO.N,THRESH_A*%
X140912500Y-112500000D03*
%TO.P,R3,2*%
%TO.N,CMPA_OUT*%
X139087500Y-112500000D03*
%TD*%
D23*
%TO.P,J2,1*%
%TO.N,+3V3*%
X112000000Y-125500000D03*
D24*
%TO.P,J2,2*%
%TO.N,GND*%
X114540000Y-125500000D03*
%TO.P,J2,3*%
%TO.N,FILT*%
X117080000Y-125500000D03*
%TO.P,J2,4*%
%TO.N,DI2*%
X119620000Y-125500000D03*
%TO.P,J2,5*%
%TO.N,DI1*%
X122160000Y-125500000D03*
%TD*%
D17*
%TO.P,C2,1*%
%TO.N,+3V3*%
X132050000Y-111000000D03*
%TO.P,C2,2*%
%TO.N,GND*%
X133950000Y-111000000D03*
%TD*%
D14*
%TO.P,R14,1*%
%TO.N,+3V3*%
X129412500Y-109000000D03*
%TO.P,R14,2*%
%TO.N,CMPB_OUT*%
X127587500Y-109000000D03*
%TD*%
D25*
%TO.N,GND*%
X135600000Y-111500000D03*
%TO.N,FILT*%
X125800000Y-122000000D03*
%TO.N,THRESH_B*%
X131500000Y-122200000D03*
X127200000Y-114400000D03*
%TO.N,CMPA_OUT*%
X139088000Y-114300000D03*
X138438000Y-105600000D03*
X137800000Y-113600000D03*
X143088000Y-114300000D03*
X142800000Y-123900000D03*
%TO.N,CMPB_OUT*%
X129900000Y-116365000D03*
X133000000Y-119600000D03*
%TO.N,DI1*%
X137600000Y-126800000D03*
%TO.N,DI2*%
X136900000Y-123200000D03*
%TD*%
%TO.N,GND*%
D26*
X133949999Y-111000000D02*
X135600000Y-111500000D01*
X114000000Y-131000000D02*
X114539999Y-125500000D01*
%TO.N,+3V3*%
X139088000Y-107500000D02*
X141500000Y-108800000D01*
X132050000Y-107500000D02*
X132050000Y-111000000D01*
X132050000Y-111000000D02*
X132050000Y-113500000D01*
X110950000Y-110000000D02*
X110190000Y-113190000D01*
X110950000Y-110000000D02*
X110950000Y-107500000D01*
X133000000Y-107500000D02*
X139088000Y-107500000D01*
X144912000Y-108800000D02*
X144912000Y-110000000D01*
X129412000Y-107500000D02*
X129412000Y-109000000D01*
X110950000Y-107500000D02*
X133000000Y-107500000D01*
X133000000Y-107500000D02*
X133088000Y-104000000D01*
X132050000Y-113500000D02*
X131525000Y-115095000D01*
X139088000Y-107500000D02*
X139088000Y-110000000D01*
X112000000Y-131000000D02*
X112000000Y-125500000D01*
X141500000Y-108800000D02*
X144912000Y-108800000D01*
X144912000Y-110000000D02*
X144912000Y-112500000D01*
X125912000Y-107500000D02*
X125912000Y-109000000D01*
%TO.N,OPT_OUT*%
D27*
X121500000Y-114500000D02*
X120500000Y-115500000D01*
X120500000Y-119800000D02*
X123088000Y-121000000D01*
X107500000Y-120810000D02*
X110190000Y-120810000D01*
X107500000Y-117912000D02*
X107500000Y-120810000D01*
X117810000Y-120810000D02*
X123088000Y-121000000D01*
X120500000Y-115500000D02*
X120500000Y-119800000D01*
X110190000Y-120810000D02*
X117810000Y-120810000D01*
%TO.N,OPT_INN*%
X107500000Y-115730000D02*
X110190000Y-115730000D01*
X107500000Y-116088000D02*
X107500000Y-115730000D01*
%TO.N,FILT*%
X124912000Y-121000000D02*
X125800000Y-122000000D01*
X133199999Y-117635000D02*
X135000000Y-116365000D01*
X126550000Y-121000000D02*
X126550000Y-123600000D01*
X129300000Y-117635000D02*
X131525000Y-117635000D01*
X135000000Y-116365000D02*
X136475000Y-116365000D01*
X129300000Y-123600000D02*
X129300000Y-117635000D01*
X122500000Y-118500000D02*
X124912000Y-119600000D01*
X131525000Y-117635000D02*
X133199999Y-117635000D01*
X126550000Y-123600000D02*
X129300000Y-123600000D01*
X124912000Y-121000000D02*
X126550000Y-121000000D01*
X116000000Y-131000000D02*
X117080000Y-125500000D01*
X124912000Y-119600000D02*
X124912000Y-121000000D01*
%TO.N,THRESH_A*%
X140912000Y-110000000D02*
X140912000Y-122000000D01*
X143088000Y-111300000D02*
X140912000Y-111300000D01*
X143088000Y-110000000D02*
X143088000Y-111300000D01*
X146500000Y-122500000D02*
X142500000Y-122500000D01*
X140912000Y-117635000D02*
X136475000Y-117635000D01*
X142500000Y-122500000D02*
X140912000Y-122000000D01*
%TO.N,THRESH_B*%
X125912000Y-112000000D02*
X127588000Y-112000000D01*
X131500000Y-122200000D02*
X131525000Y-118905000D01*
X127588000Y-112000000D02*
X127200000Y-114400000D01*
X124088000Y-109000000D02*
X125912000Y-112000000D01*
%TO.N,CMPA_OUT*%
X140912000Y-125000000D02*
X142800000Y-123900000D01*
X139088000Y-114300000D02*
X139088000Y-112500000D01*
X136475000Y-115095000D02*
X139088000Y-112500000D01*
X137800000Y-113600000D02*
X139088000Y-112500000D01*
X138438000Y-104000000D02*
X138438000Y-105600000D01*
X143088000Y-112500000D02*
X143088000Y-114300000D01*
%TO.N,CMPB_OUT*%
X127588000Y-109000000D02*
X128400000Y-110400000D01*
X131525000Y-116365000D02*
X129900000Y-116365000D01*
X129412000Y-112000000D02*
X130199999Y-113200000D01*
X130199999Y-113200000D02*
X130199999Y-115800000D01*
X133000000Y-119600000D02*
X133588000Y-122000000D01*
X128400000Y-110400000D02*
X129412000Y-112000000D01*
X130199999Y-115800000D02*
X129900000Y-116365000D01*
%TO.N,DI1*%
X139088000Y-125000000D02*
X137600000Y-126800000D01*
X120000000Y-131000000D02*
X122160000Y-125500000D01*
%TO.N,DI2*%
X135412000Y-122000000D02*
X136900000Y-123200000D01*
X118000000Y-131000000D02*
X119620000Y-125500000D01*
%TO.N,LED_A*%
X134912000Y-104000000D02*
X136562000Y-104000000D01*
%TD*%
%TA.AperFunction,Conductor*%
%TO.N,GND*%
G36*
X132994938Y-108000531D02*
G01*
X133053291Y-108001998D01*
X133053871Y-108001858D01*
X133059810Y-108001166D01*
X133061990Y-108001603D01*
X133071273Y-108000500D01*
X138488500Y-108000500D01*
X138546691Y-108019407D01*
X138582655Y-108068907D01*
X138587500Y-108099500D01*
X138587500Y-108990045D01*
X138568593Y-109048236D01*
X138548320Y-109068928D01*
X138432082Y-109157074D01*
X138432075Y-109157081D01*
X138340640Y-109277656D01*
X138340637Y-109277660D01*
X138285123Y-109418434D01*
X138274500Y-109506893D01*
X138274500Y-110493106D01*
X138285123Y-110581565D01*
X138340637Y-110722339D01*
X138340638Y-110722341D01*
X138340639Y-110722342D01*
X138432078Y-110842922D01*
X138552658Y-110934361D01*
X138552659Y-110934361D01*
X138552660Y-110934362D01*
X138586498Y-110947706D01*
X138693436Y-110989877D01*
X138781898Y-111000500D01*
X138781900Y-111000500D01*
X139393100Y-111000500D01*
X139393102Y-111000500D01*
X139481564Y-110989877D01*
X139622342Y-110934361D01*
X139742922Y-110842922D01*
X139834361Y-110722342D01*
X139889877Y-110581564D01*
X139900500Y-110493102D01*
X139900500Y-109506898D01*
X139889877Y-109418436D01*
X139834361Y-109277658D01*
X139742922Y-109157078D01*
X139709955Y-109132078D01*
X139627680Y-109069686D01*
X139592738Y-109019460D01*
X139588500Y-108990803D01*
X139588500Y-108504143D01*
X139607407Y-108445952D01*
X139656907Y-108409988D01*
X139718093Y-108409988D01*
X139734463Y-108416992D01*
X140513665Y-108836960D01*
X140555918Y-108881211D01*
X140564091Y-108941848D01*
X140535062Y-108995709D01*
X140503013Y-109016204D01*
X140377661Y-109065637D01*
X140377656Y-109065640D01*
X140257081Y-109157075D01*
X140257075Y-109157081D01*
X140165640Y-109277656D01*
X140165637Y-109277660D01*
X140110123Y-109418434D01*
X140099500Y-109506893D01*
X140099500Y-110493106D01*
X140110123Y-110581565D01*
X140165637Y-110722339D01*
X140165638Y-110722341D01*
X140165639Y-110722342D01*
X140257078Y-110842922D01*
X140377658Y-110934361D01*
X140423819Y-110952564D01*
X140471015Y-110991499D01*
X140486500Y-111044661D01*
X140486500Y-111455338D01*
X140467593Y-111513529D01*
X140423819Y-111547435D01*
X140377660Y-111565637D01*
X140377656Y-111565640D01*
X140257081Y-111657075D01*
X140257075Y-111657081D01*
X140165640Y-111777656D01*
X140165637Y-111777660D01*
X140110123Y-111918434D01*
X140099500Y-112006893D01*
X140099500Y-112993106D01*
X140110123Y-113081565D01*
X140165637Y-113222339D01*
X140165638Y-113222341D01*
X140165639Y-113222342D01*
X140257078Y-113342922D01*
X140377658Y-113434361D01*
X140423819Y-113452564D01*
X140471015Y-113491499D01*
X140486500Y-113544661D01*
X140486500Y-117110500D01*
X140467593Y-117168691D01*
X140418093Y-117204655D01*
X140387500Y-117209500D01*
X137706557Y-117209500D01*
X137648366Y-117190593D01*
X137644772Y-117187854D01*
X137634617Y-117179743D01*
X137622150Y-117162850D01*
X137512882Y-117082207D01*
X137512209Y-117081971D01*
X137506428Y-117077354D01*
X137490582Y-117053308D01*
X137473832Y-117029888D01*
X137473846Y-117027913D01*
X137472760Y-117026264D01*
X137474074Y-116997499D01*
X137474290Y-116968704D01*
X137475464Y-116967087D01*
X137475553Y-116965143D01*
X137490208Y-116946794D01*
X137509425Y-116920345D01*
X137598759Y-116854413D01*
X137622150Y-116837150D01*
X137702793Y-116727882D01*
X137747646Y-116599699D01*
X137750499Y-116569273D01*
X137750500Y-116569273D01*
X137750500Y-116160727D01*
X137750499Y-116160725D01*
X137750494Y-116160670D01*
X137747646Y-116130301D01*
X137702793Y-116002118D01*
X137687359Y-115981206D01*
X137622154Y-115892855D01*
X137622152Y-115892853D01*
X137622150Y-115892850D01*
X137622146Y-115892847D01*
X137622144Y-115892845D01*
X137509425Y-115809655D01*
X137473832Y-115759888D01*
X137474290Y-115698704D01*
X137509425Y-115650345D01*
X137585101Y-115594493D01*
X137622150Y-115567150D01*
X137702793Y-115457882D01*
X137747646Y-115329699D01*
X137750499Y-115299273D01*
X137750500Y-115299273D01*
X137750500Y-114890727D01*
X137750499Y-114890725D01*
X137747646Y-114860305D01*
X137747646Y-114860301D01*
X137702793Y-114732118D01*
X137702566Y-114731811D01*
X137644205Y-114652733D01*
X137624863Y-114594685D01*
X137643334Y-114536355D01*
X137654090Y-114523709D01*
X137860143Y-114319076D01*
X137910586Y-114292226D01*
X138004328Y-114273580D01*
X138131811Y-114220775D01*
X138233499Y-114152828D01*
X138292386Y-114136220D01*
X138349789Y-114157397D01*
X138383783Y-114208270D01*
X138387500Y-114235144D01*
X138387500Y-114368995D01*
X138405446Y-114459216D01*
X138412842Y-114496397D01*
X138414420Y-114504327D01*
X138414420Y-114504329D01*
X138467222Y-114631806D01*
X138467228Y-114631817D01*
X138543885Y-114746541D01*
X138641458Y-114844114D01*
X138756182Y-114920771D01*
X138756193Y-114920777D01*
X138803283Y-114940282D01*
X138883672Y-114973580D01*
X139019007Y-115000500D01*
X139019008Y-115000500D01*
X139156992Y-115000500D01*
X139156993Y-115000500D01*
X139292328Y-114973580D01*
X139419811Y-114920775D01*
X139534542Y-114844114D01*
X139632114Y-114746542D01*
X139708775Y-114631811D01*
X139761580Y-114504328D01*
X139788500Y-114368993D01*
X139788500Y-114231007D01*
X139761580Y-114095672D01*
X139727064Y-114012342D01*
X139708777Y-113968193D01*
X139708771Y-113968182D01*
X139632114Y-113853458D01*
X139542496Y-113763840D01*
X139538869Y-113756722D01*
X139532407Y-113752027D01*
X139525243Y-113729978D01*
X139514719Y-113709323D01*
X139513500Y-113693836D01*
X139513500Y-113544661D01*
X139532407Y-113486470D01*
X139576179Y-113452564D01*
X139622342Y-113434361D01*
X139742922Y-113342922D01*
X139834361Y-113222342D01*
X139889877Y-113081564D01*
X139900500Y-112993102D01*
X139900500Y-112006898D01*
X139889877Y-111918436D01*
X139834361Y-111777658D01*
X139742922Y-111657078D01*
X139622342Y-111565639D01*
X139622341Y-111565638D01*
X139622339Y-111565637D01*
X139481565Y-111510123D01*
X139393106Y-111499500D01*
X139393102Y-111499500D01*
X138781898Y-111499500D01*
X138781893Y-111499500D01*
X138693434Y-111510123D01*
X138552660Y-111565637D01*
X138552656Y-111565640D01*
X138432081Y-111657075D01*
X138432075Y-111657081D01*
X138340640Y-111777656D01*
X138340637Y-111777660D01*
X138285123Y-111918434D01*
X138274500Y-112006893D01*
X138274500Y-112589560D01*
X138255593Y-112647751D01*
X138239793Y-112664842D01*
X137983401Y-112883810D01*
X137926873Y-112907223D01*
X137899795Y-112905626D01*
X137868998Y-112899500D01*
X137868993Y-112899500D01*
X137731007Y-112899500D01*
X137731004Y-112899500D01*
X137595672Y-112926420D01*
X137595670Y-112926420D01*
X137468193Y-112979222D01*
X137468182Y-112979228D01*
X137353458Y-113055885D01*
X137255885Y-113153458D01*
X137179228Y-113268182D01*
X137179222Y-113268193D01*
X137126420Y-113395670D01*
X137126420Y-113395672D01*
X137099500Y-113531004D01*
X137099500Y-113668995D01*
X137106768Y-113705532D01*
X137122197Y-113783100D01*
X137123372Y-113789004D01*
X137116180Y-113849765D01*
X137096035Y-113878563D01*
X136504781Y-114465745D01*
X136450169Y-114493334D01*
X136435020Y-114494500D01*
X135595725Y-114494500D01*
X135565305Y-114497353D01*
X135565296Y-114497355D01*
X135437116Y-114542207D01*
X135327855Y-114622845D01*
X135327845Y-114622855D01*
X135247207Y-114732116D01*
X135202355Y-114860296D01*
X135202353Y-114860305D01*
X135199500Y-114890725D01*
X135199500Y-115299274D01*
X135202353Y-115329694D01*
X135202355Y-115329703D01*
X135247207Y-115457883D01*
X135327845Y-115567144D01*
X135327847Y-115567146D01*
X135327850Y-115567150D01*
X135327853Y-115567152D01*
X135327855Y-115567154D01*
X135440574Y-115650345D01*
X135456912Y-115673190D01*
X135474446Y-115695142D01*
X135474571Y-115697881D01*
X135476167Y-115700113D01*
X135475956Y-115728202D01*
X135477239Y-115756264D01*
X135475730Y-115758461D01*
X135475709Y-115761296D01*
X135443571Y-115807354D01*
X135437789Y-115811972D01*
X135437118Y-115812207D01*
X135327850Y-115892850D01*
X135315382Y-115909743D01*
X135305228Y-115917854D01*
X135288159Y-115924274D01*
X135273329Y-115934881D01*
X135250646Y-115938386D01*
X135247961Y-115939397D01*
X135246575Y-115939015D01*
X135243443Y-115939500D01*
X135044946Y-115939500D01*
X135028104Y-115938057D01*
X135023952Y-115937340D01*
X135017186Y-115936172D01*
X135017185Y-115936172D01*
X134992881Y-115938386D01*
X134985131Y-115939092D01*
X134981783Y-115939397D01*
X134980652Y-115939500D01*
X134943982Y-115939500D01*
X134925095Y-115944560D01*
X134916645Y-115945330D01*
X134916643Y-115945329D01*
X134905611Y-115946335D01*
X134905610Y-115946335D01*
X134875410Y-115957449D01*
X134875411Y-115957450D01*
X134871182Y-115959006D01*
X134835763Y-115968497D01*
X134818825Y-115978275D01*
X134810862Y-115981206D01*
X134810860Y-115981206D01*
X134800472Y-115985030D01*
X134774168Y-116003587D01*
X134774167Y-116003586D01*
X134770482Y-116006185D01*
X134738737Y-116024515D01*
X134724910Y-116038340D01*
X134717975Y-116043234D01*
X133090666Y-117191392D01*
X133033592Y-117209500D01*
X132756557Y-117209500D01*
X132698366Y-117190593D01*
X132676902Y-117169289D01*
X132674207Y-117165637D01*
X132672150Y-117162850D01*
X132672146Y-117162847D01*
X132672144Y-117162845D01*
X132559425Y-117079655D01*
X132523832Y-117029888D01*
X132524290Y-116968704D01*
X132559425Y-116920345D01*
X132648759Y-116854413D01*
X132672150Y-116837150D01*
X132752793Y-116727882D01*
X132797646Y-116599699D01*
X132800499Y-116569273D01*
X132800500Y-116569273D01*
X132800500Y-116160727D01*
X132800499Y-116160725D01*
X132800494Y-116160670D01*
X132797646Y-116130301D01*
X132752793Y-116002118D01*
X132737359Y-115981206D01*
X132672154Y-115892855D01*
X132672152Y-115892853D01*
X132672150Y-115892850D01*
X132672146Y-115892847D01*
X132672144Y-115892845D01*
X132559425Y-115809655D01*
X132523832Y-115759888D01*
X132524290Y-115698704D01*
X132559425Y-115650345D01*
X132635101Y-115594493D01*
X132672150Y-115567150D01*
X132752793Y-115457882D01*
X132797646Y-115329699D01*
X132800499Y-115299273D01*
X132800500Y-115299273D01*
X132800500Y-114890727D01*
X132800499Y-114890725D01*
X132797646Y-114860305D01*
X132797646Y-114860301D01*
X132752793Y-114732118D01*
X132752566Y-114731811D01*
X132672154Y-114622855D01*
X132672152Y-114622853D01*
X132672150Y-114622850D01*
X132672146Y-114622847D01*
X132672144Y-114622845D01*
X132562883Y-114542207D01*
X132434703Y-114497355D01*
X132434694Y-114497353D01*
X132404274Y-114494500D01*
X132404266Y-114494500D01*
X132386383Y-114494500D01*
X132328192Y-114475593D01*
X132292228Y-114426093D01*
X132292228Y-114364907D01*
X132292346Y-114364548D01*
X132338489Y-114224361D01*
X132509263Y-113705532D01*
X132516392Y-113693186D01*
X132529806Y-113643120D01*
X132546010Y-113593894D01*
X132546810Y-113579661D01*
X132550500Y-113565892D01*
X132550500Y-113514070D01*
X132553411Y-113462318D01*
X132552585Y-113458356D01*
X132550500Y-113438144D01*
X132550500Y-112025096D01*
X132569407Y-111966905D01*
X132589681Y-111946212D01*
X132692922Y-111867922D01*
X132784361Y-111747342D01*
X132839877Y-111606564D01*
X132850500Y-111518102D01*
X132850500Y-110481898D01*
X132839877Y-110393436D01*
X132784361Y-110252658D01*
X132692922Y-110132078D01*
X132692917Y-110132074D01*
X132589680Y-110053786D01*
X132554738Y-110003560D01*
X132550500Y-109974903D01*
X132550500Y-108099500D01*
X132569407Y-108041309D01*
X132618907Y-108005345D01*
X132649500Y-108000500D01*
X132934108Y-108000500D01*
X132992450Y-108000500D01*
X132994938Y-108000531D01*
G37*
%TD.AperFunction*%
%TA.AperFunction,Conductor*%
G36*
X149459191Y-100518907D02*
G01*
X149495155Y-100568407D01*
X149500000Y-100599000D01*
X149500000Y-133401000D01*
X149481093Y-133459191D01*
X149431593Y-133495155D01*
X149401000Y-133500000D01*
X100599000Y-133500000D01*
X100540809Y-133481093D01*
X100504845Y-133431593D01*
X100500000Y-133401000D01*
X100500000Y-124605130D01*
X110849500Y-124605130D01*
X110849500Y-126394860D01*
X110849501Y-126394863D01*
X110852414Y-126419990D01*
X110873693Y-126468182D01*
X110897794Y-126522765D01*
X110977235Y-126602206D01*
X111080009Y-126647585D01*
X111105135Y-126650500D01*
X111400500Y-126650499D01*
X111458690Y-126669406D01*
X111494654Y-126718906D01*
X111499500Y-126749499D01*
X111499500Y-129775211D01*
X111480593Y-129833402D01*
X111436819Y-129867308D01*
X111377659Y-129890637D01*
X111257081Y-129982075D01*
X111257075Y-129982081D01*
X111165640Y-130102656D01*
X111165637Y-130102660D01*
X111110123Y-130243434D01*
X111099500Y-130331893D01*
X111099500Y-131668106D01*
X111110123Y-131756565D01*
X111165637Y-131897339D01*
X111165638Y-131897341D01*
X111165639Y-131897342D01*
X111257078Y-132017922D01*
X111377658Y-132109361D01*
X111377659Y-132109361D01*
X111377660Y-132109362D01*
X111448047Y-132137119D01*
X111518436Y-132164877D01*
X111606898Y-132175500D01*
X111606900Y-132175500D01*
X112393100Y-132175500D01*
X112393102Y-132175500D01*
X112481564Y-132164877D01*
X112622342Y-132109361D01*
X112742922Y-132017922D01*
X112834361Y-131897342D01*
X112889877Y-131756564D01*
X112900500Y-131668102D01*
X112900500Y-130636306D01*
X115099500Y-130636306D01*
X115099500Y-131363693D01*
X115134106Y-131537665D01*
X115134106Y-131537667D01*
X115201985Y-131701544D01*
X115201985Y-131701545D01*
X115238748Y-131756564D01*
X115300536Y-131849035D01*
X115425965Y-131974464D01*
X115573453Y-132073013D01*
X115737334Y-132140894D01*
X115911309Y-132175500D01*
X115911310Y-132175500D01*
X116088690Y-132175500D01*
X116088691Y-132175500D01*
X116262666Y-132140894D01*
X116426547Y-132073013D01*
X116574035Y-131974464D01*
X116699464Y-131849035D01*
X116798013Y-131701547D01*
X116865894Y-131537666D01*
X116900500Y-131363691D01*
X116900500Y-130636309D01*
X116900499Y-130636306D01*
X117099500Y-130636306D01*
X117099500Y-131363693D01*
X117134106Y-131537665D01*
X117134106Y-131537667D01*
X117201985Y-131701544D01*
X117201985Y-131701545D01*
X117238748Y-131756564D01*
X117300536Y-131849035D01*
X117425965Y-131974464D01*
X117573453Y-132073013D01*
X117737334Y-132140894D01*
X117911309Y-132175500D01*
X117911310Y-132175500D01*
X118088690Y-132175500D01*
X118088691Y-132175500D01*
X118262666Y-132140894D01*
X118426547Y-132073013D01*
X118574035Y-131974464D01*
X118699464Y-131849035D01*
X118798013Y-131701547D01*
X118865894Y-131537666D01*
X118900500Y-131363691D01*
X118900500Y-130636309D01*
X118900499Y-130636306D01*
X119099500Y-130636306D01*
X119099500Y-131363693D01*
X119134106Y-131537665D01*
X119134106Y-131537667D01*
X119201985Y-131701544D01*
X119201985Y-131701545D01*
X119238748Y-131756564D01*
X119300536Y-131849035D01*
X119425965Y-131974464D01*
X119573453Y-132073013D01*
X119737334Y-132140894D01*
X119911309Y-132175500D01*
X119911310Y-132175500D01*
X120088690Y-132175500D01*
X120088691Y-132175500D01*
X120262666Y-132140894D01*
X120426547Y-132073013D01*
X120574035Y-131974464D01*
X120699464Y-131849035D01*
X120798013Y-131701547D01*
X120865894Y-131537666D01*
X120900500Y-131363691D01*
X120900500Y-130636309D01*
X120865894Y-130462334D01*
X120798013Y-130298454D01*
X120798013Y-130298453D01*
X120785597Y-130279872D01*
X120768987Y-130220985D01*
X120775761Y-130188686D01*
X122133687Y-126731004D01*
X136899500Y-126731004D01*
X136899500Y-126868995D01*
X136926420Y-127004327D01*
X136926420Y-127004329D01*
X136979222Y-127131806D01*
X136979228Y-127131817D01*
X137055885Y-127246541D01*
X137153458Y-127344114D01*
X137268182Y-127420771D01*
X137268193Y-127420777D01*
X137315283Y-127440282D01*
X137395672Y-127473580D01*
X137531007Y-127500500D01*
X137531008Y-127500500D01*
X137668992Y-127500500D01*
X137668993Y-127500500D01*
X137804328Y-127473580D01*
X137931811Y-127420775D01*
X138046542Y-127344114D01*
X138144114Y-127246542D01*
X138220775Y-127131811D01*
X138273580Y-127004328D01*
X138300500Y-126868993D01*
X138300500Y-126731007D01*
X138291949Y-126688020D01*
X138299140Y-126627260D01*
X138312742Y-126605630D01*
X138783289Y-126036421D01*
X138834937Y-126003619D01*
X138859592Y-126000500D01*
X139393100Y-126000500D01*
X139393102Y-126000500D01*
X139481564Y-125989877D01*
X139622342Y-125934361D01*
X139742922Y-125842922D01*
X139834361Y-125722342D01*
X139889877Y-125581564D01*
X139900500Y-125493102D01*
X139900500Y-124506898D01*
X139900499Y-124506893D01*
X140099500Y-124506893D01*
X140099500Y-125493106D01*
X140110123Y-125581565D01*
X140165637Y-125722339D01*
X140165638Y-125722341D01*
X140165639Y-125722342D01*
X140257078Y-125842922D01*
X140377658Y-125934361D01*
X140377659Y-125934361D01*
X140377660Y-125934362D01*
X140448047Y-125962119D01*
X140518436Y-125989877D01*
X140606898Y-126000500D01*
X140606900Y-126000500D01*
X141218100Y-126000500D01*
X141218102Y-126000500D01*
X141306564Y-125989877D01*
X141447342Y-125934361D01*
X141567922Y-125842922D01*
X141659361Y-125722342D01*
X141714877Y-125581564D01*
X141725500Y-125493102D01*
X141725500Y-125075380D01*
X141744407Y-125017189D01*
X141774659Y-124989842D01*
X142490999Y-124572482D01*
X142550795Y-124559525D01*
X142578721Y-124566558D01*
X142595672Y-124573580D01*
X142731007Y-124600500D01*
X142731008Y-124600500D01*
X142868992Y-124600500D01*
X142868993Y-124600500D01*
X143004328Y-124573580D01*
X143131811Y-124520775D01*
X143246542Y-124444114D01*
X143344114Y-124346542D01*
X143420775Y-124231811D01*
X143473580Y-124104328D01*
X143500500Y-123968993D01*
X143500500Y-123831007D01*
X143473580Y-123695672D01*
X143420775Y-123568189D01*
X143420774Y-123568187D01*
X143420771Y-123568182D01*
X143344114Y-123453458D01*
X143246541Y-123355885D01*
X143131817Y-123279228D01*
X143131806Y-123279222D01*
X143004328Y-123226420D01*
X142868995Y-123199500D01*
X142868993Y-123199500D01*
X142731007Y-123199500D01*
X142731004Y-123199500D01*
X142595672Y-123226420D01*
X142595670Y-123226420D01*
X142468193Y-123279222D01*
X142468182Y-123279228D01*
X142353458Y-123355885D01*
X142255885Y-123453458D01*
X142179228Y-123568182D01*
X142179222Y-123568193D01*
X142126420Y-123695671D01*
X142111653Y-123769907D01*
X142081755Y-123823291D01*
X142064393Y-123836132D01*
X141601339Y-124105919D01*
X141541541Y-124118877D01*
X141491682Y-124099263D01*
X141447343Y-124065640D01*
X141447339Y-124065637D01*
X141306565Y-124010123D01*
X141218106Y-123999500D01*
X141218102Y-123999500D01*
X140606898Y-123999500D01*
X140606893Y-123999500D01*
X140518434Y-124010123D01*
X140377660Y-124065637D01*
X140377656Y-124065640D01*
X140257081Y-124157075D01*
X140257075Y-124157081D01*
X140165640Y-124277656D01*
X140165637Y-124277660D01*
X140110123Y-124418434D01*
X140099500Y-124506893D01*
X139900499Y-124506893D01*
X139889877Y-124418436D01*
X139834361Y-124277658D01*
X139742922Y-124157078D01*
X139622342Y-124065639D01*
X139622341Y-124065638D01*
X139622339Y-124065637D01*
X139481565Y-124010123D01*
X139393106Y-123999500D01*
X139393102Y-123999500D01*
X138781898Y-123999500D01*
X138781893Y-123999500D01*
X138693434Y-124010123D01*
X138552660Y-124065637D01*
X138552656Y-124065640D01*
X138432081Y-124157075D01*
X138432075Y-124157081D01*
X138340640Y-124277656D01*
X138340637Y-124277660D01*
X138285123Y-124418434D01*
X138274500Y-124506893D01*
X138274500Y-125280629D01*
X138255593Y-125338820D01*
X138251818Y-125343688D01*
X137656707Y-126063579D01*
X137605062Y-126096381D01*
X137580407Y-126099500D01*
X137531004Y-126099500D01*
X137395672Y-126126420D01*
X137395670Y-126126420D01*
X137268193Y-126179222D01*
X137268182Y-126179228D01*
X137153458Y-126255885D01*
X137055885Y-126353458D01*
X136979228Y-126468182D01*
X136979222Y-126468193D01*
X136926420Y-126595670D01*
X136926420Y-126595672D01*
X136899500Y-126731004D01*
X122133687Y-126731004D01*
X122140636Y-126713310D01*
X122154242Y-126696770D01*
X122164402Y-126677912D01*
X122172389Y-126674710D01*
X122179506Y-126666059D01*
X122219540Y-126651390D01*
X122226133Y-126650500D01*
X122250546Y-126650500D01*
X122429409Y-126622171D01*
X122601639Y-126566211D01*
X122762994Y-126483996D01*
X122909501Y-126377553D01*
X123037553Y-126249501D01*
X123143996Y-126102994D01*
X123226211Y-125941639D01*
X123282171Y-125769409D01*
X123310500Y-125590546D01*
X123310500Y-125409454D01*
X123310500Y-125409450D01*
X123282171Y-125230593D01*
X123282171Y-125230591D01*
X123226211Y-125058361D01*
X123143996Y-124897006D01*
X123037553Y-124750499D01*
X122909501Y-124622447D01*
X122762994Y-124516004D01*
X122762993Y-124516003D01*
X122762991Y-124516002D01*
X122601637Y-124433788D01*
X122429406Y-124377828D01*
X122250549Y-124349500D01*
X122250546Y-124349500D01*
X122069454Y-124349500D01*
X122069451Y-124349500D01*
X121890593Y-124377828D01*
X121718362Y-124433788D01*
X121557008Y-124516002D01*
X121497104Y-124559525D01*
X121410499Y-124622447D01*
X121282447Y-124750499D01*
X121229225Y-124823752D01*
X121176002Y-124897008D01*
X121093788Y-125058362D01*
X121037828Y-125230593D01*
X121009500Y-125409450D01*
X121009500Y-125590549D01*
X121037828Y-125769406D01*
X121093788Y-125941637D01*
X121174223Y-126099500D01*
X121176004Y-126102994D01*
X121282447Y-126249501D01*
X121282451Y-126249505D01*
X121282452Y-126249506D01*
X121327119Y-126294174D01*
X121354896Y-126348691D01*
X121349263Y-126400366D01*
X120029181Y-129761689D01*
X119990311Y-129808941D01*
X119937033Y-129824500D01*
X119911306Y-129824500D01*
X119737334Y-129859106D01*
X119737332Y-129859106D01*
X119573455Y-129926985D01*
X119573454Y-129926985D01*
X119425965Y-130025535D01*
X119300535Y-130150965D01*
X119201985Y-130298454D01*
X119201985Y-130298455D01*
X119134106Y-130462332D01*
X119134106Y-130462334D01*
X119099500Y-130636306D01*
X118900499Y-130636306D01*
X118865894Y-130462334D01*
X118798014Y-130298455D01*
X118798014Y-130298454D01*
X118746250Y-130220985D01*
X118721172Y-130183454D01*
X118704564Y-130124567D01*
X118708521Y-130100485D01*
X119707712Y-126708168D01*
X119742290Y-126657692D01*
X119787192Y-126638360D01*
X119889409Y-126622171D01*
X120061639Y-126566211D01*
X120222994Y-126483996D01*
X120369501Y-126377553D01*
X120497553Y-126249501D01*
X120603996Y-126102994D01*
X120686211Y-125941639D01*
X120742171Y-125769409D01*
X120770500Y-125590546D01*
X120770500Y-125409454D01*
X120770500Y-125409450D01*
X120742171Y-125230593D01*
X120742171Y-125230591D01*
X120686211Y-125058361D01*
X120603996Y-124897006D01*
X120497553Y-124750499D01*
X120369501Y-124622447D01*
X120222994Y-124516004D01*
X120222993Y-124516003D01*
X120222991Y-124516002D01*
X120061637Y-124433788D01*
X119889406Y-124377828D01*
X119710549Y-124349500D01*
X119710546Y-124349500D01*
X119529454Y-124349500D01*
X119529451Y-124349500D01*
X119350593Y-124377828D01*
X119178362Y-124433788D01*
X119017008Y-124516002D01*
X118957104Y-124559525D01*
X118870499Y-124622447D01*
X118742447Y-124750499D01*
X118689225Y-124823752D01*
X118636002Y-124897008D01*
X118553788Y-125058362D01*
X118497828Y-125230593D01*
X118469500Y-125409450D01*
X118469500Y-125590549D01*
X118497828Y-125769406D01*
X118553788Y-125941637D01*
X118634223Y-126099500D01*
X118636004Y-126102994D01*
X118742447Y-126249501D01*
X118865577Y-126372631D01*
X118893353Y-126427146D01*
X118890538Y-126470605D01*
X117919045Y-129768882D01*
X117884467Y-129819359D01*
X117843394Y-129838007D01*
X117737342Y-129859103D01*
X117737332Y-129859106D01*
X117573455Y-129926985D01*
X117573454Y-129926985D01*
X117425965Y-130025535D01*
X117300535Y-130150965D01*
X117201985Y-130298454D01*
X117201985Y-130298455D01*
X117134106Y-130462332D01*
X117134106Y-130462334D01*
X117099500Y-130636306D01*
X116900499Y-130636306D01*
X116865894Y-130462334D01*
X116798014Y-130298455D01*
X116798014Y-130298454D01*
X116699464Y-130150965D01*
X116653921Y-130105422D01*
X116626144Y-130050905D01*
X116626780Y-130016342D01*
X116633508Y-129982081D01*
X117278250Y-126698667D01*
X117308016Y-126645212D01*
X117346166Y-126624778D01*
X117345710Y-126623373D01*
X117400324Y-126605628D01*
X117521639Y-126566211D01*
X117682994Y-126483996D01*
X117829501Y-126377553D01*
X117957553Y-126249501D01*
X118063996Y-126102994D01*
X118146211Y-125941639D01*
X118202171Y-125769409D01*
X118230500Y-125590546D01*
X118230500Y-125409454D01*
X118230500Y-125409450D01*
X118202171Y-125230593D01*
X118202171Y-125230591D01*
X118146211Y-125058361D01*
X118063996Y-124897006D01*
X117957553Y-124750499D01*
X117829501Y-124622447D01*
X117682994Y-124516004D01*
X117682993Y-124516003D01*
X117682991Y-124516002D01*
X117521637Y-124433788D01*
X117349406Y-124377828D01*
X117170549Y-124349500D01*
X117170546Y-124349500D01*
X116989454Y-124349500D01*
X116989451Y-124349500D01*
X116810593Y-124377828D01*
X116638362Y-124433788D01*
X116477008Y-124516002D01*
X116417104Y-124559525D01*
X116330499Y-124622447D01*
X116202447Y-124750499D01*
X116149225Y-124823752D01*
X116096002Y-124897008D01*
X116013788Y-125058362D01*
X115957828Y-125230593D01*
X115929500Y-125409450D01*
X115929500Y-125590549D01*
X115957828Y-125769406D01*
X116013788Y-125941637D01*
X116094223Y-126099500D01*
X116096004Y-126102994D01*
X116202447Y-126249501D01*
X116330499Y-126377553D01*
X116330502Y-126377555D01*
X116330504Y-126377557D01*
X116404997Y-126431679D01*
X116440961Y-126481179D01*
X116443952Y-126530848D01*
X115805230Y-129783599D01*
X115775464Y-129837056D01*
X115741541Y-129856554D01*
X115741827Y-129857245D01*
X115573455Y-129926985D01*
X115573454Y-129926985D01*
X115425965Y-130025535D01*
X115300535Y-130150965D01*
X115201985Y-130298454D01*
X115201985Y-130298455D01*
X115134106Y-130462332D01*
X115134106Y-130462334D01*
X115099500Y-130636306D01*
X112900500Y-130636306D01*
X112900500Y-130331898D01*
X112889877Y-130243436D01*
X112834361Y-130102658D01*
X112742922Y-129982078D01*
X112670274Y-129926987D01*
X112622340Y-129890637D01*
X112563181Y-129867308D01*
X112515984Y-129828371D01*
X112500500Y-129775211D01*
X112500500Y-126749499D01*
X112519407Y-126691308D01*
X112568907Y-126655344D01*
X112599500Y-126650499D01*
X112894861Y-126650499D01*
X112894864Y-126650499D01*
X112919991Y-126647585D01*
X113022765Y-126602206D01*
X113102206Y-126522765D01*
X113147585Y-126419991D01*
X113150500Y-126394865D01*
X113150499Y-124605136D01*
X113147585Y-124580009D01*
X113102206Y-124477235D01*
X113022765Y-124397794D01*
X112919991Y-124352415D01*
X112919990Y-124352414D01*
X112919988Y-124352414D01*
X112894868Y-124349500D01*
X111105139Y-124349500D01*
X111105136Y-124349501D01*
X111080009Y-124352414D01*
X110977235Y-124397794D01*
X110897794Y-124477235D01*
X110852414Y-124580011D01*
X110849500Y-124605130D01*
X100500000Y-124605130D01*
X100500000Y-117606893D01*
X106499500Y-117606893D01*
X106499500Y-118218106D01*
X106510123Y-118306565D01*
X106565637Y-118447339D01*
X106565638Y-118447341D01*
X106565639Y-118447342D01*
X106657078Y-118567922D01*
X106777658Y-118659361D01*
X106777659Y-118659361D01*
X106777660Y-118659362D01*
X106882549Y-118700725D01*
X106918436Y-118714877D01*
X106987304Y-118723147D01*
X107042825Y-118748858D01*
X107072631Y-118802293D01*
X107074500Y-118821441D01*
X107074500Y-120866018D01*
X107090052Y-120924058D01*
X107103498Y-120974241D01*
X107159513Y-121071260D01*
X107159515Y-121071263D01*
X107238737Y-121150485D01*
X107250162Y-121157081D01*
X107335759Y-121206501D01*
X107335757Y-121206501D01*
X107335761Y-121206502D01*
X107335763Y-121206503D01*
X107443982Y-121235500D01*
X107556018Y-121235500D01*
X109111016Y-121235500D01*
X109169207Y-121254407D01*
X109199226Y-121289555D01*
X109248768Y-121386788D01*
X109350586Y-121526928D01*
X109473072Y-121649414D01*
X109613212Y-121751232D01*
X109767555Y-121829873D01*
X109767557Y-121829873D01*
X109767558Y-121829874D01*
X109767561Y-121829876D01*
X109932293Y-121883401D01*
X109932297Y-121883402D01*
X110103386Y-121910500D01*
X110103389Y-121910500D01*
X110276614Y-121910500D01*
X110447702Y-121883402D01*
X110447706Y-121883401D01*
X110612438Y-121829876D01*
X110612440Y-121829874D01*
X110612445Y-121829873D01*
X110766788Y-121751232D01*
X110906928Y-121649414D01*
X111029414Y-121526928D01*
X111131232Y-121386788D01*
X111180774Y-121289555D01*
X111224039Y-121246290D01*
X111268984Y-121235500D01*
X116731016Y-121235500D01*
X116789207Y-121254407D01*
X116819226Y-121289555D01*
X116868768Y-121386788D01*
X116970586Y-121526928D01*
X117093072Y-121649414D01*
X117233212Y-121751232D01*
X117387555Y-121829873D01*
X117387557Y-121829873D01*
X117387558Y-121829874D01*
X117387561Y-121829876D01*
X117552293Y-121883401D01*
X117552297Y-121883402D01*
X117723386Y-121910500D01*
X117723389Y-121910500D01*
X117896614Y-121910500D01*
X118067702Y-121883402D01*
X118067706Y-121883401D01*
X118232438Y-121829876D01*
X118232440Y-121829874D01*
X118232445Y-121829873D01*
X118386788Y-121751232D01*
X118526928Y-121649414D01*
X118649414Y-121526928D01*
X118751232Y-121386788D01*
X118781170Y-121328031D01*
X118824434Y-121284766D01*
X118872939Y-121274039D01*
X122179063Y-121393054D01*
X122236534Y-121414043D01*
X122270694Y-121464804D01*
X122274243Y-121490159D01*
X122274324Y-121490155D01*
X122274384Y-121491163D01*
X122274500Y-121491990D01*
X122274500Y-121493106D01*
X122285123Y-121581565D01*
X122340637Y-121722339D01*
X122340638Y-121722341D01*
X122340639Y-121722342D01*
X122432078Y-121842922D01*
X122552658Y-121934361D01*
X122552659Y-121934361D01*
X122552660Y-121934362D01*
X122616048Y-121959359D01*
X122693436Y-121989877D01*
X122781898Y-122000500D01*
X122781900Y-122000500D01*
X123393100Y-122000500D01*
X123393102Y-122000500D01*
X123481564Y-121989877D01*
X123622342Y-121934361D01*
X123742922Y-121842922D01*
X123834361Y-121722342D01*
X123889877Y-121581564D01*
X123900500Y-121493102D01*
X123900500Y-120506898D01*
X123889877Y-120418436D01*
X123844090Y-120302328D01*
X123834362Y-120277660D01*
X123834361Y-120277659D01*
X123834361Y-120277658D01*
X123742922Y-120157078D01*
X123622342Y-120065639D01*
X123622341Y-120065638D01*
X123622339Y-120065637D01*
X123481565Y-120010123D01*
X123393106Y-119999500D01*
X123393102Y-119999500D01*
X122781898Y-119999500D01*
X122781893Y-119999500D01*
X122693434Y-120010123D01*
X122552660Y-120065637D01*
X122552656Y-120065640D01*
X122426682Y-120161170D01*
X122425617Y-120159765D01*
X122378784Y-120183620D01*
X122321666Y-120175652D01*
X120982855Y-119554873D01*
X120938017Y-119513241D01*
X120925500Y-119465058D01*
X120925500Y-115717254D01*
X120927968Y-115709656D01*
X120926719Y-115701767D01*
X120937243Y-115681111D01*
X120944407Y-115659063D01*
X120954485Y-115647262D01*
X121074708Y-115527038D01*
X121129223Y-115499263D01*
X121182595Y-115505579D01*
X121193580Y-115510130D01*
X121396535Y-115550500D01*
X121396536Y-115550500D01*
X121603464Y-115550500D01*
X121603465Y-115550500D01*
X121806420Y-115510130D01*
X121997598Y-115430941D01*
X122169655Y-115315977D01*
X122315977Y-115169655D01*
X122430941Y-114997598D01*
X122510130Y-114806420D01*
X122550500Y-114603465D01*
X122550500Y-114396535D01*
X122510130Y-114193580D01*
X122430941Y-114002402D01*
X122315977Y-113830345D01*
X122169655Y-113684023D01*
X122108439Y-113643120D01*
X121997597Y-113569058D01*
X121806418Y-113489869D01*
X121603467Y-113449500D01*
X121603465Y-113449500D01*
X121396535Y-113449500D01*
X121396532Y-113449500D01*
X121193581Y-113489869D01*
X121002402Y-113569058D01*
X120830348Y-113684020D01*
X120684020Y-113830348D01*
X120569058Y-114002402D01*
X120489869Y-114193581D01*
X120449500Y-114396532D01*
X120449500Y-114603467D01*
X120489869Y-114806417D01*
X120489871Y-114806423D01*
X120494419Y-114817402D01*
X120499220Y-114878399D01*
X120472959Y-114925291D01*
X120238737Y-115159514D01*
X120159514Y-115238737D01*
X120103498Y-115335758D01*
X120103497Y-115335763D01*
X120074500Y-115443982D01*
X120074500Y-119763235D01*
X120071197Y-119782207D01*
X120074500Y-119819042D01*
X120074500Y-119856020D01*
X120077269Y-119866354D01*
X120077915Y-119868766D01*
X120079483Y-119874615D01*
X120081203Y-119893795D01*
X120093924Y-119928513D01*
X120095070Y-119932789D01*
X120103496Y-119964235D01*
X120103499Y-119964241D01*
X120108848Y-119973506D01*
X120116063Y-119988934D01*
X120119749Y-119998992D01*
X120141026Y-120029239D01*
X120159515Y-120061263D01*
X120173129Y-120074877D01*
X120184209Y-120090628D01*
X120209192Y-120111499D01*
X120215712Y-120117461D01*
X120238736Y-120140485D01*
X120248002Y-120145834D01*
X120255412Y-120150112D01*
X120270189Y-120162457D01*
X120303734Y-120178011D01*
X120307576Y-120180229D01*
X120335762Y-120196503D01*
X120340969Y-120197898D01*
X120346096Y-120199272D01*
X120362116Y-120205081D01*
X120546570Y-120290609D01*
X120550659Y-120292505D01*
X120595497Y-120334137D01*
X120607302Y-120394173D01*
X120581564Y-120449681D01*
X120528114Y-120479460D01*
X120505452Y-120481256D01*
X118905406Y-120423656D01*
X118847934Y-120402667D01*
X118820758Y-120369665D01*
X118751233Y-120233214D01*
X118743596Y-120222702D01*
X118649414Y-120093072D01*
X118526928Y-119970586D01*
X118386788Y-119868768D01*
X118386787Y-119868767D01*
X118386785Y-119868766D01*
X118232441Y-119790125D01*
X118232438Y-119790123D01*
X118067706Y-119736598D01*
X118067702Y-119736597D01*
X117896614Y-119709500D01*
X117896611Y-119709500D01*
X117723389Y-119709500D01*
X117723386Y-119709500D01*
X117552297Y-119736597D01*
X117552293Y-119736598D01*
X117387561Y-119790123D01*
X117387558Y-119790125D01*
X117233214Y-119868766D01*
X117093073Y-119970585D01*
X116970585Y-120093073D01*
X116868768Y-120233211D01*
X116819226Y-120330445D01*
X116775961Y-120373710D01*
X116731016Y-120384500D01*
X111268984Y-120384500D01*
X111210793Y-120365593D01*
X111180774Y-120330445D01*
X111160477Y-120290609D01*
X111131232Y-120233212D01*
X111029414Y-120093072D01*
X110906928Y-119970586D01*
X110766788Y-119868768D01*
X110766787Y-119868767D01*
X110766785Y-119868766D01*
X110612441Y-119790125D01*
X110612438Y-119790123D01*
X110447706Y-119736598D01*
X110447702Y-119736597D01*
X110276614Y-119709500D01*
X110276611Y-119709500D01*
X110103389Y-119709500D01*
X110103386Y-119709500D01*
X109932297Y-119736597D01*
X109932293Y-119736598D01*
X109767561Y-119790123D01*
X109767558Y-119790125D01*
X109613214Y-119868766D01*
X109473073Y-119970585D01*
X109350585Y-120093073D01*
X109248768Y-120233211D01*
X109199226Y-120330445D01*
X109155961Y-120373710D01*
X109111016Y-120384500D01*
X108024500Y-120384500D01*
X107966309Y-120365593D01*
X107930345Y-120316093D01*
X107925500Y-120285500D01*
X107925500Y-118821441D01*
X107944407Y-118763250D01*
X107993907Y-118727286D01*
X108012696Y-118723147D01*
X108081564Y-118714877D01*
X108222342Y-118659361D01*
X108342922Y-118567922D01*
X108434361Y-118447342D01*
X108489877Y-118306564D01*
X108500500Y-118218102D01*
X108500500Y-118183385D01*
X116709500Y-118183385D01*
X116709500Y-118356614D01*
X116736597Y-118527702D01*
X116736598Y-118527706D01*
X116790123Y-118692438D01*
X116790125Y-118692441D01*
X116848199Y-118806420D01*
X116868768Y-118846788D01*
X116970586Y-118986928D01*
X117093072Y-119109414D01*
X117233212Y-119211232D01*
X117387555Y-119289873D01*
X117387557Y-119289873D01*
X117387558Y-119289874D01*
X117387561Y-119289876D01*
X117552293Y-119343401D01*
X117552297Y-119343402D01*
X117723386Y-119370500D01*
X117723389Y-119370500D01*
X117896614Y-119370500D01*
X118067702Y-119343402D01*
X118067706Y-119343401D01*
X118232438Y-119289876D01*
X118232440Y-119289874D01*
X118232445Y-119289873D01*
X118386788Y-119211232D01*
X118526928Y-119109414D01*
X118649414Y-118986928D01*
X118751232Y-118846788D01*
X118829873Y-118692445D01*
X118829874Y-118692440D01*
X118829876Y-118692438D01*
X118883401Y-118527706D01*
X118883402Y-118527702D01*
X118910500Y-118356614D01*
X118910500Y-118183385D01*
X118883402Y-118012297D01*
X118883401Y-118012293D01*
X118829876Y-117847561D01*
X118829874Y-117847558D01*
X118829873Y-117847557D01*
X118829873Y-117847555D01*
X118751232Y-117693212D01*
X118649414Y-117553072D01*
X118526928Y-117430586D01*
X118386788Y-117328768D01*
X118386787Y-117328767D01*
X118386785Y-117328766D01*
X118232441Y-117250125D01*
X118232438Y-117250123D01*
X118067706Y-117196598D01*
X118067702Y-117196597D01*
X117896614Y-117169500D01*
X117896611Y-117169500D01*
X117723389Y-117169500D01*
X117723386Y-117169500D01*
X117552297Y-117196597D01*
X117552293Y-117196598D01*
X117387561Y-117250123D01*
X117387558Y-117250125D01*
X117233214Y-117328766D01*
X117093073Y-117430585D01*
X116970585Y-117553073D01*
X116868766Y-117693214D01*
X116790125Y-117847558D01*
X116790123Y-117847561D01*
X116736598Y-118012293D01*
X116736597Y-118012297D01*
X116709500Y-118183385D01*
X108500500Y-118183385D01*
X108500500Y-117606898D01*
X108489877Y-117518436D01*
X108434361Y-117377658D01*
X108342922Y-117257078D01*
X108222342Y-117165639D01*
X108222341Y-117165638D01*
X108222339Y-117165637D01*
X108081565Y-117110123D01*
X107993106Y-117099500D01*
X107993102Y-117099500D01*
X107006898Y-117099500D01*
X107006893Y-117099500D01*
X106918434Y-117110123D01*
X106777660Y-117165637D01*
X106777656Y-117165640D01*
X106657081Y-117257075D01*
X106657075Y-117257081D01*
X106565640Y-117377656D01*
X106565637Y-117377660D01*
X106510123Y-117518434D01*
X106499500Y-117606893D01*
X100500000Y-117606893D01*
X100500000Y-115781893D01*
X106499500Y-115781893D01*
X106499500Y-116393106D01*
X106510123Y-116481565D01*
X106565637Y-116622339D01*
X106565638Y-116622341D01*
X106565639Y-116622342D01*
X106657078Y-116742922D01*
X106777658Y-116834361D01*
X106777659Y-116834361D01*
X106777660Y-116834362D01*
X106828506Y-116854413D01*
X106918436Y-116889877D01*
X107006898Y-116900500D01*
X107006900Y-116900500D01*
X107993100Y-116900500D01*
X107993102Y-116900500D01*
X108081564Y-116889877D01*
X108222342Y-116834361D01*
X108342922Y-116742922D01*
X108434361Y-116622342D01*
X108489877Y-116481564D01*
X108500500Y-116393102D01*
X108500500Y-116254500D01*
X108519407Y-116196309D01*
X108568907Y-116160345D01*
X108599500Y-116155500D01*
X109111016Y-116155500D01*
X109169207Y-116174407D01*
X109199226Y-116209555D01*
X109248768Y-116306788D01*
X109350586Y-116446928D01*
X109473072Y-116569414D01*
X109613212Y-116671232D01*
X109767555Y-116749873D01*
X109767557Y-116749873D01*
X109767558Y-116749874D01*
X109767561Y-116749876D01*
X109932293Y-116803401D01*
X109932297Y-116803402D01*
X110103386Y-116830500D01*
X110103389Y-116830500D01*
X110276614Y-116830500D01*
X110447702Y-116803402D01*
X110447706Y-116803401D01*
X110612438Y-116749876D01*
X110612440Y-116749874D01*
X110612445Y-116749873D01*
X110766788Y-116671232D01*
X110906928Y-116569414D01*
X111029414Y-116446928D01*
X111131232Y-116306788D01*
X111209873Y-116152445D01*
X111209874Y-116152440D01*
X111209876Y-116152438D01*
X111263401Y-115987706D01*
X111263402Y-115987702D01*
X111290500Y-115816614D01*
X111290500Y-115643385D01*
X116709500Y-115643385D01*
X116709500Y-115816614D01*
X116736597Y-115987702D01*
X116736598Y-115987706D01*
X116790123Y-116152438D01*
X116790125Y-116152441D01*
X116863274Y-116296007D01*
X116868768Y-116306788D01*
X116970586Y-116446928D01*
X117093072Y-116569414D01*
X117233212Y-116671232D01*
X117387555Y-116749873D01*
X117387557Y-116749873D01*
X117387558Y-116749874D01*
X117387561Y-116749876D01*
X117552293Y-116803401D01*
X117552297Y-116803402D01*
X117723386Y-116830500D01*
X117723389Y-116830500D01*
X117896614Y-116830500D01*
X118067702Y-116803402D01*
X118067706Y-116803401D01*
X118232438Y-116749876D01*
X118232440Y-116749874D01*
X118232445Y-116749873D01*
X118386788Y-116671232D01*
X118526928Y-116569414D01*
X118649414Y-116446928D01*
X118751232Y-116306788D01*
X118829873Y-116152445D01*
X118829874Y-116152440D01*
X118829876Y-116152438D01*
X118883401Y-115987706D01*
X118883402Y-115987702D01*
X118910500Y-115816614D01*
X118910500Y-115643385D01*
X118883402Y-115472297D01*
X118883401Y-115472293D01*
X118829876Y-115307561D01*
X118829874Y-115307558D01*
X118829873Y-115307557D01*
X118829873Y-115307555D01*
X118751232Y-115153212D01*
X118649414Y-115013072D01*
X118526928Y-114890586D01*
X118386788Y-114788768D01*
X118386787Y-114788767D01*
X118386785Y-114788766D01*
X118232441Y-114710125D01*
X118232438Y-114710123D01*
X118067706Y-114656598D01*
X118067702Y-114656597D01*
X117896614Y-114629500D01*
X117896611Y-114629500D01*
X117723389Y-114629500D01*
X117723386Y-114629500D01*
X117552297Y-114656597D01*
X117552293Y-114656598D01*
X117387561Y-114710123D01*
X117387558Y-114710125D01*
X117233214Y-114788766D01*
X117093073Y-114890585D01*
X116970585Y-115013073D01*
X116868766Y-115153214D01*
X116790125Y-115307558D01*
X116790123Y-115307561D01*
X116736598Y-115472293D01*
X116736597Y-115472297D01*
X116709500Y-115643385D01*
X111290500Y-115643385D01*
X111263402Y-115472297D01*
X111263401Y-115472293D01*
X111209876Y-115307561D01*
X111209874Y-115307558D01*
X111209873Y-115307557D01*
X111209873Y-115307555D01*
X111131232Y-115153212D01*
X111029414Y-115013072D01*
X110906928Y-114890586D01*
X110766788Y-114788768D01*
X110766787Y-114788767D01*
X110766785Y-114788766D01*
X110612441Y-114710125D01*
X110612438Y-114710123D01*
X110447706Y-114656598D01*
X110447702Y-114656597D01*
X110276614Y-114629500D01*
X110276611Y-114629500D01*
X110103389Y-114629500D01*
X110103386Y-114629500D01*
X109932297Y-114656597D01*
X109932293Y-114656598D01*
X109767561Y-114710123D01*
X109767558Y-114710125D01*
X109613214Y-114788766D01*
X109473073Y-114890585D01*
X109350585Y-115013073D01*
X109248768Y-115153211D01*
X109199226Y-115250445D01*
X109155961Y-115293710D01*
X109111016Y-115304500D01*
X108149515Y-115304500D01*
X108113196Y-115297597D01*
X108081565Y-115285123D01*
X107993106Y-115274500D01*
X107993102Y-115274500D01*
X107006898Y-115274500D01*
X107006893Y-115274500D01*
X106918434Y-115285123D01*
X106777660Y-115340637D01*
X106777656Y-115340640D01*
X106657081Y-115432075D01*
X106657075Y-115432081D01*
X106565640Y-115552656D01*
X106565637Y-115552660D01*
X106510123Y-115693434D01*
X106499500Y-115781893D01*
X100500000Y-115781893D01*
X100500000Y-112596893D01*
X109089500Y-112596893D01*
X109089500Y-113783106D01*
X109100123Y-113871565D01*
X109155637Y-114012339D01*
X109155638Y-114012341D01*
X109155639Y-114012342D01*
X109247078Y-114132922D01*
X109367658Y-114224361D01*
X109367659Y-114224361D01*
X109367660Y-114224362D01*
X109438047Y-114252119D01*
X109508436Y-114279877D01*
X109596898Y-114290500D01*
X109596900Y-114290500D01*
X110783100Y-114290500D01*
X110783102Y-114290500D01*
X110871564Y-114279877D01*
X111012342Y-114224361D01*
X111132922Y-114132922D01*
X111224361Y-114012342D01*
X111279877Y-113871564D01*
X111290500Y-113783102D01*
X111290500Y-112596898D01*
X111279877Y-112508436D01*
X111224361Y-112367658D01*
X111132922Y-112247078D01*
X111132917Y-112247074D01*
X111011784Y-112155215D01*
X110976842Y-112104989D01*
X110975299Y-112053388D01*
X111203521Y-111095453D01*
X111235400Y-111043230D01*
X111288020Y-111020105D01*
X111331564Y-111014877D01*
X111472342Y-110959361D01*
X111592922Y-110867922D01*
X111684361Y-110747342D01*
X111739877Y-110606564D01*
X111750500Y-110518102D01*
X111750500Y-109481898D01*
X111739877Y-109393436D01*
X111684361Y-109252658D01*
X111592922Y-109132078D01*
X111592917Y-109132074D01*
X111489680Y-109053786D01*
X111454738Y-109003560D01*
X111450500Y-108974903D01*
X111450500Y-108099500D01*
X111469407Y-108041309D01*
X111518907Y-108005345D01*
X111549500Y-108000500D01*
X123351495Y-108000500D01*
X123409686Y-108019407D01*
X123445650Y-108068907D01*
X123445650Y-108130093D01*
X123430381Y-108159315D01*
X123366906Y-108243018D01*
X123340637Y-108277660D01*
X123285123Y-108418434D01*
X123274500Y-108506893D01*
X123274500Y-109493106D01*
X123285123Y-109581565D01*
X123340637Y-109722339D01*
X123340638Y-109722341D01*
X123340639Y-109722342D01*
X123432078Y-109842922D01*
X123552658Y-109934361D01*
X123552659Y-109934361D01*
X123552660Y-109934362D01*
X123603978Y-109954599D01*
X123693436Y-109989877D01*
X123781898Y-110000500D01*
X124142659Y-110000500D01*
X124200850Y-110019407D01*
X124227251Y-110048068D01*
X124308099Y-110181041D01*
X125085092Y-111458991D01*
X125099500Y-111510422D01*
X125099500Y-112493106D01*
X125110123Y-112581565D01*
X125165637Y-112722339D01*
X125165638Y-112722341D01*
X125165639Y-112722342D01*
X125257078Y-112842922D01*
X125377658Y-112934361D01*
X125377659Y-112934361D01*
X125377660Y-112934362D01*
X125446533Y-112961522D01*
X125518436Y-112989877D01*
X125606898Y-113000500D01*
X125606900Y-113000500D01*
X126218100Y-113000500D01*
X126218102Y-113000500D01*
X126306564Y-112989877D01*
X126447342Y-112934361D01*
X126567922Y-112842922D01*
X126659361Y-112722342D01*
X126659364Y-112722333D01*
X126662679Y-112716440D01*
X126664826Y-112717647D01*
X126696836Y-112678844D01*
X126756078Y-112663545D01*
X126812998Y-112685989D01*
X126835760Y-112717317D01*
X126837321Y-112716440D01*
X126840637Y-112722339D01*
X126840639Y-112722342D01*
X126932078Y-112842922D01*
X126932081Y-112842924D01*
X126963616Y-112866838D01*
X126998559Y-112917065D01*
X127001528Y-112961522D01*
X126876353Y-113735805D01*
X126848401Y-113790232D01*
X126833624Y-113802320D01*
X126753458Y-113855885D01*
X126655885Y-113953458D01*
X126579228Y-114068182D01*
X126579222Y-114068193D01*
X126526420Y-114195670D01*
X126526420Y-114195672D01*
X126499500Y-114331004D01*
X126499500Y-114468995D01*
X126506529Y-114504329D01*
X126526248Y-114603465D01*
X126526420Y-114604327D01*
X126526420Y-114604329D01*
X126579222Y-114731806D01*
X126579228Y-114731817D01*
X126655885Y-114846541D01*
X126753458Y-114944114D01*
X126868182Y-115020771D01*
X126868193Y-115020777D01*
X126915283Y-115040282D01*
X126995672Y-115073580D01*
X127131007Y-115100500D01*
X127131008Y-115100500D01*
X127268992Y-115100500D01*
X127268993Y-115100500D01*
X127404328Y-115073580D01*
X127531811Y-115020775D01*
X127646542Y-114944114D01*
X127744114Y-114846542D01*
X127820775Y-114731811D01*
X127873580Y-114604328D01*
X127900500Y-114468993D01*
X127900500Y-114331007D01*
X127873580Y-114195672D01*
X127820775Y-114068189D01*
X127820774Y-114068187D01*
X127820771Y-114068182D01*
X127744114Y-113953458D01*
X127741021Y-113949689D01*
X127742056Y-113948839D01*
X127716939Y-113899543D01*
X127716988Y-113868259D01*
X127844668Y-113078489D01*
X127872620Y-113024064D01*
X127927225Y-112996461D01*
X127930566Y-112996001D01*
X127981564Y-112989877D01*
X128122342Y-112934361D01*
X128242922Y-112842922D01*
X128334361Y-112722342D01*
X128389877Y-112581564D01*
X128400500Y-112493102D01*
X128400500Y-111538512D01*
X128401524Y-111535358D01*
X128400705Y-111532147D01*
X128410889Y-111506537D01*
X128419407Y-111480321D01*
X128422089Y-111478372D01*
X128423314Y-111475292D01*
X128446606Y-111460559D01*
X128468907Y-111444357D01*
X128472222Y-111444357D01*
X128475024Y-111442585D01*
X128502527Y-111444357D01*
X128530093Y-111444357D01*
X128532775Y-111446305D01*
X128536083Y-111446519D01*
X128557289Y-111464116D01*
X128579593Y-111480321D01*
X128583168Y-111485591D01*
X128584168Y-111487172D01*
X128599500Y-111540093D01*
X128599500Y-112493106D01*
X128610123Y-112581565D01*
X128665637Y-112722339D01*
X128665638Y-112722341D01*
X128665639Y-112722342D01*
X128757078Y-112842922D01*
X128877658Y-112934361D01*
X128877659Y-112934361D01*
X128877660Y-112934362D01*
X128946533Y-112961522D01*
X129018436Y-112989877D01*
X129106898Y-113000500D01*
X129506528Y-113000500D01*
X129564719Y-113019407D01*
X129589281Y-113045159D01*
X129596325Y-113055886D01*
X129735740Y-113268193D01*
X129758252Y-113302474D01*
X129774499Y-113356815D01*
X129774499Y-115594493D01*
X129755592Y-115652684D01*
X129706092Y-115688648D01*
X129696942Y-115691034D01*
X129695670Y-115691420D01*
X129568193Y-115744222D01*
X129568182Y-115744228D01*
X129453458Y-115820885D01*
X129355885Y-115918458D01*
X129279228Y-116033182D01*
X129279222Y-116033193D01*
X129226420Y-116160670D01*
X129226420Y-116160672D01*
X129199500Y-116296004D01*
X129199500Y-116433995D01*
X129226420Y-116569327D01*
X129226420Y-116569329D01*
X129279222Y-116696806D01*
X129279228Y-116696817D01*
X129355885Y-116811541D01*
X129453458Y-116909114D01*
X129568182Y-116985771D01*
X129568193Y-116985777D01*
X129648488Y-117019036D01*
X129695014Y-117058772D01*
X129709298Y-117118267D01*
X129685883Y-117174795D01*
X129633714Y-117206765D01*
X129610603Y-117209500D01*
X129356018Y-117209500D01*
X129243982Y-117209500D01*
X129177748Y-117227247D01*
X129135758Y-117238498D01*
X129038739Y-117294513D01*
X128959513Y-117373739D01*
X128903498Y-117470758D01*
X128874500Y-117578983D01*
X128874500Y-123075500D01*
X128855593Y-123133691D01*
X128806093Y-123169655D01*
X128775500Y-123174500D01*
X127074500Y-123174500D01*
X127016309Y-123155593D01*
X126980345Y-123106093D01*
X126975500Y-123075500D01*
X126975500Y-122064929D01*
X126994407Y-122006738D01*
X127038179Y-121972832D01*
X127072342Y-121959361D01*
X127192922Y-121867922D01*
X127284361Y-121747342D01*
X127339877Y-121606564D01*
X127350500Y-121518102D01*
X127350500Y-120481898D01*
X127339877Y-120393436D01*
X127294219Y-120277656D01*
X127284362Y-120252660D01*
X127284361Y-120252659D01*
X127284361Y-120252658D01*
X127192922Y-120132078D01*
X127072342Y-120040639D01*
X127072341Y-120040638D01*
X127072339Y-120040637D01*
X126931565Y-119985123D01*
X126843106Y-119974500D01*
X126843102Y-119974500D01*
X126256898Y-119974500D01*
X126256893Y-119974500D01*
X126168434Y-119985123D01*
X126027660Y-120040637D01*
X126027656Y-120040640D01*
X125907081Y-120132075D01*
X125907075Y-120132081D01*
X125815637Y-120252660D01*
X125815001Y-120253792D01*
X125814265Y-120254469D01*
X125811548Y-120258053D01*
X125810904Y-120257565D01*
X125769997Y-120295245D01*
X125709223Y-120302328D01*
X125655893Y-120272337D01*
X125649832Y-120265092D01*
X125567922Y-120157078D01*
X125459524Y-120074877D01*
X125447341Y-120065638D01*
X125400180Y-120047040D01*
X125352983Y-120008103D01*
X125337500Y-119954943D01*
X125337500Y-119635413D01*
X125340906Y-119615094D01*
X125337500Y-119579620D01*
X125337500Y-119543982D01*
X125332167Y-119524079D01*
X125330198Y-119503571D01*
X125317727Y-119470189D01*
X125308503Y-119435763D01*
X125298199Y-119417917D01*
X125290990Y-119398618D01*
X125270304Y-119369601D01*
X125252485Y-119338737D01*
X125252482Y-119338734D01*
X125243739Y-119329990D01*
X125243739Y-119329991D01*
X125237915Y-119324167D01*
X125225955Y-119307390D01*
X125198463Y-119284715D01*
X125195114Y-119281366D01*
X125195112Y-119281363D01*
X125173264Y-119259516D01*
X125173260Y-119259513D01*
X125162551Y-119253330D01*
X125162551Y-119253329D01*
X125155413Y-119249207D01*
X125139524Y-119236103D01*
X125107107Y-119221318D01*
X125103006Y-119218951D01*
X125102993Y-119218944D01*
X125076236Y-119203496D01*
X125064288Y-119200295D01*
X125048835Y-119194744D01*
X123608421Y-118537838D01*
X123563322Y-118496490D01*
X123550500Y-118447763D01*
X123550500Y-118396536D01*
X123550499Y-118396532D01*
X123542558Y-118356611D01*
X123510130Y-118193580D01*
X123430941Y-118002402D01*
X123315977Y-117830345D01*
X123169655Y-117684023D01*
X123054230Y-117606899D01*
X122997597Y-117569058D01*
X122806418Y-117489869D01*
X122603467Y-117449500D01*
X122603465Y-117449500D01*
X122396535Y-117449500D01*
X122396532Y-117449500D01*
X122193581Y-117489869D01*
X122002402Y-117569058D01*
X121830348Y-117684020D01*
X121684020Y-117830348D01*
X121569058Y-118002402D01*
X121489869Y-118193581D01*
X121449500Y-118396532D01*
X121449500Y-118603467D01*
X121489869Y-118806418D01*
X121569058Y-118997597D01*
X121684020Y-119169651D01*
X121684023Y-119169655D01*
X121830345Y-119315977D01*
X122002402Y-119430941D01*
X122193580Y-119510130D01*
X122396535Y-119550500D01*
X122396536Y-119550500D01*
X122603464Y-119550500D01*
X122603465Y-119550500D01*
X122806420Y-119510130D01*
X122997598Y-119430941D01*
X123161954Y-119321122D01*
X123220841Y-119304514D01*
X123258029Y-119313362D01*
X124428581Y-119847194D01*
X124447175Y-119864242D01*
X124467593Y-119879077D01*
X124469390Y-119884610D01*
X124473678Y-119888541D01*
X124486500Y-119937268D01*
X124486500Y-119955338D01*
X124467593Y-120013529D01*
X124423819Y-120047435D01*
X124377660Y-120065637D01*
X124377656Y-120065640D01*
X124257081Y-120157075D01*
X124257075Y-120157081D01*
X124165640Y-120277656D01*
X124165637Y-120277660D01*
X124110123Y-120418434D01*
X124099500Y-120506893D01*
X124099500Y-121493106D01*
X124110123Y-121581565D01*
X124165637Y-121722339D01*
X124165638Y-121722341D01*
X124165639Y-121722342D01*
X124257078Y-121842922D01*
X124377658Y-121934361D01*
X124377659Y-121934361D01*
X124377660Y-121934362D01*
X124441048Y-121959359D01*
X124518436Y-121989877D01*
X124606898Y-122000500D01*
X125004628Y-122000500D01*
X125062819Y-122019407D01*
X125098783Y-122068907D01*
X125101726Y-122080185D01*
X125126420Y-122204329D01*
X125179222Y-122331806D01*
X125179228Y-122331817D01*
X125255885Y-122446541D01*
X125353458Y-122544114D01*
X125468182Y-122620771D01*
X125468193Y-122620777D01*
X125475499Y-122623803D01*
X125595672Y-122673580D01*
X125731007Y-122700500D01*
X125731008Y-122700500D01*
X125868992Y-122700500D01*
X125868993Y-122700500D01*
X126004328Y-122673580D01*
X126004329Y-122673579D01*
X126006186Y-122673210D01*
X126066947Y-122680402D01*
X126111877Y-122721934D01*
X126124500Y-122770308D01*
X126124500Y-123656018D01*
X126135125Y-123695670D01*
X126153498Y-123764241D01*
X126209513Y-123861260D01*
X126209515Y-123861263D01*
X126288737Y-123940485D01*
X126288739Y-123940486D01*
X126385759Y-123996501D01*
X126385757Y-123996501D01*
X126385761Y-123996502D01*
X126385763Y-123996503D01*
X126493982Y-124025500D01*
X126493984Y-124025500D01*
X129356016Y-124025500D01*
X129356018Y-124025500D01*
X129464237Y-123996503D01*
X129464239Y-123996501D01*
X129464241Y-123996501D01*
X129511882Y-123968995D01*
X129561263Y-123940485D01*
X129640485Y-123861263D01*
X129679859Y-123793064D01*
X129696501Y-123764241D01*
X129696501Y-123764239D01*
X129696503Y-123764237D01*
X129725500Y-123656018D01*
X129725500Y-118159500D01*
X129744407Y-118101309D01*
X129793907Y-118065345D01*
X129824500Y-118060500D01*
X130293443Y-118060500D01*
X130351634Y-118079407D01*
X130355228Y-118082146D01*
X130365382Y-118090256D01*
X130377850Y-118107150D01*
X130487118Y-118187793D01*
X130487789Y-118188027D01*
X130493571Y-118192646D01*
X130509421Y-118216698D01*
X130526167Y-118240113D01*
X130526152Y-118242086D01*
X130527239Y-118243736D01*
X130525924Y-118272501D01*
X130525709Y-118301296D01*
X130524534Y-118302911D01*
X130524446Y-118304858D01*
X130509785Y-118323212D01*
X130490574Y-118349655D01*
X130377855Y-118432845D01*
X130377845Y-118432855D01*
X130297207Y-118542116D01*
X130252355Y-118670296D01*
X130252353Y-118670305D01*
X130249500Y-118700725D01*
X130249500Y-119109274D01*
X130252353Y-119139694D01*
X130252355Y-119139703D01*
X130297207Y-119267883D01*
X130377845Y-119377144D01*
X130377847Y-119377146D01*
X130377850Y-119377150D01*
X130377853Y-119377152D01*
X130377855Y-119377154D01*
X130487116Y-119457792D01*
X130487117Y-119457792D01*
X130487118Y-119457793D01*
X130615301Y-119502646D01*
X130645725Y-119505499D01*
X130645727Y-119505500D01*
X130645734Y-119505500D01*
X130995177Y-119505500D01*
X131053368Y-119524407D01*
X131089332Y-119573907D01*
X131094174Y-119605251D01*
X131079115Y-121589969D01*
X131059767Y-121648015D01*
X131050122Y-121659222D01*
X130955889Y-121753454D01*
X130955885Y-121753458D01*
X130879228Y-121868182D01*
X130879222Y-121868193D01*
X130826420Y-121995670D01*
X130826420Y-121995672D01*
X130799500Y-122131004D01*
X130799500Y-122268995D01*
X130826420Y-122404327D01*
X130826420Y-122404329D01*
X130879222Y-122531806D01*
X130879228Y-122531817D01*
X130955885Y-122646541D01*
X131053458Y-122744114D01*
X131168182Y-122820771D01*
X131168193Y-122820777D01*
X131215283Y-122840282D01*
X131295672Y-122873580D01*
X131431007Y-122900500D01*
X131431008Y-122900500D01*
X131568992Y-122900500D01*
X131568993Y-122900500D01*
X131704328Y-122873580D01*
X131831811Y-122820775D01*
X131946542Y-122744114D01*
X132044114Y-122646542D01*
X132120775Y-122531811D01*
X132173580Y-122404328D01*
X132200500Y-122268993D01*
X132200500Y-122131007D01*
X132173580Y-121995672D01*
X132138301Y-121910500D01*
X132120777Y-121868193D01*
X132120771Y-121868182D01*
X132044114Y-121753458D01*
X132044106Y-121753449D01*
X131959076Y-121668420D01*
X131931298Y-121613904D01*
X131930082Y-121597665D01*
X131930141Y-121589969D01*
X131938990Y-120423656D01*
X131945211Y-119603749D01*
X131950053Y-119589222D01*
X131950053Y-119573907D01*
X131959485Y-119560924D01*
X131964559Y-119545703D01*
X131977015Y-119536796D01*
X131986017Y-119524407D01*
X132001279Y-119519448D01*
X132014331Y-119510116D01*
X132044208Y-119505500D01*
X132200500Y-119505500D01*
X132258691Y-119524407D01*
X132294655Y-119573907D01*
X132299500Y-119604500D01*
X132299500Y-119668995D01*
X132317446Y-119759216D01*
X132323594Y-119790123D01*
X132326420Y-119804327D01*
X132326420Y-119804329D01*
X132379222Y-119931806D01*
X132379228Y-119931817D01*
X132455885Y-120046541D01*
X132553458Y-120144114D01*
X132668182Y-120220771D01*
X132668187Y-120220774D01*
X132668188Y-120220774D01*
X132668189Y-120220775D01*
X132672842Y-120222702D01*
X132719368Y-120262438D01*
X132731114Y-120290609D01*
X132929413Y-121099990D01*
X132924896Y-121161008D01*
X132912141Y-121183367D01*
X132840640Y-121277656D01*
X132840637Y-121277660D01*
X132785123Y-121418434D01*
X132774500Y-121506893D01*
X132774500Y-122493106D01*
X132785123Y-122581565D01*
X132840637Y-122722339D01*
X132840638Y-122722341D01*
X132840639Y-122722342D01*
X132932078Y-122842922D01*
X133052658Y-122934361D01*
X133052659Y-122934361D01*
X133052660Y-122934362D01*
X133089290Y-122948807D01*
X133193436Y-122989877D01*
X133281898Y-123000500D01*
X133281900Y-123000500D01*
X133893100Y-123000500D01*
X133893102Y-123000500D01*
X133981564Y-122989877D01*
X134122342Y-122934361D01*
X134242922Y-122842922D01*
X134334361Y-122722342D01*
X134389877Y-122581564D01*
X134400500Y-122493102D01*
X134400500Y-121506898D01*
X134400499Y-121506893D01*
X134599500Y-121506893D01*
X134599500Y-122493106D01*
X134610123Y-122581565D01*
X134665637Y-122722339D01*
X134665638Y-122722341D01*
X134665639Y-122722342D01*
X134757078Y-122842922D01*
X134877658Y-122934361D01*
X134877659Y-122934361D01*
X134877660Y-122934362D01*
X134914290Y-122948807D01*
X135018436Y-122989877D01*
X135106898Y-123000500D01*
X135106900Y-123000500D01*
X135718100Y-123000500D01*
X135718102Y-123000500D01*
X135806564Y-122989877D01*
X135857099Y-122969947D01*
X135918165Y-122966188D01*
X135955563Y-122984982D01*
X136162647Y-123151985D01*
X136196075Y-123203232D01*
X136199500Y-123229048D01*
X136199500Y-123268995D01*
X136226420Y-123404327D01*
X136226420Y-123404329D01*
X136279222Y-123531806D01*
X136279228Y-123531817D01*
X136355885Y-123646541D01*
X136453458Y-123744114D01*
X136568182Y-123820771D01*
X136568193Y-123820777D01*
X136605264Y-123836132D01*
X136695672Y-123873580D01*
X136831007Y-123900500D01*
X136831008Y-123900500D01*
X136968992Y-123900500D01*
X136968993Y-123900500D01*
X137104328Y-123873580D01*
X137231811Y-123820775D01*
X137346542Y-123744114D01*
X137444114Y-123646542D01*
X137520775Y-123531811D01*
X137573580Y-123404328D01*
X137600500Y-123268993D01*
X137600500Y-123131007D01*
X137573580Y-122995672D01*
X137543823Y-122923831D01*
X137520777Y-122868193D01*
X137520771Y-122868182D01*
X137444114Y-122753458D01*
X137346541Y-122655885D01*
X137231817Y-122579228D01*
X137231806Y-122579222D01*
X137104328Y-122526420D01*
X136968995Y-122499500D01*
X136968993Y-122499500D01*
X136831007Y-122499500D01*
X136831003Y-122499500D01*
X136778711Y-122509902D01*
X136717949Y-122502710D01*
X136697251Y-122489868D01*
X136423364Y-122268991D01*
X136262352Y-122139142D01*
X136228925Y-122087895D01*
X136225500Y-122062079D01*
X136225500Y-121506899D01*
X136225499Y-121506893D01*
X136214877Y-121418436D01*
X136159361Y-121277658D01*
X136067922Y-121157078D01*
X135947342Y-121065639D01*
X135947341Y-121065638D01*
X135947339Y-121065637D01*
X135806565Y-121010123D01*
X135718106Y-120999500D01*
X135718102Y-120999500D01*
X135106898Y-120999500D01*
X135106893Y-120999500D01*
X135018434Y-121010123D01*
X134877660Y-121065637D01*
X134877656Y-121065640D01*
X134757081Y-121157075D01*
X134757075Y-121157081D01*
X134665640Y-121277656D01*
X134665637Y-121277660D01*
X134610123Y-121418434D01*
X134599500Y-121506893D01*
X134400499Y-121506893D01*
X134389877Y-121418436D01*
X134334361Y-121277658D01*
X134242922Y-121157078D01*
X134122342Y-121065639D01*
X134122341Y-121065638D01*
X134122339Y-121065637D01*
X133981565Y-121010123D01*
X133893106Y-120999500D01*
X133893102Y-120999500D01*
X133858634Y-120999500D01*
X133800443Y-120980593D01*
X133764479Y-120931093D01*
X133762478Y-120924058D01*
X133676836Y-120574500D01*
X133556950Y-120085171D01*
X133561467Y-120024156D01*
X133570788Y-120006619D01*
X133620775Y-119931811D01*
X133673580Y-119804328D01*
X133700500Y-119668993D01*
X133700500Y-119531007D01*
X133673580Y-119395672D01*
X133640570Y-119315979D01*
X133620777Y-119268193D01*
X133620771Y-119268182D01*
X133544114Y-119153458D01*
X133446541Y-119055885D01*
X133331817Y-118979228D01*
X133331806Y-118979222D01*
X133204328Y-118926420D01*
X133068995Y-118899500D01*
X133068993Y-118899500D01*
X132931007Y-118899500D01*
X132931002Y-118899500D01*
X132918813Y-118901925D01*
X132858052Y-118894733D01*
X132813122Y-118853200D01*
X132800500Y-118804827D01*
X132800500Y-118700727D01*
X132800499Y-118700725D01*
X132797646Y-118670301D01*
X132752793Y-118542118D01*
X132749634Y-118537838D01*
X132672154Y-118432855D01*
X132672152Y-118432853D01*
X132672150Y-118432850D01*
X132672146Y-118432847D01*
X132672144Y-118432845D01*
X132559425Y-118349655D01*
X132543079Y-118326800D01*
X132525553Y-118304857D01*
X132525427Y-118302119D01*
X132523832Y-118299888D01*
X132524042Y-118271796D01*
X132522760Y-118243736D01*
X132524268Y-118241538D01*
X132524290Y-118238704D01*
X132556428Y-118192646D01*
X132562209Y-118188028D01*
X132562882Y-118187793D01*
X132672150Y-118107150D01*
X132684617Y-118090256D01*
X132694772Y-118082146D01*
X132711840Y-118075725D01*
X132726671Y-118065119D01*
X132749353Y-118061613D01*
X132752039Y-118060603D01*
X132753424Y-118060984D01*
X132756557Y-118060500D01*
X133155053Y-118060500D01*
X133171894Y-118061942D01*
X133182814Y-118063828D01*
X133219347Y-118060500D01*
X133256017Y-118060500D01*
X133274905Y-118055438D01*
X133294388Y-118053664D01*
X133328811Y-118040994D01*
X133364236Y-118031503D01*
X133381172Y-118021723D01*
X133389136Y-118018793D01*
X133389404Y-118018694D01*
X133399530Y-118014968D01*
X133425829Y-117996411D01*
X133433392Y-117991575D01*
X133461262Y-117975485D01*
X133469098Y-117967648D01*
X133482015Y-117956768D01*
X135109333Y-116808607D01*
X135166407Y-116790500D01*
X135243443Y-116790500D01*
X135301634Y-116809407D01*
X135323097Y-116830710D01*
X135327850Y-116837150D01*
X135327853Y-116837152D01*
X135327855Y-116837154D01*
X135440574Y-116920345D01*
X135476167Y-116970113D01*
X135475709Y-117031296D01*
X135440574Y-117079655D01*
X135327855Y-117162845D01*
X135327845Y-117162855D01*
X135247207Y-117272116D01*
X135202355Y-117400296D01*
X135202353Y-117400305D01*
X135199500Y-117430725D01*
X135199500Y-117839274D01*
X135202353Y-117869694D01*
X135202355Y-117869703D01*
X135247207Y-117997883D01*
X135327845Y-118107144D01*
X135327847Y-118107146D01*
X135327850Y-118107150D01*
X135327853Y-118107152D01*
X135327855Y-118107154D01*
X135437116Y-118187792D01*
X135437117Y-118187792D01*
X135437118Y-118187793D01*
X135565301Y-118232646D01*
X135595725Y-118235499D01*
X135595727Y-118235500D01*
X135595734Y-118235500D01*
X137354273Y-118235500D01*
X137354273Y-118235499D01*
X137384699Y-118232646D01*
X137512882Y-118187793D01*
X137622150Y-118107150D01*
X137626902Y-118100710D01*
X137676671Y-118065119D01*
X137706557Y-118060500D01*
X140387500Y-118060500D01*
X140445691Y-118079407D01*
X140481655Y-118128907D01*
X140486500Y-118159500D01*
X140486500Y-120955338D01*
X140467593Y-121013529D01*
X140423819Y-121047435D01*
X140377660Y-121065637D01*
X140377656Y-121065640D01*
X140257081Y-121157075D01*
X140257075Y-121157081D01*
X140165640Y-121277656D01*
X140165637Y-121277660D01*
X140110123Y-121418434D01*
X140099500Y-121506893D01*
X140099500Y-122493106D01*
X140110123Y-122581565D01*
X140165637Y-122722339D01*
X140165638Y-122722341D01*
X140165639Y-122722342D01*
X140257078Y-122842922D01*
X140377658Y-122934361D01*
X140377659Y-122934361D01*
X140377660Y-122934362D01*
X140414290Y-122948807D01*
X140518436Y-122989877D01*
X140606898Y-123000500D01*
X140606900Y-123000500D01*
X141218100Y-123000500D01*
X141218102Y-123000500D01*
X141306564Y-122989877D01*
X141447342Y-122934361D01*
X141567922Y-122842922D01*
X141642296Y-122744844D01*
X141692523Y-122709902D01*
X141750912Y-122710234D01*
X142101991Y-122820775D01*
X142172317Y-122842918D01*
X142317315Y-122888572D01*
X142317314Y-122888572D01*
X142324551Y-122890850D01*
X142327678Y-122891835D01*
X142335763Y-122896503D01*
X142380995Y-122908622D01*
X142425644Y-122922681D01*
X142425650Y-122922681D01*
X142432031Y-122923804D01*
X142432026Y-122923831D01*
X142437542Y-122924679D01*
X142437546Y-122924653D01*
X142443980Y-122925500D01*
X142490796Y-122925500D01*
X142537575Y-122927524D01*
X142546687Y-122925500D01*
X145473045Y-122925500D01*
X145531236Y-122944407D01*
X145564508Y-122986612D01*
X145565861Y-122989877D01*
X145569059Y-122997598D01*
X145641552Y-123106093D01*
X145684023Y-123169655D01*
X145830345Y-123315977D01*
X146002402Y-123430941D01*
X146193580Y-123510130D01*
X146396535Y-123550500D01*
X146396536Y-123550500D01*
X146603464Y-123550500D01*
X146603465Y-123550500D01*
X146806420Y-123510130D01*
X146997598Y-123430941D01*
X147169655Y-123315977D01*
X147315977Y-123169655D01*
X147430941Y-122997598D01*
X147510130Y-122806420D01*
X147550500Y-122603465D01*
X147550500Y-122396535D01*
X147510130Y-122193580D01*
X147430941Y-122002402D01*
X147315977Y-121830345D01*
X147169655Y-121684023D01*
X147169651Y-121684020D01*
X146997597Y-121569058D01*
X146806418Y-121489869D01*
X146603467Y-121449500D01*
X146603465Y-121449500D01*
X146396535Y-121449500D01*
X146396532Y-121449500D01*
X146193581Y-121489869D01*
X146002402Y-121569058D01*
X145830348Y-121684020D01*
X145684020Y-121830348D01*
X145569059Y-122002401D01*
X145564509Y-122013387D01*
X145524771Y-122059912D01*
X145473045Y-122074500D01*
X142580623Y-122074500D01*
X142550891Y-122069930D01*
X141794768Y-121831855D01*
X141744942Y-121796344D01*
X141725504Y-121738328D01*
X141725500Y-121737425D01*
X141725500Y-121506899D01*
X141725499Y-121506893D01*
X141714877Y-121418436D01*
X141659361Y-121277658D01*
X141567922Y-121157078D01*
X141553313Y-121146000D01*
X141447341Y-121065638D01*
X141400180Y-121047040D01*
X141352983Y-121008103D01*
X141337500Y-120954943D01*
X141337500Y-119896532D01*
X145449500Y-119896532D01*
X145449500Y-120103467D01*
X145489869Y-120306418D01*
X145569058Y-120497597D01*
X145620443Y-120574500D01*
X145684023Y-120669655D01*
X145830345Y-120815977D01*
X146002402Y-120930941D01*
X146193580Y-121010130D01*
X146396535Y-121050500D01*
X146396536Y-121050500D01*
X146603464Y-121050500D01*
X146603465Y-121050500D01*
X146806420Y-121010130D01*
X146997598Y-120930941D01*
X147169655Y-120815977D01*
X147315977Y-120669655D01*
X147430941Y-120497598D01*
X147510130Y-120306420D01*
X147550500Y-120103465D01*
X147550500Y-119896535D01*
X147510130Y-119693580D01*
X147430941Y-119502402D01*
X147315977Y-119330345D01*
X147169655Y-119184023D01*
X147103319Y-119139699D01*
X146997597Y-119069058D01*
X146806418Y-118989869D01*
X146603467Y-118949500D01*
X146603465Y-118949500D01*
X146396535Y-118949500D01*
X146396532Y-118949500D01*
X146193581Y-118989869D01*
X146002402Y-119069058D01*
X145830348Y-119184020D01*
X145684020Y-119330348D01*
X145569058Y-119502402D01*
X145489869Y-119693581D01*
X145449500Y-119896532D01*
X141337500Y-119896532D01*
X141337500Y-113545056D01*
X141356407Y-113486865D01*
X141400178Y-113452959D01*
X141447342Y-113434361D01*
X141567922Y-113342922D01*
X141659361Y-113222342D01*
X141714877Y-113081564D01*
X141725500Y-112993102D01*
X141725500Y-112006898D01*
X141714877Y-111918436D01*
X141692156Y-111860819D01*
X141688397Y-111799749D01*
X141721252Y-111748133D01*
X141778171Y-111725687D01*
X141784253Y-111725500D01*
X142215747Y-111725500D01*
X142273938Y-111744407D01*
X142309902Y-111793907D01*
X142309902Y-111855093D01*
X142307844Y-111860819D01*
X142285123Y-111918433D01*
X142274500Y-112006893D01*
X142274500Y-112993106D01*
X142285123Y-113081565D01*
X142340637Y-113222339D01*
X142340638Y-113222341D01*
X142340639Y-113222342D01*
X142432078Y-113342922D01*
X142552658Y-113434361D01*
X142599820Y-113452959D01*
X142621183Y-113470583D01*
X142643593Y-113486865D01*
X142644572Y-113489878D01*
X142647016Y-113491895D01*
X142662500Y-113545056D01*
X142662500Y-113693836D01*
X142643593Y-113752027D01*
X142633504Y-113763840D01*
X142543889Y-113853454D01*
X142543885Y-113853458D01*
X142467228Y-113968182D01*
X142467222Y-113968193D01*
X142414420Y-114095670D01*
X142414420Y-114095672D01*
X142387500Y-114231004D01*
X142387500Y-114368995D01*
X142405446Y-114459216D01*
X142412842Y-114496397D01*
X142414420Y-114504327D01*
X142414420Y-114504329D01*
X142467222Y-114631806D01*
X142467228Y-114631817D01*
X142543885Y-114746541D01*
X142641458Y-114844114D01*
X142756182Y-114920771D01*
X142756193Y-114920777D01*
X142803283Y-114940282D01*
X142883672Y-114973580D01*
X143019007Y-115000500D01*
X143019008Y-115000500D01*
X143156992Y-115000500D01*
X143156993Y-115000500D01*
X143292328Y-114973580D01*
X143419811Y-114920775D01*
X143534542Y-114844114D01*
X143632114Y-114746542D01*
X143708775Y-114631811D01*
X143761580Y-114504328D01*
X143788500Y-114368993D01*
X143788500Y-114231007D01*
X143761580Y-114095672D01*
X143727064Y-114012342D01*
X143708777Y-113968193D01*
X143708771Y-113968182D01*
X143632114Y-113853458D01*
X143542496Y-113763840D01*
X143538869Y-113756722D01*
X143532407Y-113752027D01*
X143525243Y-113729978D01*
X143514719Y-113709323D01*
X143513500Y-113693836D01*
X143513500Y-113544661D01*
X143532407Y-113486470D01*
X143576179Y-113452564D01*
X143622342Y-113434361D01*
X143742922Y-113342922D01*
X143834361Y-113222342D01*
X143889877Y-113081564D01*
X143900500Y-112993102D01*
X143900500Y-112006898D01*
X143889877Y-111918436D01*
X143834361Y-111777658D01*
X143742922Y-111657078D01*
X143622342Y-111565639D01*
X143622341Y-111565638D01*
X143555269Y-111539188D01*
X143508072Y-111500251D01*
X143492776Y-111441008D01*
X143495960Y-111421476D01*
X143513500Y-111356018D01*
X143513500Y-111044661D01*
X143532407Y-110986470D01*
X143576179Y-110952564D01*
X143622342Y-110934361D01*
X143742922Y-110842922D01*
X143834361Y-110722342D01*
X143889877Y-110581564D01*
X143900500Y-110493102D01*
X143900500Y-109506898D01*
X143889877Y-109418436D01*
X143889876Y-109418435D01*
X143889120Y-109412134D01*
X143892025Y-109411785D01*
X143893049Y-109396380D01*
X143893049Y-109368907D01*
X143895058Y-109366141D01*
X143895285Y-109362732D01*
X143912863Y-109341634D01*
X143929013Y-109319407D01*
X143932264Y-109318350D01*
X143934451Y-109315726D01*
X143987204Y-109300500D01*
X144012796Y-109300500D01*
X144070987Y-109319407D01*
X144106951Y-109368907D01*
X144108375Y-109411833D01*
X144110880Y-109412134D01*
X144099500Y-109506893D01*
X144099500Y-110493106D01*
X144110123Y-110581565D01*
X144165637Y-110722339D01*
X144165638Y-110722341D01*
X144165639Y-110722342D01*
X144257078Y-110842922D01*
X144348103Y-110911949D01*
X144372319Y-110930312D01*
X144407262Y-110980539D01*
X144411500Y-111009196D01*
X144411500Y-111490803D01*
X144392593Y-111548994D01*
X144372320Y-111569686D01*
X144257082Y-111657074D01*
X144257075Y-111657081D01*
X144165640Y-111777656D01*
X144165637Y-111777660D01*
X144110123Y-111918434D01*
X144099500Y-112006893D01*
X144099500Y-112993106D01*
X144110123Y-113081565D01*
X144165637Y-113222339D01*
X144165638Y-113222341D01*
X144165639Y-113222342D01*
X144257078Y-113342922D01*
X144377658Y-113434361D01*
X144377659Y-113434361D01*
X144377660Y-113434362D01*
X144423815Y-113452563D01*
X144518436Y-113489877D01*
X144606898Y-113500500D01*
X144606900Y-113500500D01*
X145218100Y-113500500D01*
X145218102Y-113500500D01*
X145306564Y-113489877D01*
X145447342Y-113434361D01*
X145567922Y-113342922D01*
X145659361Y-113222342D01*
X145714877Y-113081564D01*
X145725500Y-112993102D01*
X145725500Y-112006898D01*
X145714877Y-111918436D01*
X145659361Y-111777658D01*
X145567922Y-111657078D01*
X145501310Y-111606564D01*
X145451680Y-111568928D01*
X145416738Y-111518702D01*
X145412500Y-111490045D01*
X145412500Y-111009954D01*
X145431407Y-110951763D01*
X145451678Y-110931072D01*
X145567922Y-110842922D01*
X145659361Y-110722342D01*
X145714877Y-110581564D01*
X145725500Y-110493102D01*
X145725500Y-109506898D01*
X145714877Y-109418436D01*
X145659361Y-109277658D01*
X145567922Y-109157078D01*
X145534955Y-109132078D01*
X145451680Y-109068928D01*
X145416738Y-109018702D01*
X145412500Y-108990045D01*
X145412500Y-108734109D01*
X145412500Y-108734108D01*
X145378392Y-108606814D01*
X145378390Y-108606811D01*
X145378390Y-108606809D01*
X145312503Y-108492690D01*
X145312501Y-108492688D01*
X145312500Y-108492686D01*
X145219314Y-108399500D01*
X145219311Y-108399498D01*
X145219309Y-108399496D01*
X145105189Y-108333609D01*
X145105191Y-108333609D01*
X145055799Y-108320375D01*
X144977892Y-108299500D01*
X144977890Y-108299500D01*
X141651271Y-108299500D01*
X141604301Y-108287648D01*
X139333194Y-107063585D01*
X139331905Y-107062890D01*
X139281186Y-107033608D01*
X139274005Y-107031683D01*
X139267458Y-107028155D01*
X139211892Y-107014996D01*
X139209086Y-107014288D01*
X139153894Y-106999500D01*
X139147458Y-106998653D01*
X139147508Y-106998271D01*
X139145720Y-106998063D01*
X139145682Y-106998445D01*
X139139223Y-106997786D01*
X139139220Y-106997786D01*
X139109602Y-106998653D01*
X139082100Y-106999458D01*
X139079205Y-106999500D01*
X133614763Y-106999500D01*
X133556572Y-106980593D01*
X133520608Y-106931093D01*
X133515794Y-106898012D01*
X133532821Y-106220775D01*
X133562944Y-105022684D01*
X133583308Y-104964990D01*
X133617352Y-104939301D01*
X133616440Y-104937679D01*
X133622333Y-104934364D01*
X133622342Y-104934361D01*
X133742922Y-104842922D01*
X133834361Y-104722342D01*
X133889877Y-104581564D01*
X133900500Y-104493102D01*
X133900500Y-103506898D01*
X133900499Y-103506893D01*
X134099500Y-103506893D01*
X134099500Y-104493106D01*
X134110123Y-104581565D01*
X134165637Y-104722339D01*
X134165638Y-104722341D01*
X134165639Y-104722342D01*
X134257078Y-104842922D01*
X134377658Y-104934361D01*
X134377659Y-104934361D01*
X134377660Y-104934362D01*
X134435406Y-104957134D01*
X134518436Y-104989877D01*
X134606898Y-105000500D01*
X134606900Y-105000500D01*
X135218100Y-105000500D01*
X135218102Y-105000500D01*
X135306564Y-104989877D01*
X135447342Y-104934361D01*
X135567922Y-104842922D01*
X135659361Y-104722342D01*
X135659364Y-104722333D01*
X135662679Y-104716440D01*
X135665640Y-104718105D01*
X135695446Y-104681625D01*
X135754615Y-104666047D01*
X135811641Y-104688224D01*
X135835135Y-104720402D01*
X135836569Y-104719596D01*
X135839888Y-104725498D01*
X135839889Y-104725500D01*
X135930289Y-104844711D01*
X136049500Y-104935111D01*
X136049501Y-104935111D01*
X136049501Y-104935112D01*
X136152680Y-104975800D01*
X136188679Y-104989997D01*
X136276140Y-105000500D01*
X136276142Y-105000500D01*
X136848858Y-105000500D01*
X136848860Y-105000500D01*
X136936321Y-104989997D01*
X137039501Y-104949307D01*
X137075498Y-104935112D01*
X137075498Y-104935111D01*
X137075500Y-104935111D01*
X137194711Y-104844711D01*
X137285111Y-104725500D01*
X137286357Y-104722342D01*
X137302413Y-104681625D01*
X137339997Y-104586321D01*
X137350500Y-104498860D01*
X137350500Y-103501140D01*
X137350499Y-103501135D01*
X137649500Y-103501135D01*
X137649500Y-104498864D01*
X137660003Y-104586322D01*
X137714887Y-104725498D01*
X137714889Y-104725500D01*
X137805289Y-104844711D01*
X137805292Y-104844713D01*
X137924501Y-104935112D01*
X137930399Y-104938428D01*
X137928845Y-104941191D01*
X137965899Y-104971735D01*
X137981220Y-105030971D01*
X137958797Y-105087900D01*
X137952409Y-105094933D01*
X137893894Y-105153448D01*
X137893885Y-105153458D01*
X137817228Y-105268182D01*
X137817222Y-105268193D01*
X137764420Y-105395670D01*
X137764420Y-105395672D01*
X137737500Y-105531004D01*
X137737500Y-105668995D01*
X137764420Y-105804327D01*
X137764420Y-105804329D01*
X137817222Y-105931806D01*
X137817228Y-105931817D01*
X137893885Y-106046541D01*
X137991458Y-106144114D01*
X138106182Y-106220771D01*
X138106193Y-106220777D01*
X138153283Y-106240282D01*
X138233672Y-106273580D01*
X138369007Y-106300500D01*
X138369008Y-106300500D01*
X138506992Y-106300500D01*
X138506993Y-106300500D01*
X138642328Y-106273580D01*
X138769811Y-106220775D01*
X138884542Y-106144114D01*
X138982114Y-106046542D01*
X139058775Y-105931811D01*
X139111580Y-105804328D01*
X139138500Y-105668993D01*
X139138500Y-105531007D01*
X139111580Y-105395672D01*
X139058775Y-105268189D01*
X139058774Y-105268187D01*
X139058771Y-105268182D01*
X138982114Y-105153458D01*
X138923286Y-105094630D01*
X138895509Y-105040113D01*
X138905080Y-104979681D01*
X138944780Y-104938326D01*
X138950491Y-104935114D01*
X138950500Y-104935111D01*
X139069711Y-104844711D01*
X139160111Y-104725500D01*
X139161357Y-104722342D01*
X139177413Y-104681625D01*
X139214997Y-104586321D01*
X139225500Y-104498860D01*
X139225500Y-103501140D01*
X139214997Y-103413679D01*
X139183545Y-103333924D01*
X139160112Y-103274501D01*
X139071070Y-103157081D01*
X139069711Y-103155289D01*
X138950500Y-103064889D01*
X138950498Y-103064888D01*
X138950498Y-103064887D01*
X138811322Y-103010003D01*
X138723864Y-102999500D01*
X138723860Y-102999500D01*
X138151140Y-102999500D01*
X138151135Y-102999500D01*
X138063677Y-103010003D01*
X137924501Y-103064887D01*
X137924501Y-103064888D01*
X137805292Y-103155286D01*
X137805286Y-103155292D01*
X137714888Y-103274501D01*
X137714887Y-103274501D01*
X137660003Y-103413677D01*
X137649500Y-103501135D01*
X137350499Y-103501135D01*
X137339997Y-103413679D01*
X137308545Y-103333924D01*
X137285112Y-103274501D01*
X137196070Y-103157081D01*
X137194711Y-103155289D01*
X137075500Y-103064889D01*
X137075498Y-103064888D01*
X137075498Y-103064887D01*
X136936322Y-103010003D01*
X136848864Y-102999500D01*
X136848860Y-102999500D01*
X136276140Y-102999500D01*
X136276135Y-102999500D01*
X136188677Y-103010003D01*
X136049501Y-103064887D01*
X136049501Y-103064888D01*
X135930292Y-103155286D01*
X135930286Y-103155292D01*
X135839888Y-103274501D01*
X135836569Y-103280404D01*
X135834607Y-103279301D01*
X135802157Y-103318631D01*
X135742914Y-103333924D01*
X135685996Y-103311474D01*
X135664835Y-103282347D01*
X135662679Y-103283560D01*
X135659363Y-103277663D01*
X135659361Y-103277658D01*
X135567922Y-103157078D01*
X135447342Y-103065639D01*
X135447341Y-103065638D01*
X135447339Y-103065637D01*
X135306565Y-103010123D01*
X135218106Y-102999500D01*
X135218102Y-102999500D01*
X134606898Y-102999500D01*
X134606893Y-102999500D01*
X134518434Y-103010123D01*
X134377660Y-103065637D01*
X134377656Y-103065640D01*
X134257081Y-103157075D01*
X134257075Y-103157081D01*
X134165640Y-103277656D01*
X134165637Y-103277660D01*
X134110123Y-103418434D01*
X134099500Y-103506893D01*
X133900499Y-103506893D01*
X133889877Y-103418436D01*
X133847696Y-103311474D01*
X133834362Y-103277660D01*
X133834361Y-103277659D01*
X133834361Y-103277658D01*
X133742922Y-103157078D01*
X133622342Y-103065639D01*
X133622341Y-103065638D01*
X133622339Y-103065637D01*
X133481565Y-103010123D01*
X133393106Y-102999500D01*
X133393102Y-102999500D01*
X132781898Y-102999500D01*
X132781893Y-102999500D01*
X132693434Y-103010123D01*
X132552660Y-103065637D01*
X132552656Y-103065640D01*
X132432081Y-103157075D01*
X132432075Y-103157081D01*
X132340640Y-103277656D01*
X132340637Y-103277660D01*
X132285123Y-103418434D01*
X132274500Y-103506893D01*
X132274500Y-104493106D01*
X132285123Y-104581565D01*
X132340637Y-104722339D01*
X132340638Y-104722341D01*
X132340639Y-104722342D01*
X132432078Y-104842922D01*
X132523215Y-104912034D01*
X132558157Y-104962260D01*
X132562364Y-104993405D01*
X132555455Y-105268193D01*
X132530178Y-106273580D01*
X132514353Y-106902988D01*
X132493989Y-106960685D01*
X132443601Y-106995394D01*
X132415384Y-106999500D01*
X111015892Y-106999500D01*
X110884108Y-106999500D01*
X110826276Y-107014996D01*
X110756809Y-107033609D01*
X110642690Y-107099496D01*
X110549496Y-107192690D01*
X110483609Y-107306809D01*
X110449500Y-107434109D01*
X110449500Y-108974903D01*
X110430593Y-109033094D01*
X110410320Y-109053786D01*
X110307082Y-109132074D01*
X110307075Y-109132081D01*
X110215640Y-109252656D01*
X110215637Y-109252660D01*
X110160123Y-109393434D01*
X110149500Y-109481893D01*
X110149500Y-110518106D01*
X110160123Y-110606565D01*
X110215637Y-110747339D01*
X110215640Y-110747343D01*
X110219188Y-110752022D01*
X110239282Y-110809814D01*
X110236608Y-110834784D01*
X109993526Y-111855093D01*
X109957360Y-112006898D01*
X109955800Y-112013444D01*
X109923921Y-112065668D01*
X109867434Y-112089181D01*
X109859495Y-112089500D01*
X109596893Y-112089500D01*
X109508434Y-112100123D01*
X109367660Y-112155637D01*
X109367656Y-112155640D01*
X109247081Y-112247075D01*
X109247075Y-112247081D01*
X109155640Y-112367656D01*
X109155637Y-112367660D01*
X109100123Y-112508434D01*
X109089500Y-112596893D01*
X100500000Y-112596893D01*
X100500000Y-100599000D01*
X100518907Y-100540809D01*
X100568407Y-100504845D01*
X100599000Y-100500000D01*
X149401000Y-100500000D01*
X149459191Y-100518907D01*
G37*
%TD.AperFunction*%
%TD*%
M02*
