%TF.GenerationSoftware,KiCad,Pcbnew,10.0.4*%
%TF.CreationDate,2026-08-28T16:02:58-04:00*%
%TF.ProjectId,photomarker,70686f74-6f6d-4617-926b-65722e6b6963,rev?*%
%TF.SameCoordinates,Original*%
%TF.FileFunction,Copper,L1,Top*%
%TF.FilePolarity,Positive*%
%FSLAX46Y46*%
G04 Gerber Fmt 4.6, Leading zero omitted, Abs format (unit mm)*
G04 Created by KiCad (PCBNEW 10.0.4) date 2026-08-28 16:02:58*
%MOMM*%
%LPD*%
G01*
G04 APERTURE LIST*
G04 Aperture macros list*
%AMRoundRect*
0 Rectangle with rounded corners*
0 $1 Rounding radius*
0 $2 $3 $4 $5 $6 $7 $8 $9 X,Y pos of 4 corners*
0 Add a 4 corners polygon primitive as box body*
4,1,4,$2,$3,$4,$5,$6,$7,$8,$9,$2,$3,0*
0 Add four circle primitives for the rounded corners*
1,1,$1+$1,$2,$3*
1,1,$1+$1,$4,$5*
1,1,$1+$1,$6,$7*
1,1,$1+$1,$8,$9*
0 Add four rect primitives between the rounded corners*
20,1,$1+$1,$2,$3,$4,$5,0*
20,1,$1+$1,$4,$5,$6,$7,0*
20,1,$1+$1,$6,$7,$8,$9,0*
20,1,$1+$1,$8,$9,$2,$3,0*%
G04 Aperture macros list end*
%TA.AperFunction,ComponentPad*%
%ADD10C,1.500000*%
%TD*%
%TA.AperFunction,ComponentPad*%
%ADD11C,6.400000*%
%TD*%
%TA.AperFunction,ComponentPad*%
%ADD12RoundRect,0.250000X-0.550000X-0.550000X0.550000X-0.550000X0.550000X0.550000X-0.550000X0.550000X0*%
%TD*%
%TA.AperFunction,ComponentPad*%
%ADD13C,1.600000*%
%TD*%
%TA.AperFunction,ComponentPad*%
%ADD14RoundRect,0.250000X-0.350000X-0.625000X0.350000X-0.625000X0.350000X0.625000X-0.350000X0.625000X0*%
%TD*%
%TA.AperFunction,ComponentPad*%
%ADD15O,1.200000X1.750000*%
%TD*%
%TA.AperFunction,ComponentPad*%
%ADD16R,1.700000X1.700000*%
%TD*%
%TA.AperFunction,ComponentPad*%
%ADD17C,1.700000*%
%TD*%
%TA.AperFunction,ViaPad*%
%ADD18C,0.800000*%
%TD*%
%TA.AperFunction,Conductor*%
%ADD19C,0.400000*%
%TD*%
%TA.AperFunction,Conductor*%
%ADD20C,0.250000*%
%TD*%
G04 APERTURE END LIST*
D10*
%TO.P,TP4,1*%
%TO.N,CMPA_OUT*%
X146500000Y-120000000D03*
%TD*%
%TO.P,TP3,1*%
%TO.N,THRESH_A*%
X146500000Y-122500000D03*
%TD*%
D11*
%TO.P,H3,1*%
%TO.N,GND*%
X105000000Y-129000000D03*
%TD*%
%TO.P,H1,1*%
%TO.N,GND*%
X105000000Y-105000000D03*
%TD*%
D10*
%TO.P,TP2,1*%
%TO.N,FILT*%
X122500000Y-118500000D03*
%TD*%
%TO.P,TP5,1*%
%TO.N,GND*%
X121500000Y-111000000D03*
%TD*%
D11*
%TO.P,H4,1*%
%TO.N,GND*%
X145000000Y-129000000D03*
%TD*%
%TO.P,H2,1*%
%TO.N,GND*%
X145000000Y-105000000D03*
%TD*%
D10*
%TO.P,TP1,1*%
%TO.N,OPT_OUT*%
X121500000Y-114500000D03*
%TD*%
D12*
%TO.P,U1,1*%
%TO.N,+3V3*%
X110190000Y-113190000D03*
D13*
%TO.P,U1,2*%
%TO.N,OPT_INN*%
X110190000Y-115730000D03*
%TO.P,U1,3*%
%TO.N,GND*%
X110190000Y-118270000D03*
%TO.P,U1,4*%
%TO.N,OPT_OUT*%
X110190000Y-120810000D03*
%TO.P,U1,5*%
X117810000Y-120810000D03*
%TO.P,U1,6*%
%TO.N,N/C*%
X117810000Y-118270000D03*
%TO.P,U1,7*%
X117810000Y-115730000D03*
%TO.P,U1,8*%
%TO.N,GND*%
X117810000Y-113190000D03*
%TD*%
D14*
%TO.P,J1,1*%
%TO.N,+3V3*%
X112000000Y-131000000D03*
D15*
%TO.P,J1,2*%
%TO.N,GND*%
X114000000Y-131000000D03*
%TO.P,J1,3*%
%TO.N,FILT*%
X116000000Y-131000000D03*
%TO.P,J1,4*%
%TO.N,DI2*%
X118000000Y-131000000D03*
%TO.P,J1,5*%
%TO.N,DI1*%
X120000000Y-131000000D03*
%TD*%
D16*
%TO.P,J2,1*%
%TO.N,+3V3*%
X112000000Y-125500000D03*
D17*
%TO.P,J2,2*%
%TO.N,GND*%
X114540000Y-125500000D03*
%TO.P,J2,3*%
%TO.N,FILT*%
X117080000Y-125500000D03*
%TO.P,J2,4*%
%TO.N,DI2*%
X119620000Y-125500000D03*
%TO.P,J2,5*%
%TO.N,DI1*%
X122160000Y-125500000D03*
%TD*%
D18*
%TO.N,GND*%
X135600000Y-111500000D03*
%TO.N,FILT*%
X125800000Y-122000000D03*
%TO.N,THRESH_B*%
X131500000Y-122200000D03*
X127200000Y-114400000D03*
%TO.N,CMPA_OUT*%
X139088000Y-114300000D03*
X138438000Y-105600000D03*
X137800000Y-113600000D03*
X143088000Y-114300000D03*
X142800000Y-123900000D03*
%TO.N,CMPB_OUT*%
X129900000Y-116365000D03*
X133000000Y-119600000D03*
%TO.N,DI1*%
X137600000Y-126800000D03*
%TO.N,DI2*%
X136900000Y-123200000D03*
%TD*%
%TO.N,+3V3*%
D19*
X110190000Y-113190000D02*
X108700000Y-114500000D01*
X108700000Y-114500000D02*
X108700000Y-129000000D01*
X108700000Y-129000000D02*
X112000000Y-131000000D01*
%TO.N,FILT*%
D20*
X124000000Y-122900000D02*
X117080000Y-122900000D01*
X117080000Y-122900000D02*
X117080000Y-125500000D01*
X125800000Y-122000000D02*
X124000000Y-122900000D01*
%TO.N,THRESH_B*%
X131500000Y-123000000D02*
X131500000Y-122200000D01*
X127200000Y-114400000D02*
X127200000Y-123000000D01*
X127200000Y-123000000D02*
X131500000Y-123000000D01*
%TO.N,CMPA_OUT*%
X138000000Y-113600000D02*
X137800000Y-113600000D01*
X146500000Y-120000000D02*
X144200000Y-120000000D01*
X138438000Y-105600000D02*
X138000000Y-106500000D01*
X138000000Y-106500000D02*
X138000000Y-113600000D01*
X144200000Y-120000000D02*
X142800000Y-119000000D01*
X142800000Y-123900000D02*
X142800000Y-114300000D01*
X142800000Y-114300000D02*
X143088000Y-114300000D01*
X143088000Y-114300000D02*
X139088000Y-114300000D01*
%TO.N,CMPB_OUT*%
X129900000Y-116365000D02*
X129900000Y-120500000D01*
X129900000Y-120500000D02*
X133000000Y-119600000D01*
%TO.N,DI1*%
X137000000Y-124600000D02*
X122160000Y-124600000D01*
X122160000Y-124600000D02*
X122160000Y-125500000D01*
X137600000Y-126800000D02*
X137000000Y-124600000D01*
%TO.N,DI2*%
X119620000Y-123600000D02*
X119620000Y-125500000D01*
X135000000Y-123600000D02*
X119620000Y-123600000D01*
X136900000Y-123200000D02*
X135000000Y-123600000D01*
%TD*%
%TA.AperFunction,Conductor*%
%TO.N,GND*%
G36*
X149459191Y-100518907D02*
G01*
X149495155Y-100568407D01*
X149500000Y-100599000D01*
X149500000Y-133401000D01*
X149481093Y-133459191D01*
X149431593Y-133495155D01*
X149401000Y-133500000D01*
X100599000Y-133500000D01*
X100540809Y-133481093D01*
X100504845Y-133431593D01*
X100500000Y-133401000D01*
X100500000Y-114533648D01*
X108196304Y-114533648D01*
X108198211Y-114543173D01*
X108198638Y-114546386D01*
X108198358Y-114547904D01*
X108199500Y-114559424D01*
X108199500Y-128993599D01*
X108199478Y-128995704D01*
X108198211Y-129055232D01*
X108198804Y-129060618D01*
X108199499Y-129065889D01*
X108214902Y-129123379D01*
X108215424Y-129125414D01*
X108229604Y-129183221D01*
X108231565Y-129188254D01*
X108233607Y-129193185D01*
X108263377Y-129244749D01*
X108264381Y-129246531D01*
X108293056Y-129298729D01*
X108296240Y-129303066D01*
X108299500Y-129307314D01*
X108341602Y-129349417D01*
X108342339Y-129350154D01*
X108384239Y-129393875D01*
X108388864Y-129396678D01*
X108392686Y-129400500D01*
X108444221Y-129430253D01*
X108445987Y-129431297D01*
X110434258Y-130636310D01*
X111051812Y-131010585D01*
X111091777Y-131056915D01*
X111099500Y-131095250D01*
X111099500Y-131668106D01*
X111110123Y-131756565D01*
X111165637Y-131897339D01*
X111165638Y-131897341D01*
X111165639Y-131897342D01*
X111257078Y-132017922D01*
X111377658Y-132109361D01*
X111377659Y-132109361D01*
X111377660Y-132109362D01*
X111448047Y-132137119D01*
X111518436Y-132164877D01*
X111606898Y-132175500D01*
X111606900Y-132175500D01*
X112393100Y-132175500D01*
X112393102Y-132175500D01*
X112481564Y-132164877D01*
X112622342Y-132109361D01*
X112742922Y-132017922D01*
X112834361Y-131897342D01*
X112889877Y-131756564D01*
X112900500Y-131668102D01*
X112900500Y-130636306D01*
X115099500Y-130636306D01*
X115099500Y-131363693D01*
X115134106Y-131537665D01*
X115134106Y-131537667D01*
X115201985Y-131701544D01*
X115201985Y-131701545D01*
X115238748Y-131756564D01*
X115300536Y-131849035D01*
X115425965Y-131974464D01*
X115573453Y-132073013D01*
X115737334Y-132140894D01*
X115911309Y-132175500D01*
X115911310Y-132175500D01*
X116088690Y-132175500D01*
X116088691Y-132175500D01*
X116262666Y-132140894D01*
X116426547Y-132073013D01*
X116574035Y-131974464D01*
X116699464Y-131849035D01*
X116798013Y-131701547D01*
X116865894Y-131537666D01*
X116900500Y-131363691D01*
X116900500Y-130636309D01*
X116900499Y-130636306D01*
X117099500Y-130636306D01*
X117099500Y-131363693D01*
X117134106Y-131537665D01*
X117134106Y-131537667D01*
X117201985Y-131701544D01*
X117201985Y-131701545D01*
X117238748Y-131756564D01*
X117300536Y-131849035D01*
X117425965Y-131974464D01*
X117573453Y-132073013D01*
X117737334Y-132140894D01*
X117911309Y-132175500D01*
X117911310Y-132175500D01*
X118088690Y-132175500D01*
X118088691Y-132175500D01*
X118262666Y-132140894D01*
X118426547Y-132073013D01*
X118574035Y-131974464D01*
X118699464Y-131849035D01*
X118798013Y-131701547D01*
X118865894Y-131537666D01*
X118900500Y-131363691D01*
X118900500Y-130636309D01*
X118900499Y-130636306D01*
X119099500Y-130636306D01*
X119099500Y-131363693D01*
X119134106Y-131537665D01*
X119134106Y-131537667D01*
X119201985Y-131701544D01*
X119201985Y-131701545D01*
X119238748Y-131756564D01*
X119300536Y-131849035D01*
X119425965Y-131974464D01*
X119573453Y-132073013D01*
X119737334Y-132140894D01*
X119911309Y-132175500D01*
X119911310Y-132175500D01*
X120088690Y-132175500D01*
X120088691Y-132175500D01*
X120262666Y-132140894D01*
X120426547Y-132073013D01*
X120574035Y-131974464D01*
X120699464Y-131849035D01*
X120798013Y-131701547D01*
X120865894Y-131537666D01*
X120900500Y-131363691D01*
X120900500Y-130636309D01*
X120865894Y-130462334D01*
X120798014Y-130298455D01*
X120798014Y-130298454D01*
X120699464Y-130150965D01*
X120574034Y-130025535D01*
X120426544Y-129926985D01*
X120262666Y-129859106D01*
X120088693Y-129824500D01*
X120088691Y-129824500D01*
X119911309Y-129824500D01*
X119911306Y-129824500D01*
X119737334Y-129859106D01*
X119737332Y-129859106D01*
X119573455Y-129926985D01*
X119573454Y-129926985D01*
X119425965Y-130025535D01*
X119300535Y-130150965D01*
X119201985Y-130298454D01*
X119201985Y-130298455D01*
X119134106Y-130462332D01*
X119134106Y-130462334D01*
X119099500Y-130636306D01*
X118900499Y-130636306D01*
X118865894Y-130462334D01*
X118798014Y-130298455D01*
X118798014Y-130298454D01*
X118699464Y-130150965D01*
X118574034Y-130025535D01*
X118426544Y-129926985D01*
X118262666Y-129859106D01*
X118088693Y-129824500D01*
X118088691Y-129824500D01*
X117911309Y-129824500D01*
X117911306Y-129824500D01*
X117737334Y-129859106D01*
X117737332Y-129859106D01*
X117573455Y-129926985D01*
X117573454Y-129926985D01*
X117425965Y-130025535D01*
X117300535Y-130150965D01*
X117201985Y-130298454D01*
X117201985Y-130298455D01*
X117134106Y-130462332D01*
X117134106Y-130462334D01*
X117099500Y-130636306D01*
X116900499Y-130636306D01*
X116865894Y-130462334D01*
X116798014Y-130298455D01*
X116798014Y-130298454D01*
X116699464Y-130150965D01*
X116574034Y-130025535D01*
X116426544Y-129926985D01*
X116262666Y-129859106D01*
X116088693Y-129824500D01*
X116088691Y-129824500D01*
X115911309Y-129824500D01*
X115911306Y-129824500D01*
X115737334Y-129859106D01*
X115737332Y-129859106D01*
X115573455Y-129926985D01*
X115573454Y-129926985D01*
X115425965Y-130025535D01*
X115300535Y-130150965D01*
X115201985Y-130298454D01*
X115201985Y-130298455D01*
X115134106Y-130462332D01*
X115134106Y-130462334D01*
X115099500Y-130636306D01*
X112900500Y-130636306D01*
X112900500Y-130331898D01*
X112889877Y-130243436D01*
X112834361Y-130102658D01*
X112742922Y-129982078D01*
X112622342Y-129890639D01*
X112622341Y-129890638D01*
X112622339Y-129890637D01*
X112481565Y-129835123D01*
X112393106Y-129824500D01*
X112393102Y-129824500D01*
X111606898Y-129824500D01*
X111606893Y-129824500D01*
X111518434Y-129835123D01*
X111377660Y-129890637D01*
X111377657Y-129890639D01*
X111323561Y-129931661D01*
X111265770Y-129951755D01*
X111212431Y-129937441D01*
X109248188Y-128746990D01*
X109208223Y-128700660D01*
X109200500Y-128662325D01*
X109200500Y-124605130D01*
X110849500Y-124605130D01*
X110849500Y-126394860D01*
X110849501Y-126394863D01*
X110852414Y-126419990D01*
X110873696Y-126468188D01*
X110897794Y-126522765D01*
X110977235Y-126602206D01*
X111080009Y-126647585D01*
X111105135Y-126650500D01*
X112894864Y-126650499D01*
X112919991Y-126647585D01*
X113022765Y-126602206D01*
X113102206Y-126522765D01*
X113147585Y-126419991D01*
X113150500Y-126394865D01*
X113150499Y-125409450D01*
X115929500Y-125409450D01*
X115929500Y-125590549D01*
X115957828Y-125769406D01*
X115957829Y-125769409D01*
X116013789Y-125941639D01*
X116096004Y-126102994D01*
X116202447Y-126249501D01*
X116330499Y-126377553D01*
X116477006Y-126483996D01*
X116638361Y-126566211D01*
X116810591Y-126622171D01*
X116882136Y-126633502D01*
X116989451Y-126650500D01*
X116989454Y-126650500D01*
X117170549Y-126650500D01*
X117259977Y-126636335D01*
X117349409Y-126622171D01*
X117521639Y-126566211D01*
X117682994Y-126483996D01*
X117829501Y-126377553D01*
X117957553Y-126249501D01*
X118063996Y-126102994D01*
X118146211Y-125941639D01*
X118202171Y-125769409D01*
X118230500Y-125590546D01*
X118230500Y-125409454D01*
X118230500Y-125409450D01*
X118211614Y-125290212D01*
X118202171Y-125230591D01*
X118146211Y-125058361D01*
X118063996Y-124897006D01*
X117957553Y-124750499D01*
X117829501Y-124622447D01*
X117682994Y-124516004D01*
X117682990Y-124516001D01*
X117682983Y-124515997D01*
X117559555Y-124453107D01*
X117516290Y-124409843D01*
X117505500Y-124364898D01*
X117505500Y-123424500D01*
X117524407Y-123366309D01*
X117573907Y-123330345D01*
X117604500Y-123325500D01*
X119124023Y-123325500D01*
X119182214Y-123344407D01*
X119218178Y-123393907D01*
X119219649Y-123450120D01*
X119197760Y-123531817D01*
X119194500Y-123543983D01*
X119194500Y-124364898D01*
X119175593Y-124423089D01*
X119140445Y-124453107D01*
X119017016Y-124515997D01*
X119017009Y-124516001D01*
X118937760Y-124573579D01*
X118870499Y-124622447D01*
X118742447Y-124750499D01*
X118689225Y-124823752D01*
X118636002Y-124897008D01*
X118553788Y-125058362D01*
X118497828Y-125230593D01*
X118469500Y-125409450D01*
X118469500Y-125590549D01*
X118497828Y-125769406D01*
X118497829Y-125769409D01*
X118553789Y-125941639D01*
X118636004Y-126102994D01*
X118742447Y-126249501D01*
X118870499Y-126377553D01*
X119017006Y-126483996D01*
X119178361Y-126566211D01*
X119350591Y-126622171D01*
X119422136Y-126633502D01*
X119529451Y-126650500D01*
X119529454Y-126650500D01*
X119710549Y-126650500D01*
X119799977Y-126636335D01*
X119889409Y-126622171D01*
X120061639Y-126566211D01*
X120222994Y-126483996D01*
X120369501Y-126377553D01*
X120497553Y-126249501D01*
X120603996Y-126102994D01*
X120686211Y-125941639D01*
X120742171Y-125769409D01*
X120770500Y-125590546D01*
X120770500Y-125409454D01*
X120770500Y-125409450D01*
X120751614Y-125290212D01*
X120742171Y-125230591D01*
X120686211Y-125058361D01*
X120603996Y-124897006D01*
X120497553Y-124750499D01*
X120369501Y-124622447D01*
X120222994Y-124516004D01*
X120222990Y-124516001D01*
X120222983Y-124515997D01*
X120099555Y-124453107D01*
X120056290Y-124409843D01*
X120045500Y-124364898D01*
X120045500Y-124124500D01*
X120064407Y-124066309D01*
X120113907Y-124030345D01*
X120144500Y-124025500D01*
X121934589Y-124025500D01*
X121992780Y-124044407D01*
X122028744Y-124093907D01*
X122028744Y-124155093D01*
X121992780Y-124204593D01*
X121984090Y-124210236D01*
X121898735Y-124259515D01*
X121819514Y-124338736D01*
X121794320Y-124382372D01*
X121748849Y-124423312D01*
X121739181Y-124427024D01*
X121718360Y-124433789D01*
X121557008Y-124516002D01*
X121550439Y-124520775D01*
X121410499Y-124622447D01*
X121282447Y-124750499D01*
X121229225Y-124823752D01*
X121176002Y-124897008D01*
X121093788Y-125058362D01*
X121037828Y-125230593D01*
X121009500Y-125409450D01*
X121009500Y-125590549D01*
X121037828Y-125769406D01*
X121037829Y-125769409D01*
X121093789Y-125941639D01*
X121176004Y-126102994D01*
X121282447Y-126249501D01*
X121410499Y-126377553D01*
X121557006Y-126483996D01*
X121718361Y-126566211D01*
X121890591Y-126622171D01*
X121962136Y-126633502D01*
X122069451Y-126650500D01*
X122069454Y-126650500D01*
X122250549Y-126650500D01*
X122339977Y-126636335D01*
X122429409Y-126622171D01*
X122601639Y-126566211D01*
X122762994Y-126483996D01*
X122909501Y-126377553D01*
X123037553Y-126249501D01*
X123143996Y-126102994D01*
X123226211Y-125941639D01*
X123282171Y-125769409D01*
X123310500Y-125590546D01*
X123310500Y-125409454D01*
X123310500Y-125409450D01*
X123282172Y-125230595D01*
X123282171Y-125230591D01*
X123257640Y-125155091D01*
X123257640Y-125093907D01*
X123293604Y-125044407D01*
X123351795Y-125025500D01*
X136599389Y-125025500D01*
X136657580Y-125044407D01*
X136693544Y-125093907D01*
X136694897Y-125098438D01*
X136829108Y-125590546D01*
X137030725Y-126329811D01*
X137027794Y-126390927D01*
X137017529Y-126410860D01*
X136979225Y-126468187D01*
X136979224Y-126468188D01*
X136926420Y-126595670D01*
X136926420Y-126595672D01*
X136899500Y-126731004D01*
X136899500Y-126868995D01*
X136926420Y-127004327D01*
X136926420Y-127004329D01*
X136979222Y-127131806D01*
X136979228Y-127131817D01*
X137055885Y-127246541D01*
X137153458Y-127344114D01*
X137268182Y-127420771D01*
X137268193Y-127420777D01*
X137315283Y-127440282D01*
X137395672Y-127473580D01*
X137531007Y-127500500D01*
X137531008Y-127500500D01*
X137668992Y-127500500D01*
X137668993Y-127500500D01*
X137804328Y-127473580D01*
X137931811Y-127420775D01*
X138046542Y-127344114D01*
X138144114Y-127246542D01*
X138220775Y-127131811D01*
X138273580Y-127004328D01*
X138300500Y-126868993D01*
X138300500Y-126731007D01*
X138273580Y-126595672D01*
X138227323Y-126483997D01*
X138220777Y-126468193D01*
X138220771Y-126468182D01*
X138144114Y-126353458D01*
X138046541Y-126255885D01*
X137931817Y-126179228D01*
X137931809Y-126179224D01*
X137908939Y-126169751D01*
X137862414Y-126130014D01*
X137851313Y-126104336D01*
X137806941Y-125941637D01*
X137410737Y-124488887D01*
X137396503Y-124435763D01*
X137396028Y-124434941D01*
X137395775Y-124434013D01*
X137395769Y-124434002D01*
X137395768Y-124433999D01*
X137368005Y-124386404D01*
X137340485Y-124338737D01*
X137339807Y-124338059D01*
X137339322Y-124337227D01*
X137339318Y-124337223D01*
X137300328Y-124298578D01*
X137300153Y-124298404D01*
X137261257Y-124259509D01*
X137260369Y-124258827D01*
X137260248Y-124258735D01*
X137259775Y-124258372D01*
X137212082Y-124231119D01*
X137211916Y-124231024D01*
X137164237Y-124203497D01*
X137163305Y-124203247D01*
X137162470Y-124202770D01*
X137109473Y-124188822D01*
X137109079Y-124188717D01*
X137056014Y-124174499D01*
X137054828Y-124174343D01*
X137054827Y-124174342D01*
X137054157Y-124174254D01*
X136999340Y-124174499D01*
X136998899Y-124174500D01*
X135287358Y-124174500D01*
X135229167Y-124155593D01*
X135193203Y-124106093D01*
X135193203Y-124044907D01*
X135229167Y-123995407D01*
X135266963Y-123978624D01*
X135380263Y-123954771D01*
X136395311Y-123741077D01*
X136456147Y-123747590D01*
X136470699Y-123755634D01*
X136522715Y-123790390D01*
X136568182Y-123820771D01*
X136568193Y-123820777D01*
X136615283Y-123840282D01*
X136695672Y-123873580D01*
X136831007Y-123900500D01*
X136831008Y-123900500D01*
X136968992Y-123900500D01*
X136968993Y-123900500D01*
X137104328Y-123873580D01*
X137231811Y-123820775D01*
X137346542Y-123744114D01*
X137444114Y-123646542D01*
X137520775Y-123531811D01*
X137573580Y-123404328D01*
X137600500Y-123268993D01*
X137600500Y-123131007D01*
X137573580Y-122995672D01*
X137520775Y-122868189D01*
X137520774Y-122868187D01*
X137520771Y-122868182D01*
X137444114Y-122753458D01*
X137346541Y-122655885D01*
X137231817Y-122579228D01*
X137231806Y-122579222D01*
X137104328Y-122526420D01*
X136968995Y-122499500D01*
X136968993Y-122499500D01*
X136831007Y-122499500D01*
X136831004Y-122499500D01*
X136695672Y-122526420D01*
X136695670Y-122526420D01*
X136568193Y-122579222D01*
X136568182Y-122579228D01*
X136453458Y-122655885D01*
X136355889Y-122753454D01*
X136355886Y-122753458D01*
X136280131Y-122866833D01*
X136232081Y-122904712D01*
X136218211Y-122908707D01*
X134965783Y-123172376D01*
X134945388Y-123174500D01*
X132022772Y-123174500D01*
X131964581Y-123155593D01*
X131928617Y-123106093D01*
X131927479Y-123062822D01*
X131924653Y-123062450D01*
X131925500Y-123056017D01*
X131925500Y-122806163D01*
X131944407Y-122747972D01*
X131954497Y-122736159D01*
X132044106Y-122646550D01*
X132044114Y-122646542D01*
X132120775Y-122531811D01*
X132173580Y-122404328D01*
X132200500Y-122268993D01*
X132200500Y-122131007D01*
X132173580Y-121995672D01*
X132129797Y-121889970D01*
X132120777Y-121868193D01*
X132120771Y-121868182D01*
X132044114Y-121753458D01*
X131946541Y-121655885D01*
X131831817Y-121579228D01*
X131831806Y-121579222D01*
X131704328Y-121526420D01*
X131568995Y-121499500D01*
X131568993Y-121499500D01*
X131431007Y-121499500D01*
X131431004Y-121499500D01*
X131295672Y-121526420D01*
X131295670Y-121526420D01*
X131168193Y-121579222D01*
X131168182Y-121579228D01*
X131053458Y-121655885D01*
X130955885Y-121753458D01*
X130879228Y-121868182D01*
X130879222Y-121868193D01*
X130826420Y-121995670D01*
X130826420Y-121995672D01*
X130799500Y-122131004D01*
X130799500Y-122268995D01*
X130826419Y-122404326D01*
X130826420Y-122404328D01*
X130840208Y-122437615D01*
X130845009Y-122498611D01*
X130813039Y-122550780D01*
X130756511Y-122574195D01*
X130748744Y-122574500D01*
X127724500Y-122574500D01*
X127666309Y-122555593D01*
X127630345Y-122506093D01*
X127625500Y-122475500D01*
X127625500Y-116296004D01*
X129199500Y-116296004D01*
X129199500Y-116433995D01*
X129226420Y-116569327D01*
X129226420Y-116569329D01*
X129279222Y-116696806D01*
X129279228Y-116696817D01*
X129355885Y-116811541D01*
X129355893Y-116811550D01*
X129445503Y-116901159D01*
X129473281Y-116955675D01*
X129474500Y-116971163D01*
X129474500Y-120448468D01*
X129473429Y-120452825D01*
X129474500Y-120504422D01*
X129474500Y-120556018D01*
X129474501Y-120556021D01*
X129475062Y-120560285D01*
X129475065Y-120560335D01*
X129475099Y-120560552D01*
X129475098Y-120560556D01*
X129475102Y-120560575D01*
X129475754Y-120564839D01*
X129489850Y-120613392D01*
X129490402Y-120615369D01*
X129503498Y-120664241D01*
X129505114Y-120668142D01*
X129505246Y-120668461D01*
X129505264Y-120668496D01*
X129506990Y-120672431D01*
X129533167Y-120715672D01*
X129534212Y-120717439D01*
X129559516Y-120761265D01*
X129562111Y-120764647D01*
X129562295Y-120764887D01*
X129562331Y-120764927D01*
X129565011Y-120768274D01*
X129601487Y-120803266D01*
X129602954Y-120804703D01*
X129638736Y-120840484D01*
X129642095Y-120843062D01*
X129642369Y-120843272D01*
X129642398Y-120843291D01*
X129645856Y-120845832D01*
X129645858Y-120845833D01*
X129645859Y-120845834D01*
X129659404Y-120853283D01*
X129690178Y-120870210D01*
X129691102Y-120870718D01*
X129735763Y-120896503D01*
X129740095Y-120897663D01*
X129744024Y-120899824D01*
X129744028Y-120899826D01*
X129794131Y-120912142D01*
X129843982Y-120925500D01*
X129848468Y-120925500D01*
X129852825Y-120926571D01*
X129904423Y-120925500D01*
X129956018Y-120925500D01*
X129960350Y-120924339D01*
X129964837Y-120924246D01*
X130014401Y-120909856D01*
X130064237Y-120896503D01*
X130068121Y-120894260D01*
X132539020Y-120176901D01*
X132600174Y-120178834D01*
X132621621Y-120189659D01*
X132668189Y-120220775D01*
X132668190Y-120220775D01*
X132668191Y-120220776D01*
X132697070Y-120232738D01*
X132795672Y-120273580D01*
X132931007Y-120300500D01*
X132931008Y-120300500D01*
X133068992Y-120300500D01*
X133068993Y-120300500D01*
X133204328Y-120273580D01*
X133331811Y-120220775D01*
X133446542Y-120144114D01*
X133544114Y-120046542D01*
X133620775Y-119931811D01*
X133673580Y-119804328D01*
X133700500Y-119668993D01*
X133700500Y-119531007D01*
X133673580Y-119395672D01*
X133640570Y-119315979D01*
X133620777Y-119268193D01*
X133620771Y-119268182D01*
X133544114Y-119153458D01*
X133446541Y-119055885D01*
X133331817Y-118979228D01*
X133331806Y-118979222D01*
X133204328Y-118926420D01*
X133068995Y-118899500D01*
X133068993Y-118899500D01*
X132931007Y-118899500D01*
X132931004Y-118899500D01*
X132795672Y-118926420D01*
X132795670Y-118926420D01*
X132668193Y-118979222D01*
X132668182Y-118979228D01*
X132553458Y-119055885D01*
X132455889Y-119153454D01*
X132455886Y-119153458D01*
X132379223Y-119268190D01*
X132379223Y-119268191D01*
X132364948Y-119302653D01*
X132325210Y-119349178D01*
X132301087Y-119359839D01*
X130452102Y-119896642D01*
X130390947Y-119894709D01*
X130342609Y-119857199D01*
X130325500Y-119801568D01*
X130325500Y-116971163D01*
X130344407Y-116912972D01*
X130354497Y-116901159D01*
X130444106Y-116811550D01*
X130444114Y-116811542D01*
X130520775Y-116696811D01*
X130573580Y-116569328D01*
X130600500Y-116433993D01*
X130600500Y-116296007D01*
X130573580Y-116160672D01*
X130520775Y-116033189D01*
X130520774Y-116033187D01*
X130520771Y-116033182D01*
X130444114Y-115918458D01*
X130346541Y-115820885D01*
X130231817Y-115744228D01*
X130231806Y-115744222D01*
X130104328Y-115691420D01*
X129968995Y-115664500D01*
X129968993Y-115664500D01*
X129831007Y-115664500D01*
X129831004Y-115664500D01*
X129695672Y-115691420D01*
X129695670Y-115691420D01*
X129568193Y-115744222D01*
X129568182Y-115744228D01*
X129453458Y-115820885D01*
X129355885Y-115918458D01*
X129279228Y-116033182D01*
X129279222Y-116033193D01*
X129226420Y-116160670D01*
X129226420Y-116160672D01*
X129199500Y-116296004D01*
X127625500Y-116296004D01*
X127625500Y-115006163D01*
X127644407Y-114947972D01*
X127654497Y-114936159D01*
X127744106Y-114846550D01*
X127744114Y-114846542D01*
X127820775Y-114731811D01*
X127873580Y-114604328D01*
X127900500Y-114468993D01*
X127900500Y-114331007D01*
X127873580Y-114195672D01*
X127847587Y-114132918D01*
X127820777Y-114068193D01*
X127820771Y-114068182D01*
X127744114Y-113953458D01*
X127646541Y-113855885D01*
X127531817Y-113779228D01*
X127531806Y-113779222D01*
X127404328Y-113726420D01*
X127268995Y-113699500D01*
X127268993Y-113699500D01*
X127131007Y-113699500D01*
X127131004Y-113699500D01*
X126995672Y-113726420D01*
X126995670Y-113726420D01*
X126868193Y-113779222D01*
X126868182Y-113779228D01*
X126753458Y-113855885D01*
X126655885Y-113953458D01*
X126579228Y-114068182D01*
X126579222Y-114068193D01*
X126526420Y-114195670D01*
X126526420Y-114195672D01*
X126499500Y-114331004D01*
X126499500Y-114468995D01*
X126515196Y-114547904D01*
X126526248Y-114603465D01*
X126526420Y-114604327D01*
X126526420Y-114604329D01*
X126579222Y-114731806D01*
X126579228Y-114731817D01*
X126655885Y-114846541D01*
X126655893Y-114846550D01*
X126745503Y-114936159D01*
X126773281Y-114990675D01*
X126774500Y-115006163D01*
X126774500Y-123056017D01*
X126775347Y-123062450D01*
X126772177Y-123062867D01*
X126769645Y-123110998D01*
X126731129Y-123158540D01*
X126677228Y-123174500D01*
X124821816Y-123174500D01*
X124763625Y-123155593D01*
X124727661Y-123106093D01*
X124727661Y-123044907D01*
X124763625Y-122995407D01*
X124777542Y-122986952D01*
X124942022Y-122904712D01*
X125450585Y-122650429D01*
X125511087Y-122641317D01*
X125532741Y-122647513D01*
X125595672Y-122673580D01*
X125731007Y-122700500D01*
X125731008Y-122700500D01*
X125868992Y-122700500D01*
X125868993Y-122700500D01*
X126004328Y-122673580D01*
X126131811Y-122620775D01*
X126246542Y-122544114D01*
X126344114Y-122446542D01*
X126420775Y-122331811D01*
X126473580Y-122204328D01*
X126500500Y-122068993D01*
X126500500Y-121931007D01*
X126473580Y-121795672D01*
X126427334Y-121684023D01*
X126420777Y-121668193D01*
X126420771Y-121668182D01*
X126344114Y-121553458D01*
X126246541Y-121455885D01*
X126131817Y-121379228D01*
X126131806Y-121379222D01*
X126004328Y-121326420D01*
X125868995Y-121299500D01*
X125868993Y-121299500D01*
X125731007Y-121299500D01*
X125731004Y-121299500D01*
X125595672Y-121326420D01*
X125595670Y-121326420D01*
X125468193Y-121379222D01*
X125468182Y-121379228D01*
X125353458Y-121455885D01*
X125255885Y-121553458D01*
X125179228Y-121668182D01*
X125179222Y-121668193D01*
X125126419Y-121795672D01*
X125126418Y-121795676D01*
X125121432Y-121820740D01*
X125091533Y-121874123D01*
X125068609Y-121889970D01*
X123920457Y-122464048D01*
X123876183Y-122474500D01*
X117136018Y-122474500D01*
X117023982Y-122474500D01*
X116957748Y-122492247D01*
X116915758Y-122503498D01*
X116818739Y-122559513D01*
X116739513Y-122638739D01*
X116683498Y-122735758D01*
X116654500Y-122843983D01*
X116654500Y-124364898D01*
X116635593Y-124423089D01*
X116600445Y-124453107D01*
X116477016Y-124515997D01*
X116477009Y-124516001D01*
X116397760Y-124573579D01*
X116330499Y-124622447D01*
X116202447Y-124750499D01*
X116149225Y-124823752D01*
X116096002Y-124897008D01*
X116013788Y-125058362D01*
X115957828Y-125230593D01*
X115929500Y-125409450D01*
X113150499Y-125409450D01*
X113150499Y-124605136D01*
X113147585Y-124580009D01*
X113102206Y-124477235D01*
X113022765Y-124397794D01*
X112919991Y-124352415D01*
X112919990Y-124352414D01*
X112919988Y-124352414D01*
X112894868Y-124349500D01*
X111105139Y-124349500D01*
X111105136Y-124349501D01*
X111080009Y-124352414D01*
X110977235Y-124397794D01*
X110897794Y-124477235D01*
X110852414Y-124580011D01*
X110849500Y-124605130D01*
X109200500Y-124605130D01*
X109200500Y-121615849D01*
X109219407Y-121557658D01*
X109268907Y-121521694D01*
X109330093Y-121521694D01*
X109369501Y-121545843D01*
X109473072Y-121649414D01*
X109613212Y-121751232D01*
X109767555Y-121829873D01*
X109767557Y-121829873D01*
X109767558Y-121829874D01*
X109767561Y-121829876D01*
X109932293Y-121883401D01*
X109932297Y-121883402D01*
X110103386Y-121910500D01*
X110103389Y-121910500D01*
X110276614Y-121910500D01*
X110447702Y-121883402D01*
X110447706Y-121883401D01*
X110612438Y-121829876D01*
X110612440Y-121829874D01*
X110612445Y-121829873D01*
X110766788Y-121751232D01*
X110906928Y-121649414D01*
X111029414Y-121526928D01*
X111131232Y-121386788D01*
X111209873Y-121232445D01*
X111209874Y-121232440D01*
X111209876Y-121232438D01*
X111263401Y-121067706D01*
X111263402Y-121067702D01*
X111290500Y-120896614D01*
X111290500Y-120723385D01*
X116709500Y-120723385D01*
X116709500Y-120896614D01*
X116736597Y-121067702D01*
X116736598Y-121067706D01*
X116790123Y-121232438D01*
X116790125Y-121232441D01*
X116820499Y-121292055D01*
X116868768Y-121386788D01*
X116970586Y-121526928D01*
X117093072Y-121649414D01*
X117233212Y-121751232D01*
X117387555Y-121829873D01*
X117387557Y-121829873D01*
X117387558Y-121829874D01*
X117387561Y-121829876D01*
X117552293Y-121883401D01*
X117552297Y-121883402D01*
X117723386Y-121910500D01*
X117723389Y-121910500D01*
X117896614Y-121910500D01*
X118067702Y-121883402D01*
X118067706Y-121883401D01*
X118232438Y-121829876D01*
X118232440Y-121829874D01*
X118232445Y-121829873D01*
X118386788Y-121751232D01*
X118526928Y-121649414D01*
X118649414Y-121526928D01*
X118751232Y-121386788D01*
X118829873Y-121232445D01*
X118829874Y-121232440D01*
X118829876Y-121232438D01*
X118883401Y-121067706D01*
X118883402Y-121067702D01*
X118910500Y-120896614D01*
X118910500Y-120723385D01*
X118883402Y-120552297D01*
X118883401Y-120552293D01*
X118829876Y-120387561D01*
X118829874Y-120387558D01*
X118829873Y-120387557D01*
X118829873Y-120387555D01*
X118751232Y-120233212D01*
X118649414Y-120093072D01*
X118526928Y-119970586D01*
X118386788Y-119868768D01*
X118386787Y-119868767D01*
X118386785Y-119868766D01*
X118232441Y-119790125D01*
X118232438Y-119790123D01*
X118067706Y-119736598D01*
X118067702Y-119736597D01*
X117896614Y-119709500D01*
X117896611Y-119709500D01*
X117723389Y-119709500D01*
X117723386Y-119709500D01*
X117552297Y-119736597D01*
X117552293Y-119736598D01*
X117387561Y-119790123D01*
X117387558Y-119790125D01*
X117233214Y-119868766D01*
X117093073Y-119970585D01*
X116970585Y-120093073D01*
X116868766Y-120233214D01*
X116790125Y-120387558D01*
X116790123Y-120387561D01*
X116736598Y-120552293D01*
X116736597Y-120552297D01*
X116709500Y-120723385D01*
X111290500Y-120723385D01*
X111263402Y-120552297D01*
X111263401Y-120552293D01*
X111209876Y-120387561D01*
X111209874Y-120387558D01*
X111209873Y-120387557D01*
X111209873Y-120387555D01*
X111131232Y-120233212D01*
X111029414Y-120093072D01*
X110906928Y-119970586D01*
X110766788Y-119868768D01*
X110766787Y-119868767D01*
X110766785Y-119868766D01*
X110612441Y-119790125D01*
X110612438Y-119790123D01*
X110447706Y-119736598D01*
X110447702Y-119736597D01*
X110276614Y-119709500D01*
X110276611Y-119709500D01*
X110103389Y-119709500D01*
X110103386Y-119709500D01*
X109932297Y-119736597D01*
X109932293Y-119736598D01*
X109767561Y-119790123D01*
X109767558Y-119790125D01*
X109613214Y-119868766D01*
X109486249Y-119961012D01*
X109473072Y-119970586D01*
X109369501Y-120074156D01*
X109314987Y-120101932D01*
X109254555Y-120092361D01*
X109211290Y-120049096D01*
X109200500Y-120004151D01*
X109200500Y-118183385D01*
X116709500Y-118183385D01*
X116709500Y-118356614D01*
X116736597Y-118527702D01*
X116736598Y-118527706D01*
X116790123Y-118692438D01*
X116790125Y-118692441D01*
X116848199Y-118806420D01*
X116868768Y-118846788D01*
X116970586Y-118986928D01*
X117093072Y-119109414D01*
X117233212Y-119211232D01*
X117387555Y-119289873D01*
X117387557Y-119289873D01*
X117387558Y-119289874D01*
X117387561Y-119289876D01*
X117552293Y-119343401D01*
X117552297Y-119343402D01*
X117723386Y-119370500D01*
X117723389Y-119370500D01*
X117896614Y-119370500D01*
X118067702Y-119343402D01*
X118067706Y-119343401D01*
X118232438Y-119289876D01*
X118232440Y-119289874D01*
X118232445Y-119289873D01*
X118386788Y-119211232D01*
X118526928Y-119109414D01*
X118649414Y-118986928D01*
X118751232Y-118846788D01*
X118829873Y-118692445D01*
X118829874Y-118692440D01*
X118829876Y-118692438D01*
X118883401Y-118527706D01*
X118883402Y-118527702D01*
X118904177Y-118396532D01*
X121449500Y-118396532D01*
X121449500Y-118603467D01*
X121489869Y-118806418D01*
X121569058Y-118997597D01*
X121684020Y-119169651D01*
X121684023Y-119169655D01*
X121830345Y-119315977D01*
X122002402Y-119430941D01*
X122193580Y-119510130D01*
X122396535Y-119550500D01*
X122396536Y-119550500D01*
X122603464Y-119550500D01*
X122603465Y-119550500D01*
X122806420Y-119510130D01*
X122997598Y-119430941D01*
X123169655Y-119315977D01*
X123315977Y-119169655D01*
X123430941Y-118997598D01*
X123510130Y-118806420D01*
X123550500Y-118603465D01*
X123550500Y-118396535D01*
X123510130Y-118193580D01*
X123430941Y-118002402D01*
X123315977Y-117830345D01*
X123169655Y-117684023D01*
X122997598Y-117569059D01*
X122997599Y-117569059D01*
X122997597Y-117569058D01*
X122806418Y-117489869D01*
X122603467Y-117449500D01*
X122603465Y-117449500D01*
X122396535Y-117449500D01*
X122396532Y-117449500D01*
X122193581Y-117489869D01*
X122002402Y-117569058D01*
X121830348Y-117684020D01*
X121684020Y-117830348D01*
X121569058Y-118002402D01*
X121489869Y-118193581D01*
X121449500Y-118396532D01*
X118904177Y-118396532D01*
X118907400Y-118376184D01*
X118907400Y-118376182D01*
X118910500Y-118356611D01*
X118910500Y-118183385D01*
X118883402Y-118012297D01*
X118883401Y-118012293D01*
X118829876Y-117847561D01*
X118829874Y-117847558D01*
X118829873Y-117847557D01*
X118829873Y-117847555D01*
X118751232Y-117693212D01*
X118649414Y-117553072D01*
X118526928Y-117430586D01*
X118386788Y-117328768D01*
X118386787Y-117328767D01*
X118386785Y-117328766D01*
X118232441Y-117250125D01*
X118232438Y-117250123D01*
X118067706Y-117196598D01*
X118067702Y-117196597D01*
X117896614Y-117169500D01*
X117896611Y-117169500D01*
X117723389Y-117169500D01*
X117723386Y-117169500D01*
X117552297Y-117196597D01*
X117552293Y-117196598D01*
X117387561Y-117250123D01*
X117387558Y-117250125D01*
X117233214Y-117328766D01*
X117093073Y-117430585D01*
X116970585Y-117553073D01*
X116868766Y-117693214D01*
X116790125Y-117847558D01*
X116790123Y-117847561D01*
X116736598Y-118012293D01*
X116736597Y-118012297D01*
X116709500Y-118183385D01*
X109200500Y-118183385D01*
X109200500Y-116535849D01*
X109219407Y-116477658D01*
X109268907Y-116441694D01*
X109330093Y-116441694D01*
X109369501Y-116465843D01*
X109473072Y-116569414D01*
X109613212Y-116671232D01*
X109767555Y-116749873D01*
X109767557Y-116749873D01*
X109767558Y-116749874D01*
X109767561Y-116749876D01*
X109932293Y-116803401D01*
X109932297Y-116803402D01*
X110103386Y-116830500D01*
X110103389Y-116830500D01*
X110276614Y-116830500D01*
X110447702Y-116803402D01*
X110447706Y-116803401D01*
X110612438Y-116749876D01*
X110612440Y-116749874D01*
X110612445Y-116749873D01*
X110766788Y-116671232D01*
X110906928Y-116569414D01*
X111029414Y-116446928D01*
X111131232Y-116306788D01*
X111209873Y-116152445D01*
X111209874Y-116152440D01*
X111209876Y-116152438D01*
X111263401Y-115987706D01*
X111263402Y-115987702D01*
X111290500Y-115816614D01*
X111290500Y-115643385D01*
X116709500Y-115643385D01*
X116709500Y-115816614D01*
X116736597Y-115987702D01*
X116736598Y-115987706D01*
X116790123Y-116152438D01*
X116790125Y-116152441D01*
X116863274Y-116296007D01*
X116868768Y-116306788D01*
X116970586Y-116446928D01*
X117093072Y-116569414D01*
X117233212Y-116671232D01*
X117387555Y-116749873D01*
X117387557Y-116749873D01*
X117387558Y-116749874D01*
X117387561Y-116749876D01*
X117552293Y-116803401D01*
X117552297Y-116803402D01*
X117723386Y-116830500D01*
X117723389Y-116830500D01*
X117896614Y-116830500D01*
X118067702Y-116803402D01*
X118067706Y-116803401D01*
X118232438Y-116749876D01*
X118232440Y-116749874D01*
X118232445Y-116749873D01*
X118386788Y-116671232D01*
X118526928Y-116569414D01*
X118649414Y-116446928D01*
X118751232Y-116306788D01*
X118829873Y-116152445D01*
X118829874Y-116152440D01*
X118829876Y-116152438D01*
X118883401Y-115987706D01*
X118883402Y-115987702D01*
X118910500Y-115816614D01*
X118910500Y-115643385D01*
X118883402Y-115472297D01*
X118883401Y-115472293D01*
X118829876Y-115307561D01*
X118829874Y-115307558D01*
X118829873Y-115307557D01*
X118829873Y-115307555D01*
X118751232Y-115153212D01*
X118649414Y-115013072D01*
X118526928Y-114890586D01*
X118386788Y-114788768D01*
X118386787Y-114788767D01*
X118386785Y-114788766D01*
X118232441Y-114710125D01*
X118232438Y-114710123D01*
X118067706Y-114656598D01*
X118067702Y-114656597D01*
X117896614Y-114629500D01*
X117896611Y-114629500D01*
X117723389Y-114629500D01*
X117723386Y-114629500D01*
X117552297Y-114656597D01*
X117552293Y-114656598D01*
X117387561Y-114710123D01*
X117387558Y-114710125D01*
X117233214Y-114788766D01*
X117093073Y-114890585D01*
X116970585Y-115013073D01*
X116868766Y-115153214D01*
X116790125Y-115307558D01*
X116790123Y-115307561D01*
X116736598Y-115472293D01*
X116736597Y-115472297D01*
X116709500Y-115643385D01*
X111290500Y-115643385D01*
X111263402Y-115472297D01*
X111263401Y-115472293D01*
X111209876Y-115307561D01*
X111209874Y-115307558D01*
X111209873Y-115307557D01*
X111209873Y-115307555D01*
X111131232Y-115153212D01*
X111029414Y-115013072D01*
X110906928Y-114890586D01*
X110766788Y-114788768D01*
X110766787Y-114788767D01*
X110766785Y-114788766D01*
X110612441Y-114710125D01*
X110612438Y-114710123D01*
X110447706Y-114656598D01*
X110447702Y-114656597D01*
X110276614Y-114629500D01*
X110276611Y-114629500D01*
X110103389Y-114629500D01*
X110103386Y-114629500D01*
X109932297Y-114656597D01*
X109932293Y-114656598D01*
X109767561Y-114710123D01*
X109767558Y-114710125D01*
X109613214Y-114788766D01*
X109533693Y-114846542D01*
X109473072Y-114890586D01*
X109369501Y-114994156D01*
X109348848Y-115004679D01*
X109330093Y-115018306D01*
X109322104Y-115018306D01*
X109314987Y-115021932D01*
X109292092Y-115018306D01*
X109268907Y-115018306D01*
X109262444Y-115013610D01*
X109254555Y-115012361D01*
X109238163Y-114995969D01*
X109219407Y-114982342D01*
X109216938Y-114974744D01*
X109211290Y-114969096D01*
X109200500Y-114924151D01*
X109200500Y-114771176D01*
X109219407Y-114712985D01*
X109234127Y-114696830D01*
X109575689Y-114396532D01*
X120449500Y-114396532D01*
X120449500Y-114603467D01*
X120489869Y-114806418D01*
X120569058Y-114997597D01*
X120684020Y-115169651D01*
X120684023Y-115169655D01*
X120830345Y-115315977D01*
X121002402Y-115430941D01*
X121193580Y-115510130D01*
X121396535Y-115550500D01*
X121396536Y-115550500D01*
X121603464Y-115550500D01*
X121603465Y-115550500D01*
X121806420Y-115510130D01*
X121997598Y-115430941D01*
X122169655Y-115315977D01*
X122315977Y-115169655D01*
X122430941Y-114997598D01*
X122510130Y-114806420D01*
X122550500Y-114603465D01*
X122550500Y-114396535D01*
X122510130Y-114193580D01*
X122430941Y-114002402D01*
X122315977Y-113830345D01*
X122169655Y-113684023D01*
X122162474Y-113679225D01*
X122056565Y-113608459D01*
X121997597Y-113569058D01*
X121905727Y-113531004D01*
X137099500Y-113531004D01*
X137099500Y-113668995D01*
X137104022Y-113691728D01*
X137122197Y-113783100D01*
X137126420Y-113804327D01*
X137126420Y-113804329D01*
X137179222Y-113931806D01*
X137179228Y-113931817D01*
X137255885Y-114046541D01*
X137353458Y-114144114D01*
X137468182Y-114220771D01*
X137468193Y-114220777D01*
X137497891Y-114233078D01*
X137595672Y-114273580D01*
X137731007Y-114300500D01*
X137731008Y-114300500D01*
X137868992Y-114300500D01*
X137868993Y-114300500D01*
X138004328Y-114273580D01*
X138131811Y-114220775D01*
X138233499Y-114152828D01*
X138292386Y-114136220D01*
X138349789Y-114157397D01*
X138383783Y-114208270D01*
X138387500Y-114235144D01*
X138387500Y-114368995D01*
X138397324Y-114418382D01*
X138409730Y-114480752D01*
X138414420Y-114504327D01*
X138414420Y-114504329D01*
X138467222Y-114631806D01*
X138467228Y-114631817D01*
X138543885Y-114746541D01*
X138641458Y-114844114D01*
X138756182Y-114920771D01*
X138756193Y-114920777D01*
X138764339Y-114924151D01*
X138883672Y-114973580D01*
X139019007Y-115000500D01*
X139019008Y-115000500D01*
X139156992Y-115000500D01*
X139156993Y-115000500D01*
X139292328Y-114973580D01*
X139419811Y-114920775D01*
X139534542Y-114844114D01*
X139624160Y-114754496D01*
X139678677Y-114726719D01*
X139694164Y-114725500D01*
X142275500Y-114725500D01*
X142333691Y-114744407D01*
X142369655Y-114793907D01*
X142374500Y-114824500D01*
X142374500Y-118979419D01*
X142371080Y-119014696D01*
X142374500Y-119035215D01*
X142374500Y-123293836D01*
X142355593Y-123352027D01*
X142345504Y-123363840D01*
X142255889Y-123453454D01*
X142255885Y-123453458D01*
X142179228Y-123568182D01*
X142179222Y-123568193D01*
X142126420Y-123695670D01*
X142126420Y-123695672D01*
X142099500Y-123831004D01*
X142099500Y-123968995D01*
X142104754Y-123995407D01*
X142118857Y-124066309D01*
X142126420Y-124104327D01*
X142126420Y-124104329D01*
X142179222Y-124231806D01*
X142179228Y-124231817D01*
X142255885Y-124346541D01*
X142353458Y-124444114D01*
X142468182Y-124520771D01*
X142468193Y-124520777D01*
X142515283Y-124540282D01*
X142595672Y-124573580D01*
X142731007Y-124600500D01*
X142731008Y-124600500D01*
X142868992Y-124600500D01*
X142868993Y-124600500D01*
X143004328Y-124573580D01*
X143131811Y-124520775D01*
X143246542Y-124444114D01*
X143344114Y-124346542D01*
X143420775Y-124231811D01*
X143473580Y-124104328D01*
X143500500Y-123968993D01*
X143500500Y-123831007D01*
X143473580Y-123695672D01*
X143420775Y-123568189D01*
X143420774Y-123568187D01*
X143420771Y-123568182D01*
X143344114Y-123453458D01*
X143254496Y-123363840D01*
X143226719Y-123309323D01*
X143225500Y-123293836D01*
X143225500Y-122396532D01*
X145449500Y-122396532D01*
X145449500Y-122603467D01*
X145489869Y-122806418D01*
X145569058Y-122997597D01*
X145644830Y-123110998D01*
X145684023Y-123169655D01*
X145830345Y-123315977D01*
X146002402Y-123430941D01*
X146193580Y-123510130D01*
X146396535Y-123550500D01*
X146396536Y-123550500D01*
X146603464Y-123550500D01*
X146603465Y-123550500D01*
X146806420Y-123510130D01*
X146997598Y-123430941D01*
X147169655Y-123315977D01*
X147315977Y-123169655D01*
X147430941Y-122997598D01*
X147510130Y-122806420D01*
X147550500Y-122603465D01*
X147550500Y-122396535D01*
X147510130Y-122193580D01*
X147430941Y-122002402D01*
X147315977Y-121830345D01*
X147169655Y-121684023D01*
X147145958Y-121668189D01*
X146997597Y-121569058D01*
X146806418Y-121489869D01*
X146603467Y-121449500D01*
X146603465Y-121449500D01*
X146396535Y-121449500D01*
X146396532Y-121449500D01*
X146193581Y-121489869D01*
X146002402Y-121569058D01*
X145830348Y-121684020D01*
X145684020Y-121830348D01*
X145569058Y-122002402D01*
X145489869Y-122193581D01*
X145449500Y-122396532D01*
X143225500Y-122396532D01*
X143225500Y-120019203D01*
X143244407Y-119961012D01*
X143293907Y-119925048D01*
X143355093Y-119925048D01*
X143382041Y-119938642D01*
X143669702Y-120144114D01*
X143917358Y-120321011D01*
X143917357Y-120321011D01*
X143924027Y-120325775D01*
X143938737Y-120340485D01*
X143969431Y-120358206D01*
X143973329Y-120360990D01*
X143973330Y-120360991D01*
X143991579Y-120374026D01*
X143998267Y-120378803D01*
X144010078Y-120383227D01*
X144024836Y-120390194D01*
X144035763Y-120396503D01*
X144065371Y-120404436D01*
X144074469Y-120407351D01*
X144103182Y-120418109D01*
X144123891Y-120420116D01*
X144143982Y-120425500D01*
X144179419Y-120425500D01*
X144214696Y-120428920D01*
X144227134Y-120426847D01*
X144243410Y-120425500D01*
X145473045Y-120425500D01*
X145531236Y-120444407D01*
X145564509Y-120486613D01*
X145569059Y-120497598D01*
X145683248Y-120668496D01*
X145684023Y-120669655D01*
X145830345Y-120815977D01*
X146002402Y-120930941D01*
X146193580Y-121010130D01*
X146396535Y-121050500D01*
X146396536Y-121050500D01*
X146603464Y-121050500D01*
X146603465Y-121050500D01*
X146806420Y-121010130D01*
X146997598Y-120930941D01*
X147169655Y-120815977D01*
X147315977Y-120669655D01*
X147430941Y-120497598D01*
X147510130Y-120306420D01*
X147550500Y-120103465D01*
X147550500Y-119896535D01*
X147510130Y-119693580D01*
X147430941Y-119502402D01*
X147315977Y-119330345D01*
X147169655Y-119184023D01*
X146997598Y-119069059D01*
X146997599Y-119069059D01*
X146997597Y-119069058D01*
X146806418Y-118989869D01*
X146603467Y-118949500D01*
X146603465Y-118949500D01*
X146396535Y-118949500D01*
X146396532Y-118949500D01*
X146193581Y-118989869D01*
X146002402Y-119069058D01*
X145830348Y-119184020D01*
X145684020Y-119330348D01*
X145569059Y-119502401D01*
X145564509Y-119513387D01*
X145524771Y-119559912D01*
X145473045Y-119574500D01*
X144368085Y-119574500D01*
X144310542Y-119556060D01*
X143266957Y-118810642D01*
X143230595Y-118761433D01*
X143225500Y-118730082D01*
X143225500Y-115067275D01*
X143244407Y-115009084D01*
X143288500Y-114977047D01*
X143287835Y-114975441D01*
X143363465Y-114944114D01*
X143419811Y-114920775D01*
X143534542Y-114844114D01*
X143632114Y-114746542D01*
X143708775Y-114631811D01*
X143761580Y-114504328D01*
X143788500Y-114368993D01*
X143788500Y-114231007D01*
X143761580Y-114095672D01*
X143727064Y-114012342D01*
X143708777Y-113968193D01*
X143708771Y-113968182D01*
X143632114Y-113853458D01*
X143534541Y-113755885D01*
X143419817Y-113679228D01*
X143419806Y-113679222D01*
X143292328Y-113626420D01*
X143156995Y-113599500D01*
X143156993Y-113599500D01*
X143019007Y-113599500D01*
X143019004Y-113599500D01*
X142883672Y-113626420D01*
X142883670Y-113626420D01*
X142756193Y-113679222D01*
X142756182Y-113679228D01*
X142641458Y-113755885D01*
X142641454Y-113755889D01*
X142551840Y-113845504D01*
X142497323Y-113873281D01*
X142481836Y-113874500D01*
X139694164Y-113874500D01*
X139635973Y-113855593D01*
X139624160Y-113845504D01*
X139534541Y-113755885D01*
X139419817Y-113679228D01*
X139419806Y-113679222D01*
X139292328Y-113626420D01*
X139156995Y-113599500D01*
X139156993Y-113599500D01*
X139019007Y-113599500D01*
X139019004Y-113599500D01*
X138883672Y-113626420D01*
X138883670Y-113626420D01*
X138756193Y-113679222D01*
X138756181Y-113679228D01*
X138654502Y-113747170D01*
X138595614Y-113763779D01*
X138538210Y-113742602D01*
X138504217Y-113691728D01*
X138500500Y-113664855D01*
X138500500Y-113531008D01*
X138500499Y-113531004D01*
X138473580Y-113395672D01*
X138433036Y-113297789D01*
X138425500Y-113259904D01*
X138425500Y-106620851D01*
X138435482Y-106577530D01*
X138464187Y-106518547D01*
X138555583Y-106330743D01*
X138598046Y-106286695D01*
X138625283Y-106276970D01*
X138642328Y-106273580D01*
X138769811Y-106220775D01*
X138884542Y-106144114D01*
X138982114Y-106046542D01*
X139058775Y-105931811D01*
X139111580Y-105804328D01*
X139138500Y-105668993D01*
X139138500Y-105531007D01*
X139111580Y-105395672D01*
X139058775Y-105268189D01*
X139058774Y-105268187D01*
X139058771Y-105268182D01*
X138982114Y-105153458D01*
X138884541Y-105055885D01*
X138769817Y-104979228D01*
X138769806Y-104979222D01*
X138642328Y-104926420D01*
X138506995Y-104899500D01*
X138506993Y-104899500D01*
X138369007Y-104899500D01*
X138369004Y-104899500D01*
X138233672Y-104926420D01*
X138233670Y-104926420D01*
X138106193Y-104979222D01*
X138106182Y-104979228D01*
X137991458Y-105055885D01*
X137893885Y-105153458D01*
X137817228Y-105268182D01*
X137817222Y-105268193D01*
X137764420Y-105395670D01*
X137764420Y-105395672D01*
X137737500Y-105531004D01*
X137737500Y-105668995D01*
X137764420Y-105804327D01*
X137764420Y-105804329D01*
X137793777Y-105875204D01*
X137798577Y-105936201D01*
X137791331Y-105956411D01*
X137630662Y-106286556D01*
X137623983Y-106300280D01*
X137603497Y-106335763D01*
X137599555Y-106350471D01*
X137595406Y-106358998D01*
X137592888Y-106364172D01*
X137585769Y-106400967D01*
X137585104Y-106404406D01*
X137574500Y-106443982D01*
X137574500Y-106459206D01*
X137572698Y-106468519D01*
X137572698Y-106468522D01*
X137571606Y-106474162D01*
X137571606Y-106474171D01*
X137574253Y-106511556D01*
X137574500Y-106518547D01*
X137574500Y-112869039D01*
X137555593Y-112927230D01*
X137513387Y-112960503D01*
X137468188Y-112979225D01*
X137353458Y-113055886D01*
X137353454Y-113055889D01*
X137255885Y-113153458D01*
X137179228Y-113268182D01*
X137179222Y-113268193D01*
X137126420Y-113395670D01*
X137126420Y-113395672D01*
X137099500Y-113531004D01*
X121905727Y-113531004D01*
X121806418Y-113489869D01*
X121603467Y-113449500D01*
X121603465Y-113449500D01*
X121396535Y-113449500D01*
X121396532Y-113449500D01*
X121193581Y-113489869D01*
X121002402Y-113569058D01*
X120830348Y-113684020D01*
X120684020Y-113830348D01*
X120569058Y-114002402D01*
X120489869Y-114193581D01*
X120449500Y-114396532D01*
X109575689Y-114396532D01*
X109665784Y-114317321D01*
X109668248Y-114315154D01*
X109724433Y-114290927D01*
X109733621Y-114290500D01*
X110783100Y-114290500D01*
X110783102Y-114290500D01*
X110871564Y-114279877D01*
X111012342Y-114224361D01*
X111132922Y-114132922D01*
X111224361Y-114012342D01*
X111279877Y-113871564D01*
X111290500Y-113783102D01*
X111290500Y-112596898D01*
X111279877Y-112508436D01*
X111224361Y-112367658D01*
X111132922Y-112247078D01*
X111012342Y-112155639D01*
X111012341Y-112155638D01*
X111012339Y-112155637D01*
X110871565Y-112100123D01*
X110783106Y-112089500D01*
X110783102Y-112089500D01*
X109596898Y-112089500D01*
X109596893Y-112089500D01*
X109508434Y-112100123D01*
X109367660Y-112155637D01*
X109367656Y-112155640D01*
X109247081Y-112247075D01*
X109247075Y-112247081D01*
X109155640Y-112367656D01*
X109155637Y-112367660D01*
X109100123Y-112508434D01*
X109089500Y-112596893D01*
X109089500Y-113446339D01*
X109070593Y-113504530D01*
X109055868Y-113520689D01*
X108433139Y-114068189D01*
X108406785Y-114091359D01*
X108392686Y-114099500D01*
X108357457Y-114134727D01*
X108355057Y-114136838D01*
X108320039Y-114167626D01*
X108316451Y-114173011D01*
X108304082Y-114188102D01*
X108299502Y-114192682D01*
X108299500Y-114192685D01*
X108276178Y-114233078D01*
X108272829Y-114238472D01*
X108246962Y-114277291D01*
X108246960Y-114277295D01*
X108244887Y-114283427D01*
X108241746Y-114292716D01*
X108233608Y-114306814D01*
X108220718Y-114354916D01*
X108219694Y-114357946D01*
X108219695Y-114357946D01*
X108204758Y-114402135D01*
X108204757Y-114402139D01*
X108204341Y-114408601D01*
X108201176Y-114427847D01*
X108199501Y-114434100D01*
X108199500Y-114434109D01*
X108199500Y-114480752D01*
X108199296Y-114487102D01*
X108196304Y-114533648D01*
X100500000Y-114533648D01*
X100500000Y-100599000D01*
X100518907Y-100540809D01*
X100568407Y-100504845D01*
X100599000Y-100500000D01*
X149401000Y-100500000D01*
X149459191Y-100518907D01*
G37*
%TD.AperFunction*%
%TD*%
M02*
