%TF.GenerationSoftware,KiCad,Pcbnew,10.0.4*%
%TF.CreationDate,2026-08-28T22:29:12-04:00*%
%TF.ProjectId,photomarker-tht,70686f74-6f6d-4617-926b-65722d746874,rev?*%
%TF.SameCoordinates,Original*%
%TF.FileFunction,Legend,Bot*%
%TF.FilePolarity,Positive*%
%FSLAX46Y46*%
G04 Gerber Fmt 4.6, Leading zero omitted, Abs format (unit mm)*
G04 Created by KiCad (PCBNEW 10.0.4) date 2026-08-28 22:29:12*
%MOMM*%
%LPD*%
G01*
G04 APERTURE LIST*
%ADD10C,0.150000*%
%ADD11C,0.120000*%
G04 APERTURE END LIST*
D10*
X111610000Y-119810000D02*
X112810000Y-119810000D01*
X113810000Y-117610000D02*
X113810000Y-118810000D01*
X113810000Y-120810000D02*
X113810000Y-122009999D01*
X114810000Y-119810000D02*
X116010000Y-119810000D01*
X114685714Y-107327842D02*
X114728571Y-107370700D01*
X114728571Y-107370700D02*
X114857143Y-107413557D01*
X114857143Y-107413557D02*
X114942857Y-107413557D01*
X114942857Y-107413557D02*
X115071428Y-107370700D01*
X115071428Y-107370700D02*
X115157143Y-107284985D01*
X115157143Y-107284985D02*
X115200000Y-107199271D01*
X115200000Y-107199271D02*
X115242857Y-107027842D01*
X115242857Y-107027842D02*
X115242857Y-106899271D01*
X115242857Y-106899271D02*
X115200000Y-106727842D01*
X115200000Y-106727842D02*
X115157143Y-106642128D01*
X115157143Y-106642128D02*
X115071428Y-106556414D01*
X115071428Y-106556414D02*
X114942857Y-106513557D01*
X114942857Y-106513557D02*
X114857143Y-106513557D01*
X114857143Y-106513557D02*
X114728571Y-106556414D01*
X114728571Y-106556414D02*
X114685714Y-106599271D01*
X113828571Y-107413557D02*
X114342857Y-107413557D01*
X114085714Y-107413557D02*
X114085714Y-106513557D01*
X114085714Y-106513557D02*
X114171428Y-106642128D01*
X114171428Y-106642128D02*
X114257143Y-106727842D01*
X114257143Y-106727842D02*
X114342857Y-106770700D01*
X112285714Y-107413557D02*
X112800000Y-107413557D01*
X112542857Y-107413557D02*
X112542857Y-106513557D01*
X112542857Y-106513557D02*
X112628571Y-106642128D01*
X112628571Y-106642128D02*
X112714286Y-106727842D01*
X112714286Y-106727842D02*
X112800000Y-106770700D01*
X111728571Y-106513557D02*
X111642857Y-106513557D01*
X111642857Y-106513557D02*
X111557143Y-106556414D01*
X111557143Y-106556414D02*
X111514286Y-106599271D01*
X111514286Y-106599271D02*
X111471428Y-106684985D01*
X111471428Y-106684985D02*
X111428571Y-106856414D01*
X111428571Y-106856414D02*
X111428571Y-107070700D01*
X111428571Y-107070700D02*
X111471428Y-107242128D01*
X111471428Y-107242128D02*
X111514286Y-107327842D01*
X111514286Y-107327842D02*
X111557143Y-107370700D01*
X111557143Y-107370700D02*
X111642857Y-107413557D01*
X111642857Y-107413557D02*
X111728571Y-107413557D01*
X111728571Y-107413557D02*
X111814286Y-107370700D01*
X111814286Y-107370700D02*
X111857143Y-107327842D01*
X111857143Y-107327842D02*
X111900000Y-107242128D01*
X111900000Y-107242128D02*
X111942857Y-107070700D01*
X111942857Y-107070700D02*
X111942857Y-106856414D01*
X111942857Y-106856414D02*
X111900000Y-106684985D01*
X111900000Y-106684985D02*
X111857143Y-106599271D01*
X111857143Y-106599271D02*
X111814286Y-106556414D01*
X111814286Y-106556414D02*
X111728571Y-106513557D01*
X110871428Y-106513557D02*
X110785714Y-106513557D01*
X110785714Y-106513557D02*
X110700000Y-106556414D01*
X110700000Y-106556414D02*
X110657143Y-106599271D01*
X110657143Y-106599271D02*
X110614285Y-106684985D01*
X110614285Y-106684985D02*
X110571428Y-106856414D01*
X110571428Y-106856414D02*
X110571428Y-107070700D01*
X110571428Y-107070700D02*
X110614285Y-107242128D01*
X110614285Y-107242128D02*
X110657143Y-107327842D01*
X110657143Y-107327842D02*
X110700000Y-107370700D01*
X110700000Y-107370700D02*
X110785714Y-107413557D01*
X110785714Y-107413557D02*
X110871428Y-107413557D01*
X110871428Y-107413557D02*
X110957143Y-107370700D01*
X110957143Y-107370700D02*
X111000000Y-107327842D01*
X111000000Y-107327842D02*
X111042857Y-107242128D01*
X111042857Y-107242128D02*
X111085714Y-107070700D01*
X111085714Y-107070700D02*
X111085714Y-106856414D01*
X111085714Y-106856414D02*
X111042857Y-106684985D01*
X111042857Y-106684985D02*
X111000000Y-106599271D01*
X111000000Y-106599271D02*
X110957143Y-106556414D01*
X110957143Y-106556414D02*
X110871428Y-106513557D01*
X110185714Y-106813557D02*
X110185714Y-107413557D01*
X110185714Y-106899271D02*
X110142857Y-106856414D01*
X110142857Y-106856414D02*
X110057142Y-106813557D01*
X110057142Y-106813557D02*
X109928571Y-106813557D01*
X109928571Y-106813557D02*
X109842857Y-106856414D01*
X109842857Y-106856414D02*
X109800000Y-106942128D01*
X109800000Y-106942128D02*
X109800000Y-107413557D01*
X115674285Y-125413557D02*
X115974285Y-124984985D01*
X116188571Y-125413557D02*
X116188571Y-124513557D01*
X116188571Y-124513557D02*
X115845714Y-124513557D01*
X115845714Y-124513557D02*
X115759999Y-124556414D01*
X115759999Y-124556414D02*
X115717142Y-124599271D01*
X115717142Y-124599271D02*
X115674285Y-124684985D01*
X115674285Y-124684985D02*
X115674285Y-124813557D01*
X115674285Y-124813557D02*
X115717142Y-124899271D01*
X115717142Y-124899271D02*
X115759999Y-124942128D01*
X115759999Y-124942128D02*
X115845714Y-124984985D01*
X115845714Y-124984985D02*
X116188571Y-124984985D01*
X114902857Y-124513557D02*
X115074285Y-124513557D01*
X115074285Y-124513557D02*
X115159999Y-124556414D01*
X115159999Y-124556414D02*
X115202857Y-124599271D01*
X115202857Y-124599271D02*
X115288571Y-124727842D01*
X115288571Y-124727842D02*
X115331428Y-124899271D01*
X115331428Y-124899271D02*
X115331428Y-125242128D01*
X115331428Y-125242128D02*
X115288571Y-125327842D01*
X115288571Y-125327842D02*
X115245714Y-125370700D01*
X115245714Y-125370700D02*
X115159999Y-125413557D01*
X115159999Y-125413557D02*
X114988571Y-125413557D01*
X114988571Y-125413557D02*
X114902857Y-125370700D01*
X114902857Y-125370700D02*
X114859999Y-125327842D01*
X114859999Y-125327842D02*
X114817142Y-125242128D01*
X114817142Y-125242128D02*
X114817142Y-125027842D01*
X114817142Y-125027842D02*
X114859999Y-124942128D01*
X114859999Y-124942128D02*
X114902857Y-124899271D01*
X114902857Y-124899271D02*
X114988571Y-124856414D01*
X114988571Y-124856414D02*
X115159999Y-124856414D01*
X115159999Y-124856414D02*
X115245714Y-124899271D01*
X115245714Y-124899271D02*
X115288571Y-124942128D01*
X115288571Y-124942128D02*
X115331428Y-125027842D01*
X113745714Y-125413557D02*
X113745714Y-124513557D01*
X113745714Y-124513557D02*
X113531428Y-124513557D01*
X113531428Y-124513557D02*
X113402857Y-124556414D01*
X113402857Y-124556414D02*
X113317142Y-124642128D01*
X113317142Y-124642128D02*
X113274285Y-124727842D01*
X113274285Y-124727842D02*
X113231428Y-124899271D01*
X113231428Y-124899271D02*
X113231428Y-125027842D01*
X113231428Y-125027842D02*
X113274285Y-125199271D01*
X113274285Y-125199271D02*
X113317142Y-125284985D01*
X113317142Y-125284985D02*
X113402857Y-125370700D01*
X113402857Y-125370700D02*
X113531428Y-125413557D01*
X113531428Y-125413557D02*
X113745714Y-125413557D01*
X112845714Y-125413557D02*
X112845714Y-124513557D01*
X112845714Y-124513557D02*
X112331428Y-125413557D01*
X112331428Y-125413557D02*
X112331428Y-124513557D01*
X111902857Y-125413557D02*
X111902857Y-124513557D01*
X111902857Y-124513557D02*
X111560000Y-124513557D01*
X111560000Y-124513557D02*
X111474285Y-124556414D01*
X111474285Y-124556414D02*
X111431428Y-124599271D01*
X111431428Y-124599271D02*
X111388571Y-124684985D01*
X111388571Y-124684985D02*
X111388571Y-124813557D01*
X111388571Y-124813557D02*
X111431428Y-124899271D01*
X111431428Y-124899271D02*
X111474285Y-124942128D01*
X111474285Y-124942128D02*
X111560000Y-124984985D01*
X111560000Y-124984985D02*
X111902857Y-124984985D01*
X126928571Y-125327842D02*
X126971428Y-125370700D01*
X126971428Y-125370700D02*
X127100000Y-125413557D01*
X127100000Y-125413557D02*
X127185714Y-125413557D01*
X127185714Y-125413557D02*
X127314285Y-125370700D01*
X127314285Y-125370700D02*
X127400000Y-125284985D01*
X127400000Y-125284985D02*
X127442857Y-125199271D01*
X127442857Y-125199271D02*
X127485714Y-125027842D01*
X127485714Y-125027842D02*
X127485714Y-124899271D01*
X127485714Y-124899271D02*
X127442857Y-124727842D01*
X127442857Y-124727842D02*
X127400000Y-124642128D01*
X127400000Y-124642128D02*
X127314285Y-124556414D01*
X127314285Y-124556414D02*
X127185714Y-124513557D01*
X127185714Y-124513557D02*
X127100000Y-124513557D01*
X127100000Y-124513557D02*
X126971428Y-124556414D01*
X126971428Y-124556414D02*
X126928571Y-124599271D01*
X126628571Y-124513557D02*
X126071428Y-124513557D01*
X126071428Y-124513557D02*
X126371428Y-124856414D01*
X126371428Y-124856414D02*
X126242857Y-124856414D01*
X126242857Y-124856414D02*
X126157143Y-124899271D01*
X126157143Y-124899271D02*
X126114285Y-124942128D01*
X126114285Y-124942128D02*
X126071428Y-125027842D01*
X126071428Y-125027842D02*
X126071428Y-125242128D01*
X126071428Y-125242128D02*
X126114285Y-125327842D01*
X126114285Y-125327842D02*
X126157143Y-125370700D01*
X126157143Y-125370700D02*
X126242857Y-125413557D01*
X126242857Y-125413557D02*
X126500000Y-125413557D01*
X126500000Y-125413557D02*
X126585714Y-125370700D01*
X126585714Y-125370700D02*
X126628571Y-125327842D01*
X125085714Y-124513557D02*
X124528571Y-124513557D01*
X124528571Y-124513557D02*
X124828571Y-124856414D01*
X124828571Y-124856414D02*
X124700000Y-124856414D01*
X124700000Y-124856414D02*
X124614286Y-124899271D01*
X124614286Y-124899271D02*
X124571428Y-124942128D01*
X124571428Y-124942128D02*
X124528571Y-125027842D01*
X124528571Y-125027842D02*
X124528571Y-125242128D01*
X124528571Y-125242128D02*
X124571428Y-125327842D01*
X124571428Y-125327842D02*
X124614286Y-125370700D01*
X124614286Y-125370700D02*
X124700000Y-125413557D01*
X124700000Y-125413557D02*
X124957143Y-125413557D01*
X124957143Y-125413557D02*
X125042857Y-125370700D01*
X125042857Y-125370700D02*
X125085714Y-125327842D01*
X124142857Y-124813557D02*
X124142857Y-125413557D01*
X124142857Y-124899271D02*
X124100000Y-124856414D01*
X124100000Y-124856414D02*
X124014285Y-124813557D01*
X124014285Y-124813557D02*
X123885714Y-124813557D01*
X123885714Y-124813557D02*
X123800000Y-124856414D01*
X123800000Y-124856414D02*
X123757143Y-124942128D01*
X123757143Y-124942128D02*
X123757143Y-125413557D01*
X123414285Y-124513557D02*
X122857142Y-124513557D01*
X122857142Y-124513557D02*
X123157142Y-124856414D01*
X123157142Y-124856414D02*
X123028571Y-124856414D01*
X123028571Y-124856414D02*
X122942857Y-124899271D01*
X122942857Y-124899271D02*
X122899999Y-124942128D01*
X122899999Y-124942128D02*
X122857142Y-125027842D01*
X122857142Y-125027842D02*
X122857142Y-125242128D01*
X122857142Y-125242128D02*
X122899999Y-125327842D01*
X122899999Y-125327842D02*
X122942857Y-125370700D01*
X122942857Y-125370700D02*
X123028571Y-125413557D01*
X123028571Y-125413557D02*
X123285714Y-125413557D01*
X123285714Y-125413557D02*
X123371428Y-125370700D01*
X123371428Y-125370700D02*
X123414285Y-125327842D01*
X121271428Y-125327842D02*
X121314285Y-125370700D01*
X121314285Y-125370700D02*
X121442857Y-125413557D01*
X121442857Y-125413557D02*
X121528571Y-125413557D01*
X121528571Y-125413557D02*
X121657142Y-125370700D01*
X121657142Y-125370700D02*
X121742857Y-125284985D01*
X121742857Y-125284985D02*
X121785714Y-125199271D01*
X121785714Y-125199271D02*
X121828571Y-125027842D01*
X121828571Y-125027842D02*
X121828571Y-124899271D01*
X121828571Y-124899271D02*
X121785714Y-124727842D01*
X121785714Y-124727842D02*
X121742857Y-124642128D01*
X121742857Y-124642128D02*
X121657142Y-124556414D01*
X121657142Y-124556414D02*
X121528571Y-124513557D01*
X121528571Y-124513557D02*
X121442857Y-124513557D01*
X121442857Y-124513557D02*
X121314285Y-124556414D01*
X121314285Y-124556414D02*
X121271428Y-124599271D01*
X120714285Y-124513557D02*
X120628571Y-124513557D01*
X120628571Y-124513557D02*
X120542857Y-124556414D01*
X120542857Y-124556414D02*
X120500000Y-124599271D01*
X120500000Y-124599271D02*
X120457142Y-124684985D01*
X120457142Y-124684985D02*
X120414285Y-124856414D01*
X120414285Y-124856414D02*
X120414285Y-125070700D01*
X120414285Y-125070700D02*
X120457142Y-125242128D01*
X120457142Y-125242128D02*
X120500000Y-125327842D01*
X120500000Y-125327842D02*
X120542857Y-125370700D01*
X120542857Y-125370700D02*
X120628571Y-125413557D01*
X120628571Y-125413557D02*
X120714285Y-125413557D01*
X120714285Y-125413557D02*
X120800000Y-125370700D01*
X120800000Y-125370700D02*
X120842857Y-125327842D01*
X120842857Y-125327842D02*
X120885714Y-125242128D01*
X120885714Y-125242128D02*
X120928571Y-125070700D01*
X120928571Y-125070700D02*
X120928571Y-124856414D01*
X120928571Y-124856414D02*
X120885714Y-124684985D01*
X120885714Y-124684985D02*
X120842857Y-124599271D01*
X120842857Y-124599271D02*
X120800000Y-124556414D01*
X120800000Y-124556414D02*
X120714285Y-124513557D01*
X119557142Y-124556414D02*
X119642857Y-124513557D01*
X119642857Y-124513557D02*
X119771428Y-124513557D01*
X119771428Y-124513557D02*
X119899999Y-124556414D01*
X119899999Y-124556414D02*
X119985714Y-124642128D01*
X119985714Y-124642128D02*
X120028571Y-124727842D01*
X120028571Y-124727842D02*
X120071428Y-124899271D01*
X120071428Y-124899271D02*
X120071428Y-125027842D01*
X120071428Y-125027842D02*
X120028571Y-125199271D01*
X120028571Y-125199271D02*
X119985714Y-125284985D01*
X119985714Y-125284985D02*
X119899999Y-125370700D01*
X119899999Y-125370700D02*
X119771428Y-125413557D01*
X119771428Y-125413557D02*
X119685714Y-125413557D01*
X119685714Y-125413557D02*
X119557142Y-125370700D01*
X119557142Y-125370700D02*
X119514285Y-125327842D01*
X119514285Y-125327842D02*
X119514285Y-125027842D01*
X119514285Y-125027842D02*
X119685714Y-125027842D01*
X126524285Y-119413557D02*
X126824285Y-118984985D01*
X127038571Y-119413557D02*
X127038571Y-118513557D01*
X127038571Y-118513557D02*
X126695714Y-118513557D01*
X126695714Y-118513557D02*
X126609999Y-118556414D01*
X126609999Y-118556414D02*
X126567142Y-118599271D01*
X126567142Y-118599271D02*
X126524285Y-118684985D01*
X126524285Y-118684985D02*
X126524285Y-118813557D01*
X126524285Y-118813557D02*
X126567142Y-118899271D01*
X126567142Y-118899271D02*
X126609999Y-118942128D01*
X126609999Y-118942128D02*
X126695714Y-118984985D01*
X126695714Y-118984985D02*
X127038571Y-118984985D01*
X125752857Y-118813557D02*
X125752857Y-119413557D01*
X125967142Y-118470700D02*
X126181428Y-119113557D01*
X126181428Y-119113557D02*
X125624285Y-119113557D01*
X124124285Y-119413557D02*
X124638571Y-119413557D01*
X124381428Y-119413557D02*
X124381428Y-118513557D01*
X124381428Y-118513557D02*
X124467142Y-118642128D01*
X124467142Y-118642128D02*
X124552857Y-118727842D01*
X124552857Y-118727842D02*
X124638571Y-118770700D01*
X123567142Y-118513557D02*
X123481428Y-118513557D01*
X123481428Y-118513557D02*
X123395714Y-118556414D01*
X123395714Y-118556414D02*
X123352857Y-118599271D01*
X123352857Y-118599271D02*
X123309999Y-118684985D01*
X123309999Y-118684985D02*
X123267142Y-118856414D01*
X123267142Y-118856414D02*
X123267142Y-119070700D01*
X123267142Y-119070700D02*
X123309999Y-119242128D01*
X123309999Y-119242128D02*
X123352857Y-119327842D01*
X123352857Y-119327842D02*
X123395714Y-119370700D01*
X123395714Y-119370700D02*
X123481428Y-119413557D01*
X123481428Y-119413557D02*
X123567142Y-119413557D01*
X123567142Y-119413557D02*
X123652857Y-119370700D01*
X123652857Y-119370700D02*
X123695714Y-119327842D01*
X123695714Y-119327842D02*
X123738571Y-119242128D01*
X123738571Y-119242128D02*
X123781428Y-119070700D01*
X123781428Y-119070700D02*
X123781428Y-118856414D01*
X123781428Y-118856414D02*
X123738571Y-118684985D01*
X123738571Y-118684985D02*
X123695714Y-118599271D01*
X123695714Y-118599271D02*
X123652857Y-118556414D01*
X123652857Y-118556414D02*
X123567142Y-118513557D01*
X122881428Y-119413557D02*
X122881428Y-118513557D01*
X122795714Y-119070700D02*
X122538571Y-119413557D01*
X122538571Y-118813557D02*
X122881428Y-119156414D01*
X126952856Y-137413557D02*
X127252856Y-136984985D01*
X127467142Y-137413557D02*
X127467142Y-136513557D01*
X127467142Y-136513557D02*
X127124285Y-136513557D01*
X127124285Y-136513557D02*
X127038570Y-136556414D01*
X127038570Y-136556414D02*
X126995713Y-136599271D01*
X126995713Y-136599271D02*
X126952856Y-136684985D01*
X126952856Y-136684985D02*
X126952856Y-136813557D01*
X126952856Y-136813557D02*
X126995713Y-136899271D01*
X126995713Y-136899271D02*
X127038570Y-136942128D01*
X127038570Y-136942128D02*
X127124285Y-136984985D01*
X127124285Y-136984985D02*
X127467142Y-136984985D01*
X126095713Y-137413557D02*
X126609999Y-137413557D01*
X126352856Y-137413557D02*
X126352856Y-136513557D01*
X126352856Y-136513557D02*
X126438570Y-136642128D01*
X126438570Y-136642128D02*
X126524285Y-136727842D01*
X126524285Y-136727842D02*
X126609999Y-136770700D01*
X125238570Y-137413557D02*
X125752856Y-137413557D01*
X125495713Y-137413557D02*
X125495713Y-136513557D01*
X125495713Y-136513557D02*
X125581427Y-136642128D01*
X125581427Y-136642128D02*
X125667142Y-136727842D01*
X125667142Y-136727842D02*
X125752856Y-136770700D01*
X123695713Y-137413557D02*
X124209999Y-137413557D01*
X123952856Y-137413557D02*
X123952856Y-136513557D01*
X123952856Y-136513557D02*
X124038570Y-136642128D01*
X124038570Y-136642128D02*
X124124285Y-136727842D01*
X124124285Y-136727842D02*
X124209999Y-136770700D01*
X123138570Y-136513557D02*
X123052856Y-136513557D01*
X123052856Y-136513557D02*
X122967142Y-136556414D01*
X122967142Y-136556414D02*
X122924285Y-136599271D01*
X122924285Y-136599271D02*
X122881427Y-136684985D01*
X122881427Y-136684985D02*
X122838570Y-136856414D01*
X122838570Y-136856414D02*
X122838570Y-137070700D01*
X122838570Y-137070700D02*
X122881427Y-137242128D01*
X122881427Y-137242128D02*
X122924285Y-137327842D01*
X122924285Y-137327842D02*
X122967142Y-137370700D01*
X122967142Y-137370700D02*
X123052856Y-137413557D01*
X123052856Y-137413557D02*
X123138570Y-137413557D01*
X123138570Y-137413557D02*
X123224285Y-137370700D01*
X123224285Y-137370700D02*
X123267142Y-137327842D01*
X123267142Y-137327842D02*
X123309999Y-137242128D01*
X123309999Y-137242128D02*
X123352856Y-137070700D01*
X123352856Y-137070700D02*
X123352856Y-136856414D01*
X123352856Y-136856414D02*
X123309999Y-136684985D01*
X123309999Y-136684985D02*
X123267142Y-136599271D01*
X123267142Y-136599271D02*
X123224285Y-136556414D01*
X123224285Y-136556414D02*
X123138570Y-136513557D01*
X122452856Y-137413557D02*
X122452856Y-136513557D01*
X122367142Y-137070700D02*
X122109999Y-137413557D01*
X122109999Y-136813557D02*
X122452856Y-137156414D01*
X127102856Y-143413557D02*
X127402856Y-142984985D01*
X127617142Y-143413557D02*
X127617142Y-142513557D01*
X127617142Y-142513557D02*
X127274285Y-142513557D01*
X127274285Y-142513557D02*
X127188570Y-142556414D01*
X127188570Y-142556414D02*
X127145713Y-142599271D01*
X127145713Y-142599271D02*
X127102856Y-142684985D01*
X127102856Y-142684985D02*
X127102856Y-142813557D01*
X127102856Y-142813557D02*
X127145713Y-142899271D01*
X127145713Y-142899271D02*
X127188570Y-142942128D01*
X127188570Y-142942128D02*
X127274285Y-142984985D01*
X127274285Y-142984985D02*
X127617142Y-142984985D01*
X126245713Y-143413557D02*
X126759999Y-143413557D01*
X126502856Y-143413557D02*
X126502856Y-142513557D01*
X126502856Y-142513557D02*
X126588570Y-142642128D01*
X126588570Y-142642128D02*
X126674285Y-142727842D01*
X126674285Y-142727842D02*
X126759999Y-142770700D01*
X125902856Y-142599271D02*
X125859999Y-142556414D01*
X125859999Y-142556414D02*
X125774285Y-142513557D01*
X125774285Y-142513557D02*
X125559999Y-142513557D01*
X125559999Y-142513557D02*
X125474285Y-142556414D01*
X125474285Y-142556414D02*
X125431427Y-142599271D01*
X125431427Y-142599271D02*
X125388570Y-142684985D01*
X125388570Y-142684985D02*
X125388570Y-142770700D01*
X125388570Y-142770700D02*
X125431427Y-142899271D01*
X125431427Y-142899271D02*
X125945713Y-143413557D01*
X125945713Y-143413557D02*
X125388570Y-143413557D01*
X124317142Y-143413557D02*
X124317142Y-142513557D01*
X124317142Y-142513557D02*
X124102856Y-142513557D01*
X124102856Y-142513557D02*
X123974285Y-142556414D01*
X123974285Y-142556414D02*
X123888570Y-142642128D01*
X123888570Y-142642128D02*
X123845713Y-142727842D01*
X123845713Y-142727842D02*
X123802856Y-142899271D01*
X123802856Y-142899271D02*
X123802856Y-143027842D01*
X123802856Y-143027842D02*
X123845713Y-143199271D01*
X123845713Y-143199271D02*
X123888570Y-143284985D01*
X123888570Y-143284985D02*
X123974285Y-143370700D01*
X123974285Y-143370700D02*
X124102856Y-143413557D01*
X124102856Y-143413557D02*
X124317142Y-143413557D01*
X123417142Y-143413557D02*
X123417142Y-142513557D01*
X123417142Y-142513557D02*
X122902856Y-143413557D01*
X122902856Y-143413557D02*
X122902856Y-142513557D01*
X122474285Y-143413557D02*
X122474285Y-142513557D01*
X122474285Y-142513557D02*
X122131428Y-142513557D01*
X122131428Y-142513557D02*
X122045713Y-142556414D01*
X122045713Y-142556414D02*
X122002856Y-142599271D01*
X122002856Y-142599271D02*
X121959999Y-142684985D01*
X121959999Y-142684985D02*
X121959999Y-142813557D01*
X121959999Y-142813557D02*
X122002856Y-142899271D01*
X122002856Y-142899271D02*
X122045713Y-142942128D01*
X122045713Y-142942128D02*
X122131428Y-142984985D01*
X122131428Y-142984985D02*
X122474285Y-142984985D01*
X132292856Y-128408557D02*
X132592856Y-127979985D01*
X132807142Y-128408557D02*
X132807142Y-127508557D01*
X132807142Y-127508557D02*
X132464285Y-127508557D01*
X132464285Y-127508557D02*
X132378570Y-127551414D01*
X132378570Y-127551414D02*
X132335713Y-127594271D01*
X132335713Y-127594271D02*
X132292856Y-127679985D01*
X132292856Y-127679985D02*
X132292856Y-127808557D01*
X132292856Y-127808557D02*
X132335713Y-127894271D01*
X132335713Y-127894271D02*
X132378570Y-127937128D01*
X132378570Y-127937128D02*
X132464285Y-127979985D01*
X132464285Y-127979985D02*
X132807142Y-127979985D01*
X131435713Y-128408557D02*
X131949999Y-128408557D01*
X131692856Y-128408557D02*
X131692856Y-127508557D01*
X131692856Y-127508557D02*
X131778570Y-127637128D01*
X131778570Y-127637128D02*
X131864285Y-127722842D01*
X131864285Y-127722842D02*
X131949999Y-127765700D01*
X131135713Y-127508557D02*
X130578570Y-127508557D01*
X130578570Y-127508557D02*
X130878570Y-127851414D01*
X130878570Y-127851414D02*
X130749999Y-127851414D01*
X130749999Y-127851414D02*
X130664285Y-127894271D01*
X130664285Y-127894271D02*
X130621427Y-127937128D01*
X130621427Y-127937128D02*
X130578570Y-128022842D01*
X130578570Y-128022842D02*
X130578570Y-128237128D01*
X130578570Y-128237128D02*
X130621427Y-128322842D01*
X130621427Y-128322842D02*
X130664285Y-128365700D01*
X130664285Y-128365700D02*
X130749999Y-128408557D01*
X130749999Y-128408557D02*
X131007142Y-128408557D01*
X131007142Y-128408557D02*
X131092856Y-128365700D01*
X131092856Y-128365700D02*
X131135713Y-128322842D01*
X129507142Y-128408557D02*
X129507142Y-127508557D01*
X129507142Y-127508557D02*
X129292856Y-127508557D01*
X129292856Y-127508557D02*
X129164285Y-127551414D01*
X129164285Y-127551414D02*
X129078570Y-127637128D01*
X129078570Y-127637128D02*
X129035713Y-127722842D01*
X129035713Y-127722842D02*
X128992856Y-127894271D01*
X128992856Y-127894271D02*
X128992856Y-128022842D01*
X128992856Y-128022842D02*
X129035713Y-128194271D01*
X129035713Y-128194271D02*
X129078570Y-128279985D01*
X129078570Y-128279985D02*
X129164285Y-128365700D01*
X129164285Y-128365700D02*
X129292856Y-128408557D01*
X129292856Y-128408557D02*
X129507142Y-128408557D01*
X128607142Y-128408557D02*
X128607142Y-127508557D01*
X128607142Y-127508557D02*
X128092856Y-128408557D01*
X128092856Y-128408557D02*
X128092856Y-127508557D01*
X127664285Y-128408557D02*
X127664285Y-127508557D01*
X127664285Y-127508557D02*
X127321428Y-127508557D01*
X127321428Y-127508557D02*
X127235713Y-127551414D01*
X127235713Y-127551414D02*
X127192856Y-127594271D01*
X127192856Y-127594271D02*
X127149999Y-127679985D01*
X127149999Y-127679985D02*
X127149999Y-127808557D01*
X127149999Y-127808557D02*
X127192856Y-127894271D01*
X127192856Y-127894271D02*
X127235713Y-127937128D01*
X127235713Y-127937128D02*
X127321428Y-127979985D01*
X127321428Y-127979985D02*
X127664285Y-127979985D01*
X138685714Y-107327842D02*
X138728571Y-107370700D01*
X138728571Y-107370700D02*
X138857143Y-107413557D01*
X138857143Y-107413557D02*
X138942857Y-107413557D01*
X138942857Y-107413557D02*
X139071428Y-107370700D01*
X139071428Y-107370700D02*
X139157143Y-107284985D01*
X139157143Y-107284985D02*
X139200000Y-107199271D01*
X139200000Y-107199271D02*
X139242857Y-107027842D01*
X139242857Y-107027842D02*
X139242857Y-106899271D01*
X139242857Y-106899271D02*
X139200000Y-106727842D01*
X139200000Y-106727842D02*
X139157143Y-106642128D01*
X139157143Y-106642128D02*
X139071428Y-106556414D01*
X139071428Y-106556414D02*
X138942857Y-106513557D01*
X138942857Y-106513557D02*
X138857143Y-106513557D01*
X138857143Y-106513557D02*
X138728571Y-106556414D01*
X138728571Y-106556414D02*
X138685714Y-106599271D01*
X138342857Y-106599271D02*
X138300000Y-106556414D01*
X138300000Y-106556414D02*
X138214286Y-106513557D01*
X138214286Y-106513557D02*
X138000000Y-106513557D01*
X138000000Y-106513557D02*
X137914286Y-106556414D01*
X137914286Y-106556414D02*
X137871428Y-106599271D01*
X137871428Y-106599271D02*
X137828571Y-106684985D01*
X137828571Y-106684985D02*
X137828571Y-106770700D01*
X137828571Y-106770700D02*
X137871428Y-106899271D01*
X137871428Y-106899271D02*
X138385714Y-107413557D01*
X138385714Y-107413557D02*
X137828571Y-107413557D01*
X136285714Y-107413557D02*
X136800000Y-107413557D01*
X136542857Y-107413557D02*
X136542857Y-106513557D01*
X136542857Y-106513557D02*
X136628571Y-106642128D01*
X136628571Y-106642128D02*
X136714286Y-106727842D01*
X136714286Y-106727842D02*
X136800000Y-106770700D01*
X135728571Y-106513557D02*
X135642857Y-106513557D01*
X135642857Y-106513557D02*
X135557143Y-106556414D01*
X135557143Y-106556414D02*
X135514286Y-106599271D01*
X135514286Y-106599271D02*
X135471428Y-106684985D01*
X135471428Y-106684985D02*
X135428571Y-106856414D01*
X135428571Y-106856414D02*
X135428571Y-107070700D01*
X135428571Y-107070700D02*
X135471428Y-107242128D01*
X135471428Y-107242128D02*
X135514286Y-107327842D01*
X135514286Y-107327842D02*
X135557143Y-107370700D01*
X135557143Y-107370700D02*
X135642857Y-107413557D01*
X135642857Y-107413557D02*
X135728571Y-107413557D01*
X135728571Y-107413557D02*
X135814286Y-107370700D01*
X135814286Y-107370700D02*
X135857143Y-107327842D01*
X135857143Y-107327842D02*
X135900000Y-107242128D01*
X135900000Y-107242128D02*
X135942857Y-107070700D01*
X135942857Y-107070700D02*
X135942857Y-106856414D01*
X135942857Y-106856414D02*
X135900000Y-106684985D01*
X135900000Y-106684985D02*
X135857143Y-106599271D01*
X135857143Y-106599271D02*
X135814286Y-106556414D01*
X135814286Y-106556414D02*
X135728571Y-106513557D01*
X134871428Y-106513557D02*
X134785714Y-106513557D01*
X134785714Y-106513557D02*
X134700000Y-106556414D01*
X134700000Y-106556414D02*
X134657143Y-106599271D01*
X134657143Y-106599271D02*
X134614285Y-106684985D01*
X134614285Y-106684985D02*
X134571428Y-106856414D01*
X134571428Y-106856414D02*
X134571428Y-107070700D01*
X134571428Y-107070700D02*
X134614285Y-107242128D01*
X134614285Y-107242128D02*
X134657143Y-107327842D01*
X134657143Y-107327842D02*
X134700000Y-107370700D01*
X134700000Y-107370700D02*
X134785714Y-107413557D01*
X134785714Y-107413557D02*
X134871428Y-107413557D01*
X134871428Y-107413557D02*
X134957143Y-107370700D01*
X134957143Y-107370700D02*
X135000000Y-107327842D01*
X135000000Y-107327842D02*
X135042857Y-107242128D01*
X135042857Y-107242128D02*
X135085714Y-107070700D01*
X135085714Y-107070700D02*
X135085714Y-106856414D01*
X135085714Y-106856414D02*
X135042857Y-106684985D01*
X135042857Y-106684985D02*
X135000000Y-106599271D01*
X135000000Y-106599271D02*
X134957143Y-106556414D01*
X134957143Y-106556414D02*
X134871428Y-106513557D01*
X134185714Y-106813557D02*
X134185714Y-107413557D01*
X134185714Y-106899271D02*
X134142857Y-106856414D01*
X134142857Y-106856414D02*
X134057142Y-106813557D01*
X134057142Y-106813557D02*
X133928571Y-106813557D01*
X133928571Y-106813557D02*
X133842857Y-106856414D01*
X133842857Y-106856414D02*
X133800000Y-106942128D01*
X133800000Y-106942128D02*
X133800000Y-107413557D01*
X149885715Y-102608557D02*
X150185715Y-102179985D01*
X150400001Y-102608557D02*
X150400001Y-101708557D01*
X150400001Y-101708557D02*
X150057144Y-101708557D01*
X150057144Y-101708557D02*
X149971429Y-101751414D01*
X149971429Y-101751414D02*
X149928572Y-101794271D01*
X149928572Y-101794271D02*
X149885715Y-101879985D01*
X149885715Y-101879985D02*
X149885715Y-102008557D01*
X149885715Y-102008557D02*
X149928572Y-102094271D01*
X149928572Y-102094271D02*
X149971429Y-102137128D01*
X149971429Y-102137128D02*
X150057144Y-102179985D01*
X150057144Y-102179985D02*
X150400001Y-102179985D01*
X149628572Y-101708557D02*
X149328572Y-102608557D01*
X149328572Y-102608557D02*
X149028572Y-101708557D01*
X148257143Y-102608557D02*
X148771429Y-102608557D01*
X148514286Y-102608557D02*
X148514286Y-101708557D01*
X148514286Y-101708557D02*
X148600000Y-101837128D01*
X148600000Y-101837128D02*
X148685715Y-101922842D01*
X148685715Y-101922842D02*
X148771429Y-101965700D01*
X147228572Y-102565700D02*
X147142858Y-102608557D01*
X147142858Y-102608557D02*
X146971429Y-102608557D01*
X146971429Y-102608557D02*
X146885715Y-102565700D01*
X146885715Y-102565700D02*
X146842858Y-102479985D01*
X146842858Y-102479985D02*
X146842858Y-102437128D01*
X146842858Y-102437128D02*
X146885715Y-102351414D01*
X146885715Y-102351414D02*
X146971429Y-102308557D01*
X146971429Y-102308557D02*
X147100001Y-102308557D01*
X147100001Y-102308557D02*
X147185715Y-102265700D01*
X147185715Y-102265700D02*
X147228572Y-102179985D01*
X147228572Y-102179985D02*
X147228572Y-102137128D01*
X147228572Y-102137128D02*
X147185715Y-102051414D01*
X147185715Y-102051414D02*
X147100001Y-102008557D01*
X147100001Y-102008557D02*
X146971429Y-102008557D01*
X146971429Y-102008557D02*
X146885715Y-102051414D01*
X146114287Y-102565700D02*
X146200001Y-102608557D01*
X146200001Y-102608557D02*
X146371430Y-102608557D01*
X146371430Y-102608557D02*
X146457144Y-102565700D01*
X146457144Y-102565700D02*
X146500001Y-102479985D01*
X146500001Y-102479985D02*
X146500001Y-102137128D01*
X146500001Y-102137128D02*
X146457144Y-102051414D01*
X146457144Y-102051414D02*
X146371430Y-102008557D01*
X146371430Y-102008557D02*
X146200001Y-102008557D01*
X146200001Y-102008557D02*
X146114287Y-102051414D01*
X146114287Y-102051414D02*
X146071430Y-102137128D01*
X146071430Y-102137128D02*
X146071430Y-102222842D01*
X146071430Y-102222842D02*
X146500001Y-102308557D01*
X145814286Y-102008557D02*
X145471429Y-102008557D01*
X145685715Y-101708557D02*
X145685715Y-102479985D01*
X145685715Y-102479985D02*
X145642858Y-102565700D01*
X145642858Y-102565700D02*
X145557143Y-102608557D01*
X145557143Y-102608557D02*
X145471429Y-102608557D01*
X145214286Y-102565700D02*
X145128572Y-102608557D01*
X145128572Y-102608557D02*
X144957143Y-102608557D01*
X144957143Y-102608557D02*
X144871429Y-102565700D01*
X144871429Y-102565700D02*
X144828572Y-102479985D01*
X144828572Y-102479985D02*
X144828572Y-102437128D01*
X144828572Y-102437128D02*
X144871429Y-102351414D01*
X144871429Y-102351414D02*
X144957143Y-102308557D01*
X144957143Y-102308557D02*
X145085715Y-102308557D01*
X145085715Y-102308557D02*
X145171429Y-102265700D01*
X145171429Y-102265700D02*
X145214286Y-102179985D01*
X145214286Y-102179985D02*
X145214286Y-102137128D01*
X145214286Y-102137128D02*
X145171429Y-102051414D01*
X145171429Y-102051414D02*
X145085715Y-102008557D01*
X145085715Y-102008557D02*
X144957143Y-102008557D01*
X144957143Y-102008557D02*
X144871429Y-102051414D01*
X143885715Y-102008557D02*
X143542858Y-102008557D01*
X143757144Y-101708557D02*
X143757144Y-102479985D01*
X143757144Y-102479985D02*
X143714287Y-102565700D01*
X143714287Y-102565700D02*
X143628572Y-102608557D01*
X143628572Y-102608557D02*
X143542858Y-102608557D01*
X143242858Y-102608557D02*
X143242858Y-101708557D01*
X142857144Y-102608557D02*
X142857144Y-102137128D01*
X142857144Y-102137128D02*
X142900001Y-102051414D01*
X142900001Y-102051414D02*
X142985715Y-102008557D01*
X142985715Y-102008557D02*
X143114286Y-102008557D01*
X143114286Y-102008557D02*
X143200001Y-102051414D01*
X143200001Y-102051414D02*
X143242858Y-102094271D01*
X142428572Y-102608557D02*
X142428572Y-102008557D01*
X142428572Y-102179985D02*
X142385715Y-102094271D01*
X142385715Y-102094271D02*
X142342858Y-102051414D01*
X142342858Y-102051414D02*
X142257143Y-102008557D01*
X142257143Y-102008557D02*
X142171429Y-102008557D01*
X141528572Y-102565700D02*
X141614286Y-102608557D01*
X141614286Y-102608557D02*
X141785715Y-102608557D01*
X141785715Y-102608557D02*
X141871429Y-102565700D01*
X141871429Y-102565700D02*
X141914286Y-102479985D01*
X141914286Y-102479985D02*
X141914286Y-102137128D01*
X141914286Y-102137128D02*
X141871429Y-102051414D01*
X141871429Y-102051414D02*
X141785715Y-102008557D01*
X141785715Y-102008557D02*
X141614286Y-102008557D01*
X141614286Y-102008557D02*
X141528572Y-102051414D01*
X141528572Y-102051414D02*
X141485715Y-102137128D01*
X141485715Y-102137128D02*
X141485715Y-102222842D01*
X141485715Y-102222842D02*
X141914286Y-102308557D01*
X141142857Y-102565700D02*
X141057143Y-102608557D01*
X141057143Y-102608557D02*
X140885714Y-102608557D01*
X140885714Y-102608557D02*
X140800000Y-102565700D01*
X140800000Y-102565700D02*
X140757143Y-102479985D01*
X140757143Y-102479985D02*
X140757143Y-102437128D01*
X140757143Y-102437128D02*
X140800000Y-102351414D01*
X140800000Y-102351414D02*
X140885714Y-102308557D01*
X140885714Y-102308557D02*
X141014286Y-102308557D01*
X141014286Y-102308557D02*
X141100000Y-102265700D01*
X141100000Y-102265700D02*
X141142857Y-102179985D01*
X141142857Y-102179985D02*
X141142857Y-102137128D01*
X141142857Y-102137128D02*
X141100000Y-102051414D01*
X141100000Y-102051414D02*
X141014286Y-102008557D01*
X141014286Y-102008557D02*
X140885714Y-102008557D01*
X140885714Y-102008557D02*
X140800000Y-102051414D01*
X140371429Y-102608557D02*
X140371429Y-101708557D01*
X139985715Y-102608557D02*
X139985715Y-102137128D01*
X139985715Y-102137128D02*
X140028572Y-102051414D01*
X140028572Y-102051414D02*
X140114286Y-102008557D01*
X140114286Y-102008557D02*
X140242857Y-102008557D01*
X140242857Y-102008557D02*
X140328572Y-102051414D01*
X140328572Y-102051414D02*
X140371429Y-102094271D01*
X139428571Y-102608557D02*
X139514286Y-102565700D01*
X139514286Y-102565700D02*
X139557143Y-102522842D01*
X139557143Y-102522842D02*
X139600000Y-102437128D01*
X139600000Y-102437128D02*
X139600000Y-102179985D01*
X139600000Y-102179985D02*
X139557143Y-102094271D01*
X139557143Y-102094271D02*
X139514286Y-102051414D01*
X139514286Y-102051414D02*
X139428571Y-102008557D01*
X139428571Y-102008557D02*
X139300000Y-102008557D01*
X139300000Y-102008557D02*
X139214286Y-102051414D01*
X139214286Y-102051414D02*
X139171429Y-102094271D01*
X139171429Y-102094271D02*
X139128571Y-102179985D01*
X139128571Y-102179985D02*
X139128571Y-102437128D01*
X139128571Y-102437128D02*
X139171429Y-102522842D01*
X139171429Y-102522842D02*
X139214286Y-102565700D01*
X139214286Y-102565700D02*
X139300000Y-102608557D01*
X139300000Y-102608557D02*
X139428571Y-102608557D01*
X138614285Y-102608557D02*
X138700000Y-102565700D01*
X138700000Y-102565700D02*
X138742857Y-102479985D01*
X138742857Y-102479985D02*
X138742857Y-101708557D01*
X137885714Y-102608557D02*
X137885714Y-101708557D01*
X137885714Y-102565700D02*
X137971428Y-102608557D01*
X137971428Y-102608557D02*
X138142856Y-102608557D01*
X138142856Y-102608557D02*
X138228571Y-102565700D01*
X138228571Y-102565700D02*
X138271428Y-102522842D01*
X138271428Y-102522842D02*
X138314285Y-102437128D01*
X138314285Y-102437128D02*
X138314285Y-102179985D01*
X138314285Y-102179985D02*
X138271428Y-102094271D01*
X138271428Y-102094271D02*
X138228571Y-102051414D01*
X138228571Y-102051414D02*
X138142856Y-102008557D01*
X138142856Y-102008557D02*
X137971428Y-102008557D01*
X137971428Y-102008557D02*
X137885714Y-102051414D01*
X136771428Y-102265700D02*
X136085714Y-102265700D01*
X134971428Y-102608557D02*
X134971428Y-102008557D01*
X134971428Y-102094271D02*
X134928571Y-102051414D01*
X134928571Y-102051414D02*
X134842856Y-102008557D01*
X134842856Y-102008557D02*
X134714285Y-102008557D01*
X134714285Y-102008557D02*
X134628571Y-102051414D01*
X134628571Y-102051414D02*
X134585714Y-102137128D01*
X134585714Y-102137128D02*
X134585714Y-102608557D01*
X134585714Y-102137128D02*
X134542856Y-102051414D01*
X134542856Y-102051414D02*
X134457142Y-102008557D01*
X134457142Y-102008557D02*
X134328571Y-102008557D01*
X134328571Y-102008557D02*
X134242856Y-102051414D01*
X134242856Y-102051414D02*
X134199999Y-102137128D01*
X134199999Y-102137128D02*
X134199999Y-102608557D01*
X133428571Y-102565700D02*
X133514285Y-102608557D01*
X133514285Y-102608557D02*
X133685714Y-102608557D01*
X133685714Y-102608557D02*
X133771428Y-102565700D01*
X133771428Y-102565700D02*
X133814285Y-102479985D01*
X133814285Y-102479985D02*
X133814285Y-102137128D01*
X133814285Y-102137128D02*
X133771428Y-102051414D01*
X133771428Y-102051414D02*
X133685714Y-102008557D01*
X133685714Y-102008557D02*
X133514285Y-102008557D01*
X133514285Y-102008557D02*
X133428571Y-102051414D01*
X133428571Y-102051414D02*
X133385714Y-102137128D01*
X133385714Y-102137128D02*
X133385714Y-102222842D01*
X133385714Y-102222842D02*
X133814285Y-102308557D01*
X132614285Y-102608557D02*
X132614285Y-102137128D01*
X132614285Y-102137128D02*
X132657142Y-102051414D01*
X132657142Y-102051414D02*
X132742856Y-102008557D01*
X132742856Y-102008557D02*
X132914285Y-102008557D01*
X132914285Y-102008557D02*
X132999999Y-102051414D01*
X132614285Y-102565700D02*
X132699999Y-102608557D01*
X132699999Y-102608557D02*
X132914285Y-102608557D01*
X132914285Y-102608557D02*
X132999999Y-102565700D01*
X132999999Y-102565700D02*
X133042856Y-102479985D01*
X133042856Y-102479985D02*
X133042856Y-102394271D01*
X133042856Y-102394271D02*
X132999999Y-102308557D01*
X132999999Y-102308557D02*
X132914285Y-102265700D01*
X132914285Y-102265700D02*
X132699999Y-102265700D01*
X132699999Y-102265700D02*
X132614285Y-102222842D01*
X132228570Y-102565700D02*
X132142856Y-102608557D01*
X132142856Y-102608557D02*
X131971427Y-102608557D01*
X131971427Y-102608557D02*
X131885713Y-102565700D01*
X131885713Y-102565700D02*
X131842856Y-102479985D01*
X131842856Y-102479985D02*
X131842856Y-102437128D01*
X131842856Y-102437128D02*
X131885713Y-102351414D01*
X131885713Y-102351414D02*
X131971427Y-102308557D01*
X131971427Y-102308557D02*
X132099999Y-102308557D01*
X132099999Y-102308557D02*
X132185713Y-102265700D01*
X132185713Y-102265700D02*
X132228570Y-102179985D01*
X132228570Y-102179985D02*
X132228570Y-102137128D01*
X132228570Y-102137128D02*
X132185713Y-102051414D01*
X132185713Y-102051414D02*
X132099999Y-102008557D01*
X132099999Y-102008557D02*
X131971427Y-102008557D01*
X131971427Y-102008557D02*
X131885713Y-102051414D01*
X131071428Y-102008557D02*
X131071428Y-102608557D01*
X131457142Y-102008557D02*
X131457142Y-102479985D01*
X131457142Y-102479985D02*
X131414285Y-102565700D01*
X131414285Y-102565700D02*
X131328570Y-102608557D01*
X131328570Y-102608557D02*
X131199999Y-102608557D01*
X131199999Y-102608557D02*
X131114285Y-102565700D01*
X131114285Y-102565700D02*
X131071428Y-102522842D01*
X130642856Y-102608557D02*
X130642856Y-102008557D01*
X130642856Y-102179985D02*
X130599999Y-102094271D01*
X130599999Y-102094271D02*
X130557142Y-102051414D01*
X130557142Y-102051414D02*
X130471427Y-102008557D01*
X130471427Y-102008557D02*
X130385713Y-102008557D01*
X129742856Y-102565700D02*
X129828570Y-102608557D01*
X129828570Y-102608557D02*
X129999999Y-102608557D01*
X129999999Y-102608557D02*
X130085713Y-102565700D01*
X130085713Y-102565700D02*
X130128570Y-102479985D01*
X130128570Y-102479985D02*
X130128570Y-102137128D01*
X130128570Y-102137128D02*
X130085713Y-102051414D01*
X130085713Y-102051414D02*
X129999999Y-102008557D01*
X129999999Y-102008557D02*
X129828570Y-102008557D01*
X129828570Y-102008557D02*
X129742856Y-102051414D01*
X129742856Y-102051414D02*
X129699999Y-102137128D01*
X129699999Y-102137128D02*
X129699999Y-102222842D01*
X129699999Y-102222842D02*
X130128570Y-102308557D01*
X128242856Y-102608557D02*
X128242856Y-102137128D01*
X128242856Y-102137128D02*
X128285713Y-102051414D01*
X128285713Y-102051414D02*
X128371427Y-102008557D01*
X128371427Y-102008557D02*
X128542856Y-102008557D01*
X128542856Y-102008557D02*
X128628570Y-102051414D01*
X128242856Y-102565700D02*
X128328570Y-102608557D01*
X128328570Y-102608557D02*
X128542856Y-102608557D01*
X128542856Y-102608557D02*
X128628570Y-102565700D01*
X128628570Y-102565700D02*
X128671427Y-102479985D01*
X128671427Y-102479985D02*
X128671427Y-102394271D01*
X128671427Y-102394271D02*
X128628570Y-102308557D01*
X128628570Y-102308557D02*
X128542856Y-102265700D01*
X128542856Y-102265700D02*
X128328570Y-102265700D01*
X128328570Y-102265700D02*
X128242856Y-102222842D01*
X127942855Y-102008557D02*
X127599998Y-102008557D01*
X127814284Y-101708557D02*
X127814284Y-102479985D01*
X127814284Y-102479985D02*
X127771427Y-102565700D01*
X127771427Y-102565700D02*
X127685712Y-102608557D01*
X127685712Y-102608557D02*
X127599998Y-102608557D01*
X126742855Y-101708557D02*
X126228570Y-101708557D01*
X126485712Y-102608557D02*
X126485712Y-101708557D01*
X125928570Y-102608557D02*
X125928570Y-101708557D01*
X125928570Y-101708557D02*
X125585713Y-101708557D01*
X125585713Y-101708557D02*
X125499998Y-101751414D01*
X125499998Y-101751414D02*
X125457141Y-101794271D01*
X125457141Y-101794271D02*
X125414284Y-101879985D01*
X125414284Y-101879985D02*
X125414284Y-102008557D01*
X125414284Y-102008557D02*
X125457141Y-102094271D01*
X125457141Y-102094271D02*
X125499998Y-102137128D01*
X125499998Y-102137128D02*
X125585713Y-102179985D01*
X125585713Y-102179985D02*
X125928570Y-102179985D01*
X125114284Y-101708557D02*
X124557141Y-101708557D01*
X124557141Y-101708557D02*
X124857141Y-102051414D01*
X124857141Y-102051414D02*
X124728570Y-102051414D01*
X124728570Y-102051414D02*
X124642856Y-102094271D01*
X124642856Y-102094271D02*
X124599998Y-102137128D01*
X124599998Y-102137128D02*
X124557141Y-102222842D01*
X124557141Y-102222842D02*
X124557141Y-102437128D01*
X124557141Y-102437128D02*
X124599998Y-102522842D01*
X124599998Y-102522842D02*
X124642856Y-102565700D01*
X124642856Y-102565700D02*
X124728570Y-102608557D01*
X124728570Y-102608557D02*
X124985713Y-102608557D01*
X124985713Y-102608557D02*
X125071427Y-102565700D01*
X125071427Y-102565700D02*
X125114284Y-102522842D01*
X151214285Y-152508557D02*
X151214285Y-153151414D01*
X151214285Y-153151414D02*
X151257142Y-153279985D01*
X151257142Y-153279985D02*
X151342856Y-153365700D01*
X151342856Y-153365700D02*
X151471428Y-153408557D01*
X151471428Y-153408557D02*
X151557142Y-153408557D01*
X150314285Y-153408557D02*
X150828571Y-153408557D01*
X150571428Y-153408557D02*
X150571428Y-152508557D01*
X150571428Y-152508557D02*
X150657142Y-152637128D01*
X150657142Y-152637128D02*
X150742857Y-152722842D01*
X150742857Y-152722842D02*
X150828571Y-152765700D01*
X148085714Y-153408557D02*
X148600000Y-153408557D01*
X148342857Y-153408557D02*
X148342857Y-152508557D01*
X148342857Y-152508557D02*
X148428571Y-152637128D01*
X148428571Y-152637128D02*
X148514286Y-152722842D01*
X148514286Y-152722842D02*
X148600000Y-152765700D01*
X147700000Y-152937128D02*
X147014286Y-152937128D01*
X147014286Y-153194271D02*
X147700000Y-153194271D01*
X146671428Y-152508557D02*
X146114285Y-152508557D01*
X146114285Y-152508557D02*
X146414285Y-152851414D01*
X146414285Y-152851414D02*
X146285714Y-152851414D01*
X146285714Y-152851414D02*
X146200000Y-152894271D01*
X146200000Y-152894271D02*
X146157142Y-152937128D01*
X146157142Y-152937128D02*
X146114285Y-153022842D01*
X146114285Y-153022842D02*
X146114285Y-153237128D01*
X146114285Y-153237128D02*
X146157142Y-153322842D01*
X146157142Y-153322842D02*
X146200000Y-153365700D01*
X146200000Y-153365700D02*
X146285714Y-153408557D01*
X146285714Y-153408557D02*
X146542857Y-153408557D01*
X146542857Y-153408557D02*
X146628571Y-153365700D01*
X146628571Y-153365700D02*
X146671428Y-153322842D01*
X145857142Y-152508557D02*
X145557142Y-153408557D01*
X145557142Y-153408557D02*
X145257142Y-152508557D01*
X145042856Y-152508557D02*
X144485713Y-152508557D01*
X144485713Y-152508557D02*
X144785713Y-152851414D01*
X144785713Y-152851414D02*
X144657142Y-152851414D01*
X144657142Y-152851414D02*
X144571428Y-152894271D01*
X144571428Y-152894271D02*
X144528570Y-152937128D01*
X144528570Y-152937128D02*
X144485713Y-153022842D01*
X144485713Y-153022842D02*
X144485713Y-153237128D01*
X144485713Y-153237128D02*
X144528570Y-153322842D01*
X144528570Y-153322842D02*
X144571428Y-153365700D01*
X144571428Y-153365700D02*
X144657142Y-153408557D01*
X144657142Y-153408557D02*
X144914285Y-153408557D01*
X144914285Y-153408557D02*
X144999999Y-153365700D01*
X144999999Y-153365700D02*
X145042856Y-153322842D01*
X143457142Y-152594271D02*
X143414285Y-152551414D01*
X143414285Y-152551414D02*
X143328571Y-152508557D01*
X143328571Y-152508557D02*
X143114285Y-152508557D01*
X143114285Y-152508557D02*
X143028571Y-152551414D01*
X143028571Y-152551414D02*
X142985713Y-152594271D01*
X142985713Y-152594271D02*
X142942856Y-152679985D01*
X142942856Y-152679985D02*
X142942856Y-152765700D01*
X142942856Y-152765700D02*
X142985713Y-152894271D01*
X142985713Y-152894271D02*
X143499999Y-153408557D01*
X143499999Y-153408557D02*
X142942856Y-153408557D01*
X142557142Y-152937128D02*
X141871428Y-152937128D01*
X141871428Y-153194271D02*
X142557142Y-153194271D01*
X140971427Y-152551414D02*
X141057142Y-152508557D01*
X141057142Y-152508557D02*
X141185713Y-152508557D01*
X141185713Y-152508557D02*
X141314284Y-152551414D01*
X141314284Y-152551414D02*
X141399999Y-152637128D01*
X141399999Y-152637128D02*
X141442856Y-152722842D01*
X141442856Y-152722842D02*
X141485713Y-152894271D01*
X141485713Y-152894271D02*
X141485713Y-153022842D01*
X141485713Y-153022842D02*
X141442856Y-153194271D01*
X141442856Y-153194271D02*
X141399999Y-153279985D01*
X141399999Y-153279985D02*
X141314284Y-153365700D01*
X141314284Y-153365700D02*
X141185713Y-153408557D01*
X141185713Y-153408557D02*
X141099999Y-153408557D01*
X141099999Y-153408557D02*
X140971427Y-153365700D01*
X140971427Y-153365700D02*
X140928570Y-153322842D01*
X140928570Y-153322842D02*
X140928570Y-153022842D01*
X140928570Y-153022842D02*
X141099999Y-153022842D01*
X140542856Y-153408557D02*
X140542856Y-152508557D01*
X140542856Y-152508557D02*
X140028570Y-153408557D01*
X140028570Y-153408557D02*
X140028570Y-152508557D01*
X139599999Y-153408557D02*
X139599999Y-152508557D01*
X139599999Y-152508557D02*
X139385713Y-152508557D01*
X139385713Y-152508557D02*
X139257142Y-152551414D01*
X139257142Y-152551414D02*
X139171427Y-152637128D01*
X139171427Y-152637128D02*
X139128570Y-152722842D01*
X139128570Y-152722842D02*
X139085713Y-152894271D01*
X139085713Y-152894271D02*
X139085713Y-153022842D01*
X139085713Y-153022842D02*
X139128570Y-153194271D01*
X139128570Y-153194271D02*
X139171427Y-153279985D01*
X139171427Y-153279985D02*
X139257142Y-153365700D01*
X139257142Y-153365700D02*
X139385713Y-153408557D01*
X139385713Y-153408557D02*
X139599999Y-153408557D01*
X138099999Y-152508557D02*
X137542856Y-152508557D01*
X137542856Y-152508557D02*
X137842856Y-152851414D01*
X137842856Y-152851414D02*
X137714285Y-152851414D01*
X137714285Y-152851414D02*
X137628571Y-152894271D01*
X137628571Y-152894271D02*
X137585713Y-152937128D01*
X137585713Y-152937128D02*
X137542856Y-153022842D01*
X137542856Y-153022842D02*
X137542856Y-153237128D01*
X137542856Y-153237128D02*
X137585713Y-153322842D01*
X137585713Y-153322842D02*
X137628571Y-153365700D01*
X137628571Y-153365700D02*
X137714285Y-153408557D01*
X137714285Y-153408557D02*
X137971428Y-153408557D01*
X137971428Y-153408557D02*
X138057142Y-153365700D01*
X138057142Y-153365700D02*
X138099999Y-153322842D01*
X137157142Y-152937128D02*
X136471428Y-152937128D01*
X136471428Y-153194271D02*
X137157142Y-153194271D01*
X136085713Y-153151414D02*
X135657142Y-153151414D01*
X136171427Y-153408557D02*
X135871427Y-152508557D01*
X135871427Y-152508557D02*
X135571427Y-153408557D01*
X135099998Y-152508557D02*
X134928570Y-152508557D01*
X134928570Y-152508557D02*
X134842855Y-152551414D01*
X134842855Y-152551414D02*
X134757141Y-152637128D01*
X134757141Y-152637128D02*
X134714284Y-152808557D01*
X134714284Y-152808557D02*
X134714284Y-153108557D01*
X134714284Y-153108557D02*
X134757141Y-153279985D01*
X134757141Y-153279985D02*
X134842855Y-153365700D01*
X134842855Y-153365700D02*
X134928570Y-153408557D01*
X134928570Y-153408557D02*
X135099998Y-153408557D01*
X135099998Y-153408557D02*
X135185713Y-153365700D01*
X135185713Y-153365700D02*
X135271427Y-153279985D01*
X135271427Y-153279985D02*
X135314284Y-153108557D01*
X135314284Y-153108557D02*
X135314284Y-152808557D01*
X135314284Y-152808557D02*
X135271427Y-152637128D01*
X135271427Y-152637128D02*
X135185713Y-152551414D01*
X135185713Y-152551414D02*
X135099998Y-152508557D01*
X134328570Y-152508557D02*
X134328570Y-153237128D01*
X134328570Y-153237128D02*
X134285713Y-153322842D01*
X134285713Y-153322842D02*
X134242856Y-153365700D01*
X134242856Y-153365700D02*
X134157141Y-153408557D01*
X134157141Y-153408557D02*
X133985713Y-153408557D01*
X133985713Y-153408557D02*
X133899998Y-153365700D01*
X133899998Y-153365700D02*
X133857141Y-153322842D01*
X133857141Y-153322842D02*
X133814284Y-153237128D01*
X133814284Y-153237128D02*
X133814284Y-152508557D01*
X133514284Y-152508557D02*
X132999999Y-152508557D01*
X133257141Y-153408557D02*
X133257141Y-152508557D01*
X131628571Y-152808557D02*
X131628571Y-153408557D01*
X131842856Y-152465700D02*
X132057142Y-153108557D01*
X132057142Y-153108557D02*
X131499999Y-153108557D01*
X131157142Y-152937128D02*
X130471428Y-152937128D01*
X130471428Y-153194271D02*
X131157142Y-153194271D01*
X130042856Y-153408557D02*
X130042856Y-152508557D01*
X130042856Y-152508557D02*
X129828570Y-152508557D01*
X129828570Y-152508557D02*
X129699999Y-152551414D01*
X129699999Y-152551414D02*
X129614284Y-152637128D01*
X129614284Y-152637128D02*
X129571427Y-152722842D01*
X129571427Y-152722842D02*
X129528570Y-152894271D01*
X129528570Y-152894271D02*
X129528570Y-153022842D01*
X129528570Y-153022842D02*
X129571427Y-153194271D01*
X129571427Y-153194271D02*
X129614284Y-153279985D01*
X129614284Y-153279985D02*
X129699999Y-153365700D01*
X129699999Y-153365700D02*
X129828570Y-153408557D01*
X129828570Y-153408557D02*
X130042856Y-153408557D01*
X129142856Y-153408557D02*
X129142856Y-152508557D01*
X128714285Y-153408557D02*
X128714285Y-152508557D01*
X128714285Y-152851414D02*
X128628571Y-152808557D01*
X128628571Y-152808557D02*
X128457142Y-152808557D01*
X128457142Y-152808557D02*
X128371428Y-152851414D01*
X128371428Y-152851414D02*
X128328571Y-152894271D01*
X128328571Y-152894271D02*
X128285713Y-152979985D01*
X128285713Y-152979985D02*
X128285713Y-153237128D01*
X128285713Y-153237128D02*
X128328571Y-153322842D01*
X128328571Y-153322842D02*
X128371428Y-153365700D01*
X128371428Y-153365700D02*
X128457142Y-153408557D01*
X128457142Y-153408557D02*
X128628571Y-153408557D01*
X128628571Y-153408557D02*
X128714285Y-153365700D01*
X126785713Y-152508557D02*
X127214285Y-152508557D01*
X127214285Y-152508557D02*
X127257142Y-152937128D01*
X127257142Y-152937128D02*
X127214285Y-152894271D01*
X127214285Y-152894271D02*
X127128571Y-152851414D01*
X127128571Y-152851414D02*
X126914285Y-152851414D01*
X126914285Y-152851414D02*
X126828571Y-152894271D01*
X126828571Y-152894271D02*
X126785713Y-152937128D01*
X126785713Y-152937128D02*
X126742856Y-153022842D01*
X126742856Y-153022842D02*
X126742856Y-153237128D01*
X126742856Y-153237128D02*
X126785713Y-153322842D01*
X126785713Y-153322842D02*
X126828571Y-153365700D01*
X126828571Y-153365700D02*
X126914285Y-153408557D01*
X126914285Y-153408557D02*
X127128571Y-153408557D01*
X127128571Y-153408557D02*
X127214285Y-153365700D01*
X127214285Y-153365700D02*
X127257142Y-153322842D01*
X126357142Y-152937128D02*
X125671428Y-152937128D01*
X125671428Y-153194271D02*
X126357142Y-153194271D01*
X125242856Y-153408557D02*
X125242856Y-152508557D01*
X125242856Y-152508557D02*
X125028570Y-152508557D01*
X125028570Y-152508557D02*
X124899999Y-152551414D01*
X124899999Y-152551414D02*
X124814284Y-152637128D01*
X124814284Y-152637128D02*
X124771427Y-152722842D01*
X124771427Y-152722842D02*
X124728570Y-152894271D01*
X124728570Y-152894271D02*
X124728570Y-153022842D01*
X124728570Y-153022842D02*
X124771427Y-153194271D01*
X124771427Y-153194271D02*
X124814284Y-153279985D01*
X124814284Y-153279985D02*
X124899999Y-153365700D01*
X124899999Y-153365700D02*
X125028570Y-153408557D01*
X125028570Y-153408557D02*
X125242856Y-153408557D01*
X124342856Y-153408557D02*
X124342856Y-152508557D01*
X123528571Y-153408557D02*
X123528571Y-152937128D01*
X123528571Y-152937128D02*
X123571428Y-152851414D01*
X123571428Y-152851414D02*
X123657142Y-152808557D01*
X123657142Y-152808557D02*
X123828571Y-152808557D01*
X123828571Y-152808557D02*
X123914285Y-152851414D01*
X123528571Y-153365700D02*
X123614285Y-153408557D01*
X123614285Y-153408557D02*
X123828571Y-153408557D01*
X123828571Y-153408557D02*
X123914285Y-153365700D01*
X123914285Y-153365700D02*
X123957142Y-153279985D01*
X123957142Y-153279985D02*
X123957142Y-153194271D01*
X123957142Y-153194271D02*
X123914285Y-153108557D01*
X123914285Y-153108557D02*
X123828571Y-153065700D01*
X123828571Y-153065700D02*
X123614285Y-153065700D01*
X123614285Y-153065700D02*
X123528571Y-153022842D01*
X140102856Y-131413557D02*
X140402856Y-130984985D01*
X140617142Y-131413557D02*
X140617142Y-130513557D01*
X140617142Y-130513557D02*
X140274285Y-130513557D01*
X140274285Y-130513557D02*
X140188570Y-130556414D01*
X140188570Y-130556414D02*
X140145713Y-130599271D01*
X140145713Y-130599271D02*
X140102856Y-130684985D01*
X140102856Y-130684985D02*
X140102856Y-130813557D01*
X140102856Y-130813557D02*
X140145713Y-130899271D01*
X140145713Y-130899271D02*
X140188570Y-130942128D01*
X140188570Y-130942128D02*
X140274285Y-130984985D01*
X140274285Y-130984985D02*
X140617142Y-130984985D01*
X139245713Y-131413557D02*
X139759999Y-131413557D01*
X139502856Y-131413557D02*
X139502856Y-130513557D01*
X139502856Y-130513557D02*
X139588570Y-130642128D01*
X139588570Y-130642128D02*
X139674285Y-130727842D01*
X139674285Y-130727842D02*
X139759999Y-130770700D01*
X138474285Y-130813557D02*
X138474285Y-131413557D01*
X138688570Y-130470700D02*
X138902856Y-131113557D01*
X138902856Y-131113557D02*
X138345713Y-131113557D01*
X137317142Y-131413557D02*
X137317142Y-130513557D01*
X137317142Y-130513557D02*
X137102856Y-130513557D01*
X137102856Y-130513557D02*
X136974285Y-130556414D01*
X136974285Y-130556414D02*
X136888570Y-130642128D01*
X136888570Y-130642128D02*
X136845713Y-130727842D01*
X136845713Y-130727842D02*
X136802856Y-130899271D01*
X136802856Y-130899271D02*
X136802856Y-131027842D01*
X136802856Y-131027842D02*
X136845713Y-131199271D01*
X136845713Y-131199271D02*
X136888570Y-131284985D01*
X136888570Y-131284985D02*
X136974285Y-131370700D01*
X136974285Y-131370700D02*
X137102856Y-131413557D01*
X137102856Y-131413557D02*
X137317142Y-131413557D01*
X136417142Y-131413557D02*
X136417142Y-130513557D01*
X136417142Y-130513557D02*
X135902856Y-131413557D01*
X135902856Y-131413557D02*
X135902856Y-130513557D01*
X135474285Y-131413557D02*
X135474285Y-130513557D01*
X135474285Y-130513557D02*
X135131428Y-130513557D01*
X135131428Y-130513557D02*
X135045713Y-130556414D01*
X135045713Y-130556414D02*
X135002856Y-130599271D01*
X135002856Y-130599271D02*
X134959999Y-130684985D01*
X134959999Y-130684985D02*
X134959999Y-130813557D01*
X134959999Y-130813557D02*
X135002856Y-130899271D01*
X135002856Y-130899271D02*
X135045713Y-130942128D01*
X135045713Y-130942128D02*
X135131428Y-130984985D01*
X135131428Y-130984985D02*
X135474285Y-130984985D01*
X140102856Y-137413557D02*
X140402856Y-136984985D01*
X140617142Y-137413557D02*
X140617142Y-136513557D01*
X140617142Y-136513557D02*
X140274285Y-136513557D01*
X140274285Y-136513557D02*
X140188570Y-136556414D01*
X140188570Y-136556414D02*
X140145713Y-136599271D01*
X140145713Y-136599271D02*
X140102856Y-136684985D01*
X140102856Y-136684985D02*
X140102856Y-136813557D01*
X140102856Y-136813557D02*
X140145713Y-136899271D01*
X140145713Y-136899271D02*
X140188570Y-136942128D01*
X140188570Y-136942128D02*
X140274285Y-136984985D01*
X140274285Y-136984985D02*
X140617142Y-136984985D01*
X139245713Y-137413557D02*
X139759999Y-137413557D01*
X139502856Y-137413557D02*
X139502856Y-136513557D01*
X139502856Y-136513557D02*
X139588570Y-136642128D01*
X139588570Y-136642128D02*
X139674285Y-136727842D01*
X139674285Y-136727842D02*
X139759999Y-136770700D01*
X138431427Y-136513557D02*
X138859999Y-136513557D01*
X138859999Y-136513557D02*
X138902856Y-136942128D01*
X138902856Y-136942128D02*
X138859999Y-136899271D01*
X138859999Y-136899271D02*
X138774285Y-136856414D01*
X138774285Y-136856414D02*
X138559999Y-136856414D01*
X138559999Y-136856414D02*
X138474285Y-136899271D01*
X138474285Y-136899271D02*
X138431427Y-136942128D01*
X138431427Y-136942128D02*
X138388570Y-137027842D01*
X138388570Y-137027842D02*
X138388570Y-137242128D01*
X138388570Y-137242128D02*
X138431427Y-137327842D01*
X138431427Y-137327842D02*
X138474285Y-137370700D01*
X138474285Y-137370700D02*
X138559999Y-137413557D01*
X138559999Y-137413557D02*
X138774285Y-137413557D01*
X138774285Y-137413557D02*
X138859999Y-137370700D01*
X138859999Y-137370700D02*
X138902856Y-137327842D01*
X137317142Y-137413557D02*
X137317142Y-136513557D01*
X137317142Y-136513557D02*
X137102856Y-136513557D01*
X137102856Y-136513557D02*
X136974285Y-136556414D01*
X136974285Y-136556414D02*
X136888570Y-136642128D01*
X136888570Y-136642128D02*
X136845713Y-136727842D01*
X136845713Y-136727842D02*
X136802856Y-136899271D01*
X136802856Y-136899271D02*
X136802856Y-137027842D01*
X136802856Y-137027842D02*
X136845713Y-137199271D01*
X136845713Y-137199271D02*
X136888570Y-137284985D01*
X136888570Y-137284985D02*
X136974285Y-137370700D01*
X136974285Y-137370700D02*
X137102856Y-137413557D01*
X137102856Y-137413557D02*
X137317142Y-137413557D01*
X136417142Y-137413557D02*
X136417142Y-136513557D01*
X136417142Y-136513557D02*
X135902856Y-137413557D01*
X135902856Y-137413557D02*
X135902856Y-136513557D01*
X135474285Y-137413557D02*
X135474285Y-136513557D01*
X135474285Y-136513557D02*
X135131428Y-136513557D01*
X135131428Y-136513557D02*
X135045713Y-136556414D01*
X135045713Y-136556414D02*
X135002856Y-136599271D01*
X135002856Y-136599271D02*
X134959999Y-136684985D01*
X134959999Y-136684985D02*
X134959999Y-136813557D01*
X134959999Y-136813557D02*
X135002856Y-136899271D01*
X135002856Y-136899271D02*
X135045713Y-136942128D01*
X135045713Y-136942128D02*
X135131428Y-136984985D01*
X135131428Y-136984985D02*
X135474285Y-136984985D01*
X141007856Y-112493557D02*
X141007856Y-113222128D01*
X141007856Y-113222128D02*
X140964999Y-113307842D01*
X140964999Y-113307842D02*
X140922142Y-113350700D01*
X140922142Y-113350700D02*
X140836427Y-113393557D01*
X140836427Y-113393557D02*
X140664999Y-113393557D01*
X140664999Y-113393557D02*
X140579284Y-113350700D01*
X140579284Y-113350700D02*
X140536427Y-113307842D01*
X140536427Y-113307842D02*
X140493570Y-113222128D01*
X140493570Y-113222128D02*
X140493570Y-112493557D01*
X140107856Y-112579271D02*
X140064999Y-112536414D01*
X140064999Y-112536414D02*
X139979285Y-112493557D01*
X139979285Y-112493557D02*
X139764999Y-112493557D01*
X139764999Y-112493557D02*
X139679285Y-112536414D01*
X139679285Y-112536414D02*
X139636427Y-112579271D01*
X139636427Y-112579271D02*
X139593570Y-112664985D01*
X139593570Y-112664985D02*
X139593570Y-112750700D01*
X139593570Y-112750700D02*
X139636427Y-112879271D01*
X139636427Y-112879271D02*
X140150713Y-113393557D01*
X140150713Y-113393557D02*
X139593570Y-113393557D01*
X138093570Y-113393557D02*
X138522142Y-113393557D01*
X138522142Y-113393557D02*
X138522142Y-112493557D01*
X137793571Y-113393557D02*
X137793571Y-112493557D01*
X137793571Y-112493557D02*
X137493571Y-113136414D01*
X137493571Y-113136414D02*
X137193571Y-112493557D01*
X137193571Y-112493557D02*
X137193571Y-113393557D01*
X136850714Y-112493557D02*
X136293571Y-112493557D01*
X136293571Y-112493557D02*
X136593571Y-112836414D01*
X136593571Y-112836414D02*
X136465000Y-112836414D01*
X136465000Y-112836414D02*
X136379286Y-112879271D01*
X136379286Y-112879271D02*
X136336428Y-112922128D01*
X136336428Y-112922128D02*
X136293571Y-113007842D01*
X136293571Y-113007842D02*
X136293571Y-113222128D01*
X136293571Y-113222128D02*
X136336428Y-113307842D01*
X136336428Y-113307842D02*
X136379286Y-113350700D01*
X136379286Y-113350700D02*
X136465000Y-113393557D01*
X136465000Y-113393557D02*
X136722143Y-113393557D01*
X136722143Y-113393557D02*
X136807857Y-113350700D01*
X136807857Y-113350700D02*
X136850714Y-113307842D01*
X135865000Y-113393557D02*
X135693571Y-113393557D01*
X135693571Y-113393557D02*
X135607857Y-113350700D01*
X135607857Y-113350700D02*
X135565000Y-113307842D01*
X135565000Y-113307842D02*
X135479285Y-113179271D01*
X135479285Y-113179271D02*
X135436428Y-113007842D01*
X135436428Y-113007842D02*
X135436428Y-112664985D01*
X135436428Y-112664985D02*
X135479285Y-112579271D01*
X135479285Y-112579271D02*
X135522143Y-112536414D01*
X135522143Y-112536414D02*
X135607857Y-112493557D01*
X135607857Y-112493557D02*
X135779285Y-112493557D01*
X135779285Y-112493557D02*
X135865000Y-112536414D01*
X135865000Y-112536414D02*
X135907857Y-112579271D01*
X135907857Y-112579271D02*
X135950714Y-112664985D01*
X135950714Y-112664985D02*
X135950714Y-112879271D01*
X135950714Y-112879271D02*
X135907857Y-112964985D01*
X135907857Y-112964985D02*
X135865000Y-113007842D01*
X135865000Y-113007842D02*
X135779285Y-113050700D01*
X135779285Y-113050700D02*
X135607857Y-113050700D01*
X135607857Y-113050700D02*
X135522143Y-113007842D01*
X135522143Y-113007842D02*
X135479285Y-112964985D01*
X135479285Y-112964985D02*
X135436428Y-112879271D01*
X135136428Y-112493557D02*
X134579285Y-112493557D01*
X134579285Y-112493557D02*
X134879285Y-112836414D01*
X134879285Y-112836414D02*
X134750714Y-112836414D01*
X134750714Y-112836414D02*
X134665000Y-112879271D01*
X134665000Y-112879271D02*
X134622142Y-112922128D01*
X134622142Y-112922128D02*
X134579285Y-113007842D01*
X134579285Y-113007842D02*
X134579285Y-113222128D01*
X134579285Y-113222128D02*
X134622142Y-113307842D01*
X134622142Y-113307842D02*
X134665000Y-113350700D01*
X134665000Y-113350700D02*
X134750714Y-113393557D01*
X134750714Y-113393557D02*
X135007857Y-113393557D01*
X135007857Y-113393557D02*
X135093571Y-113350700D01*
X135093571Y-113350700D02*
X135136428Y-113307842D01*
X147514285Y-136508557D02*
X147514285Y-137151414D01*
X147514285Y-137151414D02*
X147557142Y-137279985D01*
X147557142Y-137279985D02*
X147642856Y-137365700D01*
X147642856Y-137365700D02*
X147771428Y-137408557D01*
X147771428Y-137408557D02*
X147857142Y-137408557D01*
X147128571Y-136594271D02*
X147085714Y-136551414D01*
X147085714Y-136551414D02*
X147000000Y-136508557D01*
X147000000Y-136508557D02*
X146785714Y-136508557D01*
X146785714Y-136508557D02*
X146700000Y-136551414D01*
X146700000Y-136551414D02*
X146657142Y-136594271D01*
X146657142Y-136594271D02*
X146614285Y-136679985D01*
X146614285Y-136679985D02*
X146614285Y-136765700D01*
X146614285Y-136765700D02*
X146657142Y-136894271D01*
X146657142Y-136894271D02*
X147171428Y-137408557D01*
X147171428Y-137408557D02*
X146614285Y-137408557D01*
X145542857Y-137408557D02*
X145542857Y-136508557D01*
X145542857Y-136508557D02*
X145328571Y-136508557D01*
X145328571Y-136508557D02*
X145200000Y-136551414D01*
X145200000Y-136551414D02*
X145114285Y-136637128D01*
X145114285Y-136637128D02*
X145071428Y-136722842D01*
X145071428Y-136722842D02*
X145028571Y-136894271D01*
X145028571Y-136894271D02*
X145028571Y-137022842D01*
X145028571Y-137022842D02*
X145071428Y-137194271D01*
X145071428Y-137194271D02*
X145114285Y-137279985D01*
X145114285Y-137279985D02*
X145200000Y-137365700D01*
X145200000Y-137365700D02*
X145328571Y-137408557D01*
X145328571Y-137408557D02*
X145542857Y-137408557D01*
X144642857Y-137408557D02*
X144642857Y-136508557D01*
X144642857Y-136508557D02*
X144128571Y-137408557D01*
X144128571Y-137408557D02*
X144128571Y-136508557D01*
X143700000Y-137408557D02*
X143700000Y-136508557D01*
X143700000Y-136508557D02*
X143357143Y-136508557D01*
X143357143Y-136508557D02*
X143271428Y-136551414D01*
X143271428Y-136551414D02*
X143228571Y-136594271D01*
X143228571Y-136594271D02*
X143185714Y-136679985D01*
X143185714Y-136679985D02*
X143185714Y-136808557D01*
X143185714Y-136808557D02*
X143228571Y-136894271D01*
X143228571Y-136894271D02*
X143271428Y-136937128D01*
X143271428Y-136937128D02*
X143357143Y-136979985D01*
X143357143Y-136979985D02*
X143700000Y-136979985D01*
X151524285Y-107413557D02*
X151824285Y-106984985D01*
X152038571Y-107413557D02*
X152038571Y-106513557D01*
X152038571Y-106513557D02*
X151695714Y-106513557D01*
X151695714Y-106513557D02*
X151609999Y-106556414D01*
X151609999Y-106556414D02*
X151567142Y-106599271D01*
X151567142Y-106599271D02*
X151524285Y-106684985D01*
X151524285Y-106684985D02*
X151524285Y-106813557D01*
X151524285Y-106813557D02*
X151567142Y-106899271D01*
X151567142Y-106899271D02*
X151609999Y-106942128D01*
X151609999Y-106942128D02*
X151695714Y-106984985D01*
X151695714Y-106984985D02*
X152038571Y-106984985D01*
X150667142Y-107413557D02*
X151181428Y-107413557D01*
X150924285Y-107413557D02*
X150924285Y-106513557D01*
X150924285Y-106513557D02*
X151009999Y-106642128D01*
X151009999Y-106642128D02*
X151095714Y-106727842D01*
X151095714Y-106727842D02*
X151181428Y-106770700D01*
X149124285Y-107413557D02*
X149638571Y-107413557D01*
X149381428Y-107413557D02*
X149381428Y-106513557D01*
X149381428Y-106513557D02*
X149467142Y-106642128D01*
X149467142Y-106642128D02*
X149552857Y-106727842D01*
X149552857Y-106727842D02*
X149638571Y-106770700D01*
X148567142Y-106513557D02*
X148481428Y-106513557D01*
X148481428Y-106513557D02*
X148395714Y-106556414D01*
X148395714Y-106556414D02*
X148352857Y-106599271D01*
X148352857Y-106599271D02*
X148309999Y-106684985D01*
X148309999Y-106684985D02*
X148267142Y-106856414D01*
X148267142Y-106856414D02*
X148267142Y-107070700D01*
X148267142Y-107070700D02*
X148309999Y-107242128D01*
X148309999Y-107242128D02*
X148352857Y-107327842D01*
X148352857Y-107327842D02*
X148395714Y-107370700D01*
X148395714Y-107370700D02*
X148481428Y-107413557D01*
X148481428Y-107413557D02*
X148567142Y-107413557D01*
X148567142Y-107413557D02*
X148652857Y-107370700D01*
X148652857Y-107370700D02*
X148695714Y-107327842D01*
X148695714Y-107327842D02*
X148738571Y-107242128D01*
X148738571Y-107242128D02*
X148781428Y-107070700D01*
X148781428Y-107070700D02*
X148781428Y-106856414D01*
X148781428Y-106856414D02*
X148738571Y-106684985D01*
X148738571Y-106684985D02*
X148695714Y-106599271D01*
X148695714Y-106599271D02*
X148652857Y-106556414D01*
X148652857Y-106556414D02*
X148567142Y-106513557D01*
X147881428Y-107413557D02*
X147881428Y-106513557D01*
X147795714Y-107070700D02*
X147538571Y-107413557D01*
X147538571Y-106813557D02*
X147881428Y-107156414D01*
X151952856Y-113413557D02*
X152252856Y-112984985D01*
X152467142Y-113413557D02*
X152467142Y-112513557D01*
X152467142Y-112513557D02*
X152124285Y-112513557D01*
X152124285Y-112513557D02*
X152038570Y-112556414D01*
X152038570Y-112556414D02*
X151995713Y-112599271D01*
X151995713Y-112599271D02*
X151952856Y-112684985D01*
X151952856Y-112684985D02*
X151952856Y-112813557D01*
X151952856Y-112813557D02*
X151995713Y-112899271D01*
X151995713Y-112899271D02*
X152038570Y-112942128D01*
X152038570Y-112942128D02*
X152124285Y-112984985D01*
X152124285Y-112984985D02*
X152467142Y-112984985D01*
X151652856Y-112513557D02*
X151095713Y-112513557D01*
X151095713Y-112513557D02*
X151395713Y-112856414D01*
X151395713Y-112856414D02*
X151267142Y-112856414D01*
X151267142Y-112856414D02*
X151181428Y-112899271D01*
X151181428Y-112899271D02*
X151138570Y-112942128D01*
X151138570Y-112942128D02*
X151095713Y-113027842D01*
X151095713Y-113027842D02*
X151095713Y-113242128D01*
X151095713Y-113242128D02*
X151138570Y-113327842D01*
X151138570Y-113327842D02*
X151181428Y-113370700D01*
X151181428Y-113370700D02*
X151267142Y-113413557D01*
X151267142Y-113413557D02*
X151524285Y-113413557D01*
X151524285Y-113413557D02*
X151609999Y-113370700D01*
X151609999Y-113370700D02*
X151652856Y-113327842D01*
X150067142Y-112599271D02*
X150024285Y-112556414D01*
X150024285Y-112556414D02*
X149938571Y-112513557D01*
X149938571Y-112513557D02*
X149724285Y-112513557D01*
X149724285Y-112513557D02*
X149638571Y-112556414D01*
X149638571Y-112556414D02*
X149595713Y-112599271D01*
X149595713Y-112599271D02*
X149552856Y-112684985D01*
X149552856Y-112684985D02*
X149552856Y-112770700D01*
X149552856Y-112770700D02*
X149595713Y-112899271D01*
X149595713Y-112899271D02*
X150109999Y-113413557D01*
X150109999Y-113413557D02*
X149552856Y-113413557D01*
X149252856Y-112513557D02*
X148652856Y-112513557D01*
X148652856Y-112513557D02*
X149038570Y-113413557D01*
X148138570Y-112513557D02*
X148052856Y-112513557D01*
X148052856Y-112513557D02*
X147967142Y-112556414D01*
X147967142Y-112556414D02*
X147924285Y-112599271D01*
X147924285Y-112599271D02*
X147881427Y-112684985D01*
X147881427Y-112684985D02*
X147838570Y-112856414D01*
X147838570Y-112856414D02*
X147838570Y-113070700D01*
X147838570Y-113070700D02*
X147881427Y-113242128D01*
X147881427Y-113242128D02*
X147924285Y-113327842D01*
X147924285Y-113327842D02*
X147967142Y-113370700D01*
X147967142Y-113370700D02*
X148052856Y-113413557D01*
X148052856Y-113413557D02*
X148138570Y-113413557D01*
X148138570Y-113413557D02*
X148224285Y-113370700D01*
X148224285Y-113370700D02*
X148267142Y-113327842D01*
X148267142Y-113327842D02*
X148309999Y-113242128D01*
X148309999Y-113242128D02*
X148352856Y-113070700D01*
X148352856Y-113070700D02*
X148352856Y-112856414D01*
X148352856Y-112856414D02*
X148309999Y-112684985D01*
X148309999Y-112684985D02*
X148267142Y-112599271D01*
X148267142Y-112599271D02*
X148224285Y-112556414D01*
X148224285Y-112556414D02*
X148138570Y-112513557D01*
X147452856Y-113413557D02*
X147452856Y-112513557D01*
X147367142Y-113070700D02*
X147109999Y-113413557D01*
X147109999Y-112813557D02*
X147452856Y-113156414D01*
X151524285Y-119413557D02*
X151824285Y-118984985D01*
X152038571Y-119413557D02*
X152038571Y-118513557D01*
X152038571Y-118513557D02*
X151695714Y-118513557D01*
X151695714Y-118513557D02*
X151609999Y-118556414D01*
X151609999Y-118556414D02*
X151567142Y-118599271D01*
X151567142Y-118599271D02*
X151524285Y-118684985D01*
X151524285Y-118684985D02*
X151524285Y-118813557D01*
X151524285Y-118813557D02*
X151567142Y-118899271D01*
X151567142Y-118899271D02*
X151609999Y-118942128D01*
X151609999Y-118942128D02*
X151695714Y-118984985D01*
X151695714Y-118984985D02*
X152038571Y-118984985D01*
X151181428Y-118599271D02*
X151138571Y-118556414D01*
X151138571Y-118556414D02*
X151052857Y-118513557D01*
X151052857Y-118513557D02*
X150838571Y-118513557D01*
X150838571Y-118513557D02*
X150752857Y-118556414D01*
X150752857Y-118556414D02*
X150709999Y-118599271D01*
X150709999Y-118599271D02*
X150667142Y-118684985D01*
X150667142Y-118684985D02*
X150667142Y-118770700D01*
X150667142Y-118770700D02*
X150709999Y-118899271D01*
X150709999Y-118899271D02*
X151224285Y-119413557D01*
X151224285Y-119413557D02*
X150667142Y-119413557D01*
X149124285Y-119413557D02*
X149638571Y-119413557D01*
X149381428Y-119413557D02*
X149381428Y-118513557D01*
X149381428Y-118513557D02*
X149467142Y-118642128D01*
X149467142Y-118642128D02*
X149552857Y-118727842D01*
X149552857Y-118727842D02*
X149638571Y-118770700D01*
X148567142Y-118513557D02*
X148481428Y-118513557D01*
X148481428Y-118513557D02*
X148395714Y-118556414D01*
X148395714Y-118556414D02*
X148352857Y-118599271D01*
X148352857Y-118599271D02*
X148309999Y-118684985D01*
X148309999Y-118684985D02*
X148267142Y-118856414D01*
X148267142Y-118856414D02*
X148267142Y-119070700D01*
X148267142Y-119070700D02*
X148309999Y-119242128D01*
X148309999Y-119242128D02*
X148352857Y-119327842D01*
X148352857Y-119327842D02*
X148395714Y-119370700D01*
X148395714Y-119370700D02*
X148481428Y-119413557D01*
X148481428Y-119413557D02*
X148567142Y-119413557D01*
X148567142Y-119413557D02*
X148652857Y-119370700D01*
X148652857Y-119370700D02*
X148695714Y-119327842D01*
X148695714Y-119327842D02*
X148738571Y-119242128D01*
X148738571Y-119242128D02*
X148781428Y-119070700D01*
X148781428Y-119070700D02*
X148781428Y-118856414D01*
X148781428Y-118856414D02*
X148738571Y-118684985D01*
X148738571Y-118684985D02*
X148695714Y-118599271D01*
X148695714Y-118599271D02*
X148652857Y-118556414D01*
X148652857Y-118556414D02*
X148567142Y-118513557D01*
X147881428Y-119413557D02*
X147881428Y-118513557D01*
X147795714Y-119070700D02*
X147538571Y-119413557D01*
X147538571Y-118813557D02*
X147881428Y-119156414D01*
X152038571Y-125413557D02*
X152338571Y-124984985D01*
X152552857Y-125413557D02*
X152552857Y-124513557D01*
X152552857Y-124513557D02*
X152210000Y-124513557D01*
X152210000Y-124513557D02*
X152124285Y-124556414D01*
X152124285Y-124556414D02*
X152081428Y-124599271D01*
X152081428Y-124599271D02*
X152038571Y-124684985D01*
X152038571Y-124684985D02*
X152038571Y-124813557D01*
X152038571Y-124813557D02*
X152081428Y-124899271D01*
X152081428Y-124899271D02*
X152124285Y-124942128D01*
X152124285Y-124942128D02*
X152210000Y-124984985D01*
X152210000Y-124984985D02*
X152552857Y-124984985D01*
X151224285Y-124513557D02*
X151652857Y-124513557D01*
X151652857Y-124513557D02*
X151695714Y-124942128D01*
X151695714Y-124942128D02*
X151652857Y-124899271D01*
X151652857Y-124899271D02*
X151567143Y-124856414D01*
X151567143Y-124856414D02*
X151352857Y-124856414D01*
X151352857Y-124856414D02*
X151267143Y-124899271D01*
X151267143Y-124899271D02*
X151224285Y-124942128D01*
X151224285Y-124942128D02*
X151181428Y-125027842D01*
X151181428Y-125027842D02*
X151181428Y-125242128D01*
X151181428Y-125242128D02*
X151224285Y-125327842D01*
X151224285Y-125327842D02*
X151267143Y-125370700D01*
X151267143Y-125370700D02*
X151352857Y-125413557D01*
X151352857Y-125413557D02*
X151567143Y-125413557D01*
X151567143Y-125413557D02*
X151652857Y-125370700D01*
X151652857Y-125370700D02*
X151695714Y-125327842D01*
X149638571Y-125413557D02*
X150152857Y-125413557D01*
X149895714Y-125413557D02*
X149895714Y-124513557D01*
X149895714Y-124513557D02*
X149981428Y-124642128D01*
X149981428Y-124642128D02*
X150067143Y-124727842D01*
X150067143Y-124727842D02*
X150152857Y-124770700D01*
X149081428Y-124513557D02*
X148995714Y-124513557D01*
X148995714Y-124513557D02*
X148910000Y-124556414D01*
X148910000Y-124556414D02*
X148867143Y-124599271D01*
X148867143Y-124599271D02*
X148824285Y-124684985D01*
X148824285Y-124684985D02*
X148781428Y-124856414D01*
X148781428Y-124856414D02*
X148781428Y-125070700D01*
X148781428Y-125070700D02*
X148824285Y-125242128D01*
X148824285Y-125242128D02*
X148867143Y-125327842D01*
X148867143Y-125327842D02*
X148910000Y-125370700D01*
X148910000Y-125370700D02*
X148995714Y-125413557D01*
X148995714Y-125413557D02*
X149081428Y-125413557D01*
X149081428Y-125413557D02*
X149167143Y-125370700D01*
X149167143Y-125370700D02*
X149210000Y-125327842D01*
X149210000Y-125327842D02*
X149252857Y-125242128D01*
X149252857Y-125242128D02*
X149295714Y-125070700D01*
X149295714Y-125070700D02*
X149295714Y-124856414D01*
X149295714Y-124856414D02*
X149252857Y-124684985D01*
X149252857Y-124684985D02*
X149210000Y-124599271D01*
X149210000Y-124599271D02*
X149167143Y-124556414D01*
X149167143Y-124556414D02*
X149081428Y-124513557D01*
X148224285Y-124513557D02*
X148138571Y-124513557D01*
X148138571Y-124513557D02*
X148052857Y-124556414D01*
X148052857Y-124556414D02*
X148010000Y-124599271D01*
X148010000Y-124599271D02*
X147967142Y-124684985D01*
X147967142Y-124684985D02*
X147924285Y-124856414D01*
X147924285Y-124856414D02*
X147924285Y-125070700D01*
X147924285Y-125070700D02*
X147967142Y-125242128D01*
X147967142Y-125242128D02*
X148010000Y-125327842D01*
X148010000Y-125327842D02*
X148052857Y-125370700D01*
X148052857Y-125370700D02*
X148138571Y-125413557D01*
X148138571Y-125413557D02*
X148224285Y-125413557D01*
X148224285Y-125413557D02*
X148310000Y-125370700D01*
X148310000Y-125370700D02*
X148352857Y-125327842D01*
X148352857Y-125327842D02*
X148395714Y-125242128D01*
X148395714Y-125242128D02*
X148438571Y-125070700D01*
X148438571Y-125070700D02*
X148438571Y-124856414D01*
X148438571Y-124856414D02*
X148395714Y-124684985D01*
X148395714Y-124684985D02*
X148352857Y-124599271D01*
X148352857Y-124599271D02*
X148310000Y-124556414D01*
X148310000Y-124556414D02*
X148224285Y-124513557D01*
X147024285Y-125413557D02*
X147324285Y-124984985D01*
X147538571Y-125413557D02*
X147538571Y-124513557D01*
X147538571Y-124513557D02*
X147195714Y-124513557D01*
X147195714Y-124513557D02*
X147109999Y-124556414D01*
X147109999Y-124556414D02*
X147067142Y-124599271D01*
X147067142Y-124599271D02*
X147024285Y-124684985D01*
X147024285Y-124684985D02*
X147024285Y-124813557D01*
X147024285Y-124813557D02*
X147067142Y-124899271D01*
X147067142Y-124899271D02*
X147109999Y-124942128D01*
X147109999Y-124942128D02*
X147195714Y-124984985D01*
X147195714Y-124984985D02*
X147538571Y-124984985D01*
X151524285Y-131413557D02*
X151824285Y-130984985D01*
X152038571Y-131413557D02*
X152038571Y-130513557D01*
X152038571Y-130513557D02*
X151695714Y-130513557D01*
X151695714Y-130513557D02*
X151609999Y-130556414D01*
X151609999Y-130556414D02*
X151567142Y-130599271D01*
X151567142Y-130599271D02*
X151524285Y-130684985D01*
X151524285Y-130684985D02*
X151524285Y-130813557D01*
X151524285Y-130813557D02*
X151567142Y-130899271D01*
X151567142Y-130899271D02*
X151609999Y-130942128D01*
X151609999Y-130942128D02*
X151695714Y-130984985D01*
X151695714Y-130984985D02*
X152038571Y-130984985D01*
X151224285Y-130513557D02*
X150624285Y-130513557D01*
X150624285Y-130513557D02*
X151009999Y-131413557D01*
X149638571Y-130599271D02*
X149595714Y-130556414D01*
X149595714Y-130556414D02*
X149510000Y-130513557D01*
X149510000Y-130513557D02*
X149295714Y-130513557D01*
X149295714Y-130513557D02*
X149210000Y-130556414D01*
X149210000Y-130556414D02*
X149167142Y-130599271D01*
X149167142Y-130599271D02*
X149124285Y-130684985D01*
X149124285Y-130684985D02*
X149124285Y-130770700D01*
X149124285Y-130770700D02*
X149167142Y-130899271D01*
X149167142Y-130899271D02*
X149681428Y-131413557D01*
X149681428Y-131413557D02*
X149124285Y-131413557D01*
X148738571Y-131413557D02*
X148738571Y-130513557D01*
X148652857Y-131070700D02*
X148395714Y-131413557D01*
X148395714Y-130813557D02*
X148738571Y-131156414D01*
X148052857Y-130599271D02*
X148010000Y-130556414D01*
X148010000Y-130556414D02*
X147924286Y-130513557D01*
X147924286Y-130513557D02*
X147710000Y-130513557D01*
X147710000Y-130513557D02*
X147624286Y-130556414D01*
X147624286Y-130556414D02*
X147581428Y-130599271D01*
X147581428Y-130599271D02*
X147538571Y-130684985D01*
X147538571Y-130684985D02*
X147538571Y-130770700D01*
X147538571Y-130770700D02*
X147581428Y-130899271D01*
X147581428Y-130899271D02*
X148095714Y-131413557D01*
X148095714Y-131413557D02*
X147538571Y-131413557D01*
X158007142Y-149203557D02*
X158007142Y-149846414D01*
X158007142Y-149846414D02*
X158049999Y-149974985D01*
X158049999Y-149974985D02*
X158135713Y-150060700D01*
X158135713Y-150060700D02*
X158264285Y-150103557D01*
X158264285Y-150103557D02*
X158349999Y-150103557D01*
X157107142Y-150103557D02*
X157621428Y-150103557D01*
X157364285Y-150103557D02*
X157364285Y-149203557D01*
X157364285Y-149203557D02*
X157449999Y-149332128D01*
X157449999Y-149332128D02*
X157535714Y-149417842D01*
X157535714Y-149417842D02*
X157621428Y-149460700D01*
X155778571Y-149203557D02*
X155778571Y-149846414D01*
X155778571Y-149846414D02*
X155821428Y-149974985D01*
X155821428Y-149974985D02*
X155907142Y-150060700D01*
X155907142Y-150060700D02*
X156035714Y-150103557D01*
X156035714Y-150103557D02*
X156121428Y-150103557D01*
X155392857Y-150060700D02*
X155264286Y-150103557D01*
X155264286Y-150103557D02*
X155050000Y-150103557D01*
X155050000Y-150103557D02*
X154964286Y-150060700D01*
X154964286Y-150060700D02*
X154921428Y-150017842D01*
X154921428Y-150017842D02*
X154878571Y-149932128D01*
X154878571Y-149932128D02*
X154878571Y-149846414D01*
X154878571Y-149846414D02*
X154921428Y-149760700D01*
X154921428Y-149760700D02*
X154964286Y-149717842D01*
X154964286Y-149717842D02*
X155050000Y-149674985D01*
X155050000Y-149674985D02*
X155221428Y-149632128D01*
X155221428Y-149632128D02*
X155307143Y-149589271D01*
X155307143Y-149589271D02*
X155350000Y-149546414D01*
X155350000Y-149546414D02*
X155392857Y-149460700D01*
X155392857Y-149460700D02*
X155392857Y-149374985D01*
X155392857Y-149374985D02*
X155350000Y-149289271D01*
X155350000Y-149289271D02*
X155307143Y-149246414D01*
X155307143Y-149246414D02*
X155221428Y-149203557D01*
X155221428Y-149203557D02*
X155007143Y-149203557D01*
X155007143Y-149203557D02*
X154878571Y-149246414D01*
X154621428Y-149203557D02*
X154107143Y-149203557D01*
X154364285Y-150103557D02*
X154364285Y-149203557D01*
X153807143Y-149760700D02*
X153121429Y-149760700D01*
X152692857Y-150103557D02*
X152692857Y-149203557D01*
X152692857Y-149203557D02*
X152350000Y-149203557D01*
X152350000Y-149203557D02*
X152264285Y-149246414D01*
X152264285Y-149246414D02*
X152221428Y-149289271D01*
X152221428Y-149289271D02*
X152178571Y-149374985D01*
X152178571Y-149374985D02*
X152178571Y-149503557D01*
X152178571Y-149503557D02*
X152221428Y-149589271D01*
X152221428Y-149589271D02*
X152264285Y-149632128D01*
X152264285Y-149632128D02*
X152350000Y-149674985D01*
X152350000Y-149674985D02*
X152692857Y-149674985D01*
X151792857Y-150103557D02*
X151792857Y-149203557D01*
X151792857Y-149632128D02*
X151278571Y-149632128D01*
X151278571Y-150103557D02*
X151278571Y-149203557D01*
X149735714Y-149203557D02*
X150164286Y-149203557D01*
X150164286Y-149203557D02*
X150207143Y-149632128D01*
X150207143Y-149632128D02*
X150164286Y-149589271D01*
X150164286Y-149589271D02*
X150078572Y-149546414D01*
X150078572Y-149546414D02*
X149864286Y-149546414D01*
X149864286Y-149546414D02*
X149778572Y-149589271D01*
X149778572Y-149589271D02*
X149735714Y-149632128D01*
X149735714Y-149632128D02*
X149692857Y-149717842D01*
X149692857Y-149717842D02*
X149692857Y-149932128D01*
X149692857Y-149932128D02*
X149735714Y-150017842D01*
X149735714Y-150017842D02*
X149778572Y-150060700D01*
X149778572Y-150060700D02*
X149864286Y-150103557D01*
X149864286Y-150103557D02*
X150078572Y-150103557D01*
X150078572Y-150103557D02*
X150164286Y-150060700D01*
X150164286Y-150060700D02*
X150207143Y-150017842D01*
X166639999Y-112253557D02*
X166939999Y-111824985D01*
X167154285Y-112253557D02*
X167154285Y-111353557D01*
X167154285Y-111353557D02*
X166811428Y-111353557D01*
X166811428Y-111353557D02*
X166725713Y-111396414D01*
X166725713Y-111396414D02*
X166682856Y-111439271D01*
X166682856Y-111439271D02*
X166639999Y-111524985D01*
X166639999Y-111524985D02*
X166639999Y-111653557D01*
X166639999Y-111653557D02*
X166682856Y-111739271D01*
X166682856Y-111739271D02*
X166725713Y-111782128D01*
X166725713Y-111782128D02*
X166811428Y-111824985D01*
X166811428Y-111824985D02*
X167154285Y-111824985D01*
X166382856Y-111353557D02*
X166082856Y-112253557D01*
X166082856Y-112253557D02*
X165782856Y-111353557D01*
X165011427Y-112253557D02*
X165525713Y-112253557D01*
X165268570Y-112253557D02*
X165268570Y-111353557D01*
X165268570Y-111353557D02*
X165354284Y-111482128D01*
X165354284Y-111482128D02*
X165439999Y-111567842D01*
X165439999Y-111567842D02*
X165525713Y-111610700D01*
X163511427Y-111353557D02*
X163939999Y-111353557D01*
X163939999Y-111353557D02*
X163982856Y-111782128D01*
X163982856Y-111782128D02*
X163939999Y-111739271D01*
X163939999Y-111739271D02*
X163854285Y-111696414D01*
X163854285Y-111696414D02*
X163639999Y-111696414D01*
X163639999Y-111696414D02*
X163554285Y-111739271D01*
X163554285Y-111739271D02*
X163511427Y-111782128D01*
X163511427Y-111782128D02*
X163468570Y-111867842D01*
X163468570Y-111867842D02*
X163468570Y-112082128D01*
X163468570Y-112082128D02*
X163511427Y-112167842D01*
X163511427Y-112167842D02*
X163554285Y-112210700D01*
X163554285Y-112210700D02*
X163639999Y-112253557D01*
X163639999Y-112253557D02*
X163854285Y-112253557D01*
X163854285Y-112253557D02*
X163939999Y-112210700D01*
X163939999Y-112210700D02*
X163982856Y-112167842D01*
X162911427Y-111353557D02*
X162825713Y-111353557D01*
X162825713Y-111353557D02*
X162739999Y-111396414D01*
X162739999Y-111396414D02*
X162697142Y-111439271D01*
X162697142Y-111439271D02*
X162654284Y-111524985D01*
X162654284Y-111524985D02*
X162611427Y-111696414D01*
X162611427Y-111696414D02*
X162611427Y-111910700D01*
X162611427Y-111910700D02*
X162654284Y-112082128D01*
X162654284Y-112082128D02*
X162697142Y-112167842D01*
X162697142Y-112167842D02*
X162739999Y-112210700D01*
X162739999Y-112210700D02*
X162825713Y-112253557D01*
X162825713Y-112253557D02*
X162911427Y-112253557D01*
X162911427Y-112253557D02*
X162997142Y-112210700D01*
X162997142Y-112210700D02*
X163039999Y-112167842D01*
X163039999Y-112167842D02*
X163082856Y-112082128D01*
X163082856Y-112082128D02*
X163125713Y-111910700D01*
X163125713Y-111910700D02*
X163125713Y-111696414D01*
X163125713Y-111696414D02*
X163082856Y-111524985D01*
X163082856Y-111524985D02*
X163039999Y-111439271D01*
X163039999Y-111439271D02*
X162997142Y-111396414D01*
X162997142Y-111396414D02*
X162911427Y-111353557D01*
X162225713Y-112253557D02*
X162225713Y-111353557D01*
X162139999Y-111910700D02*
X161882856Y-112253557D01*
X161882856Y-111653557D02*
X162225713Y-111996414D01*
%TO.C,C2*%
D11*
X133880000Y-108630000D02*
X133880000Y-108967000D01*
X133880000Y-111033000D02*
X133880000Y-111370000D01*
X133880000Y-111370000D02*
X139120000Y-111370000D01*
X139120000Y-108630000D02*
X133880000Y-108630000D01*
X139120000Y-108967000D02*
X139120000Y-108630000D01*
X139120000Y-111370000D02*
X139120000Y-111033000D01*
%TO.C,R13*%
X134540000Y-126630000D02*
X134540000Y-126960000D01*
X134540000Y-129370000D02*
X134540000Y-129040000D01*
X141080000Y-126630000D02*
X134540000Y-126630000D01*
X141080000Y-126960000D02*
X141080000Y-126630000D01*
X141080000Y-129040000D02*
X141080000Y-129370000D01*
X141080000Y-129370000D02*
X134540000Y-129370000D01*
%TO.C,R6*%
X110540000Y-126630000D02*
X110540000Y-126960000D01*
X110540000Y-129370000D02*
X110540000Y-129040000D01*
X117080000Y-126630000D02*
X110540000Y-126630000D01*
X117080000Y-126960000D02*
X117080000Y-126630000D01*
X117080000Y-129040000D02*
X117080000Y-129370000D01*
X117080000Y-129370000D02*
X110540000Y-129370000D01*
%TO.C,R4*%
X121540000Y-120630000D02*
X121540000Y-120960000D01*
X121540000Y-123370000D02*
X121540000Y-123040000D01*
X128080000Y-120630000D02*
X121540000Y-120630000D01*
X128080000Y-120960000D02*
X128080000Y-120630000D01*
X128080000Y-123040000D02*
X128080000Y-123370000D01*
X128080000Y-123370000D02*
X121540000Y-123370000D01*
%TO.C,R15*%
X134540000Y-138630000D02*
X134540000Y-138960000D01*
X134540000Y-141370000D02*
X134540000Y-141040000D01*
X141080000Y-138630000D02*
X134540000Y-138630000D01*
X141080000Y-138960000D02*
X141080000Y-138630000D01*
X141080000Y-141040000D02*
X141080000Y-141370000D01*
X141080000Y-141370000D02*
X134540000Y-141370000D01*
%TO.C,R1*%
X146540000Y-108630000D02*
X146540000Y-108960000D01*
X146540000Y-111370000D02*
X146540000Y-111040000D01*
X153080000Y-108630000D02*
X146540000Y-108630000D01*
X153080000Y-108960000D02*
X153080000Y-108630000D01*
X153080000Y-111040000D02*
X153080000Y-111370000D01*
X153080000Y-111370000D02*
X146540000Y-111370000D01*
%TO.C,C1*%
X109880000Y-108630000D02*
X109880000Y-108967000D01*
X109880000Y-111033000D02*
X109880000Y-111370000D01*
X109880000Y-111370000D02*
X115120000Y-111370000D01*
X115120000Y-108630000D02*
X109880000Y-108630000D01*
X115120000Y-108967000D02*
X115120000Y-108630000D01*
X115120000Y-111370000D02*
X115120000Y-111033000D01*
%TO.C,R12*%
X121540000Y-144630000D02*
X128080000Y-144630000D01*
X121540000Y-144960000D02*
X121540000Y-144630000D01*
X121540000Y-147040000D02*
X121540000Y-147370000D01*
X121540000Y-147370000D02*
X128080000Y-147370000D01*
X128080000Y-144630000D02*
X128080000Y-144960000D01*
X128080000Y-147370000D02*
X128080000Y-147040000D01*
%TO.C,J1*%
X147640000Y-148110000D02*
X147640000Y-146860000D01*
X147940000Y-145200000D02*
X148550000Y-145200000D01*
X147940000Y-146500000D02*
X148550000Y-146500000D01*
X148550000Y-143700000D02*
X159450000Y-143700000D01*
X148550000Y-147200000D02*
X148550000Y-143700000D01*
X148890000Y-148110000D02*
X147640000Y-148110000D01*
X149400000Y-148010000D02*
X149400000Y-147810000D01*
X149700000Y-147810000D02*
X149700000Y-148010000D01*
X149700000Y-147910000D02*
X149400000Y-147910000D01*
X149700000Y-148010000D02*
X149400000Y-148010000D01*
X150500000Y-147200000D02*
X148550000Y-147200000D01*
X150500000Y-147810000D02*
X150500000Y-147200000D01*
X150900000Y-143700000D02*
X150900000Y-144200000D01*
X150900000Y-144200000D02*
X151100000Y-144200000D01*
X151000000Y-143700000D02*
X151000000Y-144200000D01*
X151100000Y-144200000D02*
X151100000Y-143700000D01*
X152900000Y-143700000D02*
X152900000Y-144200000D01*
X152900000Y-144200000D02*
X153100000Y-144200000D01*
X153000000Y-143700000D02*
X153000000Y-144200000D01*
X153100000Y-144200000D02*
X153100000Y-143700000D01*
X154900000Y-143700000D02*
X154900000Y-144200000D01*
X154900000Y-144200000D02*
X155100000Y-144200000D01*
X155000000Y-143700000D02*
X155000000Y-144200000D01*
X155100000Y-144200000D02*
X155100000Y-143700000D01*
X156900000Y-143700000D02*
X156900000Y-144200000D01*
X156900000Y-144200000D02*
X157100000Y-144200000D01*
X157000000Y-143700000D02*
X157000000Y-144200000D01*
X157100000Y-144200000D02*
X157100000Y-143700000D01*
X157500000Y-147200000D02*
X157500000Y-147810000D01*
X159450000Y-143700000D02*
X159450000Y-147200000D01*
X159450000Y-147200000D02*
X157500000Y-147200000D01*
X160060000Y-145200000D02*
X159450000Y-145200000D01*
X160060000Y-146500000D02*
X159450000Y-146500000D01*
X147940000Y-143090000D02*
X160060000Y-143090000D01*
X160060000Y-147810000D01*
X147940000Y-147810000D01*
X147940000Y-143090000D01*
%TO.C,J2*%
X148620000Y-138620000D02*
X148620000Y-140000000D01*
X150000000Y-138620000D02*
X148620000Y-138620000D01*
X151270000Y-138620000D02*
X151270000Y-141380000D01*
X151270000Y-138620000D02*
X161540000Y-138620000D01*
X151270000Y-141380000D02*
X161540000Y-141380000D01*
X161540000Y-138620000D02*
X161540000Y-141380000D01*
%TO.C,R11*%
X121540000Y-138630000D02*
X121540000Y-138960000D01*
X121540000Y-141370000D02*
X121540000Y-141040000D01*
X128080000Y-138630000D02*
X121540000Y-138630000D01*
X128080000Y-138960000D02*
X128080000Y-138630000D01*
X128080000Y-141040000D02*
X128080000Y-141370000D01*
X128080000Y-141370000D02*
X121540000Y-141370000D01*
%TO.C,R2*%
X146540000Y-120630000D02*
X146540000Y-120960000D01*
X146540000Y-123370000D02*
X146540000Y-123040000D01*
X153080000Y-120630000D02*
X146540000Y-120630000D01*
X153080000Y-120960000D02*
X153080000Y-120630000D01*
X153080000Y-123040000D02*
X153080000Y-123370000D01*
X153080000Y-123370000D02*
X146540000Y-123370000D01*
%TO.C,R3*%
X146540000Y-114630000D02*
X146540000Y-114960000D01*
X146540000Y-117370000D02*
X146540000Y-117040000D01*
X153080000Y-114630000D02*
X146540000Y-114630000D01*
X153080000Y-114960000D02*
X153080000Y-114630000D01*
X153080000Y-117040000D02*
X153080000Y-117370000D01*
X153080000Y-117370000D02*
X146540000Y-117370000D01*
%TO.C,R14*%
X134540000Y-132630000D02*
X134540000Y-132960000D01*
X134540000Y-135370000D02*
X134540000Y-135040000D01*
X141080000Y-132630000D02*
X134540000Y-132630000D01*
X141080000Y-132960000D02*
X141080000Y-132630000D01*
X141080000Y-135040000D02*
X141080000Y-135370000D01*
X141080000Y-135370000D02*
X134540000Y-135370000D01*
%TO.C,U2*%
X135160000Y-114670000D02*
X136810000Y-114670000D01*
X135160000Y-124950000D02*
X135160000Y-114670000D01*
X138810000Y-114670000D02*
X140460000Y-114670000D01*
X140460000Y-114670000D02*
X140460000Y-124950000D01*
X140460000Y-124950000D02*
X135160000Y-124950000D01*
X138810000Y-114670000D02*
G75*
G02*
X136810000Y-114670000I-1000000J0D01*
G01*
%TO.C,C3*%
X120880000Y-126630000D02*
X120880000Y-126967000D01*
X120880000Y-129033000D02*
X120880000Y-129370000D01*
X120880000Y-129370000D02*
X126120000Y-129370000D01*
X126120000Y-126630000D02*
X120880000Y-126630000D01*
X126120000Y-126967000D02*
X126120000Y-126630000D01*
X126120000Y-129370000D02*
X126120000Y-129033000D01*
%TO.C,R7*%
X146540000Y-132630000D02*
X146540000Y-132960000D01*
X146540000Y-135370000D02*
X146540000Y-135040000D01*
X153080000Y-132630000D02*
X146540000Y-132630000D01*
X153080000Y-132960000D02*
X153080000Y-132630000D01*
X153080000Y-135040000D02*
X153080000Y-135370000D01*
X153080000Y-135370000D02*
X146540000Y-135370000D01*
%TO.C,R5*%
X146540000Y-126630000D02*
X146540000Y-126960000D01*
X146540000Y-129370000D02*
X146540000Y-129040000D01*
X153080000Y-126630000D02*
X146540000Y-126630000D01*
X153080000Y-126960000D02*
X153080000Y-126630000D01*
X153080000Y-129040000D02*
X153080000Y-129370000D01*
X153080000Y-129370000D02*
X146540000Y-129370000D01*
%TO.C,RV1*%
X159665000Y-113480000D02*
X159665000Y-118530000D01*
X159665000Y-118530000D02*
X169415000Y-118530000D01*
X169415000Y-113480000D02*
X159665000Y-113480000D01*
X169415000Y-118530000D02*
X169415000Y-113480000D01*
%TD*%
M02*
