%TF.GenerationSoftware,KiCad,Pcbnew,10.0.4*%
%TF.CreationDate,2026-08-28T22:29:12-04:00*%
%TF.ProjectId,photomarker-tht,70686f74-6f6d-4617-926b-65722d746874,rev?*%
%TF.SameCoordinates,Original*%
%TF.FileFunction,Copper,L1,Top*%
%TF.FilePolarity,Positive*%
%FSLAX46Y46*%
G04 Gerber Fmt 4.6, Leading zero omitted, Abs format (unit mm)*
G04 Created by KiCad (PCBNEW 10.0.4) date 2026-08-28 22:29:12*
%MOMM*%
%LPD*%
G01*
G04 APERTURE LIST*
G04 Aperture macros list*
%AMRoundRect*
0 Rectangle with rounded corners*
0 $1 Rounding radius*
0 $2 $3 $4 $5 $6 $7 $8 $9 X,Y pos of 4 corners*
0 Add a 4 corners polygon primitive as box body*
4,1,4,$2,$3,$4,$5,$6,$7,$8,$9,$2,$3,0*
0 Add four circle primitives for the rounded corners*
1,1,$1+$1,$2,$3*
1,1,$1+$1,$4,$5*
1,1,$1+$1,$6,$7*
1,1,$1+$1,$8,$9*
0 Add four rect primitives between the rounded corners*
20,1,$1+$1,$2,$3,$4,$5,0*
20,1,$1+$1,$4,$5,$6,$7,0*
20,1,$1+$1,$6,$7,$8,$9,0*
20,1,$1+$1,$8,$9,$2,$3,0*%
G04 Aperture macros list end*
%TA.AperFunction,ComponentPad*%
%ADD10C,1.500000*%
%TD*%
%TA.AperFunction,ComponentPad*%
%ADD11C,6.400000*%
%TD*%
%TA.AperFunction,ComponentPad*%
%ADD12RoundRect,0.250000X-0.550000X-0.550000X0.550000X-0.550000X0.550000X0.550000X-0.550000X0.550000X0*%
%TD*%
%TA.AperFunction,ComponentPad*%
%ADD13C,1.600000*%
%TD*%
%TA.AperFunction,ComponentPad*%
%ADD14RoundRect,0.250000X-0.350000X-0.625000X0.350000X-0.625000X0.350000X0.625000X-0.350000X0.625000X0*%
%TD*%
%TA.AperFunction,ComponentPad*%
%ADD15O,1.200000X1.750000*%
%TD*%
%TA.AperFunction,ComponentPad*%
%ADD16R,1.700000X1.700000*%
%TD*%
%TA.AperFunction,ComponentPad*%
%ADD17C,1.700000*%
%TD*%
%TA.AperFunction,ComponentPad*%
%ADD18RoundRect,0.250000X0.550000X0.550000X-0.550000X0.550000X-0.550000X-0.550000X0.550000X-0.550000X0*%
%TD*%
%TA.AperFunction,ComponentPad*%
%ADD19C,1.440000*%
%TD*%
%TA.AperFunction,Conductor*%
%ADD20C,0.250000*%
%TD*%
G04 APERTURE END LIST*
D10*
%TO.P,TP2,1*%
%TO.N,FILT*%
X121000000Y-134000000D03*
%TD*%
D11*
%TO.P,H2,1*%
%TO.N,GND*%
X169000000Y-106000000D03*
%TD*%
D10*
%TO.P,TP5,1*%
%TO.N,GND*%
X156000000Y-136000000D03*
%TD*%
D11*
%TO.P,H3,1*%
%TO.N,GND*%
X106000000Y-149000000D03*
%TD*%
%TO.P,H1,1*%
%TO.N,GND*%
X106000000Y-106000000D03*
%TD*%
D10*
%TO.P,TP4,1*%
%TO.N,CMPA_OUT*%
X156000000Y-130000000D03*
%TD*%
D11*
%TO.P,H4,1*%
%TO.N,GND*%
X169000000Y-149000000D03*
%TD*%
D12*
%TO.P,U1,1*%
%TO.N,+3V3*%
X110000000Y-116000000D03*
D13*
%TO.P,U1,2*%
%TO.N,OPT_INN*%
X110000000Y-118540000D03*
%TO.P,U1,3*%
%TO.N,GND*%
X110000000Y-121080000D03*
%TO.P,U1,4*%
%TO.N,OPT_OUT*%
X110000000Y-123620000D03*
%TO.P,U1,5*%
X117620000Y-123620000D03*
%TO.P,U1,6*%
%TO.N,N/C*%
X117620000Y-121080000D03*
%TO.P,U1,7*%
X117620000Y-118540000D03*
%TO.P,U1,8*%
%TO.N,GND*%
X117620000Y-116000000D03*
%TD*%
D10*
%TO.P,TP3,1*%
%TO.N,THRESH_A*%
X156000000Y-124000000D03*
%TD*%
%TO.P,TP1,1*%
%TO.N,OPT_OUT*%
X121000000Y-116000000D03*
%TD*%
D13*
%TO.P,C2,1*%
%TO.N,+3V3*%
X139000000Y-110000000D03*
%TO.P,C2,2*%
%TO.N,GND*%
X134000000Y-110000000D03*
%TD*%
%TO.P,R13,1*%
%TO.N,THRESH_B*%
X141620000Y-128000000D03*
%TO.P,R13,2*%
%TO.N,CMPB_OUT*%
X134000000Y-128000000D03*
%TD*%
%TO.P,R6,1*%
%TO.N,OPT_OUT*%
X117620000Y-128000000D03*
%TO.P,R6,2*%
%TO.N,OPT_INN*%
X110000000Y-128000000D03*
%TD*%
%TO.P,R4,1*%
%TO.N,OPT_OUT*%
X128620000Y-122000000D03*
%TO.P,R4,2*%
%TO.N,FILT*%
X121000000Y-122000000D03*
%TD*%
%TO.P,R15,1*%
%TO.N,CMPB_OUT*%
X141620000Y-140000000D03*
%TO.P,R15,2*%
%TO.N,DI_B*%
X134000000Y-140000000D03*
%TD*%
%TO.P,R1,1*%
%TO.N,+3V3*%
X153620000Y-110000000D03*
%TO.P,R1,2*%
%TO.N,RV_A*%
X146000000Y-110000000D03*
%TD*%
%TO.P,C1,1*%
%TO.N,+3V3*%
X115000000Y-110000000D03*
%TO.P,C1,2*%
%TO.N,GND*%
X110000000Y-110000000D03*
%TD*%
%TO.P,R12,1*%
%TO.N,THRESH_B*%
X121000000Y-146000000D03*
%TO.P,R12,2*%
%TO.N,GND*%
X128620000Y-146000000D03*
%TD*%
D14*
%TO.P,J1,1*%
%TO.N,+3V3*%
X150000000Y-146000000D03*
D15*
%TO.P,J1,2*%
%TO.N,GND*%
X152000000Y-146000000D03*
%TO.P,J1,3*%
%TO.N,FILT*%
X154000000Y-146000000D03*
%TO.P,J1,4*%
%TO.N,DI_B*%
X156000000Y-146000000D03*
%TO.P,J1,5*%
%TO.N,DI_A*%
X158000000Y-146000000D03*
%TD*%
D16*
%TO.P,J2,1*%
%TO.N,+3V3*%
X150000000Y-140000000D03*
D17*
%TO.P,J2,2*%
%TO.N,GND*%
X152540000Y-140000000D03*
%TO.P,J2,3*%
%TO.N,FILT*%
X155080000Y-140000000D03*
%TO.P,J2,4*%
%TO.N,DI_B*%
X157620000Y-140000000D03*
%TO.P,J2,5*%
%TO.N,DI_A*%
X160160000Y-140000000D03*
%TD*%
D13*
%TO.P,R11,1*%
%TO.N,+3V3*%
X128620000Y-140000000D03*
%TO.P,R11,2*%
%TO.N,THRESH_B*%
X121000000Y-140000000D03*
%TD*%
%TO.P,R2,1*%
%TO.N,THRESH_A*%
X153620000Y-122000000D03*
%TO.P,R2,2*%
%TO.N,GND*%
X146000000Y-122000000D03*
%TD*%
%TO.P,R3,1*%
%TO.N,THRESH_A*%
X153620000Y-116000000D03*
%TO.P,R3,2*%
%TO.N,CMPA_OUT*%
X146000000Y-116000000D03*
%TD*%
%TO.P,R14,1*%
%TO.N,+3V3*%
X141620000Y-134000000D03*
%TO.P,R14,2*%
%TO.N,CMPB_OUT*%
X134000000Y-134000000D03*
%TD*%
D18*
%TO.P,U2,1*%
%TO.N,CMPA_OUT*%
X141620000Y-116000000D03*
D13*
%TO.P,U2,2*%
%TO.N,FILT*%
X141620000Y-118540000D03*
%TO.P,U2,3*%
%TO.N,THRESH_A*%
X141620000Y-121080000D03*
%TO.P,U2,4*%
%TO.N,GND*%
X141620000Y-123620000D03*
%TO.P,U2,5*%
%TO.N,THRESH_B*%
X134000000Y-123620000D03*
%TO.P,U2,6*%
%TO.N,FILT*%
X134000000Y-121080000D03*
%TO.P,U2,7*%
%TO.N,CMPB_OUT*%
X134000000Y-118540000D03*
%TO.P,U2,8*%
%TO.N,+3V3*%
X134000000Y-116000000D03*
%TD*%
%TO.P,C3,1*%
%TO.N,FILT*%
X126000000Y-128000000D03*
%TO.P,C3,2*%
%TO.N,GND*%
X121000000Y-128000000D03*
%TD*%
%TO.P,R7,1*%
%TO.N,+3V3*%
X153620000Y-134000000D03*
%TO.P,R7,2*%
%TO.N,CMPA_OUT*%
X146000000Y-134000000D03*
%TD*%
%TO.P,R5,1*%
%TO.N,CMPA_OUT*%
X153620000Y-128000000D03*
%TO.P,R5,2*%
%TO.N,DI_A*%
X146000000Y-128000000D03*
%TD*%
D19*
%TO.P,RV1,1*%
%TO.N,RV_A*%
X162000000Y-116000000D03*
%TO.P,RV1,2*%
%TO.N,THRESH_A*%
X164540000Y-116000000D03*
%TO.P,RV1,3*%
%TO.N,N/C*%
X167080000Y-116000000D03*
%TD*%
%TO.N,THRESH_A*%
D20*
X144500000Y-122500000D02*
X144500000Y-125000000D01*
X144500000Y-125000000D02*
X150000000Y-125000000D01*
X150000000Y-125000000D02*
X153620000Y-122000000D01*
X141620000Y-121080000D02*
X144500000Y-122500000D01*
%TO.N,THRESH_B*%
X141620000Y-126000000D02*
X141620000Y-128000000D01*
X132199999Y-148000000D02*
X132199999Y-130000000D01*
X132199999Y-130000000D02*
X141620000Y-126000000D01*
X121000000Y-146000000D02*
X123000000Y-148000000D01*
X123000000Y-148000000D02*
X132199999Y-148000000D01*
%TO.N,CMPB_OUT*%
X130500000Y-119500000D02*
X130500000Y-126500000D01*
X134000000Y-118539999D02*
X130500000Y-119500000D01*
X130500000Y-126500000D02*
X134000000Y-128000000D01*
%TO.N,DI_A*%
X148000000Y-131800000D02*
X162000000Y-131800000D01*
X146000000Y-128000000D02*
X148000000Y-130000000D01*
X162000000Y-144000000D02*
X158000000Y-146000000D01*
X162000000Y-131800000D02*
X162000000Y-144000000D01*
X148000000Y-130000000D02*
X148000000Y-131800000D01*
%TO.N,DI_B*%
X134000000Y-140000000D02*
X135000000Y-142000000D01*
X135000000Y-151000000D02*
X156000000Y-151000000D01*
X135000000Y-142000000D02*
X135000000Y-151000000D01*
X156000000Y-151000000D02*
X156000000Y-146000000D01*
%TD*%
%TA.AperFunction,Conductor*%
%TO.N,GND*%
G36*
X174459191Y-100518907D02*
G01*
X174495155Y-100568407D01*
X174500000Y-100599000D01*
X174500000Y-154401000D01*
X174481093Y-154459191D01*
X174431593Y-154495155D01*
X174401000Y-154500000D01*
X100599000Y-154500000D01*
X100540809Y-154481093D01*
X100504845Y-154431593D01*
X100500000Y-154401000D01*
X100500000Y-145913385D01*
X119899500Y-145913385D01*
X119899500Y-146086614D01*
X119926597Y-146257702D01*
X119926598Y-146257706D01*
X119980123Y-146422438D01*
X119980125Y-146422441D01*
X120038834Y-146537666D01*
X120058768Y-146576788D01*
X120160586Y-146716928D01*
X120283072Y-146839414D01*
X120423212Y-146941232D01*
X120577555Y-147019873D01*
X120577557Y-147019873D01*
X120577558Y-147019874D01*
X120577561Y-147019876D01*
X120742293Y-147073401D01*
X120742297Y-147073402D01*
X120913386Y-147100500D01*
X120913389Y-147100500D01*
X121086614Y-147100500D01*
X121257696Y-147073403D01*
X121257697Y-147073402D01*
X121257701Y-147073402D01*
X121361487Y-147039678D01*
X121422668Y-147039678D01*
X121462081Y-147063829D01*
X122738737Y-148340485D01*
X122738739Y-148340486D01*
X122835759Y-148396501D01*
X122835757Y-148396501D01*
X122835761Y-148396502D01*
X122835763Y-148396503D01*
X122943981Y-148425500D01*
X122943982Y-148425500D01*
X122943983Y-148425500D01*
X132256015Y-148425500D01*
X132256017Y-148425500D01*
X132364236Y-148396503D01*
X132364238Y-148396501D01*
X132364240Y-148396501D01*
X132393063Y-148379859D01*
X132461262Y-148340485D01*
X132540484Y-148261263D01*
X132596502Y-148164237D01*
X132625499Y-148056018D01*
X132625499Y-139913385D01*
X132899500Y-139913385D01*
X132899500Y-140086614D01*
X132926597Y-140257702D01*
X132926598Y-140257706D01*
X132980123Y-140422438D01*
X132980125Y-140422441D01*
X132980126Y-140422444D01*
X132980127Y-140422445D01*
X133058768Y-140576788D01*
X133160586Y-140716928D01*
X133283072Y-140839414D01*
X133423212Y-140941232D01*
X133577555Y-141019873D01*
X133577557Y-141019873D01*
X133577558Y-141019874D01*
X133577561Y-141019876D01*
X133742293Y-141073401D01*
X133742297Y-141073402D01*
X133913386Y-141100500D01*
X133913389Y-141100500D01*
X134013342Y-141100500D01*
X134071533Y-141119407D01*
X134101889Y-141155225D01*
X134530655Y-142012757D01*
X134564048Y-142079542D01*
X134574500Y-142123816D01*
X134574500Y-151056018D01*
X134600072Y-151151455D01*
X134603498Y-151164241D01*
X134659513Y-151261260D01*
X134659515Y-151261263D01*
X134738737Y-151340485D01*
X134738739Y-151340486D01*
X134835759Y-151396501D01*
X134835757Y-151396501D01*
X134835761Y-151396502D01*
X134835763Y-151396503D01*
X134943982Y-151425500D01*
X134943984Y-151425500D01*
X156056016Y-151425500D01*
X156056018Y-151425500D01*
X156164237Y-151396503D01*
X156164239Y-151396501D01*
X156164241Y-151396501D01*
X156193064Y-151379859D01*
X156261263Y-151340485D01*
X156340485Y-151261263D01*
X156396503Y-151164237D01*
X156425500Y-151056018D01*
X156425500Y-147126628D01*
X156444407Y-147068437D01*
X156469494Y-147044315D01*
X156574035Y-146974464D01*
X156699464Y-146849035D01*
X156798013Y-146701547D01*
X156865894Y-146537666D01*
X156900500Y-146363691D01*
X156900500Y-145636309D01*
X156865894Y-145462334D01*
X156798014Y-145298455D01*
X156798014Y-145298454D01*
X156699464Y-145150965D01*
X156574034Y-145025535D01*
X156426544Y-144926985D01*
X156262666Y-144859106D01*
X156088693Y-144824500D01*
X156088691Y-144824500D01*
X155911309Y-144824500D01*
X155911306Y-144824500D01*
X155737334Y-144859106D01*
X155737332Y-144859106D01*
X155573455Y-144926985D01*
X155573454Y-144926985D01*
X155425965Y-145025535D01*
X155300535Y-145150965D01*
X155201985Y-145298454D01*
X155201985Y-145298455D01*
X155134106Y-145462332D01*
X155134106Y-145462334D01*
X155099500Y-145636306D01*
X155099500Y-146363693D01*
X155134106Y-146537665D01*
X155134106Y-146537667D01*
X155201985Y-146701544D01*
X155201985Y-146701545D01*
X155212264Y-146716928D01*
X155300536Y-146849035D01*
X155425965Y-146974464D01*
X155530502Y-147044314D01*
X155568381Y-147092362D01*
X155574500Y-147126628D01*
X155574500Y-150475500D01*
X155555593Y-150533691D01*
X155506093Y-150569655D01*
X155475500Y-150574500D01*
X135524500Y-150574500D01*
X135466309Y-150555593D01*
X135430345Y-150506093D01*
X135425500Y-150475500D01*
X135425500Y-145331893D01*
X149099500Y-145331893D01*
X149099500Y-146668106D01*
X149110123Y-146756565D01*
X149165637Y-146897339D01*
X149165638Y-146897341D01*
X149165639Y-146897342D01*
X149257078Y-147017922D01*
X149377658Y-147109361D01*
X149377659Y-147109361D01*
X149377660Y-147109362D01*
X149421444Y-147126628D01*
X149518436Y-147164877D01*
X149606898Y-147175500D01*
X149606900Y-147175500D01*
X150393100Y-147175500D01*
X150393102Y-147175500D01*
X150481564Y-147164877D01*
X150622342Y-147109361D01*
X150742922Y-147017922D01*
X150834361Y-146897342D01*
X150889877Y-146756564D01*
X150900500Y-146668102D01*
X150900500Y-145636306D01*
X153099500Y-145636306D01*
X153099500Y-146363693D01*
X153134106Y-146537665D01*
X153134106Y-146537667D01*
X153201985Y-146701544D01*
X153201985Y-146701545D01*
X153212264Y-146716928D01*
X153300536Y-146849035D01*
X153425965Y-146974464D01*
X153573453Y-147073013D01*
X153573454Y-147073013D01*
X153573455Y-147073014D01*
X153574498Y-147073446D01*
X153737334Y-147140894D01*
X153911309Y-147175500D01*
X153911310Y-147175500D01*
X154088690Y-147175500D01*
X154088691Y-147175500D01*
X154262666Y-147140894D01*
X154426547Y-147073013D01*
X154574035Y-146974464D01*
X154699464Y-146849035D01*
X154798013Y-146701547D01*
X154865894Y-146537666D01*
X154900500Y-146363691D01*
X154900500Y-145636309D01*
X154865894Y-145462334D01*
X154798014Y-145298455D01*
X154798014Y-145298454D01*
X154699464Y-145150965D01*
X154574034Y-145025535D01*
X154426544Y-144926985D01*
X154262666Y-144859106D01*
X154088693Y-144824500D01*
X154088691Y-144824500D01*
X153911309Y-144824500D01*
X153911306Y-144824500D01*
X153737334Y-144859106D01*
X153737332Y-144859106D01*
X153573455Y-144926985D01*
X153573454Y-144926985D01*
X153425965Y-145025535D01*
X153300535Y-145150965D01*
X153201985Y-145298454D01*
X153201985Y-145298455D01*
X153134106Y-145462332D01*
X153134106Y-145462334D01*
X153099500Y-145636306D01*
X150900500Y-145636306D01*
X150900500Y-145331898D01*
X150889877Y-145243436D01*
X150847025Y-145134772D01*
X150834362Y-145102660D01*
X150834361Y-145102659D01*
X150834361Y-145102658D01*
X150742922Y-144982078D01*
X150622342Y-144890639D01*
X150622341Y-144890638D01*
X150622339Y-144890637D01*
X150481565Y-144835123D01*
X150393106Y-144824500D01*
X150393102Y-144824500D01*
X149606898Y-144824500D01*
X149606893Y-144824500D01*
X149518434Y-144835123D01*
X149377660Y-144890637D01*
X149377656Y-144890640D01*
X149257081Y-144982075D01*
X149257075Y-144982081D01*
X149165640Y-145102656D01*
X149165637Y-145102660D01*
X149110123Y-145243434D01*
X149099500Y-145331893D01*
X135425500Y-145331893D01*
X135425500Y-142012757D01*
X135428092Y-141969577D01*
X135425500Y-141956910D01*
X135425500Y-141943982D01*
X135414303Y-141902196D01*
X135405631Y-141859815D01*
X135399849Y-141848251D01*
X135396503Y-141835763D01*
X135387843Y-141820763D01*
X135376350Y-141800856D01*
X135373539Y-141795631D01*
X135050973Y-141150500D01*
X134863217Y-140774989D01*
X134854105Y-140714488D01*
X134871674Y-140672526D01*
X134941228Y-140576793D01*
X134941232Y-140576788D01*
X135019873Y-140422445D01*
X135019874Y-140422440D01*
X135019876Y-140422438D01*
X135073401Y-140257706D01*
X135073402Y-140257702D01*
X135100500Y-140086614D01*
X135100500Y-139913385D01*
X140519500Y-139913385D01*
X140519500Y-140086614D01*
X140546597Y-140257702D01*
X140546598Y-140257706D01*
X140600123Y-140422438D01*
X140600125Y-140422441D01*
X140600126Y-140422444D01*
X140600127Y-140422445D01*
X140678768Y-140576788D01*
X140780586Y-140716928D01*
X140903072Y-140839414D01*
X141043212Y-140941232D01*
X141197555Y-141019873D01*
X141197557Y-141019873D01*
X141197558Y-141019874D01*
X141197561Y-141019876D01*
X141362293Y-141073401D01*
X141362297Y-141073402D01*
X141533386Y-141100500D01*
X141533389Y-141100500D01*
X141706614Y-141100500D01*
X141877702Y-141073402D01*
X141877706Y-141073401D01*
X142042438Y-141019876D01*
X142042440Y-141019874D01*
X142042445Y-141019873D01*
X142196788Y-140941232D01*
X142336928Y-140839414D01*
X142459414Y-140716928D01*
X142561232Y-140576788D01*
X142639873Y-140422445D01*
X142639874Y-140422440D01*
X142639876Y-140422438D01*
X142693401Y-140257706D01*
X142693402Y-140257702D01*
X142720500Y-140086614D01*
X142720500Y-139913385D01*
X142693402Y-139742297D01*
X142693401Y-139742293D01*
X142639876Y-139577561D01*
X142639874Y-139577558D01*
X142639873Y-139577557D01*
X142639873Y-139577555D01*
X142561232Y-139423212D01*
X142459414Y-139283072D01*
X142336928Y-139160586D01*
X142260600Y-139105130D01*
X148849500Y-139105130D01*
X148849500Y-140894860D01*
X148849501Y-140894863D01*
X148852414Y-140919990D01*
X148861794Y-140941233D01*
X148897794Y-141022765D01*
X148977235Y-141102206D01*
X149080009Y-141147585D01*
X149105135Y-141150500D01*
X150894864Y-141150499D01*
X150919991Y-141147585D01*
X151022765Y-141102206D01*
X151102206Y-141022765D01*
X151147585Y-140919991D01*
X151150500Y-140894865D01*
X151150499Y-139909450D01*
X153929500Y-139909450D01*
X153929500Y-140090549D01*
X153957828Y-140269406D01*
X154013788Y-140441637D01*
X154082653Y-140576793D01*
X154096004Y-140602994D01*
X154202447Y-140749501D01*
X154330499Y-140877553D01*
X154477006Y-140983996D01*
X154638361Y-141066211D01*
X154810591Y-141122171D01*
X154882136Y-141133502D01*
X154989451Y-141150500D01*
X154989454Y-141150500D01*
X155170549Y-141150500D01*
X155259977Y-141136335D01*
X155349409Y-141122171D01*
X155521639Y-141066211D01*
X155682994Y-140983996D01*
X155829501Y-140877553D01*
X155957553Y-140749501D01*
X156063996Y-140602994D01*
X156146211Y-140441639D01*
X156202171Y-140269409D01*
X156230500Y-140090546D01*
X156230500Y-139909454D01*
X156230500Y-139909450D01*
X156469500Y-139909450D01*
X156469500Y-140090549D01*
X156497828Y-140269406D01*
X156553788Y-140441637D01*
X156622653Y-140576793D01*
X156636004Y-140602994D01*
X156742447Y-140749501D01*
X156870499Y-140877553D01*
X157017006Y-140983996D01*
X157178361Y-141066211D01*
X157350591Y-141122171D01*
X157422136Y-141133502D01*
X157529451Y-141150500D01*
X157529454Y-141150500D01*
X157710549Y-141150500D01*
X157799977Y-141136335D01*
X157889409Y-141122171D01*
X158061639Y-141066211D01*
X158222994Y-140983996D01*
X158369501Y-140877553D01*
X158497553Y-140749501D01*
X158603996Y-140602994D01*
X158686211Y-140441639D01*
X158742171Y-140269409D01*
X158770500Y-140090546D01*
X158770500Y-139909454D01*
X158770500Y-139909450D01*
X159009500Y-139909450D01*
X159009500Y-140090549D01*
X159037828Y-140269406D01*
X159093788Y-140441637D01*
X159162653Y-140576793D01*
X159176004Y-140602994D01*
X159282447Y-140749501D01*
X159410499Y-140877553D01*
X159557006Y-140983996D01*
X159718361Y-141066211D01*
X159890591Y-141122171D01*
X159962136Y-141133502D01*
X160069451Y-141150500D01*
X160069454Y-141150500D01*
X160250549Y-141150500D01*
X160339977Y-141136335D01*
X160429409Y-141122171D01*
X160601639Y-141066211D01*
X160762994Y-140983996D01*
X160909501Y-140877553D01*
X161037553Y-140749501D01*
X161143996Y-140602994D01*
X161226211Y-140441639D01*
X161282171Y-140269409D01*
X161310500Y-140090546D01*
X161310500Y-139909454D01*
X161310500Y-139909450D01*
X161282171Y-139730593D01*
X161282171Y-139730591D01*
X161226211Y-139558361D01*
X161143996Y-139397006D01*
X161037553Y-139250499D01*
X160909501Y-139122447D01*
X160762994Y-139016004D01*
X160762993Y-139016003D01*
X160762991Y-139016002D01*
X160601637Y-138933788D01*
X160429406Y-138877828D01*
X160250549Y-138849500D01*
X160250546Y-138849500D01*
X160069454Y-138849500D01*
X160069451Y-138849500D01*
X159890593Y-138877828D01*
X159718362Y-138933788D01*
X159557008Y-139016002D01*
X159498149Y-139058766D01*
X159410499Y-139122447D01*
X159282447Y-139250499D01*
X159258781Y-139283073D01*
X159176002Y-139397008D01*
X159093788Y-139558362D01*
X159037828Y-139730593D01*
X159009500Y-139909450D01*
X158770500Y-139909450D01*
X158742171Y-139730593D01*
X158742171Y-139730591D01*
X158686211Y-139558361D01*
X158603996Y-139397006D01*
X158497553Y-139250499D01*
X158369501Y-139122447D01*
X158222994Y-139016004D01*
X158222993Y-139016003D01*
X158222991Y-139016002D01*
X158061637Y-138933788D01*
X157889406Y-138877828D01*
X157710549Y-138849500D01*
X157710546Y-138849500D01*
X157529454Y-138849500D01*
X157529451Y-138849500D01*
X157350593Y-138877828D01*
X157178362Y-138933788D01*
X157017008Y-139016002D01*
X156958149Y-139058766D01*
X156870499Y-139122447D01*
X156742447Y-139250499D01*
X156718781Y-139283073D01*
X156636002Y-139397008D01*
X156553788Y-139558362D01*
X156497828Y-139730593D01*
X156469500Y-139909450D01*
X156230500Y-139909450D01*
X156202171Y-139730593D01*
X156202171Y-139730591D01*
X156146211Y-139558361D01*
X156063996Y-139397006D01*
X155957553Y-139250499D01*
X155829501Y-139122447D01*
X155682994Y-139016004D01*
X155682993Y-139016003D01*
X155682991Y-139016002D01*
X155521637Y-138933788D01*
X155349406Y-138877828D01*
X155170549Y-138849500D01*
X155170546Y-138849500D01*
X154989454Y-138849500D01*
X154989451Y-138849500D01*
X154810593Y-138877828D01*
X154638362Y-138933788D01*
X154477008Y-139016002D01*
X154418149Y-139058766D01*
X154330499Y-139122447D01*
X154202447Y-139250499D01*
X154178781Y-139283073D01*
X154096002Y-139397008D01*
X154013788Y-139558362D01*
X153957828Y-139730593D01*
X153929500Y-139909450D01*
X151150499Y-139909450D01*
X151150499Y-139105136D01*
X151147585Y-139080009D01*
X151102206Y-138977235D01*
X151022765Y-138897794D01*
X150919991Y-138852415D01*
X150919990Y-138852414D01*
X150919988Y-138852414D01*
X150894868Y-138849500D01*
X149105139Y-138849500D01*
X149105136Y-138849501D01*
X149080009Y-138852414D01*
X148977235Y-138897794D01*
X148897794Y-138977235D01*
X148852414Y-139080011D01*
X148849500Y-139105130D01*
X142260600Y-139105130D01*
X142196788Y-139058768D01*
X142196787Y-139058767D01*
X142196785Y-139058766D01*
X142042441Y-138980125D01*
X142042438Y-138980123D01*
X141877706Y-138926598D01*
X141877702Y-138926597D01*
X141706614Y-138899500D01*
X141706611Y-138899500D01*
X141533389Y-138899500D01*
X141533386Y-138899500D01*
X141362297Y-138926597D01*
X141362293Y-138926598D01*
X141197561Y-138980123D01*
X141197558Y-138980125D01*
X141043214Y-139058766D01*
X140903073Y-139160585D01*
X140780585Y-139283073D01*
X140678766Y-139423214D01*
X140600125Y-139577558D01*
X140600123Y-139577561D01*
X140546598Y-139742293D01*
X140546597Y-139742297D01*
X140519500Y-139913385D01*
X135100500Y-139913385D01*
X135073402Y-139742297D01*
X135073401Y-139742293D01*
X135019876Y-139577561D01*
X135019874Y-139577558D01*
X135019873Y-139577557D01*
X135019873Y-139577555D01*
X134941232Y-139423212D01*
X134839414Y-139283072D01*
X134716928Y-139160586D01*
X134576788Y-139058768D01*
X134576787Y-139058767D01*
X134576785Y-139058766D01*
X134422441Y-138980125D01*
X134422438Y-138980123D01*
X134257706Y-138926598D01*
X134257702Y-138926597D01*
X134086614Y-138899500D01*
X134086611Y-138899500D01*
X133913389Y-138899500D01*
X133913386Y-138899500D01*
X133742297Y-138926597D01*
X133742293Y-138926598D01*
X133577561Y-138980123D01*
X133577558Y-138980125D01*
X133423214Y-139058766D01*
X133283073Y-139160585D01*
X133160585Y-139283073D01*
X133058766Y-139423214D01*
X132980125Y-139577558D01*
X132980123Y-139577561D01*
X132926598Y-139742293D01*
X132926597Y-139742297D01*
X132899500Y-139913385D01*
X132625499Y-139913385D01*
X132625499Y-133913385D01*
X132899500Y-133913385D01*
X132899500Y-134086614D01*
X132926597Y-134257702D01*
X132926598Y-134257706D01*
X132980123Y-134422438D01*
X132980125Y-134422441D01*
X133018418Y-134497597D01*
X133058768Y-134576788D01*
X133160586Y-134716928D01*
X133283072Y-134839414D01*
X133423212Y-134941232D01*
X133577555Y-135019873D01*
X133577557Y-135019873D01*
X133577558Y-135019874D01*
X133577561Y-135019876D01*
X133742293Y-135073401D01*
X133742297Y-135073402D01*
X133913386Y-135100500D01*
X133913389Y-135100500D01*
X134086614Y-135100500D01*
X134257702Y-135073402D01*
X134257706Y-135073401D01*
X134422438Y-135019876D01*
X134422440Y-135019874D01*
X134422445Y-135019873D01*
X134576788Y-134941232D01*
X134716928Y-134839414D01*
X134839414Y-134716928D01*
X134941232Y-134576788D01*
X135019873Y-134422445D01*
X135019874Y-134422440D01*
X135019876Y-134422438D01*
X135073401Y-134257706D01*
X135073402Y-134257702D01*
X135100500Y-134086614D01*
X135100500Y-133913385D01*
X140519500Y-133913385D01*
X140519500Y-134086614D01*
X140546597Y-134257702D01*
X140546598Y-134257706D01*
X140600123Y-134422438D01*
X140600125Y-134422441D01*
X140638418Y-134497597D01*
X140678768Y-134576788D01*
X140780586Y-134716928D01*
X140903072Y-134839414D01*
X141043212Y-134941232D01*
X141197555Y-135019873D01*
X141197557Y-135019873D01*
X141197558Y-135019874D01*
X141197561Y-135019876D01*
X141362293Y-135073401D01*
X141362297Y-135073402D01*
X141533386Y-135100500D01*
X141533389Y-135100500D01*
X141706614Y-135100500D01*
X141877702Y-135073402D01*
X141877706Y-135073401D01*
X142042438Y-135019876D01*
X142042440Y-135019874D01*
X142042445Y-135019873D01*
X142196788Y-134941232D01*
X142336928Y-134839414D01*
X142459414Y-134716928D01*
X142561232Y-134576788D01*
X142639873Y-134422445D01*
X142639874Y-134422440D01*
X142639876Y-134422438D01*
X142693401Y-134257706D01*
X142693402Y-134257702D01*
X142720500Y-134086614D01*
X142720500Y-133913385D01*
X144899500Y-133913385D01*
X144899500Y-134086614D01*
X144926597Y-134257702D01*
X144926598Y-134257706D01*
X144980123Y-134422438D01*
X144980125Y-134422441D01*
X145018418Y-134497597D01*
X145058768Y-134576788D01*
X145160586Y-134716928D01*
X145283072Y-134839414D01*
X145423212Y-134941232D01*
X145577555Y-135019873D01*
X145577557Y-135019873D01*
X145577558Y-135019874D01*
X145577561Y-135019876D01*
X145742293Y-135073401D01*
X145742297Y-135073402D01*
X145913386Y-135100500D01*
X145913389Y-135100500D01*
X146086614Y-135100500D01*
X146257702Y-135073402D01*
X146257706Y-135073401D01*
X146422438Y-135019876D01*
X146422440Y-135019874D01*
X146422445Y-135019873D01*
X146576788Y-134941232D01*
X146716928Y-134839414D01*
X146839414Y-134716928D01*
X146941232Y-134576788D01*
X147019873Y-134422445D01*
X147019874Y-134422440D01*
X147019876Y-134422438D01*
X147073401Y-134257706D01*
X147073402Y-134257702D01*
X147100500Y-134086614D01*
X147100500Y-133913385D01*
X152519500Y-133913385D01*
X152519500Y-134086614D01*
X152546597Y-134257702D01*
X152546598Y-134257706D01*
X152600123Y-134422438D01*
X152600125Y-134422441D01*
X152638418Y-134497597D01*
X152678768Y-134576788D01*
X152780586Y-134716928D01*
X152903072Y-134839414D01*
X153043212Y-134941232D01*
X153197555Y-135019873D01*
X153197557Y-135019873D01*
X153197558Y-135019874D01*
X153197561Y-135019876D01*
X153362293Y-135073401D01*
X153362297Y-135073402D01*
X153533386Y-135100500D01*
X153533389Y-135100500D01*
X153706614Y-135100500D01*
X153877702Y-135073402D01*
X153877706Y-135073401D01*
X154042438Y-135019876D01*
X154042440Y-135019874D01*
X154042445Y-135019873D01*
X154196788Y-134941232D01*
X154336928Y-134839414D01*
X154459414Y-134716928D01*
X154561232Y-134576788D01*
X154639873Y-134422445D01*
X154639874Y-134422440D01*
X154639876Y-134422438D01*
X154693401Y-134257706D01*
X154693402Y-134257702D01*
X154720500Y-134086614D01*
X154720500Y-133913385D01*
X154693402Y-133742297D01*
X154693401Y-133742293D01*
X154639876Y-133577561D01*
X154639874Y-133577558D01*
X154639873Y-133577557D01*
X154639873Y-133577555D01*
X154561232Y-133423212D01*
X154459414Y-133283072D01*
X154336928Y-133160586D01*
X154196788Y-133058768D01*
X154196787Y-133058767D01*
X154196785Y-133058766D01*
X154042441Y-132980125D01*
X154042438Y-132980123D01*
X153877706Y-132926598D01*
X153877702Y-132926597D01*
X153706614Y-132899500D01*
X153706611Y-132899500D01*
X153533389Y-132899500D01*
X153533386Y-132899500D01*
X153362297Y-132926597D01*
X153362293Y-132926598D01*
X153197561Y-132980123D01*
X153197558Y-132980125D01*
X153043214Y-133058766D01*
X152903073Y-133160585D01*
X152780585Y-133283073D01*
X152678766Y-133423214D01*
X152600125Y-133577558D01*
X152600123Y-133577561D01*
X152546598Y-133742293D01*
X152546597Y-133742297D01*
X152519500Y-133913385D01*
X147100500Y-133913385D01*
X147073402Y-133742297D01*
X147073401Y-133742293D01*
X147019876Y-133577561D01*
X147019874Y-133577558D01*
X147019873Y-133577557D01*
X147019873Y-133577555D01*
X146941232Y-133423212D01*
X146839414Y-133283072D01*
X146716928Y-133160586D01*
X146576788Y-133058768D01*
X146576787Y-133058767D01*
X146576785Y-133058766D01*
X146422441Y-132980125D01*
X146422438Y-132980123D01*
X146257706Y-132926598D01*
X146257702Y-132926597D01*
X146086614Y-132899500D01*
X146086611Y-132899500D01*
X145913389Y-132899500D01*
X145913386Y-132899500D01*
X145742297Y-132926597D01*
X145742293Y-132926598D01*
X145577561Y-132980123D01*
X145577558Y-132980125D01*
X145423214Y-133058766D01*
X145283073Y-133160585D01*
X145160585Y-133283073D01*
X145058766Y-133423214D01*
X144980125Y-133577558D01*
X144980123Y-133577561D01*
X144926598Y-133742293D01*
X144926597Y-133742297D01*
X144899500Y-133913385D01*
X142720500Y-133913385D01*
X142693402Y-133742297D01*
X142693401Y-133742293D01*
X142639876Y-133577561D01*
X142639874Y-133577558D01*
X142639873Y-133577557D01*
X142639873Y-133577555D01*
X142561232Y-133423212D01*
X142459414Y-133283072D01*
X142336928Y-133160586D01*
X142196788Y-133058768D01*
X142196787Y-133058767D01*
X142196785Y-133058766D01*
X142042441Y-132980125D01*
X142042438Y-132980123D01*
X141877706Y-132926598D01*
X141877702Y-132926597D01*
X141706614Y-132899500D01*
X141706611Y-132899500D01*
X141533389Y-132899500D01*
X141533386Y-132899500D01*
X141362297Y-132926597D01*
X141362293Y-132926598D01*
X141197561Y-132980123D01*
X141197558Y-132980125D01*
X141043214Y-133058766D01*
X140903073Y-133160585D01*
X140780585Y-133283073D01*
X140678766Y-133423214D01*
X140600125Y-133577558D01*
X140600123Y-133577561D01*
X140546598Y-133742293D01*
X140546597Y-133742297D01*
X140519500Y-133913385D01*
X135100500Y-133913385D01*
X135073402Y-133742297D01*
X135073401Y-133742293D01*
X135019876Y-133577561D01*
X135019874Y-133577558D01*
X135019873Y-133577557D01*
X135019873Y-133577555D01*
X134941232Y-133423212D01*
X134839414Y-133283072D01*
X134716928Y-133160586D01*
X134576788Y-133058768D01*
X134576787Y-133058767D01*
X134576785Y-133058766D01*
X134422441Y-132980125D01*
X134422438Y-132980123D01*
X134257706Y-132926598D01*
X134257702Y-132926597D01*
X134086614Y-132899500D01*
X134086611Y-132899500D01*
X133913389Y-132899500D01*
X133913386Y-132899500D01*
X133742297Y-132926597D01*
X133742293Y-132926598D01*
X133577561Y-132980123D01*
X133577558Y-132980125D01*
X133423214Y-133058766D01*
X133283073Y-133160585D01*
X133160585Y-133283073D01*
X133058766Y-133423214D01*
X132980125Y-133577558D01*
X132980123Y-133577561D01*
X132926598Y-133742293D01*
X132926597Y-133742297D01*
X132899500Y-133913385D01*
X132625499Y-133913385D01*
X132625499Y-130347109D01*
X132644406Y-130288918D01*
X132685804Y-130255984D01*
X141056808Y-126701418D01*
X141117758Y-126696078D01*
X141170208Y-126727584D01*
X141194122Y-126783903D01*
X141194500Y-126792544D01*
X141194500Y-126921015D01*
X141175593Y-126979206D01*
X141140445Y-127009225D01*
X141043214Y-127058766D01*
X140903073Y-127160585D01*
X140780585Y-127283073D01*
X140678766Y-127423214D01*
X140600125Y-127577558D01*
X140600123Y-127577561D01*
X140546598Y-127742293D01*
X140546597Y-127742297D01*
X140519500Y-127913385D01*
X140519500Y-128086614D01*
X140546597Y-128257702D01*
X140546598Y-128257706D01*
X140600123Y-128422438D01*
X140600125Y-128422441D01*
X140600126Y-128422444D01*
X140600127Y-128422445D01*
X140678768Y-128576788D01*
X140780586Y-128716928D01*
X140903072Y-128839414D01*
X141043212Y-128941232D01*
X141197555Y-129019873D01*
X141197557Y-129019873D01*
X141197558Y-129019874D01*
X141197561Y-129019876D01*
X141362293Y-129073401D01*
X141362297Y-129073402D01*
X141533386Y-129100500D01*
X141533389Y-129100500D01*
X141706614Y-129100500D01*
X141877702Y-129073402D01*
X141877706Y-129073401D01*
X142042438Y-129019876D01*
X142042440Y-129019874D01*
X142042445Y-129019873D01*
X142196788Y-128941232D01*
X142336928Y-128839414D01*
X142459414Y-128716928D01*
X142561232Y-128576788D01*
X142639873Y-128422445D01*
X142639874Y-128422440D01*
X142639876Y-128422438D01*
X142693401Y-128257706D01*
X142693402Y-128257702D01*
X142720500Y-128086614D01*
X142720500Y-127913385D01*
X144899500Y-127913385D01*
X144899500Y-128086614D01*
X144926597Y-128257702D01*
X144926598Y-128257706D01*
X144980123Y-128422438D01*
X144980125Y-128422441D01*
X144980126Y-128422444D01*
X144980127Y-128422445D01*
X145058768Y-128576788D01*
X145160586Y-128716928D01*
X145283072Y-128839414D01*
X145423212Y-128941232D01*
X145577555Y-129019873D01*
X145577557Y-129019873D01*
X145577558Y-129019874D01*
X145577561Y-129019876D01*
X145742293Y-129073401D01*
X145742297Y-129073402D01*
X145913386Y-129100500D01*
X145913389Y-129100500D01*
X146086614Y-129100500D01*
X146257696Y-129073403D01*
X146257697Y-129073402D01*
X146257701Y-129073402D01*
X146361487Y-129039678D01*
X146422668Y-129039678D01*
X146462081Y-129063829D01*
X147545504Y-130147252D01*
X147573281Y-130201769D01*
X147574500Y-130217256D01*
X147574500Y-131856018D01*
X147600072Y-131951455D01*
X147603498Y-131964241D01*
X147659513Y-132061260D01*
X147659515Y-132061263D01*
X147738737Y-132140485D01*
X147738739Y-132140486D01*
X147835759Y-132196501D01*
X147835757Y-132196501D01*
X147835761Y-132196502D01*
X147835763Y-132196503D01*
X147943982Y-132225500D01*
X148056018Y-132225500D01*
X161475500Y-132225500D01*
X161533691Y-132244407D01*
X161569655Y-132293907D01*
X161574500Y-132324500D01*
X161574500Y-143675840D01*
X161555593Y-143734031D01*
X161519774Y-143764388D01*
X158779005Y-145134772D01*
X158718502Y-145143885D01*
X158664727Y-145116228D01*
X158574034Y-145025535D01*
X158426544Y-144926985D01*
X158262666Y-144859106D01*
X158088693Y-144824500D01*
X158088691Y-144824500D01*
X157911309Y-144824500D01*
X157911306Y-144824500D01*
X157737334Y-144859106D01*
X157737332Y-144859106D01*
X157573455Y-144926985D01*
X157573454Y-144926985D01*
X157425965Y-145025535D01*
X157300535Y-145150965D01*
X157201985Y-145298454D01*
X157201985Y-145298455D01*
X157134106Y-145462332D01*
X157134106Y-145462334D01*
X157099500Y-145636306D01*
X157099500Y-146363693D01*
X157134106Y-146537665D01*
X157134106Y-146537667D01*
X157201985Y-146701544D01*
X157201985Y-146701545D01*
X157212264Y-146716928D01*
X157300536Y-146849035D01*
X157425965Y-146974464D01*
X157573453Y-147073013D01*
X157573454Y-147073013D01*
X157573455Y-147073014D01*
X157574498Y-147073446D01*
X157737334Y-147140894D01*
X157911309Y-147175500D01*
X157911310Y-147175500D01*
X158088690Y-147175500D01*
X158088691Y-147175500D01*
X158262666Y-147140894D01*
X158426547Y-147073013D01*
X158574035Y-146974464D01*
X158699464Y-146849035D01*
X158798013Y-146701547D01*
X158865894Y-146537666D01*
X158900500Y-146363691D01*
X158900500Y-146086658D01*
X158919407Y-146028467D01*
X158955226Y-145998110D01*
X159678834Y-145636306D01*
X162151748Y-144399849D01*
X162164237Y-144396503D01*
X162201702Y-144374872D01*
X162240393Y-144355527D01*
X162250065Y-144346949D01*
X162261263Y-144340485D01*
X162291851Y-144309896D01*
X162324220Y-144281194D01*
X162331344Y-144270403D01*
X162340485Y-144261263D01*
X162362113Y-144223800D01*
X162385950Y-144187699D01*
X162386868Y-144184944D01*
X162395051Y-144166750D01*
X162396503Y-144164237D01*
X162407700Y-144122446D01*
X162421379Y-144081411D01*
X162422152Y-144068509D01*
X162424748Y-144058825D01*
X162424748Y-144058824D01*
X162424747Y-144058824D01*
X162425500Y-144056018D01*
X162425500Y-144012757D01*
X162428092Y-143969576D01*
X162425500Y-143956909D01*
X162425500Y-131743982D01*
X162396503Y-131635763D01*
X162396501Y-131635760D01*
X162396501Y-131635758D01*
X162340486Y-131538739D01*
X162340485Y-131538737D01*
X162261263Y-131459515D01*
X162261260Y-131459513D01*
X162164240Y-131403498D01*
X162164242Y-131403498D01*
X162122251Y-131392247D01*
X162056018Y-131374500D01*
X162056016Y-131374500D01*
X148524500Y-131374500D01*
X148466309Y-131355593D01*
X148430345Y-131306093D01*
X148425500Y-131275500D01*
X148425500Y-129943983D01*
X148425500Y-129943982D01*
X148412786Y-129896532D01*
X154949500Y-129896532D01*
X154949500Y-130103467D01*
X154989869Y-130306418D01*
X155069058Y-130497597D01*
X155069059Y-130497598D01*
X155184023Y-130669655D01*
X155330345Y-130815977D01*
X155502402Y-130930941D01*
X155693580Y-131010130D01*
X155896535Y-131050500D01*
X155896536Y-131050500D01*
X156103464Y-131050500D01*
X156103465Y-131050500D01*
X156306420Y-131010130D01*
X156497598Y-130930941D01*
X156669655Y-130815977D01*
X156815977Y-130669655D01*
X156930941Y-130497598D01*
X157010130Y-130306420D01*
X157050500Y-130103465D01*
X157050500Y-129896535D01*
X157010130Y-129693580D01*
X156930941Y-129502402D01*
X156815977Y-129330345D01*
X156669655Y-129184023D01*
X156669651Y-129184020D01*
X156497597Y-129069058D01*
X156306418Y-128989869D01*
X156103467Y-128949500D01*
X156103465Y-128949500D01*
X155896535Y-128949500D01*
X155896532Y-128949500D01*
X155693581Y-128989869D01*
X155502402Y-129069058D01*
X155330348Y-129184020D01*
X155184020Y-129330348D01*
X155069058Y-129502402D01*
X154989869Y-129693581D01*
X154949500Y-129896532D01*
X148412786Y-129896532D01*
X148396503Y-129835763D01*
X148396501Y-129835760D01*
X148396501Y-129835758D01*
X148340485Y-129738737D01*
X148261263Y-129659514D01*
X148261263Y-129659515D01*
X147063829Y-128462081D01*
X147036052Y-128407564D01*
X147039678Y-128361489D01*
X147073402Y-128257701D01*
X147078433Y-128225935D01*
X147100500Y-128086614D01*
X147100500Y-127913385D01*
X152519500Y-127913385D01*
X152519500Y-128086614D01*
X152546597Y-128257702D01*
X152546598Y-128257706D01*
X152600123Y-128422438D01*
X152600125Y-128422441D01*
X152600126Y-128422444D01*
X152600127Y-128422445D01*
X152678768Y-128576788D01*
X152780586Y-128716928D01*
X152903072Y-128839414D01*
X153043212Y-128941232D01*
X153197555Y-129019873D01*
X153197557Y-129019873D01*
X153197558Y-129019874D01*
X153197561Y-129019876D01*
X153362293Y-129073401D01*
X153362297Y-129073402D01*
X153533386Y-129100500D01*
X153533389Y-129100500D01*
X153706614Y-129100500D01*
X153877702Y-129073402D01*
X153877706Y-129073401D01*
X154042438Y-129019876D01*
X154042440Y-129019874D01*
X154042445Y-129019873D01*
X154196788Y-128941232D01*
X154336928Y-128839414D01*
X154459414Y-128716928D01*
X154561232Y-128576788D01*
X154639873Y-128422445D01*
X154639874Y-128422440D01*
X154639876Y-128422438D01*
X154693401Y-128257706D01*
X154693402Y-128257702D01*
X154720500Y-128086614D01*
X154720500Y-127913385D01*
X154693402Y-127742297D01*
X154693401Y-127742293D01*
X154639876Y-127577561D01*
X154639874Y-127577558D01*
X154639873Y-127577557D01*
X154639873Y-127577555D01*
X154561232Y-127423212D01*
X154459414Y-127283072D01*
X154336928Y-127160586D01*
X154196788Y-127058768D01*
X154196787Y-127058767D01*
X154196785Y-127058766D01*
X154042441Y-126980125D01*
X154042438Y-126980123D01*
X153877706Y-126926598D01*
X153877702Y-126926597D01*
X153706614Y-126899500D01*
X153706611Y-126899500D01*
X153533389Y-126899500D01*
X153533386Y-126899500D01*
X153362297Y-126926597D01*
X153362293Y-126926598D01*
X153197561Y-126980123D01*
X153197558Y-126980125D01*
X153043214Y-127058766D01*
X152903073Y-127160585D01*
X152780585Y-127283073D01*
X152678766Y-127423214D01*
X152600125Y-127577558D01*
X152600123Y-127577561D01*
X152546598Y-127742293D01*
X152546597Y-127742297D01*
X152519500Y-127913385D01*
X147100500Y-127913385D01*
X147073402Y-127742297D01*
X147073401Y-127742293D01*
X147019876Y-127577561D01*
X147019874Y-127577558D01*
X147019873Y-127577557D01*
X147019873Y-127577555D01*
X146941232Y-127423212D01*
X146839414Y-127283072D01*
X146716928Y-127160586D01*
X146576788Y-127058768D01*
X146576787Y-127058767D01*
X146576785Y-127058766D01*
X146422441Y-126980125D01*
X146422438Y-126980123D01*
X146257706Y-126926598D01*
X146257702Y-126926597D01*
X146086614Y-126899500D01*
X146086611Y-126899500D01*
X145913389Y-126899500D01*
X145913386Y-126899500D01*
X145742297Y-126926597D01*
X145742293Y-126926598D01*
X145577561Y-126980123D01*
X145577558Y-126980125D01*
X145423214Y-127058766D01*
X145283073Y-127160585D01*
X145160585Y-127283073D01*
X145058766Y-127423214D01*
X144980125Y-127577558D01*
X144980123Y-127577561D01*
X144926598Y-127742293D01*
X144926597Y-127742297D01*
X144899500Y-127913385D01*
X142720500Y-127913385D01*
X142693402Y-127742297D01*
X142693401Y-127742293D01*
X142639876Y-127577561D01*
X142639874Y-127577558D01*
X142639873Y-127577557D01*
X142639873Y-127577555D01*
X142561232Y-127423212D01*
X142459414Y-127283072D01*
X142336928Y-127160586D01*
X142196788Y-127058768D01*
X142196787Y-127058767D01*
X142196785Y-127058766D01*
X142099555Y-127009225D01*
X142056290Y-126965960D01*
X142045500Y-126921015D01*
X142045500Y-126025997D01*
X142049155Y-125996199D01*
X142045500Y-125970217D01*
X142045500Y-125943982D01*
X142039293Y-125920820D01*
X142036887Y-125908993D01*
X142033548Y-125885255D01*
X142026003Y-125867487D01*
X142021501Y-125854418D01*
X142016503Y-125835763D01*
X142001490Y-125809760D01*
X141989758Y-125782131D01*
X141973605Y-125761462D01*
X141960485Y-125738737D01*
X141939253Y-125717505D01*
X141920770Y-125693854D01*
X141899820Y-125678071D01*
X141894917Y-125673168D01*
X141881263Y-125659515D01*
X141860498Y-125647525D01*
X141860498Y-125647526D01*
X141855257Y-125644500D01*
X141831286Y-125626441D01*
X141806963Y-125616617D01*
X141800958Y-125613150D01*
X141800956Y-125613148D01*
X141784242Y-125603499D01*
X141784237Y-125603496D01*
X141761079Y-125597291D01*
X141749634Y-125593462D01*
X141727402Y-125584484D01*
X141708234Y-125582132D01*
X141701358Y-125581289D01*
X141676018Y-125574500D01*
X141645999Y-125574500D01*
X141616199Y-125570845D01*
X141616198Y-125570845D01*
X141597077Y-125573535D01*
X141597076Y-125573535D01*
X141590216Y-125574500D01*
X141563982Y-125574500D01*
X141534984Y-125582269D01*
X141528993Y-125583111D01*
X141505259Y-125586451D01*
X141505254Y-125586452D01*
X141487474Y-125594001D01*
X141481101Y-125596706D01*
X141455763Y-125603497D01*
X141429763Y-125618506D01*
X141424198Y-125620870D01*
X141424196Y-125620870D01*
X135227650Y-128252100D01*
X135166698Y-128257441D01*
X135114248Y-128225935D01*
X135090334Y-128169616D01*
X135091175Y-128145488D01*
X135100500Y-128086613D01*
X135100500Y-127913385D01*
X135073402Y-127742297D01*
X135073401Y-127742293D01*
X135019876Y-127577561D01*
X135019874Y-127577558D01*
X135019873Y-127577557D01*
X135019873Y-127577555D01*
X134941232Y-127423212D01*
X134839414Y-127283072D01*
X134716928Y-127160586D01*
X134576788Y-127058768D01*
X134576787Y-127058767D01*
X134576785Y-127058766D01*
X134422441Y-126980125D01*
X134422438Y-126980123D01*
X134257706Y-126926598D01*
X134257702Y-126926597D01*
X134086614Y-126899500D01*
X134086611Y-126899500D01*
X133913389Y-126899500D01*
X133913386Y-126899500D01*
X133742297Y-126926597D01*
X133742293Y-126926598D01*
X133577561Y-126980123D01*
X133577558Y-126980125D01*
X133423212Y-127058767D01*
X133423206Y-127058771D01*
X133283071Y-127160586D01*
X133283058Y-127160597D01*
X133281996Y-127161660D01*
X133281545Y-127161889D01*
X133280102Y-127163122D01*
X133279806Y-127162775D01*
X133227476Y-127189430D01*
X133173004Y-127182642D01*
X130985502Y-126245141D01*
X130939464Y-126204840D01*
X130925500Y-126154146D01*
X130925500Y-123533385D01*
X132899500Y-123533385D01*
X132899500Y-123706614D01*
X132926597Y-123877702D01*
X132926598Y-123877706D01*
X132980123Y-124042438D01*
X132980125Y-124042441D01*
X132980126Y-124042444D01*
X132980127Y-124042445D01*
X133058768Y-124196788D01*
X133160586Y-124336928D01*
X133283072Y-124459414D01*
X133423212Y-124561232D01*
X133577555Y-124639873D01*
X133577557Y-124639873D01*
X133577558Y-124639874D01*
X133577561Y-124639876D01*
X133742293Y-124693401D01*
X133742297Y-124693402D01*
X133913386Y-124720500D01*
X133913389Y-124720500D01*
X134086614Y-124720500D01*
X134257702Y-124693402D01*
X134257706Y-124693401D01*
X134422438Y-124639876D01*
X134422440Y-124639874D01*
X134422445Y-124639873D01*
X134576788Y-124561232D01*
X134716928Y-124459414D01*
X134839414Y-124336928D01*
X134941232Y-124196788D01*
X135019873Y-124042445D01*
X135019874Y-124042440D01*
X135019876Y-124042438D01*
X135073401Y-123877706D01*
X135073402Y-123877702D01*
X135100500Y-123706614D01*
X135100500Y-123533385D01*
X135073402Y-123362297D01*
X135073401Y-123362293D01*
X135019876Y-123197561D01*
X135019874Y-123197558D01*
X135019873Y-123197557D01*
X135019873Y-123197555D01*
X134941232Y-123043212D01*
X134839414Y-122903072D01*
X134716928Y-122780586D01*
X134576788Y-122678768D01*
X134576787Y-122678767D01*
X134576785Y-122678766D01*
X134422441Y-122600125D01*
X134422438Y-122600123D01*
X134257706Y-122546598D01*
X134257702Y-122546597D01*
X134086614Y-122519500D01*
X134086611Y-122519500D01*
X133913389Y-122519500D01*
X133913386Y-122519500D01*
X133742297Y-122546597D01*
X133742293Y-122546598D01*
X133577561Y-122600123D01*
X133577558Y-122600125D01*
X133423214Y-122678766D01*
X133283073Y-122780585D01*
X133160585Y-122903073D01*
X133058766Y-123043214D01*
X132980125Y-123197558D01*
X132980123Y-123197561D01*
X132926598Y-123362293D01*
X132926597Y-123362297D01*
X132899500Y-123533385D01*
X130925500Y-123533385D01*
X130925500Y-120993385D01*
X132899500Y-120993385D01*
X132899500Y-121166614D01*
X132926597Y-121337702D01*
X132926598Y-121337706D01*
X132980123Y-121502438D01*
X132980125Y-121502441D01*
X133018398Y-121577558D01*
X133058768Y-121656788D01*
X133160586Y-121796928D01*
X133283072Y-121919414D01*
X133423212Y-122021232D01*
X133577555Y-122099873D01*
X133577557Y-122099873D01*
X133577558Y-122099874D01*
X133577561Y-122099876D01*
X133742293Y-122153401D01*
X133742297Y-122153402D01*
X133913386Y-122180500D01*
X133913389Y-122180500D01*
X134086614Y-122180500D01*
X134257702Y-122153402D01*
X134257706Y-122153401D01*
X134422438Y-122099876D01*
X134422440Y-122099874D01*
X134422445Y-122099873D01*
X134576788Y-122021232D01*
X134716928Y-121919414D01*
X134839414Y-121796928D01*
X134941232Y-121656788D01*
X135019873Y-121502445D01*
X135019874Y-121502440D01*
X135019876Y-121502438D01*
X135073401Y-121337706D01*
X135073402Y-121337702D01*
X135100500Y-121166614D01*
X135100500Y-120993385D01*
X140519500Y-120993385D01*
X140519500Y-121166614D01*
X140546597Y-121337702D01*
X140546598Y-121337706D01*
X140600123Y-121502438D01*
X140600125Y-121502441D01*
X140638398Y-121577558D01*
X140678768Y-121656788D01*
X140780586Y-121796928D01*
X140903072Y-121919414D01*
X141043212Y-122021232D01*
X141197555Y-122099873D01*
X141197557Y-122099873D01*
X141197558Y-122099874D01*
X141197561Y-122099876D01*
X141362293Y-122153401D01*
X141362297Y-122153402D01*
X141533386Y-122180500D01*
X141533389Y-122180500D01*
X141706614Y-122180500D01*
X141877702Y-122153402D01*
X141877706Y-122153401D01*
X142042438Y-122099876D01*
X142042440Y-122099874D01*
X142042445Y-122099873D01*
X142196788Y-122021232D01*
X142298016Y-121947684D01*
X142356204Y-121928778D01*
X142399982Y-121938983D01*
X144019280Y-122737387D01*
X144063110Y-122780079D01*
X144074500Y-122826181D01*
X144074500Y-125056018D01*
X144100072Y-125151455D01*
X144103498Y-125164241D01*
X144159513Y-125261260D01*
X144159515Y-125261263D01*
X144238737Y-125340485D01*
X144256146Y-125350536D01*
X144335759Y-125396501D01*
X144335757Y-125396501D01*
X144335761Y-125396502D01*
X144335763Y-125396503D01*
X144443982Y-125425500D01*
X144556018Y-125425500D01*
X149980114Y-125425500D01*
X150016098Y-125428870D01*
X150035918Y-125425500D01*
X150056018Y-125425500D01*
X150090922Y-125416147D01*
X150126548Y-125410090D01*
X150144817Y-125401706D01*
X150164237Y-125396503D01*
X150195534Y-125378433D01*
X150228376Y-125363363D01*
X150243853Y-125350536D01*
X150261263Y-125340485D01*
X150283554Y-125318192D01*
X150290364Y-125311990D01*
X151998349Y-123896532D01*
X154949500Y-123896532D01*
X154949500Y-124103467D01*
X154989869Y-124306418D01*
X155069058Y-124497597D01*
X155120443Y-124574500D01*
X155184023Y-124669655D01*
X155330345Y-124815977D01*
X155502402Y-124930941D01*
X155693580Y-125010130D01*
X155896535Y-125050500D01*
X155896536Y-125050500D01*
X156103464Y-125050500D01*
X156103465Y-125050500D01*
X156306420Y-125010130D01*
X156497598Y-124930941D01*
X156669655Y-124815977D01*
X156815977Y-124669655D01*
X156930941Y-124497598D01*
X157010130Y-124306420D01*
X157050500Y-124103465D01*
X157050500Y-123896535D01*
X157010130Y-123693580D01*
X156930941Y-123502402D01*
X156815977Y-123330345D01*
X156669655Y-123184023D01*
X156669651Y-123184020D01*
X156497597Y-123069058D01*
X156306418Y-122989869D01*
X156103467Y-122949500D01*
X156103465Y-122949500D01*
X155896535Y-122949500D01*
X155896532Y-122949500D01*
X155693581Y-122989869D01*
X155502402Y-123069058D01*
X155330348Y-123184020D01*
X155184020Y-123330348D01*
X155069058Y-123502402D01*
X154989869Y-123693581D01*
X154949500Y-123896532D01*
X151998349Y-123896532D01*
X153059893Y-123016799D01*
X153116760Y-122994228D01*
X153168008Y-123004818D01*
X153197553Y-123019872D01*
X153197561Y-123019876D01*
X153362293Y-123073401D01*
X153362297Y-123073402D01*
X153533386Y-123100500D01*
X153533389Y-123100500D01*
X153706614Y-123100500D01*
X153877702Y-123073402D01*
X153877706Y-123073401D01*
X154042438Y-123019876D01*
X154042440Y-123019874D01*
X154042445Y-123019873D01*
X154196788Y-122941232D01*
X154336928Y-122839414D01*
X154459414Y-122716928D01*
X154561232Y-122576788D01*
X154639873Y-122422445D01*
X154639874Y-122422440D01*
X154639876Y-122422438D01*
X154693401Y-122257706D01*
X154693402Y-122257702D01*
X154720500Y-122086614D01*
X154720500Y-121913385D01*
X154693402Y-121742297D01*
X154693401Y-121742293D01*
X154639876Y-121577561D01*
X154639874Y-121577558D01*
X154639873Y-121577557D01*
X154639873Y-121577555D01*
X154561232Y-121423212D01*
X154459414Y-121283072D01*
X154336928Y-121160586D01*
X154196788Y-121058768D01*
X154196787Y-121058767D01*
X154196785Y-121058766D01*
X154042441Y-120980125D01*
X154042438Y-120980123D01*
X153877706Y-120926598D01*
X153877702Y-120926597D01*
X153706614Y-120899500D01*
X153706611Y-120899500D01*
X153533389Y-120899500D01*
X153533386Y-120899500D01*
X153362297Y-120926597D01*
X153362293Y-120926598D01*
X153197561Y-120980123D01*
X153197558Y-120980125D01*
X153043214Y-121058766D01*
X152903073Y-121160585D01*
X152780585Y-121283073D01*
X152678766Y-121423214D01*
X152600125Y-121577558D01*
X152600123Y-121577561D01*
X152546598Y-121742293D01*
X152546597Y-121742297D01*
X152519500Y-121913385D01*
X152519500Y-122086614D01*
X152546597Y-122257702D01*
X152547506Y-122261486D01*
X152546110Y-122261820D01*
X152546106Y-122317390D01*
X152515125Y-122363016D01*
X151347879Y-123330348D01*
X149929148Y-124506093D01*
X149874084Y-124551726D01*
X149817215Y-124574299D01*
X149810913Y-124574500D01*
X145024500Y-124574500D01*
X144966309Y-124555593D01*
X144930345Y-124506093D01*
X144925500Y-124475500D01*
X144925500Y-122541893D01*
X144928255Y-122528038D01*
X144925500Y-122486053D01*
X144925500Y-122443982D01*
X144924366Y-122439753D01*
X144921205Y-122420605D01*
X144920919Y-122416242D01*
X144908428Y-122379456D01*
X144906552Y-122373269D01*
X144903805Y-122363016D01*
X144896503Y-122335763D01*
X144889438Y-122323527D01*
X144884898Y-122310154D01*
X144861528Y-122275184D01*
X144859913Y-122272386D01*
X144859903Y-122272370D01*
X144853619Y-122261486D01*
X144840485Y-122238737D01*
X144840483Y-122238735D01*
X144840482Y-122238733D01*
X144837388Y-122235639D01*
X144837388Y-122235640D01*
X144830496Y-122228748D01*
X144822648Y-122217004D01*
X144791011Y-122189263D01*
X144761263Y-122159515D01*
X144757465Y-122157322D01*
X144757465Y-122157321D01*
X144749026Y-122152449D01*
X144738409Y-122143139D01*
X144700680Y-122124536D01*
X144697882Y-122122921D01*
X144697873Y-122122916D01*
X144664236Y-122103496D01*
X144664238Y-122103496D01*
X144660007Y-122102363D01*
X144641853Y-122095531D01*
X142775720Y-121175424D01*
X142731890Y-121132732D01*
X142720500Y-121086630D01*
X142720500Y-120993385D01*
X142693402Y-120822297D01*
X142693401Y-120822293D01*
X142639876Y-120657561D01*
X142639874Y-120657558D01*
X142639873Y-120657557D01*
X142639873Y-120657555D01*
X142561232Y-120503212D01*
X142459414Y-120363072D01*
X142336928Y-120240586D01*
X142196788Y-120138768D01*
X142196787Y-120138767D01*
X142196785Y-120138766D01*
X142042441Y-120060125D01*
X142042438Y-120060123D01*
X141877706Y-120006598D01*
X141877702Y-120006597D01*
X141706614Y-119979500D01*
X141706611Y-119979500D01*
X141533389Y-119979500D01*
X141533386Y-119979500D01*
X141362297Y-120006597D01*
X141362293Y-120006598D01*
X141197561Y-120060123D01*
X141197558Y-120060125D01*
X141043214Y-120138766D01*
X140903073Y-120240585D01*
X140780585Y-120363073D01*
X140678766Y-120503214D01*
X140600125Y-120657558D01*
X140600123Y-120657561D01*
X140546598Y-120822293D01*
X140546597Y-120822297D01*
X140519500Y-120993385D01*
X135100500Y-120993385D01*
X135073402Y-120822297D01*
X135073401Y-120822293D01*
X135019876Y-120657561D01*
X135019874Y-120657558D01*
X135019873Y-120657557D01*
X135019873Y-120657555D01*
X134941232Y-120503212D01*
X134839414Y-120363072D01*
X134716928Y-120240586D01*
X134576788Y-120138768D01*
X134576787Y-120138767D01*
X134576785Y-120138766D01*
X134422441Y-120060125D01*
X134422438Y-120060123D01*
X134257706Y-120006598D01*
X134257702Y-120006597D01*
X134086614Y-119979500D01*
X134086611Y-119979500D01*
X133913389Y-119979500D01*
X133913386Y-119979500D01*
X133742297Y-120006597D01*
X133742293Y-120006598D01*
X133577561Y-120060123D01*
X133577558Y-120060125D01*
X133423214Y-120138766D01*
X133283073Y-120240585D01*
X133160585Y-120363073D01*
X133058766Y-120503214D01*
X132980125Y-120657558D01*
X132980123Y-120657561D01*
X132926598Y-120822293D01*
X132926597Y-120822297D01*
X132899500Y-120993385D01*
X130925500Y-120993385D01*
X130925500Y-119900009D01*
X130944407Y-119841818D01*
X130993907Y-119805854D01*
X130998297Y-119804539D01*
X133069402Y-119236464D01*
X133130521Y-119239306D01*
X133165590Y-119261932D01*
X133283072Y-119379414D01*
X133423212Y-119481232D01*
X133577555Y-119559873D01*
X133577557Y-119559873D01*
X133577558Y-119559874D01*
X133577561Y-119559876D01*
X133742293Y-119613401D01*
X133742297Y-119613402D01*
X133913386Y-119640500D01*
X133913389Y-119640500D01*
X134086614Y-119640500D01*
X134257702Y-119613402D01*
X134257706Y-119613401D01*
X134422438Y-119559876D01*
X134422440Y-119559874D01*
X134422445Y-119559873D01*
X134576788Y-119481232D01*
X134716928Y-119379414D01*
X134839414Y-119256928D01*
X134941232Y-119116788D01*
X135019873Y-118962445D01*
X135019874Y-118962440D01*
X135019876Y-118962438D01*
X135073401Y-118797706D01*
X135073402Y-118797702D01*
X135100500Y-118626614D01*
X135100500Y-118453385D01*
X140519500Y-118453385D01*
X140519500Y-118626614D01*
X140546597Y-118797702D01*
X140546598Y-118797706D01*
X140600123Y-118962438D01*
X140600125Y-118962441D01*
X140672493Y-119104474D01*
X140678768Y-119116788D01*
X140780586Y-119256928D01*
X140903072Y-119379414D01*
X141043212Y-119481232D01*
X141197555Y-119559873D01*
X141197557Y-119559873D01*
X141197558Y-119559874D01*
X141197561Y-119559876D01*
X141362293Y-119613401D01*
X141362297Y-119613402D01*
X141533386Y-119640500D01*
X141533389Y-119640500D01*
X141706614Y-119640500D01*
X141877702Y-119613402D01*
X141877706Y-119613401D01*
X142042438Y-119559876D01*
X142042440Y-119559874D01*
X142042445Y-119559873D01*
X142196788Y-119481232D01*
X142336928Y-119379414D01*
X142459414Y-119256928D01*
X142561232Y-119116788D01*
X142639873Y-118962445D01*
X142639874Y-118962440D01*
X142639876Y-118962438D01*
X142693401Y-118797706D01*
X142693402Y-118797702D01*
X142720500Y-118626614D01*
X142720500Y-118453385D01*
X142693402Y-118282297D01*
X142693401Y-118282293D01*
X142639876Y-118117561D01*
X142639874Y-118117558D01*
X142639873Y-118117557D01*
X142639873Y-118117555D01*
X142561232Y-117963212D01*
X142459414Y-117823072D01*
X142336928Y-117700586D01*
X142196788Y-117598768D01*
X142196787Y-117598767D01*
X142196785Y-117598766D01*
X142042441Y-117520125D01*
X142042438Y-117520123D01*
X141877706Y-117466598D01*
X141877702Y-117466597D01*
X141706614Y-117439500D01*
X141706611Y-117439500D01*
X141533389Y-117439500D01*
X141533386Y-117439500D01*
X141362297Y-117466597D01*
X141362293Y-117466598D01*
X141197561Y-117520123D01*
X141197558Y-117520125D01*
X141043214Y-117598766D01*
X140903073Y-117700585D01*
X140780585Y-117823073D01*
X140678766Y-117963214D01*
X140600125Y-118117558D01*
X140600123Y-118117561D01*
X140546598Y-118282293D01*
X140546597Y-118282297D01*
X140519500Y-118453385D01*
X135100500Y-118453385D01*
X135073402Y-118282297D01*
X135073401Y-118282293D01*
X135019876Y-118117561D01*
X135019874Y-118117558D01*
X135019873Y-118117557D01*
X135019873Y-118117555D01*
X134941232Y-117963212D01*
X134839414Y-117823072D01*
X134716928Y-117700586D01*
X134576788Y-117598768D01*
X134576787Y-117598767D01*
X134576785Y-117598766D01*
X134422441Y-117520125D01*
X134422438Y-117520123D01*
X134257706Y-117466598D01*
X134257702Y-117466597D01*
X134086614Y-117439500D01*
X134086611Y-117439500D01*
X133913389Y-117439500D01*
X133913386Y-117439500D01*
X133742297Y-117466597D01*
X133742293Y-117466598D01*
X133577561Y-117520123D01*
X133577558Y-117520125D01*
X133423214Y-117598766D01*
X133283073Y-117700585D01*
X133160585Y-117823073D01*
X133058766Y-117963214D01*
X132980127Y-118117554D01*
X132926596Y-118282305D01*
X132918226Y-118335150D01*
X132890447Y-118389666D01*
X132846632Y-118415135D01*
X130388834Y-119089274D01*
X130388833Y-119089273D01*
X130388354Y-119089404D01*
X130335763Y-119103497D01*
X130334657Y-119104135D01*
X130333828Y-119104362D01*
X130333422Y-119104474D01*
X130286333Y-119132030D01*
X130286334Y-119132031D01*
X130285948Y-119132256D01*
X130238737Y-119159515D01*
X130237835Y-119160416D01*
X130236731Y-119161063D01*
X130236727Y-119161066D01*
X130236725Y-119161068D01*
X130198370Y-119199875D01*
X130198371Y-119199876D01*
X130198038Y-119200212D01*
X130159515Y-119238737D01*
X130158876Y-119239842D01*
X130157979Y-119240751D01*
X130157973Y-119240760D01*
X130157970Y-119240764D01*
X130131072Y-119287994D01*
X130130784Y-119288497D01*
X130103495Y-119335764D01*
X130102851Y-119337320D01*
X130102548Y-119338049D01*
X130088756Y-119390766D01*
X130088607Y-119391328D01*
X130074498Y-119443987D01*
X130074305Y-119445455D01*
X130074292Y-119445558D01*
X130074176Y-119446439D01*
X130074498Y-119500900D01*
X130074500Y-119501485D01*
X130074500Y-126469502D01*
X130070860Y-126494767D01*
X130074500Y-126525287D01*
X130074500Y-126556023D01*
X130079268Y-126573817D01*
X130079269Y-126573817D01*
X130081105Y-126580668D01*
X130084128Y-126606015D01*
X130095543Y-126634552D01*
X130097065Y-126640231D01*
X130097064Y-126640233D01*
X130103497Y-126664236D01*
X130103498Y-126664239D01*
X130112709Y-126680193D01*
X130118890Y-126692920D01*
X130122290Y-126701419D01*
X130125739Y-126710041D01*
X130140624Y-126729937D01*
X130140626Y-126729939D01*
X130144149Y-126734648D01*
X130159515Y-126761263D01*
X130177559Y-126779307D01*
X130181807Y-126784985D01*
X130181809Y-126784988D01*
X130192850Y-126799746D01*
X130192852Y-126799748D01*
X130211458Y-126814388D01*
X130212380Y-126815114D01*
X130221161Y-126822910D01*
X130238735Y-126840483D01*
X130238737Y-126840485D01*
X130260840Y-126853246D01*
X130280899Y-126869030D01*
X130309147Y-126881136D01*
X130335763Y-126896503D01*
X130353564Y-126901272D01*
X130366939Y-126905904D01*
X132839499Y-127965572D01*
X132885536Y-128005872D01*
X132899500Y-128056566D01*
X132899500Y-128086614D01*
X132926597Y-128257702D01*
X132926598Y-128257706D01*
X132980123Y-128422438D01*
X132980125Y-128422441D01*
X132980126Y-128422444D01*
X132980127Y-128422445D01*
X133058768Y-128576788D01*
X133160586Y-128716928D01*
X133283072Y-128839414D01*
X133283075Y-128839416D01*
X133283077Y-128839418D01*
X133348632Y-128887047D01*
X133384596Y-128936547D01*
X133384595Y-128997732D01*
X133348631Y-129047232D01*
X133329135Y-129058264D01*
X132067484Y-129593997D01*
X132061103Y-129596706D01*
X132035762Y-129603497D01*
X132009767Y-129618504D01*
X132004199Y-129620869D01*
X132004196Y-129620871D01*
X131982130Y-129630241D01*
X131966912Y-129642133D01*
X131955462Y-129649856D01*
X131938745Y-129659508D01*
X131938733Y-129659517D01*
X131921784Y-129676464D01*
X131921785Y-129676465D01*
X131917507Y-129680743D01*
X131893853Y-129699229D01*
X131878065Y-129720185D01*
X131873167Y-129725083D01*
X131873164Y-129725084D01*
X131859516Y-129738733D01*
X131847526Y-129759497D01*
X131844502Y-129764737D01*
X131826440Y-129788714D01*
X131816616Y-129813034D01*
X131813154Y-129819032D01*
X131813154Y-129819034D01*
X131803494Y-129835766D01*
X131797292Y-129858914D01*
X131793463Y-129870360D01*
X131784483Y-129892596D01*
X131782131Y-129911764D01*
X131781288Y-129918642D01*
X131774499Y-129943982D01*
X131774499Y-129973998D01*
X131773763Y-129979999D01*
X131770843Y-130003800D01*
X131773534Y-130022921D01*
X131774499Y-130036713D01*
X131774499Y-147475500D01*
X131755592Y-147533691D01*
X131706092Y-147569655D01*
X131675499Y-147574500D01*
X123217256Y-147574500D01*
X123159065Y-147555593D01*
X123147252Y-147545504D01*
X122063829Y-146462081D01*
X122036052Y-146407564D01*
X122039678Y-146361489D01*
X122073402Y-146257701D01*
X122100500Y-146086611D01*
X122100500Y-145913389D01*
X122100500Y-145913385D01*
X122073402Y-145742297D01*
X122073401Y-145742293D01*
X122019876Y-145577561D01*
X122019874Y-145577558D01*
X122019873Y-145577557D01*
X122019873Y-145577555D01*
X121941232Y-145423212D01*
X121839414Y-145283072D01*
X121716928Y-145160586D01*
X121576788Y-145058768D01*
X121576787Y-145058767D01*
X121576785Y-145058766D01*
X121422441Y-144980125D01*
X121422438Y-144980123D01*
X121257706Y-144926598D01*
X121257702Y-144926597D01*
X121086614Y-144899500D01*
X121086611Y-144899500D01*
X120913389Y-144899500D01*
X120913386Y-144899500D01*
X120742297Y-144926597D01*
X120742293Y-144926598D01*
X120577561Y-144980123D01*
X120577558Y-144980125D01*
X120423214Y-145058766D01*
X120283073Y-145160585D01*
X120160585Y-145283073D01*
X120058766Y-145423214D01*
X119980125Y-145577558D01*
X119980123Y-145577561D01*
X119926598Y-145742293D01*
X119926597Y-145742297D01*
X119899500Y-145913385D01*
X100500000Y-145913385D01*
X100500000Y-139913385D01*
X119899500Y-139913385D01*
X119899500Y-140086614D01*
X119926597Y-140257702D01*
X119926598Y-140257706D01*
X119980123Y-140422438D01*
X119980125Y-140422441D01*
X119980126Y-140422444D01*
X119980127Y-140422445D01*
X120058768Y-140576788D01*
X120160586Y-140716928D01*
X120283072Y-140839414D01*
X120423212Y-140941232D01*
X120577555Y-141019873D01*
X120577557Y-141019873D01*
X120577558Y-141019874D01*
X120577561Y-141019876D01*
X120742293Y-141073401D01*
X120742297Y-141073402D01*
X120913386Y-141100500D01*
X120913389Y-141100500D01*
X121086614Y-141100500D01*
X121257702Y-141073402D01*
X121257706Y-141073401D01*
X121422438Y-141019876D01*
X121422440Y-141019874D01*
X121422445Y-141019873D01*
X121576788Y-140941232D01*
X121716928Y-140839414D01*
X121839414Y-140716928D01*
X121941232Y-140576788D01*
X122019873Y-140422445D01*
X122019874Y-140422440D01*
X122019876Y-140422438D01*
X122073401Y-140257706D01*
X122073402Y-140257702D01*
X122100500Y-140086614D01*
X122100500Y-139913385D01*
X127519500Y-139913385D01*
X127519500Y-140086614D01*
X127546597Y-140257702D01*
X127546598Y-140257706D01*
X127600123Y-140422438D01*
X127600125Y-140422441D01*
X127600126Y-140422444D01*
X127600127Y-140422445D01*
X127678768Y-140576788D01*
X127780586Y-140716928D01*
X127903072Y-140839414D01*
X128043212Y-140941232D01*
X128197555Y-141019873D01*
X128197557Y-141019873D01*
X128197558Y-141019874D01*
X128197561Y-141019876D01*
X128362293Y-141073401D01*
X128362297Y-141073402D01*
X128533386Y-141100500D01*
X128533389Y-141100500D01*
X128706614Y-141100500D01*
X128877702Y-141073402D01*
X128877706Y-141073401D01*
X129042438Y-141019876D01*
X129042440Y-141019874D01*
X129042445Y-141019873D01*
X129196788Y-140941232D01*
X129336928Y-140839414D01*
X129459414Y-140716928D01*
X129561232Y-140576788D01*
X129639873Y-140422445D01*
X129639874Y-140422440D01*
X129639876Y-140422438D01*
X129693401Y-140257706D01*
X129693402Y-140257702D01*
X129720500Y-140086614D01*
X129720500Y-139913385D01*
X129693402Y-139742297D01*
X129693401Y-139742293D01*
X129639876Y-139577561D01*
X129639874Y-139577558D01*
X129639873Y-139577557D01*
X129639873Y-139577555D01*
X129561232Y-139423212D01*
X129459414Y-139283072D01*
X129336928Y-139160586D01*
X129196788Y-139058768D01*
X129196787Y-139058767D01*
X129196785Y-139058766D01*
X129042441Y-138980125D01*
X129042438Y-138980123D01*
X128877706Y-138926598D01*
X128877702Y-138926597D01*
X128706614Y-138899500D01*
X128706611Y-138899500D01*
X128533389Y-138899500D01*
X128533386Y-138899500D01*
X128362297Y-138926597D01*
X128362293Y-138926598D01*
X128197561Y-138980123D01*
X128197558Y-138980125D01*
X128043214Y-139058766D01*
X127903073Y-139160585D01*
X127780585Y-139283073D01*
X127678766Y-139423214D01*
X127600125Y-139577558D01*
X127600123Y-139577561D01*
X127546598Y-139742293D01*
X127546597Y-139742297D01*
X127519500Y-139913385D01*
X122100500Y-139913385D01*
X122073402Y-139742297D01*
X122073401Y-139742293D01*
X122019876Y-139577561D01*
X122019874Y-139577558D01*
X122019873Y-139577557D01*
X122019873Y-139577555D01*
X121941232Y-139423212D01*
X121839414Y-139283072D01*
X121716928Y-139160586D01*
X121576788Y-139058768D01*
X121576787Y-139058767D01*
X121576785Y-139058766D01*
X121422441Y-138980125D01*
X121422438Y-138980123D01*
X121257706Y-138926598D01*
X121257702Y-138926597D01*
X121086614Y-138899500D01*
X121086611Y-138899500D01*
X120913389Y-138899500D01*
X120913386Y-138899500D01*
X120742297Y-138926597D01*
X120742293Y-138926598D01*
X120577561Y-138980123D01*
X120577558Y-138980125D01*
X120423214Y-139058766D01*
X120283073Y-139160585D01*
X120160585Y-139283073D01*
X120058766Y-139423214D01*
X119980125Y-139577558D01*
X119980123Y-139577561D01*
X119926598Y-139742293D01*
X119926597Y-139742297D01*
X119899500Y-139913385D01*
X100500000Y-139913385D01*
X100500000Y-133896532D01*
X119949500Y-133896532D01*
X119949500Y-134103467D01*
X119989869Y-134306418D01*
X120069058Y-134497597D01*
X120184020Y-134669651D01*
X120184023Y-134669655D01*
X120330345Y-134815977D01*
X120502402Y-134930941D01*
X120693580Y-135010130D01*
X120896535Y-135050500D01*
X120896536Y-135050500D01*
X121103464Y-135050500D01*
X121103465Y-135050500D01*
X121306420Y-135010130D01*
X121497598Y-134930941D01*
X121669655Y-134815977D01*
X121815977Y-134669655D01*
X121930941Y-134497598D01*
X122010130Y-134306420D01*
X122050500Y-134103465D01*
X122050500Y-133896535D01*
X122010130Y-133693580D01*
X121930941Y-133502402D01*
X121815977Y-133330345D01*
X121669655Y-133184023D01*
X121634579Y-133160586D01*
X121497597Y-133069058D01*
X121306418Y-132989869D01*
X121103467Y-132949500D01*
X121103465Y-132949500D01*
X120896535Y-132949500D01*
X120896532Y-132949500D01*
X120693581Y-132989869D01*
X120502402Y-133069058D01*
X120330348Y-133184020D01*
X120184020Y-133330348D01*
X120069058Y-133502402D01*
X119989869Y-133693581D01*
X119949500Y-133896532D01*
X100500000Y-133896532D01*
X100500000Y-127913385D01*
X108899500Y-127913385D01*
X108899500Y-128086614D01*
X108926597Y-128257702D01*
X108926598Y-128257706D01*
X108980123Y-128422438D01*
X108980125Y-128422441D01*
X108980126Y-128422444D01*
X108980127Y-128422445D01*
X109058768Y-128576788D01*
X109160586Y-128716928D01*
X109283072Y-128839414D01*
X109423212Y-128941232D01*
X109577555Y-129019873D01*
X109577557Y-129019873D01*
X109577558Y-129019874D01*
X109577561Y-129019876D01*
X109742293Y-129073401D01*
X109742297Y-129073402D01*
X109913386Y-129100500D01*
X109913389Y-129100500D01*
X110086614Y-129100500D01*
X110257702Y-129073402D01*
X110257706Y-129073401D01*
X110422438Y-129019876D01*
X110422440Y-129019874D01*
X110422445Y-129019873D01*
X110576788Y-128941232D01*
X110716928Y-128839414D01*
X110839414Y-128716928D01*
X110941232Y-128576788D01*
X111019873Y-128422445D01*
X111019874Y-128422440D01*
X111019876Y-128422438D01*
X111073401Y-128257706D01*
X111073402Y-128257702D01*
X111100500Y-128086614D01*
X111100500Y-127913385D01*
X116519500Y-127913385D01*
X116519500Y-128086614D01*
X116546597Y-128257702D01*
X116546598Y-128257706D01*
X116600123Y-128422438D01*
X116600125Y-128422441D01*
X116600126Y-128422444D01*
X116600127Y-128422445D01*
X116678768Y-128576788D01*
X116780586Y-128716928D01*
X116903072Y-128839414D01*
X117043212Y-128941232D01*
X117197555Y-129019873D01*
X117197557Y-129019873D01*
X117197558Y-129019874D01*
X117197561Y-129019876D01*
X117362293Y-129073401D01*
X117362297Y-129073402D01*
X117533386Y-129100500D01*
X117533389Y-129100500D01*
X117706614Y-129100500D01*
X117877702Y-129073402D01*
X117877706Y-129073401D01*
X118042438Y-129019876D01*
X118042440Y-129019874D01*
X118042445Y-129019873D01*
X118196788Y-128941232D01*
X118336928Y-128839414D01*
X118459414Y-128716928D01*
X118561232Y-128576788D01*
X118639873Y-128422445D01*
X118639874Y-128422440D01*
X118639876Y-128422438D01*
X118693401Y-128257706D01*
X118693402Y-128257702D01*
X118720500Y-128086614D01*
X118720500Y-127913385D01*
X124899500Y-127913385D01*
X124899500Y-128086614D01*
X124926597Y-128257702D01*
X124926598Y-128257706D01*
X124980123Y-128422438D01*
X124980125Y-128422441D01*
X124980126Y-128422444D01*
X124980127Y-128422445D01*
X125058768Y-128576788D01*
X125160586Y-128716928D01*
X125283072Y-128839414D01*
X125423212Y-128941232D01*
X125577555Y-129019873D01*
X125577557Y-129019873D01*
X125577558Y-129019874D01*
X125577561Y-129019876D01*
X125742293Y-129073401D01*
X125742297Y-129073402D01*
X125913386Y-129100500D01*
X125913389Y-129100500D01*
X126086614Y-129100500D01*
X126257702Y-129073402D01*
X126257706Y-129073401D01*
X126422438Y-129019876D01*
X126422440Y-129019874D01*
X126422445Y-129019873D01*
X126576788Y-128941232D01*
X126716928Y-128839414D01*
X126839414Y-128716928D01*
X126941232Y-128576788D01*
X127019873Y-128422445D01*
X127019874Y-128422440D01*
X127019876Y-128422438D01*
X127073401Y-128257706D01*
X127073402Y-128257702D01*
X127100500Y-128086614D01*
X127100500Y-127913385D01*
X127073402Y-127742297D01*
X127073401Y-127742293D01*
X127019876Y-127577561D01*
X127019874Y-127577558D01*
X127019873Y-127577557D01*
X127019873Y-127577555D01*
X126941232Y-127423212D01*
X126839414Y-127283072D01*
X126716928Y-127160586D01*
X126576788Y-127058768D01*
X126576787Y-127058767D01*
X126576785Y-127058766D01*
X126422441Y-126980125D01*
X126422438Y-126980123D01*
X126257706Y-126926598D01*
X126257702Y-126926597D01*
X126086614Y-126899500D01*
X126086611Y-126899500D01*
X125913389Y-126899500D01*
X125913386Y-126899500D01*
X125742297Y-126926597D01*
X125742293Y-126926598D01*
X125577561Y-126980123D01*
X125577558Y-126980125D01*
X125423214Y-127058766D01*
X125283073Y-127160585D01*
X125160585Y-127283073D01*
X125058766Y-127423214D01*
X124980125Y-127577558D01*
X124980123Y-127577561D01*
X124926598Y-127742293D01*
X124926597Y-127742297D01*
X124899500Y-127913385D01*
X118720500Y-127913385D01*
X118693402Y-127742297D01*
X118693401Y-127742293D01*
X118639876Y-127577561D01*
X118639874Y-127577558D01*
X118639873Y-127577557D01*
X118639873Y-127577555D01*
X118561232Y-127423212D01*
X118459414Y-127283072D01*
X118336928Y-127160586D01*
X118196788Y-127058768D01*
X118196787Y-127058767D01*
X118196785Y-127058766D01*
X118042441Y-126980125D01*
X118042438Y-126980123D01*
X117877706Y-126926598D01*
X117877702Y-126926597D01*
X117706614Y-126899500D01*
X117706611Y-126899500D01*
X117533389Y-126899500D01*
X117533386Y-126899500D01*
X117362297Y-126926597D01*
X117362293Y-126926598D01*
X117197561Y-126980123D01*
X117197558Y-126980125D01*
X117043214Y-127058766D01*
X116903073Y-127160585D01*
X116780585Y-127283073D01*
X116678766Y-127423214D01*
X116600125Y-127577558D01*
X116600123Y-127577561D01*
X116546598Y-127742293D01*
X116546597Y-127742297D01*
X116519500Y-127913385D01*
X111100500Y-127913385D01*
X111073402Y-127742297D01*
X111073401Y-127742293D01*
X111019876Y-127577561D01*
X111019874Y-127577558D01*
X111019873Y-127577557D01*
X111019873Y-127577555D01*
X110941232Y-127423212D01*
X110839414Y-127283072D01*
X110716928Y-127160586D01*
X110576788Y-127058768D01*
X110576787Y-127058767D01*
X110576785Y-127058766D01*
X110422441Y-126980125D01*
X110422438Y-126980123D01*
X110257706Y-126926598D01*
X110257702Y-126926597D01*
X110086614Y-126899500D01*
X110086611Y-126899500D01*
X109913389Y-126899500D01*
X109913386Y-126899500D01*
X109742297Y-126926597D01*
X109742293Y-126926598D01*
X109577561Y-126980123D01*
X109577558Y-126980125D01*
X109423214Y-127058766D01*
X109283073Y-127160585D01*
X109160585Y-127283073D01*
X109058766Y-127423214D01*
X108980125Y-127577558D01*
X108980123Y-127577561D01*
X108926598Y-127742293D01*
X108926597Y-127742297D01*
X108899500Y-127913385D01*
X100500000Y-127913385D01*
X100500000Y-123533385D01*
X108899500Y-123533385D01*
X108899500Y-123706614D01*
X108926597Y-123877702D01*
X108926598Y-123877706D01*
X108980123Y-124042438D01*
X108980125Y-124042441D01*
X108980126Y-124042444D01*
X108980127Y-124042445D01*
X109058768Y-124196788D01*
X109160586Y-124336928D01*
X109283072Y-124459414D01*
X109423212Y-124561232D01*
X109577555Y-124639873D01*
X109577557Y-124639873D01*
X109577558Y-124639874D01*
X109577561Y-124639876D01*
X109742293Y-124693401D01*
X109742297Y-124693402D01*
X109913386Y-124720500D01*
X109913389Y-124720500D01*
X110086614Y-124720500D01*
X110257702Y-124693402D01*
X110257706Y-124693401D01*
X110422438Y-124639876D01*
X110422440Y-124639874D01*
X110422445Y-124639873D01*
X110576788Y-124561232D01*
X110716928Y-124459414D01*
X110839414Y-124336928D01*
X110941232Y-124196788D01*
X111019873Y-124042445D01*
X111019874Y-124042440D01*
X111019876Y-124042438D01*
X111073401Y-123877706D01*
X111073402Y-123877702D01*
X111100500Y-123706614D01*
X111100500Y-123533385D01*
X116519500Y-123533385D01*
X116519500Y-123706614D01*
X116546597Y-123877702D01*
X116546598Y-123877706D01*
X116600123Y-124042438D01*
X116600125Y-124042441D01*
X116600126Y-124042444D01*
X116600127Y-124042445D01*
X116678768Y-124196788D01*
X116780586Y-124336928D01*
X116903072Y-124459414D01*
X117043212Y-124561232D01*
X117197555Y-124639873D01*
X117197557Y-124639873D01*
X117197558Y-124639874D01*
X117197561Y-124639876D01*
X117362293Y-124693401D01*
X117362297Y-124693402D01*
X117533386Y-124720500D01*
X117533389Y-124720500D01*
X117706614Y-124720500D01*
X117877702Y-124693402D01*
X117877706Y-124693401D01*
X118042438Y-124639876D01*
X118042440Y-124639874D01*
X118042445Y-124639873D01*
X118196788Y-124561232D01*
X118336928Y-124459414D01*
X118459414Y-124336928D01*
X118561232Y-124196788D01*
X118639873Y-124042445D01*
X118639874Y-124042440D01*
X118639876Y-124042438D01*
X118693401Y-123877706D01*
X118693402Y-123877702D01*
X118720500Y-123706614D01*
X118720500Y-123533385D01*
X118693402Y-123362297D01*
X118693401Y-123362293D01*
X118639876Y-123197561D01*
X118639874Y-123197558D01*
X118639873Y-123197557D01*
X118639873Y-123197555D01*
X118561232Y-123043212D01*
X118459414Y-122903072D01*
X118336928Y-122780586D01*
X118196788Y-122678768D01*
X118196787Y-122678767D01*
X118196785Y-122678766D01*
X118042441Y-122600125D01*
X118042438Y-122600123D01*
X117877706Y-122546598D01*
X117877702Y-122546597D01*
X117706614Y-122519500D01*
X117706611Y-122519500D01*
X117533389Y-122519500D01*
X117533386Y-122519500D01*
X117362297Y-122546597D01*
X117362293Y-122546598D01*
X117197561Y-122600123D01*
X117197558Y-122600125D01*
X117043214Y-122678766D01*
X116903073Y-122780585D01*
X116780585Y-122903073D01*
X116678766Y-123043214D01*
X116600125Y-123197558D01*
X116600123Y-123197561D01*
X116546598Y-123362293D01*
X116546597Y-123362297D01*
X116519500Y-123533385D01*
X111100500Y-123533385D01*
X111073402Y-123362297D01*
X111073401Y-123362293D01*
X111019876Y-123197561D01*
X111019874Y-123197558D01*
X111019873Y-123197557D01*
X111019873Y-123197555D01*
X110941232Y-123043212D01*
X110839414Y-122903072D01*
X110716928Y-122780586D01*
X110576788Y-122678768D01*
X110576787Y-122678767D01*
X110576785Y-122678766D01*
X110422441Y-122600125D01*
X110422438Y-122600123D01*
X110257706Y-122546598D01*
X110257702Y-122546597D01*
X110086614Y-122519500D01*
X110086611Y-122519500D01*
X109913389Y-122519500D01*
X109913386Y-122519500D01*
X109742297Y-122546597D01*
X109742293Y-122546598D01*
X109577561Y-122600123D01*
X109577558Y-122600125D01*
X109423214Y-122678766D01*
X109283073Y-122780585D01*
X109160585Y-122903073D01*
X109058766Y-123043214D01*
X108980125Y-123197558D01*
X108980123Y-123197561D01*
X108926598Y-123362293D01*
X108926597Y-123362297D01*
X108899500Y-123533385D01*
X100500000Y-123533385D01*
X100500000Y-120993385D01*
X116519500Y-120993385D01*
X116519500Y-121166614D01*
X116546597Y-121337702D01*
X116546598Y-121337706D01*
X116600123Y-121502438D01*
X116600125Y-121502441D01*
X116638398Y-121577558D01*
X116678768Y-121656788D01*
X116780586Y-121796928D01*
X116903072Y-121919414D01*
X117043212Y-122021232D01*
X117197555Y-122099873D01*
X117197557Y-122099873D01*
X117197558Y-122099874D01*
X117197561Y-122099876D01*
X117362293Y-122153401D01*
X117362297Y-122153402D01*
X117533386Y-122180500D01*
X117533389Y-122180500D01*
X117706614Y-122180500D01*
X117877702Y-122153402D01*
X117877706Y-122153401D01*
X118042438Y-122099876D01*
X118042440Y-122099874D01*
X118042445Y-122099873D01*
X118196788Y-122021232D01*
X118336928Y-121919414D01*
X118342957Y-121913385D01*
X119899500Y-121913385D01*
X119899500Y-122086614D01*
X119926597Y-122257702D01*
X119926598Y-122257706D01*
X119980123Y-122422438D01*
X119980125Y-122422441D01*
X120043385Y-122546598D01*
X120058768Y-122576788D01*
X120160586Y-122716928D01*
X120283072Y-122839414D01*
X120423212Y-122941232D01*
X120577555Y-123019873D01*
X120577557Y-123019873D01*
X120577558Y-123019874D01*
X120577561Y-123019876D01*
X120742293Y-123073401D01*
X120742297Y-123073402D01*
X120913386Y-123100500D01*
X120913389Y-123100500D01*
X121086614Y-123100500D01*
X121257702Y-123073402D01*
X121257706Y-123073401D01*
X121422438Y-123019876D01*
X121422440Y-123019874D01*
X121422445Y-123019873D01*
X121576788Y-122941232D01*
X121716928Y-122839414D01*
X121839414Y-122716928D01*
X121941232Y-122576788D01*
X122019873Y-122422445D01*
X122019874Y-122422440D01*
X122019876Y-122422438D01*
X122073401Y-122257706D01*
X122073402Y-122257702D01*
X122100500Y-122086614D01*
X122100500Y-121913385D01*
X127519500Y-121913385D01*
X127519500Y-122086614D01*
X127546597Y-122257702D01*
X127546598Y-122257706D01*
X127600123Y-122422438D01*
X127600125Y-122422441D01*
X127663385Y-122546598D01*
X127678768Y-122576788D01*
X127780586Y-122716928D01*
X127903072Y-122839414D01*
X128043212Y-122941232D01*
X128197555Y-123019873D01*
X128197557Y-123019873D01*
X128197558Y-123019874D01*
X128197561Y-123019876D01*
X128362293Y-123073401D01*
X128362297Y-123073402D01*
X128533386Y-123100500D01*
X128533389Y-123100500D01*
X128706614Y-123100500D01*
X128877702Y-123073402D01*
X128877706Y-123073401D01*
X129042438Y-123019876D01*
X129042440Y-123019874D01*
X129042445Y-123019873D01*
X129196788Y-122941232D01*
X129336928Y-122839414D01*
X129459414Y-122716928D01*
X129561232Y-122576788D01*
X129639873Y-122422445D01*
X129639874Y-122422440D01*
X129639876Y-122422438D01*
X129693401Y-122257706D01*
X129693402Y-122257702D01*
X129720500Y-122086614D01*
X129720500Y-121913385D01*
X129693402Y-121742297D01*
X129693401Y-121742293D01*
X129639876Y-121577561D01*
X129639874Y-121577558D01*
X129639873Y-121577557D01*
X129639873Y-121577555D01*
X129561232Y-121423212D01*
X129459414Y-121283072D01*
X129336928Y-121160586D01*
X129196788Y-121058768D01*
X129196787Y-121058767D01*
X129196785Y-121058766D01*
X129042441Y-120980125D01*
X129042438Y-120980123D01*
X128877706Y-120926598D01*
X128877702Y-120926597D01*
X128706614Y-120899500D01*
X128706611Y-120899500D01*
X128533389Y-120899500D01*
X128533386Y-120899500D01*
X128362297Y-120926597D01*
X128362293Y-120926598D01*
X128197561Y-120980123D01*
X128197558Y-120980125D01*
X128043214Y-121058766D01*
X127903073Y-121160585D01*
X127780585Y-121283073D01*
X127678766Y-121423214D01*
X127600125Y-121577558D01*
X127600123Y-121577561D01*
X127546598Y-121742293D01*
X127546597Y-121742297D01*
X127519500Y-121913385D01*
X122100500Y-121913385D01*
X122073402Y-121742297D01*
X122073401Y-121742293D01*
X122019876Y-121577561D01*
X122019874Y-121577558D01*
X122019873Y-121577557D01*
X122019873Y-121577555D01*
X121941232Y-121423212D01*
X121839414Y-121283072D01*
X121716928Y-121160586D01*
X121576788Y-121058768D01*
X121576787Y-121058767D01*
X121576785Y-121058766D01*
X121422441Y-120980125D01*
X121422438Y-120980123D01*
X121257706Y-120926598D01*
X121257702Y-120926597D01*
X121086614Y-120899500D01*
X121086611Y-120899500D01*
X120913389Y-120899500D01*
X120913386Y-120899500D01*
X120742297Y-120926597D01*
X120742293Y-120926598D01*
X120577561Y-120980123D01*
X120577558Y-120980125D01*
X120423214Y-121058766D01*
X120283073Y-121160585D01*
X120160585Y-121283073D01*
X120058766Y-121423214D01*
X119980125Y-121577558D01*
X119980123Y-121577561D01*
X119926598Y-121742293D01*
X119926597Y-121742297D01*
X119899500Y-121913385D01*
X118342957Y-121913385D01*
X118459414Y-121796928D01*
X118561232Y-121656788D01*
X118639873Y-121502445D01*
X118639874Y-121502440D01*
X118639876Y-121502438D01*
X118693401Y-121337706D01*
X118693402Y-121337702D01*
X118720500Y-121166614D01*
X118720500Y-120993385D01*
X118693402Y-120822297D01*
X118693401Y-120822293D01*
X118639876Y-120657561D01*
X118639874Y-120657558D01*
X118639873Y-120657557D01*
X118639873Y-120657555D01*
X118561232Y-120503212D01*
X118459414Y-120363072D01*
X118336928Y-120240586D01*
X118196788Y-120138768D01*
X118196787Y-120138767D01*
X118196785Y-120138766D01*
X118042441Y-120060125D01*
X118042438Y-120060123D01*
X117877706Y-120006598D01*
X117877702Y-120006597D01*
X117706614Y-119979500D01*
X117706611Y-119979500D01*
X117533389Y-119979500D01*
X117533386Y-119979500D01*
X117362297Y-120006597D01*
X117362293Y-120006598D01*
X117197561Y-120060123D01*
X117197558Y-120060125D01*
X117043214Y-120138766D01*
X116903073Y-120240585D01*
X116780585Y-120363073D01*
X116678766Y-120503214D01*
X116600125Y-120657558D01*
X116600123Y-120657561D01*
X116546598Y-120822293D01*
X116546597Y-120822297D01*
X116519500Y-120993385D01*
X100500000Y-120993385D01*
X100500000Y-118453385D01*
X108899500Y-118453385D01*
X108899500Y-118626614D01*
X108926597Y-118797702D01*
X108926598Y-118797706D01*
X108980123Y-118962438D01*
X108980125Y-118962441D01*
X109052493Y-119104474D01*
X109058768Y-119116788D01*
X109160586Y-119256928D01*
X109283072Y-119379414D01*
X109423212Y-119481232D01*
X109577555Y-119559873D01*
X109577557Y-119559873D01*
X109577558Y-119559874D01*
X109577561Y-119559876D01*
X109742293Y-119613401D01*
X109742297Y-119613402D01*
X109913386Y-119640500D01*
X109913389Y-119640500D01*
X110086614Y-119640500D01*
X110257702Y-119613402D01*
X110257706Y-119613401D01*
X110422438Y-119559876D01*
X110422440Y-119559874D01*
X110422445Y-119559873D01*
X110576788Y-119481232D01*
X110716928Y-119379414D01*
X110839414Y-119256928D01*
X110941232Y-119116788D01*
X111019873Y-118962445D01*
X111019874Y-118962440D01*
X111019876Y-118962438D01*
X111073401Y-118797706D01*
X111073402Y-118797702D01*
X111100500Y-118626614D01*
X111100500Y-118453385D01*
X116519500Y-118453385D01*
X116519500Y-118626614D01*
X116546597Y-118797702D01*
X116546598Y-118797706D01*
X116600123Y-118962438D01*
X116600125Y-118962441D01*
X116672493Y-119104474D01*
X116678768Y-119116788D01*
X116780586Y-119256928D01*
X116903072Y-119379414D01*
X117043212Y-119481232D01*
X117197555Y-119559873D01*
X117197557Y-119559873D01*
X117197558Y-119559874D01*
X117197561Y-119559876D01*
X117362293Y-119613401D01*
X117362297Y-119613402D01*
X117533386Y-119640500D01*
X117533389Y-119640500D01*
X117706614Y-119640500D01*
X117877702Y-119613402D01*
X117877706Y-119613401D01*
X118042438Y-119559876D01*
X118042440Y-119559874D01*
X118042445Y-119559873D01*
X118196788Y-119481232D01*
X118336928Y-119379414D01*
X118459414Y-119256928D01*
X118561232Y-119116788D01*
X118639873Y-118962445D01*
X118639874Y-118962440D01*
X118639876Y-118962438D01*
X118693401Y-118797706D01*
X118693402Y-118797702D01*
X118720500Y-118626614D01*
X118720500Y-118453385D01*
X118693402Y-118282297D01*
X118693401Y-118282293D01*
X118639876Y-118117561D01*
X118639874Y-118117558D01*
X118639873Y-118117557D01*
X118639873Y-118117555D01*
X118561232Y-117963212D01*
X118459414Y-117823072D01*
X118336928Y-117700586D01*
X118196788Y-117598768D01*
X118196787Y-117598767D01*
X118196785Y-117598766D01*
X118042441Y-117520125D01*
X118042438Y-117520123D01*
X117877706Y-117466598D01*
X117877702Y-117466597D01*
X117706614Y-117439500D01*
X117706611Y-117439500D01*
X117533389Y-117439500D01*
X117533386Y-117439500D01*
X117362297Y-117466597D01*
X117362293Y-117466598D01*
X117197561Y-117520123D01*
X117197558Y-117520125D01*
X117043214Y-117598766D01*
X116903073Y-117700585D01*
X116780585Y-117823073D01*
X116678766Y-117963214D01*
X116600125Y-118117558D01*
X116600123Y-118117561D01*
X116546598Y-118282293D01*
X116546597Y-118282297D01*
X116519500Y-118453385D01*
X111100500Y-118453385D01*
X111073402Y-118282297D01*
X111073401Y-118282293D01*
X111019876Y-118117561D01*
X111019874Y-118117558D01*
X111019873Y-118117557D01*
X111019873Y-118117555D01*
X110941232Y-117963212D01*
X110839414Y-117823072D01*
X110716928Y-117700586D01*
X110576788Y-117598768D01*
X110576787Y-117598767D01*
X110576785Y-117598766D01*
X110422441Y-117520125D01*
X110422438Y-117520123D01*
X110257706Y-117466598D01*
X110257702Y-117466597D01*
X110086614Y-117439500D01*
X110086611Y-117439500D01*
X109913389Y-117439500D01*
X109913386Y-117439500D01*
X109742297Y-117466597D01*
X109742293Y-117466598D01*
X109577561Y-117520123D01*
X109577558Y-117520125D01*
X109423214Y-117598766D01*
X109283073Y-117700585D01*
X109160585Y-117823073D01*
X109058766Y-117963214D01*
X108980125Y-118117558D01*
X108980123Y-118117561D01*
X108926598Y-118282293D01*
X108926597Y-118282297D01*
X108899500Y-118453385D01*
X100500000Y-118453385D01*
X100500000Y-115406893D01*
X108899500Y-115406893D01*
X108899500Y-116593106D01*
X108910123Y-116681565D01*
X108965637Y-116822339D01*
X108965638Y-116822341D01*
X108965639Y-116822342D01*
X109057078Y-116942922D01*
X109177658Y-117034361D01*
X109177659Y-117034361D01*
X109177660Y-117034362D01*
X109218581Y-117050499D01*
X109318436Y-117089877D01*
X109406898Y-117100500D01*
X109406900Y-117100500D01*
X110593100Y-117100500D01*
X110593102Y-117100500D01*
X110681564Y-117089877D01*
X110822342Y-117034361D01*
X110942922Y-116942922D01*
X111034361Y-116822342D01*
X111089877Y-116681564D01*
X111100500Y-116593102D01*
X111100500Y-115896532D01*
X119949500Y-115896532D01*
X119949500Y-116103467D01*
X119989869Y-116306418D01*
X120069058Y-116497597D01*
X120132871Y-116593100D01*
X120184023Y-116669655D01*
X120330345Y-116815977D01*
X120502402Y-116930941D01*
X120693580Y-117010130D01*
X120896535Y-117050500D01*
X120896536Y-117050500D01*
X121103464Y-117050500D01*
X121103465Y-117050500D01*
X121306420Y-117010130D01*
X121497598Y-116930941D01*
X121669655Y-116815977D01*
X121815977Y-116669655D01*
X121930941Y-116497598D01*
X122010130Y-116306420D01*
X122050500Y-116103465D01*
X122050500Y-115913385D01*
X132899500Y-115913385D01*
X132899500Y-116086614D01*
X132926597Y-116257702D01*
X132926598Y-116257706D01*
X132980123Y-116422438D01*
X132980125Y-116422441D01*
X133018418Y-116497597D01*
X133058768Y-116576788D01*
X133160586Y-116716928D01*
X133283072Y-116839414D01*
X133423212Y-116941232D01*
X133577555Y-117019873D01*
X133577557Y-117019873D01*
X133577558Y-117019874D01*
X133577561Y-117019876D01*
X133742293Y-117073401D01*
X133742297Y-117073402D01*
X133913386Y-117100500D01*
X133913389Y-117100500D01*
X134086614Y-117100500D01*
X134257702Y-117073402D01*
X134257706Y-117073401D01*
X134422438Y-117019876D01*
X134422440Y-117019874D01*
X134422445Y-117019873D01*
X134576788Y-116941232D01*
X134716928Y-116839414D01*
X134839414Y-116716928D01*
X134941232Y-116576788D01*
X135019873Y-116422445D01*
X135019874Y-116422440D01*
X135019876Y-116422438D01*
X135073401Y-116257706D01*
X135073402Y-116257702D01*
X135100500Y-116086614D01*
X135100500Y-115913385D01*
X135073402Y-115742297D01*
X135073401Y-115742293D01*
X135019876Y-115577561D01*
X135019874Y-115577558D01*
X135019873Y-115577557D01*
X135019873Y-115577555D01*
X134941232Y-115423212D01*
X134929376Y-115406893D01*
X140519500Y-115406893D01*
X140519500Y-116593106D01*
X140530123Y-116681565D01*
X140585637Y-116822339D01*
X140585638Y-116822341D01*
X140585639Y-116822342D01*
X140677078Y-116942922D01*
X140797658Y-117034361D01*
X140797659Y-117034361D01*
X140797660Y-117034362D01*
X140838581Y-117050499D01*
X140938436Y-117089877D01*
X141026898Y-117100500D01*
X141026900Y-117100500D01*
X142213100Y-117100500D01*
X142213102Y-117100500D01*
X142301564Y-117089877D01*
X142442342Y-117034361D01*
X142562922Y-116942922D01*
X142654361Y-116822342D01*
X142709877Y-116681564D01*
X142720500Y-116593102D01*
X142720500Y-115913385D01*
X144899500Y-115913385D01*
X144899500Y-116086614D01*
X144926597Y-116257702D01*
X144926598Y-116257706D01*
X144980123Y-116422438D01*
X144980125Y-116422441D01*
X145018418Y-116497597D01*
X145058768Y-116576788D01*
X145160586Y-116716928D01*
X145283072Y-116839414D01*
X145423212Y-116941232D01*
X145577555Y-117019873D01*
X145577557Y-117019873D01*
X145577558Y-117019874D01*
X145577561Y-117019876D01*
X145742293Y-117073401D01*
X145742297Y-117073402D01*
X145913386Y-117100500D01*
X145913389Y-117100500D01*
X146086614Y-117100500D01*
X146257702Y-117073402D01*
X146257706Y-117073401D01*
X146422438Y-117019876D01*
X146422440Y-117019874D01*
X146422445Y-117019873D01*
X146576788Y-116941232D01*
X146716928Y-116839414D01*
X146839414Y-116716928D01*
X146941232Y-116576788D01*
X147019873Y-116422445D01*
X147019874Y-116422440D01*
X147019876Y-116422438D01*
X147073401Y-116257706D01*
X147073402Y-116257702D01*
X147100500Y-116086614D01*
X147100500Y-115913385D01*
X152519500Y-115913385D01*
X152519500Y-116086614D01*
X152546597Y-116257702D01*
X152546598Y-116257706D01*
X152600123Y-116422438D01*
X152600125Y-116422441D01*
X152638418Y-116497597D01*
X152678768Y-116576788D01*
X152780586Y-116716928D01*
X152903072Y-116839414D01*
X153043212Y-116941232D01*
X153197555Y-117019873D01*
X153197557Y-117019873D01*
X153197558Y-117019874D01*
X153197561Y-117019876D01*
X153362293Y-117073401D01*
X153362297Y-117073402D01*
X153533386Y-117100500D01*
X153533389Y-117100500D01*
X153706614Y-117100500D01*
X153877702Y-117073402D01*
X153877706Y-117073401D01*
X154042438Y-117019876D01*
X154042440Y-117019874D01*
X154042445Y-117019873D01*
X154196788Y-116941232D01*
X154336928Y-116839414D01*
X154459414Y-116716928D01*
X154561232Y-116576788D01*
X154639873Y-116422445D01*
X154639874Y-116422440D01*
X154639876Y-116422438D01*
X154693401Y-116257706D01*
X154693402Y-116257702D01*
X154720500Y-116086614D01*
X154720500Y-115913387D01*
X154719982Y-115910118D01*
X154719982Y-115910116D01*
X154719981Y-115910112D01*
X154718298Y-115899486D01*
X160979500Y-115899486D01*
X160979500Y-116100513D01*
X161018717Y-116297668D01*
X161018717Y-116297670D01*
X161095642Y-116483385D01*
X161095642Y-116483386D01*
X161207325Y-116650530D01*
X161207326Y-116650531D01*
X161349469Y-116792674D01*
X161516612Y-116904356D01*
X161702331Y-116981283D01*
X161899489Y-117020500D01*
X161899490Y-117020500D01*
X162100510Y-117020500D01*
X162100511Y-117020500D01*
X162297669Y-116981283D01*
X162483388Y-116904356D01*
X162650531Y-116792674D01*
X162792674Y-116650531D01*
X162904356Y-116483388D01*
X162981283Y-116297669D01*
X163020500Y-116100511D01*
X163020500Y-115899489D01*
X163020499Y-115899486D01*
X163519500Y-115899486D01*
X163519500Y-116100513D01*
X163558717Y-116297668D01*
X163558717Y-116297670D01*
X163635642Y-116483385D01*
X163635642Y-116483386D01*
X163747325Y-116650530D01*
X163747326Y-116650531D01*
X163889469Y-116792674D01*
X164056612Y-116904356D01*
X164242331Y-116981283D01*
X164439489Y-117020500D01*
X164439490Y-117020500D01*
X164640510Y-117020500D01*
X164640511Y-117020500D01*
X164837669Y-116981283D01*
X165023388Y-116904356D01*
X165190531Y-116792674D01*
X165332674Y-116650531D01*
X165444356Y-116483388D01*
X165521283Y-116297669D01*
X165560500Y-116100511D01*
X165560500Y-115899489D01*
X165560499Y-115899486D01*
X166059500Y-115899486D01*
X166059500Y-116100513D01*
X166098717Y-116297668D01*
X166098717Y-116297670D01*
X166175642Y-116483385D01*
X166175642Y-116483386D01*
X166287325Y-116650530D01*
X166287326Y-116650531D01*
X166429469Y-116792674D01*
X166596612Y-116904356D01*
X166782331Y-116981283D01*
X166979489Y-117020500D01*
X166979490Y-117020500D01*
X167180510Y-117020500D01*
X167180511Y-117020500D01*
X167377669Y-116981283D01*
X167563388Y-116904356D01*
X167730531Y-116792674D01*
X167872674Y-116650531D01*
X167984356Y-116483388D01*
X168061283Y-116297669D01*
X168100500Y-116100511D01*
X168100500Y-115899489D01*
X168061283Y-115702331D01*
X167984357Y-115516614D01*
X167984357Y-115516613D01*
X167872674Y-115349469D01*
X167730530Y-115207325D01*
X167563385Y-115095642D01*
X167377669Y-115018717D01*
X167180513Y-114979500D01*
X167180511Y-114979500D01*
X166979489Y-114979500D01*
X166979486Y-114979500D01*
X166782331Y-115018717D01*
X166782329Y-115018717D01*
X166596614Y-115095642D01*
X166596613Y-115095642D01*
X166429469Y-115207325D01*
X166287325Y-115349469D01*
X166175642Y-115516613D01*
X166175642Y-115516614D01*
X166098717Y-115702329D01*
X166098717Y-115702331D01*
X166059500Y-115899486D01*
X165560499Y-115899486D01*
X165521283Y-115702331D01*
X165444357Y-115516614D01*
X165444357Y-115516613D01*
X165332674Y-115349469D01*
X165190530Y-115207325D01*
X165023385Y-115095642D01*
X164837669Y-115018717D01*
X164640513Y-114979500D01*
X164640511Y-114979500D01*
X164439489Y-114979500D01*
X164439486Y-114979500D01*
X164242331Y-115018717D01*
X164242329Y-115018717D01*
X164056614Y-115095642D01*
X164056613Y-115095642D01*
X163889469Y-115207325D01*
X163747325Y-115349469D01*
X163635642Y-115516613D01*
X163635642Y-115516614D01*
X163558717Y-115702329D01*
X163558717Y-115702331D01*
X163519500Y-115899486D01*
X163020499Y-115899486D01*
X162981283Y-115702331D01*
X162904357Y-115516614D01*
X162904357Y-115516613D01*
X162792674Y-115349469D01*
X162650530Y-115207325D01*
X162483385Y-115095642D01*
X162297669Y-115018717D01*
X162100513Y-114979500D01*
X162100511Y-114979500D01*
X161899489Y-114979500D01*
X161899486Y-114979500D01*
X161702331Y-115018717D01*
X161702329Y-115018717D01*
X161516614Y-115095642D01*
X161516613Y-115095642D01*
X161349469Y-115207325D01*
X161207325Y-115349469D01*
X161095642Y-115516613D01*
X161095642Y-115516614D01*
X161018717Y-115702329D01*
X161018717Y-115702331D01*
X160979500Y-115899486D01*
X154718298Y-115899486D01*
X154693402Y-115742297D01*
X154693401Y-115742293D01*
X154639876Y-115577561D01*
X154639874Y-115577558D01*
X154639873Y-115577557D01*
X154639873Y-115577555D01*
X154561232Y-115423212D01*
X154459414Y-115283072D01*
X154336928Y-115160586D01*
X154196788Y-115058768D01*
X154196787Y-115058767D01*
X154196785Y-115058766D01*
X154042441Y-114980125D01*
X154042438Y-114980123D01*
X153877706Y-114926598D01*
X153877702Y-114926597D01*
X153706614Y-114899500D01*
X153706611Y-114899500D01*
X153533389Y-114899500D01*
X153533386Y-114899500D01*
X153362297Y-114926597D01*
X153362293Y-114926598D01*
X153197561Y-114980123D01*
X153197558Y-114980125D01*
X153043214Y-115058766D01*
X152903073Y-115160585D01*
X152780585Y-115283073D01*
X152678766Y-115423214D01*
X152600125Y-115577558D01*
X152600123Y-115577561D01*
X152546598Y-115742293D01*
X152546597Y-115742297D01*
X152519500Y-115913385D01*
X147100500Y-115913385D01*
X147073402Y-115742297D01*
X147073401Y-115742293D01*
X147019876Y-115577561D01*
X147019874Y-115577558D01*
X147019873Y-115577557D01*
X147019873Y-115577555D01*
X146941232Y-115423212D01*
X146839414Y-115283072D01*
X146716928Y-115160586D01*
X146576788Y-115058768D01*
X146576787Y-115058767D01*
X146576785Y-115058766D01*
X146422441Y-114980125D01*
X146422438Y-114980123D01*
X146257706Y-114926598D01*
X146257702Y-114926597D01*
X146086614Y-114899500D01*
X146086611Y-114899500D01*
X145913389Y-114899500D01*
X145913386Y-114899500D01*
X145742297Y-114926597D01*
X145742293Y-114926598D01*
X145577561Y-114980123D01*
X145577558Y-114980125D01*
X145423214Y-115058766D01*
X145283073Y-115160585D01*
X145160585Y-115283073D01*
X145058766Y-115423214D01*
X144980125Y-115577558D01*
X144980123Y-115577561D01*
X144926598Y-115742293D01*
X144926597Y-115742297D01*
X144899500Y-115913385D01*
X142720500Y-115913385D01*
X142720500Y-115406898D01*
X142709877Y-115318436D01*
X142654361Y-115177658D01*
X142562922Y-115057078D01*
X142442342Y-114965639D01*
X142442341Y-114965638D01*
X142442339Y-114965637D01*
X142301565Y-114910123D01*
X142213106Y-114899500D01*
X142213102Y-114899500D01*
X141026898Y-114899500D01*
X141026893Y-114899500D01*
X140938434Y-114910123D01*
X140797660Y-114965637D01*
X140797656Y-114965640D01*
X140677081Y-115057075D01*
X140677075Y-115057081D01*
X140585640Y-115177656D01*
X140585637Y-115177660D01*
X140530123Y-115318434D01*
X140519500Y-115406893D01*
X134929376Y-115406893D01*
X134839414Y-115283072D01*
X134716928Y-115160586D01*
X134576788Y-115058768D01*
X134576787Y-115058767D01*
X134576785Y-115058766D01*
X134422441Y-114980125D01*
X134422438Y-114980123D01*
X134257706Y-114926598D01*
X134257702Y-114926597D01*
X134086614Y-114899500D01*
X134086611Y-114899500D01*
X133913389Y-114899500D01*
X133913386Y-114899500D01*
X133742297Y-114926597D01*
X133742293Y-114926598D01*
X133577561Y-114980123D01*
X133577558Y-114980125D01*
X133423214Y-115058766D01*
X133283073Y-115160585D01*
X133160585Y-115283073D01*
X133058766Y-115423214D01*
X132980125Y-115577558D01*
X132980123Y-115577561D01*
X132926598Y-115742293D01*
X132926597Y-115742297D01*
X132899500Y-115913385D01*
X122050500Y-115913385D01*
X122050500Y-115896535D01*
X122010130Y-115693580D01*
X121930941Y-115502402D01*
X121815977Y-115330345D01*
X121669655Y-115184023D01*
X121669651Y-115184020D01*
X121497597Y-115069058D01*
X121306418Y-114989869D01*
X121103467Y-114949500D01*
X121103465Y-114949500D01*
X120896535Y-114949500D01*
X120896532Y-114949500D01*
X120693581Y-114989869D01*
X120502402Y-115069058D01*
X120330348Y-115184020D01*
X120184020Y-115330348D01*
X120069058Y-115502402D01*
X119989869Y-115693581D01*
X119949500Y-115896532D01*
X111100500Y-115896532D01*
X111100500Y-115406898D01*
X111089877Y-115318436D01*
X111034361Y-115177658D01*
X110942922Y-115057078D01*
X110822342Y-114965639D01*
X110822341Y-114965638D01*
X110822339Y-114965637D01*
X110681565Y-114910123D01*
X110593106Y-114899500D01*
X110593102Y-114899500D01*
X109406898Y-114899500D01*
X109406893Y-114899500D01*
X109318434Y-114910123D01*
X109177660Y-114965637D01*
X109177656Y-114965640D01*
X109057081Y-115057075D01*
X109057075Y-115057081D01*
X108965640Y-115177656D01*
X108965637Y-115177660D01*
X108910123Y-115318434D01*
X108899500Y-115406893D01*
X100500000Y-115406893D01*
X100500000Y-109913385D01*
X113899500Y-109913385D01*
X113899500Y-110086614D01*
X113926597Y-110257702D01*
X113926598Y-110257706D01*
X113980123Y-110422438D01*
X113980125Y-110422441D01*
X113980126Y-110422444D01*
X113980127Y-110422445D01*
X114058768Y-110576788D01*
X114160586Y-110716928D01*
X114283072Y-110839414D01*
X114423212Y-110941232D01*
X114577555Y-111019873D01*
X114577557Y-111019873D01*
X114577558Y-111019874D01*
X114577561Y-111019876D01*
X114742293Y-111073401D01*
X114742297Y-111073402D01*
X114913386Y-111100500D01*
X114913389Y-111100500D01*
X115086614Y-111100500D01*
X115257702Y-111073402D01*
X115257706Y-111073401D01*
X115422438Y-111019876D01*
X115422440Y-111019874D01*
X115422445Y-111019873D01*
X115576788Y-110941232D01*
X115716928Y-110839414D01*
X115839414Y-110716928D01*
X115941232Y-110576788D01*
X116019873Y-110422445D01*
X116019874Y-110422440D01*
X116019876Y-110422438D01*
X116073401Y-110257706D01*
X116073402Y-110257702D01*
X116100500Y-110086614D01*
X116100500Y-109913385D01*
X137899500Y-109913385D01*
X137899500Y-110086614D01*
X137926597Y-110257702D01*
X137926598Y-110257706D01*
X137980123Y-110422438D01*
X137980125Y-110422441D01*
X137980126Y-110422444D01*
X137980127Y-110422445D01*
X138058768Y-110576788D01*
X138160586Y-110716928D01*
X138283072Y-110839414D01*
X138423212Y-110941232D01*
X138577555Y-111019873D01*
X138577557Y-111019873D01*
X138577558Y-111019874D01*
X138577561Y-111019876D01*
X138742293Y-111073401D01*
X138742297Y-111073402D01*
X138913386Y-111100500D01*
X138913389Y-111100500D01*
X139086614Y-111100500D01*
X139257702Y-111073402D01*
X139257706Y-111073401D01*
X139422438Y-111019876D01*
X139422440Y-111019874D01*
X139422445Y-111019873D01*
X139576788Y-110941232D01*
X139716928Y-110839414D01*
X139839414Y-110716928D01*
X139941232Y-110576788D01*
X140019873Y-110422445D01*
X140019874Y-110422440D01*
X140019876Y-110422438D01*
X140073401Y-110257706D01*
X140073402Y-110257702D01*
X140100500Y-110086614D01*
X140100500Y-109913385D01*
X144899500Y-109913385D01*
X144899500Y-110086614D01*
X144926597Y-110257702D01*
X144926598Y-110257706D01*
X144980123Y-110422438D01*
X144980125Y-110422441D01*
X144980126Y-110422444D01*
X144980127Y-110422445D01*
X145058768Y-110576788D01*
X145160586Y-110716928D01*
X145283072Y-110839414D01*
X145423212Y-110941232D01*
X145577555Y-111019873D01*
X145577557Y-111019873D01*
X145577558Y-111019874D01*
X145577561Y-111019876D01*
X145742293Y-111073401D01*
X145742297Y-111073402D01*
X145913386Y-111100500D01*
X145913389Y-111100500D01*
X146086614Y-111100500D01*
X146257702Y-111073402D01*
X146257706Y-111073401D01*
X146422438Y-111019876D01*
X146422440Y-111019874D01*
X146422445Y-111019873D01*
X146576788Y-110941232D01*
X146716928Y-110839414D01*
X146839414Y-110716928D01*
X146941232Y-110576788D01*
X147019873Y-110422445D01*
X147019874Y-110422440D01*
X147019876Y-110422438D01*
X147073401Y-110257706D01*
X147073402Y-110257702D01*
X147100500Y-110086614D01*
X147100500Y-109913385D01*
X152519500Y-109913385D01*
X152519500Y-110086614D01*
X152546597Y-110257702D01*
X152546598Y-110257706D01*
X152600123Y-110422438D01*
X152600125Y-110422441D01*
X152600126Y-110422444D01*
X152600127Y-110422445D01*
X152678768Y-110576788D01*
X152780586Y-110716928D01*
X152903072Y-110839414D01*
X153043212Y-110941232D01*
X153197555Y-111019873D01*
X153197557Y-111019873D01*
X153197558Y-111019874D01*
X153197561Y-111019876D01*
X153362293Y-111073401D01*
X153362297Y-111073402D01*
X153533386Y-111100500D01*
X153533389Y-111100500D01*
X153706614Y-111100500D01*
X153877702Y-111073402D01*
X153877706Y-111073401D01*
X154042438Y-111019876D01*
X154042440Y-111019874D01*
X154042445Y-111019873D01*
X154196788Y-110941232D01*
X154336928Y-110839414D01*
X154459414Y-110716928D01*
X154561232Y-110576788D01*
X154639873Y-110422445D01*
X154639874Y-110422440D01*
X154639876Y-110422438D01*
X154693401Y-110257706D01*
X154693402Y-110257702D01*
X154720500Y-110086614D01*
X154720500Y-109913385D01*
X154693402Y-109742297D01*
X154693401Y-109742293D01*
X154639876Y-109577561D01*
X154639874Y-109577558D01*
X154639873Y-109577557D01*
X154639873Y-109577555D01*
X154561232Y-109423212D01*
X154459414Y-109283072D01*
X154336928Y-109160586D01*
X154196788Y-109058768D01*
X154196787Y-109058767D01*
X154196785Y-109058766D01*
X154042441Y-108980125D01*
X154042438Y-108980123D01*
X153877706Y-108926598D01*
X153877702Y-108926597D01*
X153706614Y-108899500D01*
X153706611Y-108899500D01*
X153533389Y-108899500D01*
X153533386Y-108899500D01*
X153362297Y-108926597D01*
X153362293Y-108926598D01*
X153197561Y-108980123D01*
X153197558Y-108980125D01*
X153043214Y-109058766D01*
X152903073Y-109160585D01*
X152780585Y-109283073D01*
X152678766Y-109423214D01*
X152600125Y-109577558D01*
X152600123Y-109577561D01*
X152546598Y-109742293D01*
X152546597Y-109742297D01*
X152519500Y-109913385D01*
X147100500Y-109913385D01*
X147073402Y-109742297D01*
X147073401Y-109742293D01*
X147019876Y-109577561D01*
X147019874Y-109577558D01*
X147019873Y-109577557D01*
X147019873Y-109577555D01*
X146941232Y-109423212D01*
X146839414Y-109283072D01*
X146716928Y-109160586D01*
X146576788Y-109058768D01*
X146576787Y-109058767D01*
X146576785Y-109058766D01*
X146422441Y-108980125D01*
X146422438Y-108980123D01*
X146257706Y-108926598D01*
X146257702Y-108926597D01*
X146086614Y-108899500D01*
X146086611Y-108899500D01*
X145913389Y-108899500D01*
X145913386Y-108899500D01*
X145742297Y-108926597D01*
X145742293Y-108926598D01*
X145577561Y-108980123D01*
X145577558Y-108980125D01*
X145423214Y-109058766D01*
X145283073Y-109160585D01*
X145160585Y-109283073D01*
X145058766Y-109423214D01*
X144980125Y-109577558D01*
X144980123Y-109577561D01*
X144926598Y-109742293D01*
X144926597Y-109742297D01*
X144899500Y-109913385D01*
X140100500Y-109913385D01*
X140073402Y-109742297D01*
X140073401Y-109742293D01*
X140019876Y-109577561D01*
X140019874Y-109577558D01*
X140019873Y-109577557D01*
X140019873Y-109577555D01*
X139941232Y-109423212D01*
X139839414Y-109283072D01*
X139716928Y-109160586D01*
X139576788Y-109058768D01*
X139576787Y-109058767D01*
X139576785Y-109058766D01*
X139422441Y-108980125D01*
X139422438Y-108980123D01*
X139257706Y-108926598D01*
X139257702Y-108926597D01*
X139086614Y-108899500D01*
X139086611Y-108899500D01*
X138913389Y-108899500D01*
X138913386Y-108899500D01*
X138742297Y-108926597D01*
X138742293Y-108926598D01*
X138577561Y-108980123D01*
X138577558Y-108980125D01*
X138423214Y-109058766D01*
X138283073Y-109160585D01*
X138160585Y-109283073D01*
X138058766Y-109423214D01*
X137980125Y-109577558D01*
X137980123Y-109577561D01*
X137926598Y-109742293D01*
X137926597Y-109742297D01*
X137899500Y-109913385D01*
X116100500Y-109913385D01*
X116073402Y-109742297D01*
X116073401Y-109742293D01*
X116019876Y-109577561D01*
X116019874Y-109577558D01*
X116019873Y-109577557D01*
X116019873Y-109577555D01*
X115941232Y-109423212D01*
X115839414Y-109283072D01*
X115716928Y-109160586D01*
X115576788Y-109058768D01*
X115576787Y-109058767D01*
X115576785Y-109058766D01*
X115422441Y-108980125D01*
X115422438Y-108980123D01*
X115257706Y-108926598D01*
X115257702Y-108926597D01*
X115086614Y-108899500D01*
X115086611Y-108899500D01*
X114913389Y-108899500D01*
X114913386Y-108899500D01*
X114742297Y-108926597D01*
X114742293Y-108926598D01*
X114577561Y-108980123D01*
X114577558Y-108980125D01*
X114423214Y-109058766D01*
X114283073Y-109160585D01*
X114160585Y-109283073D01*
X114058766Y-109423214D01*
X113980125Y-109577558D01*
X113980123Y-109577561D01*
X113926598Y-109742293D01*
X113926597Y-109742297D01*
X113899500Y-109913385D01*
X100500000Y-109913385D01*
X100500000Y-100599000D01*
X100518907Y-100540809D01*
X100568407Y-100504845D01*
X100599000Y-100500000D01*
X174401000Y-100500000D01*
X174459191Y-100518907D01*
G37*
%TD.AperFunction*%
%TD*%
M02*
