%TF.GenerationSoftware,KiCad,Pcbnew,10.0.4*%
%TF.CreationDate,2026-08-28T22:29:12-04:00*%
%TF.ProjectId,photomarker-tht,70686f74-6f6d-4617-926b-65722d746874,rev?*%
%TF.SameCoordinates,Original*%
%TF.FileFunction,Legend,Top*%
%TF.FilePolarity,Positive*%
%FSLAX46Y46*%
G04 Gerber Fmt 4.6, Leading zero omitted, Abs format (unit mm)*
G04 Created by KiCad (PCBNEW 10.0.4) date 2026-08-28 22:29:12*
%MOMM*%
%LPD*%
G01*
G04 APERTURE LIST*
%ADD10C,0.150000*%
%ADD11C,0.183333*%
%ADD12C,0.199999*%
%ADD13C,0.120000*%
G04 APERTURE END LIST*
D10*
X111610000Y-119810000D02*
X112810000Y-119810000D01*
X113810000Y-117610000D02*
X113810000Y-118810000D01*
X113810000Y-120810000D02*
X113810000Y-122009999D01*
X114810000Y-119810000D02*
X116010000Y-119810000D01*
X110226428Y-112493557D02*
X110226428Y-113222128D01*
X110226428Y-113222128D02*
X110269285Y-113307842D01*
X110269285Y-113307842D02*
X110312143Y-113350700D01*
X110312143Y-113350700D02*
X110397857Y-113393557D01*
X110397857Y-113393557D02*
X110569285Y-113393557D01*
X110569285Y-113393557D02*
X110655000Y-113350700D01*
X110655000Y-113350700D02*
X110697857Y-113307842D01*
X110697857Y-113307842D02*
X110740714Y-113222128D01*
X110740714Y-113222128D02*
X110740714Y-112493557D01*
X111640714Y-113393557D02*
X111126428Y-113393557D01*
X111383571Y-113393557D02*
X111383571Y-112493557D01*
X111383571Y-112493557D02*
X111297857Y-112622128D01*
X111297857Y-112622128D02*
X111212142Y-112707842D01*
X111212142Y-112707842D02*
X111126428Y-112750700D01*
X112883571Y-112493557D02*
X113054999Y-112493557D01*
X113054999Y-112493557D02*
X113140714Y-112536414D01*
X113140714Y-112536414D02*
X113226428Y-112622128D01*
X113226428Y-112622128D02*
X113269285Y-112793557D01*
X113269285Y-112793557D02*
X113269285Y-113093557D01*
X113269285Y-113093557D02*
X113226428Y-113264985D01*
X113226428Y-113264985D02*
X113140714Y-113350700D01*
X113140714Y-113350700D02*
X113054999Y-113393557D01*
X113054999Y-113393557D02*
X112883571Y-113393557D01*
X112883571Y-113393557D02*
X112797857Y-113350700D01*
X112797857Y-113350700D02*
X112712142Y-113264985D01*
X112712142Y-113264985D02*
X112669285Y-113093557D01*
X112669285Y-113093557D02*
X112669285Y-112793557D01*
X112669285Y-112793557D02*
X112712142Y-112622128D01*
X112712142Y-112622128D02*
X112797857Y-112536414D01*
X112797857Y-112536414D02*
X112883571Y-112493557D01*
X113654999Y-113393557D02*
X113654999Y-112493557D01*
X113654999Y-112493557D02*
X113997856Y-112493557D01*
X113997856Y-112493557D02*
X114083571Y-112536414D01*
X114083571Y-112536414D02*
X114126428Y-112579271D01*
X114126428Y-112579271D02*
X114169285Y-112664985D01*
X114169285Y-112664985D02*
X114169285Y-112793557D01*
X114169285Y-112793557D02*
X114126428Y-112879271D01*
X114126428Y-112879271D02*
X114083571Y-112922128D01*
X114083571Y-112922128D02*
X113997856Y-112964985D01*
X113997856Y-112964985D02*
X113654999Y-112964985D01*
X114426428Y-112493557D02*
X114940714Y-112493557D01*
X114683571Y-113393557D02*
X114683571Y-112493557D01*
X115712142Y-113393557D02*
X115197856Y-113393557D01*
X115454999Y-113393557D02*
X115454999Y-112493557D01*
X115454999Y-112493557D02*
X115369285Y-112622128D01*
X115369285Y-112622128D02*
X115283570Y-112707842D01*
X115283570Y-112707842D02*
X115197856Y-112750700D01*
X116269285Y-112493557D02*
X116354999Y-112493557D01*
X116354999Y-112493557D02*
X116440713Y-112536414D01*
X116440713Y-112536414D02*
X116483571Y-112579271D01*
X116483571Y-112579271D02*
X116526428Y-112664985D01*
X116526428Y-112664985D02*
X116569285Y-112836414D01*
X116569285Y-112836414D02*
X116569285Y-113050700D01*
X116569285Y-113050700D02*
X116526428Y-113222128D01*
X116526428Y-113222128D02*
X116483571Y-113307842D01*
X116483571Y-113307842D02*
X116440713Y-113350700D01*
X116440713Y-113350700D02*
X116354999Y-113393557D01*
X116354999Y-113393557D02*
X116269285Y-113393557D01*
X116269285Y-113393557D02*
X116183571Y-113350700D01*
X116183571Y-113350700D02*
X116140713Y-113307842D01*
X116140713Y-113307842D02*
X116097856Y-113222128D01*
X116097856Y-113222128D02*
X116054999Y-113050700D01*
X116054999Y-113050700D02*
X116054999Y-112836414D01*
X116054999Y-112836414D02*
X116097856Y-112664985D01*
X116097856Y-112664985D02*
X116140713Y-112579271D01*
X116140713Y-112579271D02*
X116183571Y-112536414D01*
X116183571Y-112536414D02*
X116269285Y-112493557D01*
X117426428Y-113393557D02*
X116912142Y-113393557D01*
X117169285Y-113393557D02*
X117169285Y-112493557D01*
X117169285Y-112493557D02*
X117083571Y-112622128D01*
X117083571Y-112622128D02*
X116997856Y-112707842D01*
X116997856Y-112707842D02*
X116912142Y-112750700D01*
X118213032Y-130762307D02*
X118727318Y-130762307D01*
X118470175Y-131662307D02*
X118470175Y-130762307D01*
X119027317Y-131662307D02*
X119027317Y-130762307D01*
X119027317Y-130762307D02*
X119370174Y-130762307D01*
X119370174Y-130762307D02*
X119455889Y-130805164D01*
X119455889Y-130805164D02*
X119498746Y-130848021D01*
X119498746Y-130848021D02*
X119541603Y-130933735D01*
X119541603Y-130933735D02*
X119541603Y-131062307D01*
X119541603Y-131062307D02*
X119498746Y-131148021D01*
X119498746Y-131148021D02*
X119455889Y-131190878D01*
X119455889Y-131190878D02*
X119370174Y-131233735D01*
X119370174Y-131233735D02*
X119027317Y-131233735D01*
X119884460Y-130848021D02*
X119927317Y-130805164D01*
X119927317Y-130805164D02*
X120013032Y-130762307D01*
X120013032Y-130762307D02*
X120227317Y-130762307D01*
X120227317Y-130762307D02*
X120313032Y-130805164D01*
X120313032Y-130805164D02*
X120355889Y-130848021D01*
X120355889Y-130848021D02*
X120398746Y-130933735D01*
X120398746Y-130933735D02*
X120398746Y-131019450D01*
X120398746Y-131019450D02*
X120355889Y-131148021D01*
X120355889Y-131148021D02*
X119841603Y-131662307D01*
X119841603Y-131662307D02*
X120398746Y-131662307D01*
X121770174Y-131190878D02*
X121470174Y-131190878D01*
X121470174Y-131662307D02*
X121470174Y-130762307D01*
X121470174Y-130762307D02*
X121898746Y-130762307D01*
X122241603Y-131662307D02*
X122241603Y-130762307D01*
X123098746Y-131662307D02*
X122670174Y-131662307D01*
X122670174Y-131662307D02*
X122670174Y-130762307D01*
X123270174Y-130762307D02*
X123784460Y-130762307D01*
X123527317Y-131662307D02*
X123527317Y-130762307D01*
X123128572Y-115808557D02*
X123642858Y-115808557D01*
X123385715Y-116708557D02*
X123385715Y-115808557D01*
X123942857Y-116708557D02*
X123942857Y-115808557D01*
X123942857Y-115808557D02*
X124285714Y-115808557D01*
X124285714Y-115808557D02*
X124371429Y-115851414D01*
X124371429Y-115851414D02*
X124414286Y-115894271D01*
X124414286Y-115894271D02*
X124457143Y-115979985D01*
X124457143Y-115979985D02*
X124457143Y-116108557D01*
X124457143Y-116108557D02*
X124414286Y-116194271D01*
X124414286Y-116194271D02*
X124371429Y-116237128D01*
X124371429Y-116237128D02*
X124285714Y-116279985D01*
X124285714Y-116279985D02*
X123942857Y-116279985D01*
X125314286Y-116708557D02*
X124800000Y-116708557D01*
X125057143Y-116708557D02*
X125057143Y-115808557D01*
X125057143Y-115808557D02*
X124971429Y-115937128D01*
X124971429Y-115937128D02*
X124885714Y-116022842D01*
X124885714Y-116022842D02*
X124800000Y-116065700D01*
X126557143Y-115808557D02*
X126728571Y-115808557D01*
X126728571Y-115808557D02*
X126814286Y-115851414D01*
X126814286Y-115851414D02*
X126900000Y-115937128D01*
X126900000Y-115937128D02*
X126942857Y-116108557D01*
X126942857Y-116108557D02*
X126942857Y-116408557D01*
X126942857Y-116408557D02*
X126900000Y-116579985D01*
X126900000Y-116579985D02*
X126814286Y-116665700D01*
X126814286Y-116665700D02*
X126728571Y-116708557D01*
X126728571Y-116708557D02*
X126557143Y-116708557D01*
X126557143Y-116708557D02*
X126471429Y-116665700D01*
X126471429Y-116665700D02*
X126385714Y-116579985D01*
X126385714Y-116579985D02*
X126342857Y-116408557D01*
X126342857Y-116408557D02*
X126342857Y-116108557D01*
X126342857Y-116108557D02*
X126385714Y-115937128D01*
X126385714Y-115937128D02*
X126471429Y-115851414D01*
X126471429Y-115851414D02*
X126557143Y-115808557D01*
X127328571Y-116708557D02*
X127328571Y-115808557D01*
X127328571Y-115808557D02*
X127671428Y-115808557D01*
X127671428Y-115808557D02*
X127757143Y-115851414D01*
X127757143Y-115851414D02*
X127800000Y-115894271D01*
X127800000Y-115894271D02*
X127842857Y-115979985D01*
X127842857Y-115979985D02*
X127842857Y-116108557D01*
X127842857Y-116108557D02*
X127800000Y-116194271D01*
X127800000Y-116194271D02*
X127757143Y-116237128D01*
X127757143Y-116237128D02*
X127671428Y-116279985D01*
X127671428Y-116279985D02*
X127328571Y-116279985D01*
X128100000Y-115808557D02*
X128614286Y-115808557D01*
X128357143Y-116708557D02*
X128357143Y-115808557D01*
X128700000Y-116794271D02*
X129385714Y-116794271D01*
X129771428Y-115808557D02*
X129942856Y-115808557D01*
X129942856Y-115808557D02*
X130028571Y-115851414D01*
X130028571Y-115851414D02*
X130114285Y-115937128D01*
X130114285Y-115937128D02*
X130157142Y-116108557D01*
X130157142Y-116108557D02*
X130157142Y-116408557D01*
X130157142Y-116408557D02*
X130114285Y-116579985D01*
X130114285Y-116579985D02*
X130028571Y-116665700D01*
X130028571Y-116665700D02*
X129942856Y-116708557D01*
X129942856Y-116708557D02*
X129771428Y-116708557D01*
X129771428Y-116708557D02*
X129685714Y-116665700D01*
X129685714Y-116665700D02*
X129599999Y-116579985D01*
X129599999Y-116579985D02*
X129557142Y-116408557D01*
X129557142Y-116408557D02*
X129557142Y-116108557D01*
X129557142Y-116108557D02*
X129599999Y-115937128D01*
X129599999Y-115937128D02*
X129685714Y-115851414D01*
X129685714Y-115851414D02*
X129771428Y-115808557D01*
X130542856Y-115808557D02*
X130542856Y-116537128D01*
X130542856Y-116537128D02*
X130585713Y-116622842D01*
X130585713Y-116622842D02*
X130628571Y-116665700D01*
X130628571Y-116665700D02*
X130714285Y-116708557D01*
X130714285Y-116708557D02*
X130885713Y-116708557D01*
X130885713Y-116708557D02*
X130971428Y-116665700D01*
X130971428Y-116665700D02*
X131014285Y-116622842D01*
X131014285Y-116622842D02*
X131057142Y-116537128D01*
X131057142Y-116537128D02*
X131057142Y-115808557D01*
X131357142Y-115808557D02*
X131871428Y-115808557D01*
X131614285Y-116708557D02*
X131614285Y-115808557D01*
X122328570Y-105165700D02*
X122414284Y-105208557D01*
X122414284Y-105208557D02*
X122585713Y-105208557D01*
X122585713Y-105208557D02*
X122671427Y-105165700D01*
X122671427Y-105165700D02*
X122714284Y-105079985D01*
X122714284Y-105079985D02*
X122714284Y-105037128D01*
X122714284Y-105037128D02*
X122671427Y-104951414D01*
X122671427Y-104951414D02*
X122585713Y-104908557D01*
X122585713Y-104908557D02*
X122457142Y-104908557D01*
X122457142Y-104908557D02*
X122371427Y-104865700D01*
X122371427Y-104865700D02*
X122328570Y-104779985D01*
X122328570Y-104779985D02*
X122328570Y-104737128D01*
X122328570Y-104737128D02*
X122371427Y-104651414D01*
X122371427Y-104651414D02*
X122457142Y-104608557D01*
X122457142Y-104608557D02*
X122585713Y-104608557D01*
X122585713Y-104608557D02*
X122671427Y-104651414D01*
X122971427Y-104608557D02*
X123314284Y-104608557D01*
X123099998Y-104308557D02*
X123099998Y-105079985D01*
X123099998Y-105079985D02*
X123142855Y-105165700D01*
X123142855Y-105165700D02*
X123228570Y-105208557D01*
X123228570Y-105208557D02*
X123314284Y-105208557D01*
X123614284Y-105208557D02*
X123614284Y-104608557D01*
X123614284Y-104308557D02*
X123571427Y-104351414D01*
X123571427Y-104351414D02*
X123614284Y-104394271D01*
X123614284Y-104394271D02*
X123657141Y-104351414D01*
X123657141Y-104351414D02*
X123614284Y-104308557D01*
X123614284Y-104308557D02*
X123614284Y-104394271D01*
X124042855Y-105208557D02*
X124042855Y-104608557D01*
X124042855Y-104694271D02*
X124085712Y-104651414D01*
X124085712Y-104651414D02*
X124171427Y-104608557D01*
X124171427Y-104608557D02*
X124299998Y-104608557D01*
X124299998Y-104608557D02*
X124385712Y-104651414D01*
X124385712Y-104651414D02*
X124428570Y-104737128D01*
X124428570Y-104737128D02*
X124428570Y-105208557D01*
X124428570Y-104737128D02*
X124471427Y-104651414D01*
X124471427Y-104651414D02*
X124557141Y-104608557D01*
X124557141Y-104608557D02*
X124685712Y-104608557D01*
X124685712Y-104608557D02*
X124771427Y-104651414D01*
X124771427Y-104651414D02*
X124814284Y-104737128D01*
X124814284Y-104737128D02*
X124814284Y-105208557D01*
X125628570Y-104608557D02*
X125628570Y-105208557D01*
X125242855Y-104608557D02*
X125242855Y-105079985D01*
X125242855Y-105079985D02*
X125285712Y-105165700D01*
X125285712Y-105165700D02*
X125371427Y-105208557D01*
X125371427Y-105208557D02*
X125499998Y-105208557D01*
X125499998Y-105208557D02*
X125585712Y-105165700D01*
X125585712Y-105165700D02*
X125628570Y-105122842D01*
X126185713Y-105208557D02*
X126099998Y-105165700D01*
X126099998Y-105165700D02*
X126057141Y-105079985D01*
X126057141Y-105079985D02*
X126057141Y-104308557D01*
X126914285Y-104608557D02*
X126914285Y-105208557D01*
X126528570Y-104608557D02*
X126528570Y-105079985D01*
X126528570Y-105079985D02*
X126571427Y-105165700D01*
X126571427Y-105165700D02*
X126657142Y-105208557D01*
X126657142Y-105208557D02*
X126785713Y-105208557D01*
X126785713Y-105208557D02*
X126871427Y-105165700D01*
X126871427Y-105165700D02*
X126914285Y-105122842D01*
X127299999Y-105165700D02*
X127385713Y-105208557D01*
X127385713Y-105208557D02*
X127557142Y-105208557D01*
X127557142Y-105208557D02*
X127642856Y-105165700D01*
X127642856Y-105165700D02*
X127685713Y-105079985D01*
X127685713Y-105079985D02*
X127685713Y-105037128D01*
X127685713Y-105037128D02*
X127642856Y-104951414D01*
X127642856Y-104951414D02*
X127557142Y-104908557D01*
X127557142Y-104908557D02*
X127428571Y-104908557D01*
X127428571Y-104908557D02*
X127342856Y-104865700D01*
X127342856Y-104865700D02*
X127299999Y-104779985D01*
X127299999Y-104779985D02*
X127299999Y-104737128D01*
X127299999Y-104737128D02*
X127342856Y-104651414D01*
X127342856Y-104651414D02*
X127428571Y-104608557D01*
X127428571Y-104608557D02*
X127557142Y-104608557D01*
X127557142Y-104608557D02*
X127642856Y-104651414D01*
X128885713Y-105208557D02*
X128799998Y-105165700D01*
X128799998Y-105165700D02*
X128757141Y-105122842D01*
X128757141Y-105122842D02*
X128714284Y-105037128D01*
X128714284Y-105037128D02*
X128714284Y-104779985D01*
X128714284Y-104779985D02*
X128757141Y-104694271D01*
X128757141Y-104694271D02*
X128799998Y-104651414D01*
X128799998Y-104651414D02*
X128885713Y-104608557D01*
X128885713Y-104608557D02*
X129014284Y-104608557D01*
X129014284Y-104608557D02*
X129099998Y-104651414D01*
X129099998Y-104651414D02*
X129142856Y-104694271D01*
X129142856Y-104694271D02*
X129185713Y-104779985D01*
X129185713Y-104779985D02*
X129185713Y-105037128D01*
X129185713Y-105037128D02*
X129142856Y-105122842D01*
X129142856Y-105122842D02*
X129099998Y-105165700D01*
X129099998Y-105165700D02*
X129014284Y-105208557D01*
X129014284Y-105208557D02*
X128885713Y-105208557D01*
X129571427Y-104608557D02*
X129571427Y-105208557D01*
X129571427Y-104694271D02*
X129614284Y-104651414D01*
X129614284Y-104651414D02*
X129699999Y-104608557D01*
X129699999Y-104608557D02*
X129828570Y-104608557D01*
X129828570Y-104608557D02*
X129914284Y-104651414D01*
X129914284Y-104651414D02*
X129957142Y-104737128D01*
X129957142Y-104737128D02*
X129957142Y-105208557D01*
X130342856Y-105165700D02*
X130428570Y-105208557D01*
X130428570Y-105208557D02*
X130599999Y-105208557D01*
X130599999Y-105208557D02*
X130685713Y-105165700D01*
X130685713Y-105165700D02*
X130728570Y-105079985D01*
X130728570Y-105079985D02*
X130728570Y-105037128D01*
X130728570Y-105037128D02*
X130685713Y-104951414D01*
X130685713Y-104951414D02*
X130599999Y-104908557D01*
X130599999Y-104908557D02*
X130471428Y-104908557D01*
X130471428Y-104908557D02*
X130385713Y-104865700D01*
X130385713Y-104865700D02*
X130342856Y-104779985D01*
X130342856Y-104779985D02*
X130342856Y-104737128D01*
X130342856Y-104737128D02*
X130385713Y-104651414D01*
X130385713Y-104651414D02*
X130471428Y-104608557D01*
X130471428Y-104608557D02*
X130599999Y-104608557D01*
X130599999Y-104608557D02*
X130685713Y-104651414D01*
X131457141Y-105165700D02*
X131371427Y-105208557D01*
X131371427Y-105208557D02*
X131199999Y-105208557D01*
X131199999Y-105208557D02*
X131114284Y-105165700D01*
X131114284Y-105165700D02*
X131071427Y-105079985D01*
X131071427Y-105079985D02*
X131071427Y-104737128D01*
X131071427Y-104737128D02*
X131114284Y-104651414D01*
X131114284Y-104651414D02*
X131199999Y-104608557D01*
X131199999Y-104608557D02*
X131371427Y-104608557D01*
X131371427Y-104608557D02*
X131457141Y-104651414D01*
X131457141Y-104651414D02*
X131499999Y-104737128D01*
X131499999Y-104737128D02*
X131499999Y-104822842D01*
X131499999Y-104822842D02*
X131071427Y-104908557D01*
X131757142Y-104608557D02*
X132099999Y-104608557D01*
X131885713Y-104308557D02*
X131885713Y-105079985D01*
X131885713Y-105079985D02*
X131928570Y-105165700D01*
X131928570Y-105165700D02*
X132014285Y-105208557D01*
X132014285Y-105208557D02*
X132099999Y-105208557D01*
X135142855Y-105208557D02*
X135142855Y-104608557D01*
X135142855Y-104779985D02*
X135185712Y-104694271D01*
X135185712Y-104694271D02*
X135228570Y-104651414D01*
X135228570Y-104651414D02*
X135314284Y-104608557D01*
X135314284Y-104608557D02*
X135399998Y-104608557D01*
X136042855Y-105165700D02*
X135957141Y-105208557D01*
X135957141Y-105208557D02*
X135785713Y-105208557D01*
X135785713Y-105208557D02*
X135699998Y-105165700D01*
X135699998Y-105165700D02*
X135657141Y-105079985D01*
X135657141Y-105079985D02*
X135657141Y-104737128D01*
X135657141Y-104737128D02*
X135699998Y-104651414D01*
X135699998Y-104651414D02*
X135785713Y-104608557D01*
X135785713Y-104608557D02*
X135957141Y-104608557D01*
X135957141Y-104608557D02*
X136042855Y-104651414D01*
X136042855Y-104651414D02*
X136085713Y-104737128D01*
X136085713Y-104737128D02*
X136085713Y-104822842D01*
X136085713Y-104822842D02*
X135657141Y-104908557D01*
X136385713Y-104608557D02*
X136599999Y-105208557D01*
X136599999Y-105208557D02*
X136814284Y-104608557D01*
X138142855Y-104737128D02*
X138271427Y-104779985D01*
X138271427Y-104779985D02*
X138314284Y-104822842D01*
X138314284Y-104822842D02*
X138357141Y-104908557D01*
X138357141Y-104908557D02*
X138357141Y-105037128D01*
X138357141Y-105037128D02*
X138314284Y-105122842D01*
X138314284Y-105122842D02*
X138271427Y-105165700D01*
X138271427Y-105165700D02*
X138185712Y-105208557D01*
X138185712Y-105208557D02*
X137842855Y-105208557D01*
X137842855Y-105208557D02*
X137842855Y-104308557D01*
X137842855Y-104308557D02*
X138142855Y-104308557D01*
X138142855Y-104308557D02*
X138228570Y-104351414D01*
X138228570Y-104351414D02*
X138271427Y-104394271D01*
X138271427Y-104394271D02*
X138314284Y-104479985D01*
X138314284Y-104479985D02*
X138314284Y-104565700D01*
X138314284Y-104565700D02*
X138271427Y-104651414D01*
X138271427Y-104651414D02*
X138228570Y-104694271D01*
X138228570Y-104694271D02*
X138142855Y-104737128D01*
X138142855Y-104737128D02*
X137842855Y-104737128D01*
X141871426Y-105208557D02*
X141871426Y-104737128D01*
X141871426Y-104737128D02*
X141828568Y-104651414D01*
X141828568Y-104651414D02*
X141742854Y-104608557D01*
X141742854Y-104608557D02*
X141571426Y-104608557D01*
X141571426Y-104608557D02*
X141485711Y-104651414D01*
X141871426Y-105165700D02*
X141785711Y-105208557D01*
X141785711Y-105208557D02*
X141571426Y-105208557D01*
X141571426Y-105208557D02*
X141485711Y-105165700D01*
X141485711Y-105165700D02*
X141442854Y-105079985D01*
X141442854Y-105079985D02*
X141442854Y-104994271D01*
X141442854Y-104994271D02*
X141485711Y-104908557D01*
X141485711Y-104908557D02*
X141571426Y-104865700D01*
X141571426Y-104865700D02*
X141785711Y-104865700D01*
X141785711Y-104865700D02*
X141871426Y-104822842D01*
X142428569Y-105208557D02*
X142342854Y-105165700D01*
X142342854Y-105165700D02*
X142299997Y-105079985D01*
X142299997Y-105079985D02*
X142299997Y-104308557D01*
X142899998Y-105208557D02*
X142814283Y-105165700D01*
X142814283Y-105165700D02*
X142771426Y-105079985D01*
X142771426Y-105079985D02*
X142771426Y-104308557D01*
X143799998Y-104608557D02*
X144142855Y-104608557D01*
X143928569Y-104308557D02*
X143928569Y-105079985D01*
X143928569Y-105079985D02*
X143971426Y-105165700D01*
X143971426Y-105165700D02*
X144057141Y-105208557D01*
X144057141Y-105208557D02*
X144142855Y-105208557D01*
X144442855Y-105208557D02*
X144442855Y-104308557D01*
X144828570Y-105208557D02*
X144828570Y-104737128D01*
X144828570Y-104737128D02*
X144785712Y-104651414D01*
X144785712Y-104651414D02*
X144699998Y-104608557D01*
X144699998Y-104608557D02*
X144571427Y-104608557D01*
X144571427Y-104608557D02*
X144485712Y-104651414D01*
X144485712Y-104651414D02*
X144442855Y-104694271D01*
X145257141Y-105208557D02*
X145257141Y-104608557D01*
X145257141Y-104779985D02*
X145299998Y-104694271D01*
X145299998Y-104694271D02*
X145342856Y-104651414D01*
X145342856Y-104651414D02*
X145428570Y-104608557D01*
X145428570Y-104608557D02*
X145514284Y-104608557D01*
X145942856Y-105208557D02*
X145857141Y-105165700D01*
X145857141Y-105165700D02*
X145814284Y-105122842D01*
X145814284Y-105122842D02*
X145771427Y-105037128D01*
X145771427Y-105037128D02*
X145771427Y-104779985D01*
X145771427Y-104779985D02*
X145814284Y-104694271D01*
X145814284Y-104694271D02*
X145857141Y-104651414D01*
X145857141Y-104651414D02*
X145942856Y-104608557D01*
X145942856Y-104608557D02*
X146071427Y-104608557D01*
X146071427Y-104608557D02*
X146157141Y-104651414D01*
X146157141Y-104651414D02*
X146199999Y-104694271D01*
X146199999Y-104694271D02*
X146242856Y-104779985D01*
X146242856Y-104779985D02*
X146242856Y-105037128D01*
X146242856Y-105037128D02*
X146199999Y-105122842D01*
X146199999Y-105122842D02*
X146157141Y-105165700D01*
X146157141Y-105165700D02*
X146071427Y-105208557D01*
X146071427Y-105208557D02*
X145942856Y-105208557D01*
X147014285Y-104608557D02*
X147014285Y-105208557D01*
X146628570Y-104608557D02*
X146628570Y-105079985D01*
X146628570Y-105079985D02*
X146671427Y-105165700D01*
X146671427Y-105165700D02*
X146757142Y-105208557D01*
X146757142Y-105208557D02*
X146885713Y-105208557D01*
X146885713Y-105208557D02*
X146971427Y-105165700D01*
X146971427Y-105165700D02*
X147014285Y-105122842D01*
X147828571Y-104608557D02*
X147828571Y-105337128D01*
X147828571Y-105337128D02*
X147785713Y-105422842D01*
X147785713Y-105422842D02*
X147742856Y-105465700D01*
X147742856Y-105465700D02*
X147657142Y-105508557D01*
X147657142Y-105508557D02*
X147528571Y-105508557D01*
X147528571Y-105508557D02*
X147442856Y-105465700D01*
X147828571Y-105165700D02*
X147742856Y-105208557D01*
X147742856Y-105208557D02*
X147571428Y-105208557D01*
X147571428Y-105208557D02*
X147485713Y-105165700D01*
X147485713Y-105165700D02*
X147442856Y-105122842D01*
X147442856Y-105122842D02*
X147399999Y-105037128D01*
X147399999Y-105037128D02*
X147399999Y-104779985D01*
X147399999Y-104779985D02*
X147442856Y-104694271D01*
X147442856Y-104694271D02*
X147485713Y-104651414D01*
X147485713Y-104651414D02*
X147571428Y-104608557D01*
X147571428Y-104608557D02*
X147742856Y-104608557D01*
X147742856Y-104608557D02*
X147828571Y-104651414D01*
X148257142Y-105208557D02*
X148257142Y-104308557D01*
X148642857Y-105208557D02*
X148642857Y-104737128D01*
X148642857Y-104737128D02*
X148599999Y-104651414D01*
X148599999Y-104651414D02*
X148514285Y-104608557D01*
X148514285Y-104608557D02*
X148385714Y-104608557D01*
X148385714Y-104608557D02*
X148299999Y-104651414D01*
X148299999Y-104651414D02*
X148257142Y-104694271D01*
X149071428Y-104865700D02*
X149757143Y-104865700D01*
X150185714Y-105208557D02*
X150185714Y-104308557D01*
X150571429Y-105208557D02*
X150571429Y-104737128D01*
X150571429Y-104737128D02*
X150528571Y-104651414D01*
X150528571Y-104651414D02*
X150442857Y-104608557D01*
X150442857Y-104608557D02*
X150314286Y-104608557D01*
X150314286Y-104608557D02*
X150228571Y-104651414D01*
X150228571Y-104651414D02*
X150185714Y-104694271D01*
X151128572Y-105208557D02*
X151042857Y-105165700D01*
X151042857Y-105165700D02*
X151000000Y-105122842D01*
X151000000Y-105122842D02*
X150957143Y-105037128D01*
X150957143Y-105037128D02*
X150957143Y-104779985D01*
X150957143Y-104779985D02*
X151000000Y-104694271D01*
X151000000Y-104694271D02*
X151042857Y-104651414D01*
X151042857Y-104651414D02*
X151128572Y-104608557D01*
X151128572Y-104608557D02*
X151257143Y-104608557D01*
X151257143Y-104608557D02*
X151342857Y-104651414D01*
X151342857Y-104651414D02*
X151385715Y-104694271D01*
X151385715Y-104694271D02*
X151428572Y-104779985D01*
X151428572Y-104779985D02*
X151428572Y-105037128D01*
X151428572Y-105037128D02*
X151385715Y-105122842D01*
X151385715Y-105122842D02*
X151342857Y-105165700D01*
X151342857Y-105165700D02*
X151257143Y-105208557D01*
X151257143Y-105208557D02*
X151128572Y-105208557D01*
X151942858Y-105208557D02*
X151857143Y-105165700D01*
X151857143Y-105165700D02*
X151814286Y-105079985D01*
X151814286Y-105079985D02*
X151814286Y-104308557D01*
X152628572Y-105165700D02*
X152542858Y-105208557D01*
X152542858Y-105208557D02*
X152371430Y-105208557D01*
X152371430Y-105208557D02*
X152285715Y-105165700D01*
X152285715Y-105165700D02*
X152242858Y-105079985D01*
X152242858Y-105079985D02*
X152242858Y-104737128D01*
X152242858Y-104737128D02*
X152285715Y-104651414D01*
X152285715Y-104651414D02*
X152371430Y-104608557D01*
X152371430Y-104608557D02*
X152542858Y-104608557D01*
X152542858Y-104608557D02*
X152628572Y-104651414D01*
X152628572Y-104651414D02*
X152671430Y-104737128D01*
X152671430Y-104737128D02*
X152671430Y-104822842D01*
X152671430Y-104822842D02*
X152242858Y-104908557D01*
X157950000Y-123808557D02*
X158464286Y-123808557D01*
X158207143Y-124708557D02*
X158207143Y-123808557D01*
X158764285Y-124708557D02*
X158764285Y-123808557D01*
X158764285Y-123808557D02*
X159107142Y-123808557D01*
X159107142Y-123808557D02*
X159192857Y-123851414D01*
X159192857Y-123851414D02*
X159235714Y-123894271D01*
X159235714Y-123894271D02*
X159278571Y-123979985D01*
X159278571Y-123979985D02*
X159278571Y-124108557D01*
X159278571Y-124108557D02*
X159235714Y-124194271D01*
X159235714Y-124194271D02*
X159192857Y-124237128D01*
X159192857Y-124237128D02*
X159107142Y-124279985D01*
X159107142Y-124279985D02*
X158764285Y-124279985D01*
X159578571Y-123808557D02*
X160135714Y-123808557D01*
X160135714Y-123808557D02*
X159835714Y-124151414D01*
X159835714Y-124151414D02*
X159964285Y-124151414D01*
X159964285Y-124151414D02*
X160050000Y-124194271D01*
X160050000Y-124194271D02*
X160092857Y-124237128D01*
X160092857Y-124237128D02*
X160135714Y-124322842D01*
X160135714Y-124322842D02*
X160135714Y-124537128D01*
X160135714Y-124537128D02*
X160092857Y-124622842D01*
X160092857Y-124622842D02*
X160050000Y-124665700D01*
X160050000Y-124665700D02*
X159964285Y-124708557D01*
X159964285Y-124708557D02*
X159707142Y-124708557D01*
X159707142Y-124708557D02*
X159621428Y-124665700D01*
X159621428Y-124665700D02*
X159578571Y-124622842D01*
X161078571Y-123808557D02*
X161592857Y-123808557D01*
X161335714Y-124708557D02*
X161335714Y-123808557D01*
X161892856Y-124708557D02*
X161892856Y-123808557D01*
X161892856Y-124237128D02*
X162407142Y-124237128D01*
X162407142Y-124708557D02*
X162407142Y-123808557D01*
X163349999Y-124708557D02*
X163049999Y-124279985D01*
X162835713Y-124708557D02*
X162835713Y-123808557D01*
X162835713Y-123808557D02*
X163178570Y-123808557D01*
X163178570Y-123808557D02*
X163264285Y-123851414D01*
X163264285Y-123851414D02*
X163307142Y-123894271D01*
X163307142Y-123894271D02*
X163349999Y-123979985D01*
X163349999Y-123979985D02*
X163349999Y-124108557D01*
X163349999Y-124108557D02*
X163307142Y-124194271D01*
X163307142Y-124194271D02*
X163264285Y-124237128D01*
X163264285Y-124237128D02*
X163178570Y-124279985D01*
X163178570Y-124279985D02*
X162835713Y-124279985D01*
X163735713Y-124237128D02*
X164035713Y-124237128D01*
X164164285Y-124708557D02*
X163735713Y-124708557D01*
X163735713Y-124708557D02*
X163735713Y-123808557D01*
X163735713Y-123808557D02*
X164164285Y-123808557D01*
X164507142Y-124665700D02*
X164635714Y-124708557D01*
X164635714Y-124708557D02*
X164849999Y-124708557D01*
X164849999Y-124708557D02*
X164935714Y-124665700D01*
X164935714Y-124665700D02*
X164978571Y-124622842D01*
X164978571Y-124622842D02*
X165021428Y-124537128D01*
X165021428Y-124537128D02*
X165021428Y-124451414D01*
X165021428Y-124451414D02*
X164978571Y-124365700D01*
X164978571Y-124365700D02*
X164935714Y-124322842D01*
X164935714Y-124322842D02*
X164849999Y-124279985D01*
X164849999Y-124279985D02*
X164678571Y-124237128D01*
X164678571Y-124237128D02*
X164592856Y-124194271D01*
X164592856Y-124194271D02*
X164549999Y-124151414D01*
X164549999Y-124151414D02*
X164507142Y-124065700D01*
X164507142Y-124065700D02*
X164507142Y-123979985D01*
X164507142Y-123979985D02*
X164549999Y-123894271D01*
X164549999Y-123894271D02*
X164592856Y-123851414D01*
X164592856Y-123851414D02*
X164678571Y-123808557D01*
X164678571Y-123808557D02*
X164892856Y-123808557D01*
X164892856Y-123808557D02*
X165021428Y-123851414D01*
X165407142Y-124708557D02*
X165407142Y-123808557D01*
X165407142Y-124237128D02*
X165921428Y-124237128D01*
X165921428Y-124708557D02*
X165921428Y-123808557D01*
X157478572Y-129808557D02*
X157992858Y-129808557D01*
X157735715Y-130708557D02*
X157735715Y-129808557D01*
X158292857Y-130708557D02*
X158292857Y-129808557D01*
X158292857Y-129808557D02*
X158635714Y-129808557D01*
X158635714Y-129808557D02*
X158721429Y-129851414D01*
X158721429Y-129851414D02*
X158764286Y-129894271D01*
X158764286Y-129894271D02*
X158807143Y-129979985D01*
X158807143Y-129979985D02*
X158807143Y-130108557D01*
X158807143Y-130108557D02*
X158764286Y-130194271D01*
X158764286Y-130194271D02*
X158721429Y-130237128D01*
X158721429Y-130237128D02*
X158635714Y-130279985D01*
X158635714Y-130279985D02*
X158292857Y-130279985D01*
X159578572Y-130108557D02*
X159578572Y-130708557D01*
X159364286Y-129765700D02*
X159150000Y-130408557D01*
X159150000Y-130408557D02*
X159707143Y-130408557D01*
X161250000Y-130622842D02*
X161207143Y-130665700D01*
X161207143Y-130665700D02*
X161078571Y-130708557D01*
X161078571Y-130708557D02*
X160992857Y-130708557D01*
X160992857Y-130708557D02*
X160864286Y-130665700D01*
X160864286Y-130665700D02*
X160778571Y-130579985D01*
X160778571Y-130579985D02*
X160735714Y-130494271D01*
X160735714Y-130494271D02*
X160692857Y-130322842D01*
X160692857Y-130322842D02*
X160692857Y-130194271D01*
X160692857Y-130194271D02*
X160735714Y-130022842D01*
X160735714Y-130022842D02*
X160778571Y-129937128D01*
X160778571Y-129937128D02*
X160864286Y-129851414D01*
X160864286Y-129851414D02*
X160992857Y-129808557D01*
X160992857Y-129808557D02*
X161078571Y-129808557D01*
X161078571Y-129808557D02*
X161207143Y-129851414D01*
X161207143Y-129851414D02*
X161250000Y-129894271D01*
X161635714Y-130708557D02*
X161635714Y-129808557D01*
X161635714Y-129808557D02*
X161935714Y-130451414D01*
X161935714Y-130451414D02*
X162235714Y-129808557D01*
X162235714Y-129808557D02*
X162235714Y-130708557D01*
X162664285Y-130708557D02*
X162664285Y-129808557D01*
X162664285Y-129808557D02*
X163007142Y-129808557D01*
X163007142Y-129808557D02*
X163092857Y-129851414D01*
X163092857Y-129851414D02*
X163135714Y-129894271D01*
X163135714Y-129894271D02*
X163178571Y-129979985D01*
X163178571Y-129979985D02*
X163178571Y-130108557D01*
X163178571Y-130108557D02*
X163135714Y-130194271D01*
X163135714Y-130194271D02*
X163092857Y-130237128D01*
X163092857Y-130237128D02*
X163007142Y-130279985D01*
X163007142Y-130279985D02*
X162664285Y-130279985D01*
X163350000Y-130794271D02*
X164035714Y-130794271D01*
X164421428Y-129808557D02*
X164592856Y-129808557D01*
X164592856Y-129808557D02*
X164678571Y-129851414D01*
X164678571Y-129851414D02*
X164764285Y-129937128D01*
X164764285Y-129937128D02*
X164807142Y-130108557D01*
X164807142Y-130108557D02*
X164807142Y-130408557D01*
X164807142Y-130408557D02*
X164764285Y-130579985D01*
X164764285Y-130579985D02*
X164678571Y-130665700D01*
X164678571Y-130665700D02*
X164592856Y-130708557D01*
X164592856Y-130708557D02*
X164421428Y-130708557D01*
X164421428Y-130708557D02*
X164335714Y-130665700D01*
X164335714Y-130665700D02*
X164249999Y-130579985D01*
X164249999Y-130579985D02*
X164207142Y-130408557D01*
X164207142Y-130408557D02*
X164207142Y-130108557D01*
X164207142Y-130108557D02*
X164249999Y-129937128D01*
X164249999Y-129937128D02*
X164335714Y-129851414D01*
X164335714Y-129851414D02*
X164421428Y-129808557D01*
X165192856Y-129808557D02*
X165192856Y-130537128D01*
X165192856Y-130537128D02*
X165235713Y-130622842D01*
X165235713Y-130622842D02*
X165278571Y-130665700D01*
X165278571Y-130665700D02*
X165364285Y-130708557D01*
X165364285Y-130708557D02*
X165535713Y-130708557D01*
X165535713Y-130708557D02*
X165621428Y-130665700D01*
X165621428Y-130665700D02*
X165664285Y-130622842D01*
X165664285Y-130622842D02*
X165707142Y-130537128D01*
X165707142Y-130537128D02*
X165707142Y-129808557D01*
X166007142Y-129808557D02*
X166521428Y-129808557D01*
X166264285Y-130708557D02*
X166264285Y-129808557D01*
X159150000Y-135808557D02*
X159664286Y-135808557D01*
X159407143Y-136708557D02*
X159407143Y-135808557D01*
X159964285Y-136708557D02*
X159964285Y-135808557D01*
X159964285Y-135808557D02*
X160307142Y-135808557D01*
X160307142Y-135808557D02*
X160392857Y-135851414D01*
X160392857Y-135851414D02*
X160435714Y-135894271D01*
X160435714Y-135894271D02*
X160478571Y-135979985D01*
X160478571Y-135979985D02*
X160478571Y-136108557D01*
X160478571Y-136108557D02*
X160435714Y-136194271D01*
X160435714Y-136194271D02*
X160392857Y-136237128D01*
X160392857Y-136237128D02*
X160307142Y-136279985D01*
X160307142Y-136279985D02*
X159964285Y-136279985D01*
X161292857Y-135808557D02*
X160864285Y-135808557D01*
X160864285Y-135808557D02*
X160821428Y-136237128D01*
X160821428Y-136237128D02*
X160864285Y-136194271D01*
X160864285Y-136194271D02*
X160950000Y-136151414D01*
X160950000Y-136151414D02*
X161164285Y-136151414D01*
X161164285Y-136151414D02*
X161250000Y-136194271D01*
X161250000Y-136194271D02*
X161292857Y-136237128D01*
X161292857Y-136237128D02*
X161335714Y-136322842D01*
X161335714Y-136322842D02*
X161335714Y-136537128D01*
X161335714Y-136537128D02*
X161292857Y-136622842D01*
X161292857Y-136622842D02*
X161250000Y-136665700D01*
X161250000Y-136665700D02*
X161164285Y-136708557D01*
X161164285Y-136708557D02*
X160950000Y-136708557D01*
X160950000Y-136708557D02*
X160864285Y-136665700D01*
X160864285Y-136665700D02*
X160821428Y-136622842D01*
X162878571Y-135851414D02*
X162792857Y-135808557D01*
X162792857Y-135808557D02*
X162664285Y-135808557D01*
X162664285Y-135808557D02*
X162535714Y-135851414D01*
X162535714Y-135851414D02*
X162449999Y-135937128D01*
X162449999Y-135937128D02*
X162407142Y-136022842D01*
X162407142Y-136022842D02*
X162364285Y-136194271D01*
X162364285Y-136194271D02*
X162364285Y-136322842D01*
X162364285Y-136322842D02*
X162407142Y-136494271D01*
X162407142Y-136494271D02*
X162449999Y-136579985D01*
X162449999Y-136579985D02*
X162535714Y-136665700D01*
X162535714Y-136665700D02*
X162664285Y-136708557D01*
X162664285Y-136708557D02*
X162749999Y-136708557D01*
X162749999Y-136708557D02*
X162878571Y-136665700D01*
X162878571Y-136665700D02*
X162921428Y-136622842D01*
X162921428Y-136622842D02*
X162921428Y-136322842D01*
X162921428Y-136322842D02*
X162749999Y-136322842D01*
X163307142Y-136708557D02*
X163307142Y-135808557D01*
X163307142Y-135808557D02*
X163821428Y-136708557D01*
X163821428Y-136708557D02*
X163821428Y-135808557D01*
X164249999Y-136708557D02*
X164249999Y-135808557D01*
X164249999Y-135808557D02*
X164464285Y-135808557D01*
X164464285Y-135808557D02*
X164592856Y-135851414D01*
X164592856Y-135851414D02*
X164678571Y-135937128D01*
X164678571Y-135937128D02*
X164721428Y-136022842D01*
X164721428Y-136022842D02*
X164764285Y-136194271D01*
X164764285Y-136194271D02*
X164764285Y-136322842D01*
X164764285Y-136322842D02*
X164721428Y-136494271D01*
X164721428Y-136494271D02*
X164678571Y-136579985D01*
X164678571Y-136579985D02*
X164592856Y-136665700D01*
X164592856Y-136665700D02*
X164464285Y-136708557D01*
X164464285Y-136708557D02*
X164249999Y-136708557D01*
D11*
X125111905Y-152399346D02*
X125740477Y-152399346D01*
X125426191Y-153499346D02*
X125426191Y-152399346D01*
X126107143Y-153499346D02*
X126107143Y-152399346D01*
X126107143Y-152923156D02*
X126735715Y-152923156D01*
X126735715Y-153499346D02*
X126735715Y-152399346D01*
X127259524Y-153499346D02*
X127259524Y-152399346D01*
X127730953Y-153446966D02*
X127888096Y-153499346D01*
X127888096Y-153499346D02*
X128150001Y-153499346D01*
X128150001Y-153499346D02*
X128254763Y-153446966D01*
X128254763Y-153446966D02*
X128307144Y-153394585D01*
X128307144Y-153394585D02*
X128359525Y-153289823D01*
X128359525Y-153289823D02*
X128359525Y-153185061D01*
X128359525Y-153185061D02*
X128307144Y-153080299D01*
X128307144Y-153080299D02*
X128254763Y-153027918D01*
X128254763Y-153027918D02*
X128150001Y-152975537D01*
X128150001Y-152975537D02*
X127940477Y-152923156D01*
X127940477Y-152923156D02*
X127835715Y-152870775D01*
X127835715Y-152870775D02*
X127783334Y-152818394D01*
X127783334Y-152818394D02*
X127730953Y-152713632D01*
X127730953Y-152713632D02*
X127730953Y-152608870D01*
X127730953Y-152608870D02*
X127783334Y-152504108D01*
X127783334Y-152504108D02*
X127835715Y-152451727D01*
X127835715Y-152451727D02*
X127940477Y-152399346D01*
X127940477Y-152399346D02*
X128202382Y-152399346D01*
X128202382Y-152399346D02*
X128359525Y-152451727D01*
X129616667Y-153446966D02*
X129773810Y-153499346D01*
X129773810Y-153499346D02*
X130035715Y-153499346D01*
X130035715Y-153499346D02*
X130140477Y-153446966D01*
X130140477Y-153446966D02*
X130192858Y-153394585D01*
X130192858Y-153394585D02*
X130245239Y-153289823D01*
X130245239Y-153289823D02*
X130245239Y-153185061D01*
X130245239Y-153185061D02*
X130192858Y-153080299D01*
X130192858Y-153080299D02*
X130140477Y-153027918D01*
X130140477Y-153027918D02*
X130035715Y-152975537D01*
X130035715Y-152975537D02*
X129826191Y-152923156D01*
X129826191Y-152923156D02*
X129721429Y-152870775D01*
X129721429Y-152870775D02*
X129669048Y-152818394D01*
X129669048Y-152818394D02*
X129616667Y-152713632D01*
X129616667Y-152713632D02*
X129616667Y-152608870D01*
X129616667Y-152608870D02*
X129669048Y-152504108D01*
X129669048Y-152504108D02*
X129721429Y-152451727D01*
X129721429Y-152451727D02*
X129826191Y-152399346D01*
X129826191Y-152399346D02*
X130088096Y-152399346D01*
X130088096Y-152399346D02*
X130245239Y-152451727D01*
X130716667Y-153499346D02*
X130716667Y-152399346D01*
X131240477Y-153499346D02*
X131240477Y-152399346D01*
X131240477Y-152399346D02*
X131502382Y-152399346D01*
X131502382Y-152399346D02*
X131659525Y-152451727D01*
X131659525Y-152451727D02*
X131764287Y-152556489D01*
X131764287Y-152556489D02*
X131816668Y-152661251D01*
X131816668Y-152661251D02*
X131869049Y-152870775D01*
X131869049Y-152870775D02*
X131869049Y-153027918D01*
X131869049Y-153027918D02*
X131816668Y-153237442D01*
X131816668Y-153237442D02*
X131764287Y-153342204D01*
X131764287Y-153342204D02*
X131659525Y-153446966D01*
X131659525Y-153446966D02*
X131502382Y-153499346D01*
X131502382Y-153499346D02*
X131240477Y-153499346D01*
X132340477Y-152923156D02*
X132707144Y-152923156D01*
X132864287Y-153499346D02*
X132340477Y-153499346D01*
X132340477Y-153499346D02*
X132340477Y-152399346D01*
X132340477Y-152399346D02*
X132864287Y-152399346D01*
X134540477Y-152923156D02*
X134173810Y-152923156D01*
X134173810Y-153499346D02*
X134173810Y-152399346D01*
X134173810Y-152399346D02*
X134697620Y-152399346D01*
X135064286Y-153185061D02*
X135588096Y-153185061D01*
X134959524Y-153499346D02*
X135326191Y-152399346D01*
X135326191Y-152399346D02*
X135692858Y-153499346D01*
X136688096Y-153394585D02*
X136635715Y-153446966D01*
X136635715Y-153446966D02*
X136478572Y-153499346D01*
X136478572Y-153499346D02*
X136373810Y-153499346D01*
X136373810Y-153499346D02*
X136216667Y-153446966D01*
X136216667Y-153446966D02*
X136111905Y-153342204D01*
X136111905Y-153342204D02*
X136059524Y-153237442D01*
X136059524Y-153237442D02*
X136007143Y-153027918D01*
X136007143Y-153027918D02*
X136007143Y-152870775D01*
X136007143Y-152870775D02*
X136059524Y-152661251D01*
X136059524Y-152661251D02*
X136111905Y-152556489D01*
X136111905Y-152556489D02*
X136216667Y-152451727D01*
X136216667Y-152451727D02*
X136373810Y-152399346D01*
X136373810Y-152399346D02*
X136478572Y-152399346D01*
X136478572Y-152399346D02*
X136635715Y-152451727D01*
X136635715Y-152451727D02*
X136688096Y-152504108D01*
X137159524Y-152923156D02*
X137526191Y-152923156D01*
X137683334Y-153499346D02*
X137159524Y-153499346D01*
X137159524Y-153499346D02*
X137159524Y-152399346D01*
X137159524Y-152399346D02*
X137683334Y-152399346D01*
X138102381Y-153446966D02*
X138259524Y-153499346D01*
X138259524Y-153499346D02*
X138521429Y-153499346D01*
X138521429Y-153499346D02*
X138626191Y-153446966D01*
X138626191Y-153446966D02*
X138678572Y-153394585D01*
X138678572Y-153394585D02*
X138730953Y-153289823D01*
X138730953Y-153289823D02*
X138730953Y-153185061D01*
X138730953Y-153185061D02*
X138678572Y-153080299D01*
X138678572Y-153080299D02*
X138626191Y-153027918D01*
X138626191Y-153027918D02*
X138521429Y-152975537D01*
X138521429Y-152975537D02*
X138311905Y-152923156D01*
X138311905Y-152923156D02*
X138207143Y-152870775D01*
X138207143Y-152870775D02*
X138154762Y-152818394D01*
X138154762Y-152818394D02*
X138102381Y-152713632D01*
X138102381Y-152713632D02*
X138102381Y-152608870D01*
X138102381Y-152608870D02*
X138154762Y-152504108D01*
X138154762Y-152504108D02*
X138207143Y-152451727D01*
X138207143Y-152451727D02*
X138311905Y-152399346D01*
X138311905Y-152399346D02*
X138573810Y-152399346D01*
X138573810Y-152399346D02*
X138730953Y-152451727D01*
X139883333Y-152399346D02*
X140511905Y-152399346D01*
X140197619Y-153499346D02*
X140197619Y-152399346D01*
X140878571Y-153499346D02*
X140878571Y-152399346D01*
X140878571Y-152923156D02*
X141507143Y-152923156D01*
X141507143Y-153499346D02*
X141507143Y-152399346D01*
X142030952Y-152923156D02*
X142397619Y-152923156D01*
X142554762Y-153499346D02*
X142030952Y-153499346D01*
X142030952Y-153499346D02*
X142030952Y-152399346D01*
X142030952Y-152399346D02*
X142554762Y-152399346D01*
X143811904Y-153446966D02*
X143969047Y-153499346D01*
X143969047Y-153499346D02*
X144230952Y-153499346D01*
X144230952Y-153499346D02*
X144335714Y-153446966D01*
X144335714Y-153446966D02*
X144388095Y-153394585D01*
X144388095Y-153394585D02*
X144440476Y-153289823D01*
X144440476Y-153289823D02*
X144440476Y-153185061D01*
X144440476Y-153185061D02*
X144388095Y-153080299D01*
X144388095Y-153080299D02*
X144335714Y-153027918D01*
X144335714Y-153027918D02*
X144230952Y-152975537D01*
X144230952Y-152975537D02*
X144021428Y-152923156D01*
X144021428Y-152923156D02*
X143916666Y-152870775D01*
X143916666Y-152870775D02*
X143864285Y-152818394D01*
X143864285Y-152818394D02*
X143811904Y-152713632D01*
X143811904Y-152713632D02*
X143811904Y-152608870D01*
X143811904Y-152608870D02*
X143864285Y-152504108D01*
X143864285Y-152504108D02*
X143916666Y-152451727D01*
X143916666Y-152451727D02*
X144021428Y-152399346D01*
X144021428Y-152399346D02*
X144283333Y-152399346D01*
X144283333Y-152399346D02*
X144440476Y-152451727D01*
X145540476Y-153394585D02*
X145488095Y-153446966D01*
X145488095Y-153446966D02*
X145330952Y-153499346D01*
X145330952Y-153499346D02*
X145226190Y-153499346D01*
X145226190Y-153499346D02*
X145069047Y-153446966D01*
X145069047Y-153446966D02*
X144964285Y-153342204D01*
X144964285Y-153342204D02*
X144911904Y-153237442D01*
X144911904Y-153237442D02*
X144859523Y-153027918D01*
X144859523Y-153027918D02*
X144859523Y-152870775D01*
X144859523Y-152870775D02*
X144911904Y-152661251D01*
X144911904Y-152661251D02*
X144964285Y-152556489D01*
X144964285Y-152556489D02*
X145069047Y-152451727D01*
X145069047Y-152451727D02*
X145226190Y-152399346D01*
X145226190Y-152399346D02*
X145330952Y-152399346D01*
X145330952Y-152399346D02*
X145488095Y-152451727D01*
X145488095Y-152451727D02*
X145540476Y-152504108D01*
X146640476Y-153499346D02*
X146273809Y-152975537D01*
X146011904Y-153499346D02*
X146011904Y-152399346D01*
X146011904Y-152399346D02*
X146430952Y-152399346D01*
X146430952Y-152399346D02*
X146535714Y-152451727D01*
X146535714Y-152451727D02*
X146588095Y-152504108D01*
X146588095Y-152504108D02*
X146640476Y-152608870D01*
X146640476Y-152608870D02*
X146640476Y-152766013D01*
X146640476Y-152766013D02*
X146588095Y-152870775D01*
X146588095Y-152870775D02*
X146535714Y-152923156D01*
X146535714Y-152923156D02*
X146430952Y-152975537D01*
X146430952Y-152975537D02*
X146011904Y-152975537D01*
X147111904Y-152923156D02*
X147478571Y-152923156D01*
X147635714Y-153499346D02*
X147111904Y-153499346D01*
X147111904Y-153499346D02*
X147111904Y-152399346D01*
X147111904Y-152399346D02*
X147635714Y-152399346D01*
X148107142Y-152923156D02*
X148473809Y-152923156D01*
X148630952Y-153499346D02*
X148107142Y-153499346D01*
X148107142Y-153499346D02*
X148107142Y-152399346D01*
X148107142Y-152399346D02*
X148630952Y-152399346D01*
X149102380Y-153499346D02*
X149102380Y-152399346D01*
X149102380Y-152399346D02*
X149730952Y-153499346D01*
X149730952Y-153499346D02*
X149730952Y-152399346D01*
D12*
X121614285Y-102687600D02*
X121785714Y-102744742D01*
X121785714Y-102744742D02*
X122071428Y-102744742D01*
X122071428Y-102744742D02*
X122185714Y-102687600D01*
X122185714Y-102687600D02*
X122242856Y-102630457D01*
X122242856Y-102630457D02*
X122299999Y-102516171D01*
X122299999Y-102516171D02*
X122299999Y-102401885D01*
X122299999Y-102401885D02*
X122242856Y-102287600D01*
X122242856Y-102287600D02*
X122185714Y-102230457D01*
X122185714Y-102230457D02*
X122071428Y-102173314D01*
X122071428Y-102173314D02*
X121842856Y-102116171D01*
X121842856Y-102116171D02*
X121728571Y-102059028D01*
X121728571Y-102059028D02*
X121671428Y-102001885D01*
X121671428Y-102001885D02*
X121614285Y-101887600D01*
X121614285Y-101887600D02*
X121614285Y-101773314D01*
X121614285Y-101773314D02*
X121671428Y-101659028D01*
X121671428Y-101659028D02*
X121728571Y-101601885D01*
X121728571Y-101601885D02*
X121842856Y-101544742D01*
X121842856Y-101544742D02*
X122128571Y-101544742D01*
X122128571Y-101544742D02*
X122299999Y-101601885D01*
X122814285Y-102744742D02*
X122814285Y-101544742D01*
X122814285Y-102116171D02*
X123499999Y-102116171D01*
X123499999Y-102744742D02*
X123499999Y-101544742D01*
X124071428Y-102116171D02*
X124471428Y-102116171D01*
X124642856Y-102744742D02*
X124071428Y-102744742D01*
X124071428Y-102744742D02*
X124071428Y-101544742D01*
X124071428Y-101544742D02*
X124642856Y-101544742D01*
X125157142Y-102744742D02*
X125157142Y-101544742D01*
X125728571Y-102744742D02*
X125728571Y-101544742D01*
X125728571Y-101544742D02*
X126414285Y-102744742D01*
X126414285Y-102744742D02*
X126414285Y-101544742D01*
X127385714Y-102116171D02*
X127557142Y-102173314D01*
X127557142Y-102173314D02*
X127614285Y-102230457D01*
X127614285Y-102230457D02*
X127671428Y-102344742D01*
X127671428Y-102344742D02*
X127671428Y-102516171D01*
X127671428Y-102516171D02*
X127614285Y-102630457D01*
X127614285Y-102630457D02*
X127557142Y-102687600D01*
X127557142Y-102687600D02*
X127442857Y-102744742D01*
X127442857Y-102744742D02*
X126985714Y-102744742D01*
X126985714Y-102744742D02*
X126985714Y-101544742D01*
X126985714Y-101544742D02*
X127385714Y-101544742D01*
X127385714Y-101544742D02*
X127500000Y-101601885D01*
X127500000Y-101601885D02*
X127557142Y-101659028D01*
X127557142Y-101659028D02*
X127614285Y-101773314D01*
X127614285Y-101773314D02*
X127614285Y-101887600D01*
X127614285Y-101887600D02*
X127557142Y-102001885D01*
X127557142Y-102001885D02*
X127500000Y-102059028D01*
X127500000Y-102059028D02*
X127385714Y-102116171D01*
X127385714Y-102116171D02*
X126985714Y-102116171D01*
X128185714Y-102116171D02*
X128585714Y-102116171D01*
X128757142Y-102744742D02*
X128185714Y-102744742D01*
X128185714Y-102744742D02*
X128185714Y-101544742D01*
X128185714Y-101544742D02*
X128757142Y-101544742D01*
X129957142Y-102744742D02*
X129557142Y-102173314D01*
X129271428Y-102744742D02*
X129271428Y-101544742D01*
X129271428Y-101544742D02*
X129728571Y-101544742D01*
X129728571Y-101544742D02*
X129842856Y-101601885D01*
X129842856Y-101601885D02*
X129899999Y-101659028D01*
X129899999Y-101659028D02*
X129957142Y-101773314D01*
X129957142Y-101773314D02*
X129957142Y-101944742D01*
X129957142Y-101944742D02*
X129899999Y-102059028D01*
X129899999Y-102059028D02*
X129842856Y-102116171D01*
X129842856Y-102116171D02*
X129728571Y-102173314D01*
X129728571Y-102173314D02*
X129271428Y-102173314D01*
X131099999Y-101601885D02*
X130985714Y-101544742D01*
X130985714Y-101544742D02*
X130814285Y-101544742D01*
X130814285Y-101544742D02*
X130642856Y-101601885D01*
X130642856Y-101601885D02*
X130528571Y-101716171D01*
X130528571Y-101716171D02*
X130471428Y-101830457D01*
X130471428Y-101830457D02*
X130414285Y-102059028D01*
X130414285Y-102059028D02*
X130414285Y-102230457D01*
X130414285Y-102230457D02*
X130471428Y-102459028D01*
X130471428Y-102459028D02*
X130528571Y-102573314D01*
X130528571Y-102573314D02*
X130642856Y-102687600D01*
X130642856Y-102687600D02*
X130814285Y-102744742D01*
X130814285Y-102744742D02*
X130928571Y-102744742D01*
X130928571Y-102744742D02*
X131099999Y-102687600D01*
X131099999Y-102687600D02*
X131157142Y-102630457D01*
X131157142Y-102630457D02*
X131157142Y-102230457D01*
X131157142Y-102230457D02*
X130928571Y-102230457D01*
X133157142Y-102744742D02*
X132585714Y-102744742D01*
X132585714Y-102744742D02*
X132585714Y-101544742D01*
X133500000Y-102401885D02*
X134071429Y-102401885D01*
X133385714Y-102744742D02*
X133785714Y-101544742D01*
X133785714Y-101544742D02*
X134185714Y-102744742D01*
X134985714Y-102116171D02*
X135157142Y-102173314D01*
X135157142Y-102173314D02*
X135214285Y-102230457D01*
X135214285Y-102230457D02*
X135271428Y-102344742D01*
X135271428Y-102344742D02*
X135271428Y-102516171D01*
X135271428Y-102516171D02*
X135214285Y-102630457D01*
X135214285Y-102630457D02*
X135157142Y-102687600D01*
X135157142Y-102687600D02*
X135042857Y-102744742D01*
X135042857Y-102744742D02*
X134585714Y-102744742D01*
X134585714Y-102744742D02*
X134585714Y-101544742D01*
X134585714Y-101544742D02*
X134985714Y-101544742D01*
X134985714Y-101544742D02*
X135100000Y-101601885D01*
X135100000Y-101601885D02*
X135157142Y-101659028D01*
X135157142Y-101659028D02*
X135214285Y-101773314D01*
X135214285Y-101773314D02*
X135214285Y-101887600D01*
X135214285Y-101887600D02*
X135157142Y-102001885D01*
X135157142Y-102001885D02*
X135100000Y-102059028D01*
X135100000Y-102059028D02*
X134985714Y-102116171D01*
X134985714Y-102116171D02*
X134585714Y-102116171D01*
X137614286Y-102287600D02*
X138528572Y-102287600D01*
X140928572Y-102744742D02*
X140928572Y-101544742D01*
X140928572Y-101544742D02*
X141385715Y-101544742D01*
X141385715Y-101544742D02*
X141500000Y-101601885D01*
X141500000Y-101601885D02*
X141557143Y-101659028D01*
X141557143Y-101659028D02*
X141614286Y-101773314D01*
X141614286Y-101773314D02*
X141614286Y-101944742D01*
X141614286Y-101944742D02*
X141557143Y-102059028D01*
X141557143Y-102059028D02*
X141500000Y-102116171D01*
X141500000Y-102116171D02*
X141385715Y-102173314D01*
X141385715Y-102173314D02*
X140928572Y-102173314D01*
X142128572Y-102744742D02*
X142128572Y-101544742D01*
X142128572Y-102116171D02*
X142814286Y-102116171D01*
X142814286Y-102744742D02*
X142814286Y-101544742D01*
X143614286Y-101544742D02*
X143842858Y-101544742D01*
X143842858Y-101544742D02*
X143957143Y-101601885D01*
X143957143Y-101601885D02*
X144071429Y-101716171D01*
X144071429Y-101716171D02*
X144128572Y-101944742D01*
X144128572Y-101944742D02*
X144128572Y-102344742D01*
X144128572Y-102344742D02*
X144071429Y-102573314D01*
X144071429Y-102573314D02*
X143957143Y-102687600D01*
X143957143Y-102687600D02*
X143842858Y-102744742D01*
X143842858Y-102744742D02*
X143614286Y-102744742D01*
X143614286Y-102744742D02*
X143500001Y-102687600D01*
X143500001Y-102687600D02*
X143385715Y-102573314D01*
X143385715Y-102573314D02*
X143328572Y-102344742D01*
X143328572Y-102344742D02*
X143328572Y-101944742D01*
X143328572Y-101944742D02*
X143385715Y-101716171D01*
X143385715Y-101716171D02*
X143500001Y-101601885D01*
X143500001Y-101601885D02*
X143614286Y-101544742D01*
X144471429Y-101544742D02*
X145157144Y-101544742D01*
X144814286Y-102744742D02*
X144814286Y-101544742D01*
X145785715Y-101544742D02*
X146014287Y-101544742D01*
X146014287Y-101544742D02*
X146128572Y-101601885D01*
X146128572Y-101601885D02*
X146242858Y-101716171D01*
X146242858Y-101716171D02*
X146300001Y-101944742D01*
X146300001Y-101944742D02*
X146300001Y-102344742D01*
X146300001Y-102344742D02*
X146242858Y-102573314D01*
X146242858Y-102573314D02*
X146128572Y-102687600D01*
X146128572Y-102687600D02*
X146014287Y-102744742D01*
X146014287Y-102744742D02*
X145785715Y-102744742D01*
X145785715Y-102744742D02*
X145671430Y-102687600D01*
X145671430Y-102687600D02*
X145557144Y-102573314D01*
X145557144Y-102573314D02*
X145500001Y-102344742D01*
X145500001Y-102344742D02*
X145500001Y-101944742D01*
X145500001Y-101944742D02*
X145557144Y-101716171D01*
X145557144Y-101716171D02*
X145671430Y-101601885D01*
X145671430Y-101601885D02*
X145785715Y-101544742D01*
X146814287Y-102744742D02*
X146814287Y-101544742D01*
X146814287Y-101544742D02*
X147214287Y-102401885D01*
X147214287Y-102401885D02*
X147614287Y-101544742D01*
X147614287Y-101544742D02*
X147614287Y-102744742D01*
X148128573Y-102401885D02*
X148700002Y-102401885D01*
X148014287Y-102744742D02*
X148414287Y-101544742D01*
X148414287Y-101544742D02*
X148814287Y-102744742D01*
X149900001Y-102744742D02*
X149500001Y-102173314D01*
X149214287Y-102744742D02*
X149214287Y-101544742D01*
X149214287Y-101544742D02*
X149671430Y-101544742D01*
X149671430Y-101544742D02*
X149785715Y-101601885D01*
X149785715Y-101601885D02*
X149842858Y-101659028D01*
X149842858Y-101659028D02*
X149900001Y-101773314D01*
X149900001Y-101773314D02*
X149900001Y-101944742D01*
X149900001Y-101944742D02*
X149842858Y-102059028D01*
X149842858Y-102059028D02*
X149785715Y-102116171D01*
X149785715Y-102116171D02*
X149671430Y-102173314D01*
X149671430Y-102173314D02*
X149214287Y-102173314D01*
X150414287Y-102744742D02*
X150414287Y-101544742D01*
X151100001Y-102744742D02*
X150585715Y-102059028D01*
X151100001Y-101544742D02*
X150414287Y-102230457D01*
X151614287Y-102116171D02*
X152014287Y-102116171D01*
X152185715Y-102744742D02*
X151614287Y-102744742D01*
X151614287Y-102744742D02*
X151614287Y-101544742D01*
X151614287Y-101544742D02*
X152185715Y-101544742D01*
X153385715Y-102744742D02*
X152985715Y-102173314D01*
X152700001Y-102744742D02*
X152700001Y-101544742D01*
X152700001Y-101544742D02*
X153157144Y-101544742D01*
X153157144Y-101544742D02*
X153271429Y-101601885D01*
X153271429Y-101601885D02*
X153328572Y-101659028D01*
X153328572Y-101659028D02*
X153385715Y-101773314D01*
X153385715Y-101773314D02*
X153385715Y-101944742D01*
X153385715Y-101944742D02*
X153328572Y-102059028D01*
X153328572Y-102059028D02*
X153271429Y-102116171D01*
X153271429Y-102116171D02*
X153157144Y-102173314D01*
X153157144Y-102173314D02*
X152700001Y-102173314D01*
%TO.C,TP2*%
D13*
X121950000Y-134000000D02*
G75*
G02*
X120050000Y-134000000I-950000J0D01*
G01*
X120050000Y-134000000D02*
G75*
G02*
X121950000Y-134000000I950000J0D01*
G01*
%TO.C,TP5*%
X156950000Y-136000000D02*
G75*
G02*
X155050000Y-136000000I-950000J0D01*
G01*
X155050000Y-136000000D02*
G75*
G02*
X156950000Y-136000000I950000J0D01*
G01*
%TO.C,TP4*%
X156950000Y-130000000D02*
G75*
G02*
X155050000Y-130000000I-950000J0D01*
G01*
X155050000Y-130000000D02*
G75*
G02*
X156950000Y-130000000I950000J0D01*
G01*
%TO.C,U1*%
X111160000Y-114670000D02*
X111160000Y-124950000D01*
X111160000Y-124950000D02*
X116460000Y-124950000D01*
X112810000Y-114670000D02*
X111160000Y-114670000D01*
X116460000Y-114670000D02*
X114810000Y-114670000D01*
X116460000Y-124950000D02*
X116460000Y-114670000D01*
X114810000Y-114670000D02*
G75*
G02*
X112810000Y-114670000I-1000000J0D01*
G01*
%TO.C,TP3*%
X156950000Y-124000000D02*
G75*
G02*
X155050000Y-124000000I-950000J0D01*
G01*
X155050000Y-124000000D02*
G75*
G02*
X156950000Y-124000000I950000J0D01*
G01*
%TO.C,TP1*%
X121950000Y-116000000D02*
G75*
G02*
X120050000Y-116000000I-950000J0D01*
G01*
X120050000Y-116000000D02*
G75*
G02*
X121950000Y-116000000I950000J0D01*
G01*
%TD*%
M02*
