%TF.GenerationSoftware,KiCad,Pcbnew,10.0.4*%
%TF.CreationDate,2026-08-28T21:39:10-04:00*%
%TF.ProjectId,photomarker-tht,70686f74-6f6d-4617-926b-65722d746874,rev?*%
%TF.SameCoordinates,Original*%
%TF.FileFunction,Drillmap*%
%TF.FilePolarity,Positive*%
%FSLAX45Y45*%
G04 Gerber Fmt 4.5, Leading zero omitted, Abs format (unit mm)*
G04 Created by KiCad (PCBNEW 10.0.4) date 2026-08-28 21:39:10*
%MOMM*%
%LPD*%
G01*
G04 APERTURE LIST*
%ADD10C,0.100000*%
%ADD11C,0.200000*%
G04 APERTURE END LIST*
D10*
X10000000Y-10000000D02*
X17500000Y-10000000D01*
X10000000Y-15500000D02*
X10000000Y-10000000D01*
X17500000Y-10000000D02*
X17500000Y-15500000D01*
X17500000Y-15500000D02*
X10000000Y-15500000D01*
D11*
X10255777Y-15816484D02*
X10255777Y-15616484D01*
X10255777Y-15616484D02*
X10303396Y-15616484D01*
X10303396Y-15616484D02*
X10331967Y-15626008D01*
X10331967Y-15626008D02*
X10351015Y-15645055D01*
X10351015Y-15645055D02*
X10360539Y-15664103D01*
X10360539Y-15664103D02*
X10370063Y-15702198D01*
X10370063Y-15702198D02*
X10370063Y-15730769D01*
X10370063Y-15730769D02*
X10360539Y-15768865D01*
X10360539Y-15768865D02*
X10351015Y-15787912D01*
X10351015Y-15787912D02*
X10331967Y-15806960D01*
X10331967Y-15806960D02*
X10303396Y-15816484D01*
X10303396Y-15816484D02*
X10255777Y-15816484D01*
X10455777Y-15816484D02*
X10455777Y-15683150D01*
X10455777Y-15721246D02*
X10465301Y-15702198D01*
X10465301Y-15702198D02*
X10474824Y-15692674D01*
X10474824Y-15692674D02*
X10493872Y-15683150D01*
X10493872Y-15683150D02*
X10512920Y-15683150D01*
X10579586Y-15816484D02*
X10579586Y-15683150D01*
X10579586Y-15616484D02*
X10570063Y-15626008D01*
X10570063Y-15626008D02*
X10579586Y-15635531D01*
X10579586Y-15635531D02*
X10589110Y-15626008D01*
X10589110Y-15626008D02*
X10579586Y-15616484D01*
X10579586Y-15616484D02*
X10579586Y-15635531D01*
X10703396Y-15816484D02*
X10684348Y-15806960D01*
X10684348Y-15806960D02*
X10674824Y-15787912D01*
X10674824Y-15787912D02*
X10674824Y-15616484D01*
X10808158Y-15816484D02*
X10789110Y-15806960D01*
X10789110Y-15806960D02*
X10779586Y-15787912D01*
X10779586Y-15787912D02*
X10779586Y-15616484D01*
X11036729Y-15816484D02*
X11036729Y-15616484D01*
X11036729Y-15616484D02*
X11103396Y-15759341D01*
X11103396Y-15759341D02*
X11170063Y-15616484D01*
X11170063Y-15616484D02*
X11170063Y-15816484D01*
X11351015Y-15816484D02*
X11351015Y-15711722D01*
X11351015Y-15711722D02*
X11341491Y-15692674D01*
X11341491Y-15692674D02*
X11322443Y-15683150D01*
X11322443Y-15683150D02*
X11284348Y-15683150D01*
X11284348Y-15683150D02*
X11265301Y-15692674D01*
X11351015Y-15806960D02*
X11331967Y-15816484D01*
X11331967Y-15816484D02*
X11284348Y-15816484D01*
X11284348Y-15816484D02*
X11265301Y-15806960D01*
X11265301Y-15806960D02*
X11255777Y-15787912D01*
X11255777Y-15787912D02*
X11255777Y-15768865D01*
X11255777Y-15768865D02*
X11265301Y-15749817D01*
X11265301Y-15749817D02*
X11284348Y-15740293D01*
X11284348Y-15740293D02*
X11331967Y-15740293D01*
X11331967Y-15740293D02*
X11351015Y-15730769D01*
X11446253Y-15683150D02*
X11446253Y-15883150D01*
X11446253Y-15692674D02*
X11465301Y-15683150D01*
X11465301Y-15683150D02*
X11503396Y-15683150D01*
X11503396Y-15683150D02*
X11522443Y-15692674D01*
X11522443Y-15692674D02*
X11531967Y-15702198D01*
X11531967Y-15702198D02*
X11541491Y-15721246D01*
X11541491Y-15721246D02*
X11541491Y-15778388D01*
X11541491Y-15778388D02*
X11531967Y-15797436D01*
X11531967Y-15797436D02*
X11522443Y-15806960D01*
X11522443Y-15806960D02*
X11503396Y-15816484D01*
X11503396Y-15816484D02*
X11465301Y-15816484D01*
X11465301Y-15816484D02*
X11446253Y-15806960D01*
X11627205Y-15797436D02*
X11636729Y-15806960D01*
X11636729Y-15806960D02*
X11627205Y-15816484D01*
X11627205Y-15816484D02*
X11617682Y-15806960D01*
X11617682Y-15806960D02*
X11627205Y-15797436D01*
X11627205Y-15797436D02*
X11627205Y-15816484D01*
X11627205Y-15692674D02*
X11636729Y-15702198D01*
X11636729Y-15702198D02*
X11627205Y-15711722D01*
X11627205Y-15711722D02*
X11617682Y-15702198D01*
X11617682Y-15702198D02*
X11627205Y-15692674D01*
X11627205Y-15692674D02*
X11627205Y-15711722D01*
M02*
