M48
; DRILL file KiCad 10.0.4 date 2026-08-28T21:39:10
; FORMAT={-:-/ absolute / metric / decimal}
; #@! TF.CreationDate,2026-08-28T21:39:10-04:00
; #@! TF.GenerationSoftware,Kicad,Pcbnew,10.0.4
; #@! TF.FileFunction,Plated,1,2,PTH
FMAT,2
METRIC
; #@! TA.AperFunction,Plated,PTH,ComponentDrill
T1C0.700
; #@! TA.AperFunction,Plated,PTH,ComponentDrill
T2C0.750
; #@! TA.AperFunction,Plated,PTH,ComponentDrill
T3C0.800
; #@! TA.AperFunction,Plated,PTH,ComponentDrill
T4C1.000
; #@! TA.AperFunction,Plated,PTH,ComponentDrill
T5C3.200
%
G90
G05
T1
X121.0Y-116.0
X121.0Y-134.0
X156.0Y-124.0
X156.0Y-130.0
X156.0Y-136.0
T2
X150.0Y-146.0
X152.0Y-146.0
X154.0Y-146.0
X156.0Y-146.0
X158.0Y-146.0
T3
X110.0Y-110.0
X110.0Y-116.0
X110.0Y-118.54
X110.0Y-121.08
X110.0Y-123.62
X110.0Y-128.0
X115.0Y-110.0
X117.62Y-116.0
X117.62Y-118.54
X117.62Y-121.08
X117.62Y-123.62
X117.62Y-128.0
X121.0Y-122.0
X121.0Y-128.0
X121.0Y-140.0
X121.0Y-146.0
X126.0Y-128.0
X128.62Y-122.0
X128.62Y-140.0
X128.62Y-146.0
X134.0Y-110.0
X134.0Y-116.0
X134.0Y-118.54
X134.0Y-121.08
X134.0Y-123.62
X134.0Y-128.0
X134.0Y-134.0
X134.0Y-140.0
X139.0Y-110.0
X141.62Y-116.0
X141.62Y-118.54
X141.62Y-121.08
X141.62Y-123.62
X141.62Y-128.0
X141.62Y-134.0
X141.62Y-140.0
X146.0Y-110.0
X146.0Y-116.0
X146.0Y-122.0
X146.0Y-128.0
X146.0Y-134.0
X153.62Y-110.0
X153.62Y-116.0
X153.62Y-122.0
X153.62Y-128.0
X153.62Y-134.0
X162.0Y-116.0
X164.54Y-116.0
X167.08Y-116.0
T4
X150.0Y-140.0
X152.54Y-140.0
X155.08Y-140.0
X157.62Y-140.0
X160.16Y-140.0
T5
X106.0Y-106.0
X106.0Y-149.0
X169.0Y-106.0
X169.0Y-149.0
M30
