%TF.GenerationSoftware,KiCad,Pcbnew,10.0.4*%
%TF.CreationDate,2026-08-28T21:39:10-04:00*%
%TF.ProjectId,photomarker-tht,70686f74-6f6d-4617-926b-65722d746874,rev?*%
%TF.SameCoordinates,Original*%
%TF.FileFunction,Copper,L2,Bot*%
%TF.FilePolarity,Positive*%
%FSLAX46Y46*%
G04 Gerber Fmt 4.6, Leading zero omitted, Abs format (unit mm)*
G04 Created by KiCad (PCBNEW 10.0.4) date 2026-08-28 21:39:10*
%MOMM*%
%LPD*%
G01*
G04 APERTURE LIST*
G04 Aperture macros list*
%AMRoundRect*
0 Rectangle with rounded corners*
0 $1 Rounding radius*
0 $2 $3 $4 $5 $6 $7 $8 $9 X,Y pos of 4 corners*
0 Add a 4 corners polygon primitive as box body*
4,1,4,$2,$3,$4,$5,$6,$7,$8,$9,$2,$3,0*
0 Add four circle primitives for the rounded corners*
1,1,$1+$1,$2,$3*
1,1,$1+$1,$4,$5*
1,1,$1+$1,$6,$7*
1,1,$1+$1,$8,$9*
0 Add four rect primitives between the rounded corners*
20,1,$1+$1,$2,$3,$4,$5,0*
20,1,$1+$1,$4,$5,$6,$7,0*
20,1,$1+$1,$6,$7,$8,$9,0*
20,1,$1+$1,$8,$9,$2,$3,0*%
G04 Aperture macros list end*
%TA.AperFunction,ComponentPad*%
%ADD10C,1.500000*%
%TD*%
%TA.AperFunction,ComponentPad*%
%ADD11C,6.400000*%
%TD*%
%TA.AperFunction,ComponentPad*%
%ADD12RoundRect,0.250000X-0.550000X-0.550000X0.550000X-0.550000X0.550000X0.550000X-0.550000X0.550000X0*%
%TD*%
%TA.AperFunction,ComponentPad*%
%ADD13C,1.600000*%
%TD*%
%TA.AperFunction,ComponentPad*%
%ADD14RoundRect,0.250000X-0.350000X-0.625000X0.350000X-0.625000X0.350000X0.625000X-0.350000X0.625000X0*%
%TD*%
%TA.AperFunction,ComponentPad*%
%ADD15O,1.200000X1.750000*%
%TD*%
%TA.AperFunction,ComponentPad*%
%ADD16R,1.700000X1.700000*%
%TD*%
%TA.AperFunction,ComponentPad*%
%ADD17C,1.700000*%
%TD*%
%TA.AperFunction,ComponentPad*%
%ADD18RoundRect,0.250000X0.550000X0.550000X-0.550000X0.550000X-0.550000X-0.550000X0.550000X-0.550000X0*%
%TD*%
%TA.AperFunction,ComponentPad*%
%ADD19C,1.440000*%
%TD*%
%TA.AperFunction,Conductor*%
%ADD20C,0.400000*%
%TD*%
%TA.AperFunction,Conductor*%
%ADD21C,0.250000*%
%TD*%
G04 APERTURE END LIST*
D10*
%TO.P,TP2,1*%
%TO.N,FILT*%
X121000000Y-134000000D03*
%TD*%
D11*
%TO.P,H2,1*%
%TO.N,GND*%
X169000000Y-106000000D03*
%TD*%
D10*
%TO.P,TP5,1*%
%TO.N,GND*%
X156000000Y-136000000D03*
%TD*%
D11*
%TO.P,H3,1*%
%TO.N,GND*%
X106000000Y-149000000D03*
%TD*%
%TO.P,H1,1*%
%TO.N,GND*%
X106000000Y-106000000D03*
%TD*%
D10*
%TO.P,TP4,1*%
%TO.N,CMPA_OUT*%
X156000000Y-130000000D03*
%TD*%
D11*
%TO.P,H4,1*%
%TO.N,GND*%
X169000000Y-149000000D03*
%TD*%
D12*
%TO.P,U1,1*%
%TO.N,+3V3*%
X110000000Y-116000000D03*
D13*
%TO.P,U1,2*%
%TO.N,OPT_INN*%
X110000000Y-118540000D03*
%TO.P,U1,3*%
%TO.N,GND*%
X110000000Y-121080000D03*
%TO.P,U1,4*%
%TO.N,OPT_OUT*%
X110000000Y-123620000D03*
%TO.P,U1,5*%
X117620000Y-123620000D03*
%TO.P,U1,6*%
%TO.N,N/C*%
X117620000Y-121080000D03*
%TO.P,U1,7*%
X117620000Y-118540000D03*
%TO.P,U1,8*%
%TO.N,GND*%
X117620000Y-116000000D03*
%TD*%
D10*
%TO.P,TP3,1*%
%TO.N,THRESH_A*%
X156000000Y-124000000D03*
%TD*%
%TO.P,TP1,1*%
%TO.N,OPT_OUT*%
X121000000Y-116000000D03*
%TD*%
D13*
%TO.P,C2,1*%
%TO.N,+3V3*%
X139000000Y-110000000D03*
%TO.P,C2,2*%
%TO.N,GND*%
X134000000Y-110000000D03*
%TD*%
%TO.P,R13,1*%
%TO.N,THRESH_B*%
X141620000Y-128000000D03*
%TO.P,R13,2*%
%TO.N,CMPB_OUT*%
X134000000Y-128000000D03*
%TD*%
%TO.P,R6,1*%
%TO.N,OPT_OUT*%
X117620000Y-128000000D03*
%TO.P,R6,2*%
%TO.N,OPT_INN*%
X110000000Y-128000000D03*
%TD*%
%TO.P,R4,1*%
%TO.N,OPT_OUT*%
X128620000Y-122000000D03*
%TO.P,R4,2*%
%TO.N,FILT*%
X121000000Y-122000000D03*
%TD*%
%TO.P,R15,1*%
%TO.N,CMPB_OUT*%
X141620000Y-140000000D03*
%TO.P,R15,2*%
%TO.N,DI_B*%
X134000000Y-140000000D03*
%TD*%
%TO.P,R1,1*%
%TO.N,+3V3*%
X153620000Y-110000000D03*
%TO.P,R1,2*%
%TO.N,RV_A*%
X146000000Y-110000000D03*
%TD*%
%TO.P,C1,1*%
%TO.N,+3V3*%
X115000000Y-110000000D03*
%TO.P,C1,2*%
%TO.N,GND*%
X110000000Y-110000000D03*
%TD*%
%TO.P,R12,1*%
%TO.N,THRESH_B*%
X121000000Y-146000000D03*
%TO.P,R12,2*%
%TO.N,GND*%
X128620000Y-146000000D03*
%TD*%
D14*
%TO.P,J1,1*%
%TO.N,+3V3*%
X150000000Y-146000000D03*
D15*
%TO.P,J1,2*%
%TO.N,GND*%
X152000000Y-146000000D03*
%TO.P,J1,3*%
%TO.N,FILT*%
X154000000Y-146000000D03*
%TO.P,J1,4*%
%TO.N,DI_B*%
X156000000Y-146000000D03*
%TO.P,J1,5*%
%TO.N,DI_A*%
X158000000Y-146000000D03*
%TD*%
D16*
%TO.P,J2,1*%
%TO.N,+3V3*%
X150000000Y-140000000D03*
D17*
%TO.P,J2,2*%
%TO.N,GND*%
X152540000Y-140000000D03*
%TO.P,J2,3*%
%TO.N,FILT*%
X155080000Y-140000000D03*
%TO.P,J2,4*%
%TO.N,DI_B*%
X157620000Y-140000000D03*
%TO.P,J2,5*%
%TO.N,DI_A*%
X160160000Y-140000000D03*
%TD*%
D13*
%TO.P,R11,1*%
%TO.N,+3V3*%
X128620000Y-140000000D03*
%TO.P,R11,2*%
%TO.N,THRESH_B*%
X121000000Y-140000000D03*
%TD*%
%TO.P,R2,1*%
%TO.N,THRESH_A*%
X153620000Y-122000000D03*
%TO.P,R2,2*%
%TO.N,GND*%
X146000000Y-122000000D03*
%TD*%
%TO.P,R3,1*%
%TO.N,THRESH_A*%
X153620000Y-116000000D03*
%TO.P,R3,2*%
%TO.N,CMPA_OUT*%
X146000000Y-116000000D03*
%TD*%
%TO.P,R14,1*%
%TO.N,+3V3*%
X141620000Y-134000000D03*
%TO.P,R14,2*%
%TO.N,CMPB_OUT*%
X134000000Y-134000000D03*
%TD*%
D18*
%TO.P,U2,1*%
%TO.N,CMPA_OUT*%
X141620000Y-116000000D03*
D13*
%TO.P,U2,2*%
%TO.N,FILT*%
X141620000Y-118540000D03*
%TO.P,U2,3*%
%TO.N,THRESH_A*%
X141620000Y-121080000D03*
%TO.P,U2,4*%
%TO.N,GND*%
X141620000Y-123620000D03*
%TO.P,U2,5*%
%TO.N,THRESH_B*%
X134000000Y-123620000D03*
%TO.P,U2,6*%
%TO.N,FILT*%
X134000000Y-121080000D03*
%TO.P,U2,7*%
%TO.N,CMPB_OUT*%
X134000000Y-118540000D03*
%TO.P,U2,8*%
%TO.N,+3V3*%
X134000000Y-116000000D03*
%TD*%
%TO.P,C3,1*%
%TO.N,FILT*%
X126000000Y-128000000D03*
%TO.P,C3,2*%
%TO.N,GND*%
X121000000Y-128000000D03*
%TD*%
%TO.P,R7,1*%
%TO.N,+3V3*%
X153620000Y-134000000D03*
%TO.P,R7,2*%
%TO.N,CMPA_OUT*%
X146000000Y-134000000D03*
%TD*%
%TO.P,R5,1*%
%TO.N,CMPA_OUT*%
X153620000Y-128000000D03*
%TO.P,R5,2*%
%TO.N,DI_A*%
X146000000Y-128000000D03*
%TD*%
D19*
%TO.P,RV1,1*%
%TO.N,RV_A*%
X162000000Y-116000000D03*
%TO.P,RV1,2*%
%TO.N,THRESH_A*%
X164540000Y-116000000D03*
%TO.P,RV1,3*%
%TO.N,N/C*%
X167080000Y-116000000D03*
%TD*%
%TO.N,GND*%
D20*
X152000000Y-146000000D02*
X152540000Y-140000000D01*
%TO.N,+3V3*%
X152000000Y-136000000D02*
X152000000Y-138000000D01*
X115000000Y-110000000D02*
X115000000Y-106000000D01*
X153620000Y-106000000D02*
X153620000Y-110000000D01*
X144000000Y-136000000D02*
X147000000Y-138000000D01*
X170000000Y-136000000D02*
X158000000Y-134000000D01*
X110000000Y-116000000D02*
X110000000Y-113000000D01*
X147000000Y-138000000D02*
X150000000Y-140000000D01*
X134000000Y-116000000D02*
X136000000Y-114000000D01*
X158000000Y-134000000D02*
X153620000Y-134000000D01*
X139000000Y-106000000D02*
X139000000Y-110000000D01*
X131000000Y-143000000D02*
X147000000Y-143000000D01*
X141620000Y-134000000D02*
X144000000Y-136000000D01*
X158000000Y-109000000D02*
X170000000Y-113000000D01*
X147000000Y-143000000D02*
X150000000Y-140000000D01*
X136000000Y-110000000D02*
X139000000Y-110000000D01*
X136000000Y-114000000D02*
X136000000Y-110000000D01*
X115000000Y-106000000D02*
X153620000Y-106000000D01*
X153620000Y-110000000D02*
X158000000Y-109000000D01*
X170000000Y-113000000D02*
X170000000Y-136000000D01*
X113000000Y-110000000D02*
X115000000Y-110000000D01*
X150000000Y-146000000D02*
X150000000Y-140000000D01*
X110000000Y-113000000D02*
X113000000Y-110000000D01*
X152000000Y-138000000D02*
X150000000Y-140000000D01*
X153620000Y-134000000D02*
X152000000Y-136000000D01*
X128620000Y-140000000D02*
X131000000Y-143000000D01*
%TO.N,OPT_OUT*%
D21*
X110000000Y-123620000D02*
X119000000Y-123620000D01*
X121000000Y-116000000D02*
X119000000Y-118000000D01*
X119000000Y-118000000D02*
X119000000Y-123620000D01*
X127000000Y-120000000D02*
X128620000Y-122000000D01*
X117620000Y-123620000D02*
X117620000Y-128000000D01*
X120000000Y-120000000D02*
X127000000Y-120000000D01*
X119000000Y-123620000D02*
X120000000Y-120000000D01*
%TO.N,OPT_INN*%
X107500000Y-126000000D02*
X107500000Y-117500000D01*
X110000000Y-128000000D02*
X107500000Y-126000000D01*
X107500000Y-117500000D02*
X110000000Y-118539999D01*
%TO.N,FILT*%
X122000000Y-134500000D02*
X119000000Y-136000000D01*
X123500000Y-124000000D02*
X130000000Y-124000000D01*
X154000000Y-149000000D02*
X154000000Y-146000000D01*
X132000000Y-122500000D02*
X134000000Y-121080000D01*
X119000000Y-149000000D02*
X154000000Y-149000000D01*
X123500000Y-132000000D02*
X122000000Y-134500000D01*
X134000000Y-121080000D02*
X136000000Y-119800000D01*
X130000000Y-124000000D02*
X132000000Y-122500000D01*
X123500000Y-132000000D02*
X121000000Y-134000000D01*
X121000000Y-122000000D02*
X123500000Y-124000000D01*
X154000000Y-146000000D02*
X155079999Y-140000000D01*
X119000000Y-136000000D02*
X119000000Y-149000000D01*
X139600000Y-119800000D02*
X141620000Y-118539999D01*
X123500000Y-126000000D02*
X126000000Y-128000000D01*
X123500000Y-124000000D02*
X123500000Y-132000000D01*
X136000000Y-119800000D02*
X139600000Y-119800000D01*
%TO.N,RV_A*%
X146000000Y-110000000D02*
X146000000Y-112500000D01*
X160000000Y-112500000D02*
X162000000Y-116000000D01*
X146000000Y-112500000D02*
X160000000Y-112500000D01*
%TO.N,THRESH_A*%
X164540000Y-119500000D02*
X155000000Y-119500000D01*
X156000000Y-124000000D02*
X153620000Y-122000000D01*
X155000000Y-119500000D02*
X153620000Y-116000000D01*
X153620000Y-116000000D02*
X153620000Y-122000000D01*
X164540000Y-116000000D02*
X164540000Y-119500000D01*
%TO.N,THRESH_B*%
X136000000Y-125000000D02*
X140000000Y-125000000D01*
X121000000Y-140000000D02*
X121000000Y-146000000D01*
X140000000Y-125000000D02*
X141620000Y-128000000D01*
X134000000Y-123620000D02*
X136000000Y-125000000D01*
%TO.N,CMPA_OUT*%
X153620000Y-131000000D02*
X143000000Y-131000000D01*
X153620000Y-128000000D02*
X153620000Y-131000000D01*
X141620000Y-116000000D02*
X146000000Y-116000000D01*
X146000000Y-116000000D02*
X143000000Y-117500000D01*
X156000000Y-130000000D02*
X153620000Y-128000000D01*
X143000000Y-117500000D02*
X143000000Y-133000000D01*
X143000000Y-133000000D02*
X146000000Y-134000000D01*
%TO.N,CMPB_OUT*%
X134000000Y-128000000D02*
X134000000Y-134000000D01*
X134000000Y-137000000D02*
X143500000Y-137000000D01*
X134000000Y-134000000D02*
X134000000Y-137000000D01*
X143500000Y-137000000D02*
X141620000Y-140000000D01*
%TO.N,DI_A*%
X158000000Y-146000000D02*
X160160000Y-140000000D01*
%TO.N,DI_B*%
X156000000Y-146000000D02*
X157620000Y-140000000D01*
%TD*%
%TA.AperFunction,Conductor*%
%TO.N,GND*%
G36*
X174459191Y-100518907D02*
G01*
X174495155Y-100568407D01*
X174500000Y-100599000D01*
X174500000Y-154401000D01*
X174481093Y-154459191D01*
X174431593Y-154495155D01*
X174401000Y-154500000D01*
X100599000Y-154500000D01*
X100540809Y-154481093D01*
X100504845Y-154431593D01*
X100500000Y-154401000D01*
X100500000Y-117499346D01*
X107070829Y-117499346D01*
X107074500Y-117527562D01*
X107074500Y-125960287D01*
X107073371Y-125975192D01*
X107070916Y-125991307D01*
X107070916Y-125991317D01*
X107073894Y-126018111D01*
X107074500Y-126029046D01*
X107074500Y-126056021D01*
X107078719Y-126071768D01*
X107078720Y-126071768D01*
X107080660Y-126079009D01*
X107083289Y-126102664D01*
X107095093Y-126132879D01*
X107096512Y-126138173D01*
X107096513Y-126138175D01*
X107103496Y-126164236D01*
X107103497Y-126164238D01*
X107109517Y-126174664D01*
X107115397Y-126184849D01*
X107124059Y-126207019D01*
X107143289Y-126233159D01*
X107146033Y-126237911D01*
X107159513Y-126261261D01*
X107159516Y-126261264D01*
X107171046Y-126272795D01*
X107176347Y-126278096D01*
X107190450Y-126297266D01*
X107215790Y-126317538D01*
X107238737Y-126340485D01*
X107252859Y-126348638D01*
X107265198Y-126357064D01*
X108060785Y-126993534D01*
X108889546Y-127656543D01*
X108923174Y-127707659D01*
X108925482Y-127749335D01*
X108899500Y-127913384D01*
X108899500Y-128086614D01*
X108926597Y-128257702D01*
X108926598Y-128257706D01*
X108980123Y-128422438D01*
X108980125Y-128422441D01*
X109045499Y-128550747D01*
X109058768Y-128576788D01*
X109160586Y-128716928D01*
X109283072Y-128839414D01*
X109423212Y-128941232D01*
X109577555Y-129019873D01*
X109577557Y-129019873D01*
X109577558Y-129019874D01*
X109577561Y-129019876D01*
X109742293Y-129073401D01*
X109742297Y-129073402D01*
X109913386Y-129100500D01*
X109913389Y-129100500D01*
X110086614Y-129100500D01*
X110257702Y-129073402D01*
X110257706Y-129073401D01*
X110422438Y-129019876D01*
X110422440Y-129019874D01*
X110422445Y-129019873D01*
X110576788Y-128941232D01*
X110716928Y-128839414D01*
X110839414Y-128716928D01*
X110941232Y-128576788D01*
X111019873Y-128422445D01*
X111019874Y-128422440D01*
X111019876Y-128422438D01*
X111073401Y-128257706D01*
X111073402Y-128257702D01*
X111100500Y-128086614D01*
X111100500Y-127913385D01*
X111073402Y-127742297D01*
X111073401Y-127742293D01*
X111019876Y-127577561D01*
X111019874Y-127577558D01*
X111019873Y-127577557D01*
X111019873Y-127577555D01*
X110941232Y-127423212D01*
X110839414Y-127283072D01*
X110716928Y-127160586D01*
X110576788Y-127058768D01*
X110576787Y-127058767D01*
X110576785Y-127058766D01*
X110422441Y-126980125D01*
X110422438Y-126980123D01*
X110257706Y-126926598D01*
X110257702Y-126926597D01*
X110086614Y-126899500D01*
X110086611Y-126899500D01*
X109913389Y-126899500D01*
X109913386Y-126899500D01*
X109742297Y-126926597D01*
X109742293Y-126926598D01*
X109577561Y-126980123D01*
X109577552Y-126980127D01*
X109529839Y-127004438D01*
X109469406Y-127014009D01*
X109423050Y-126993534D01*
X109408236Y-126981683D01*
X109012648Y-126665212D01*
X107962655Y-125825217D01*
X107929027Y-125774101D01*
X107925500Y-125747911D01*
X107925500Y-118286265D01*
X107944407Y-118228074D01*
X107993907Y-118192110D01*
X108055093Y-118192110D01*
X108062519Y-118194856D01*
X108838526Y-118517674D01*
X108884990Y-118557481D01*
X108899500Y-118609080D01*
X108899500Y-118626614D01*
X108926597Y-118797702D01*
X108926598Y-118797706D01*
X108980123Y-118962438D01*
X108980125Y-118962441D01*
X109045499Y-119090747D01*
X109058768Y-119116788D01*
X109160586Y-119256928D01*
X109283072Y-119379414D01*
X109423212Y-119481232D01*
X109577555Y-119559873D01*
X109577557Y-119559873D01*
X109577558Y-119559874D01*
X109577561Y-119559876D01*
X109742293Y-119613401D01*
X109742297Y-119613402D01*
X109913386Y-119640500D01*
X109913389Y-119640500D01*
X110086614Y-119640500D01*
X110257702Y-119613402D01*
X110257706Y-119613401D01*
X110422438Y-119559876D01*
X110422440Y-119559874D01*
X110422445Y-119559873D01*
X110576788Y-119481232D01*
X110716928Y-119379414D01*
X110839414Y-119256928D01*
X110941232Y-119116788D01*
X111019873Y-118962445D01*
X111019874Y-118962440D01*
X111019876Y-118962438D01*
X111073401Y-118797706D01*
X111073402Y-118797702D01*
X111100500Y-118626614D01*
X111100500Y-118453385D01*
X111073402Y-118282297D01*
X111073401Y-118282293D01*
X111019876Y-118117561D01*
X111019874Y-118117558D01*
X111019873Y-118117557D01*
X111019873Y-118117555D01*
X110941232Y-117963212D01*
X110839414Y-117823072D01*
X110716928Y-117700586D01*
X110576788Y-117598768D01*
X110576787Y-117598767D01*
X110576785Y-117598766D01*
X110422441Y-117520125D01*
X110422438Y-117520123D01*
X110257706Y-117466598D01*
X110257702Y-117466597D01*
X110086614Y-117439500D01*
X110086611Y-117439500D01*
X109913389Y-117439500D01*
X109913386Y-117439500D01*
X109742297Y-117466597D01*
X109742293Y-117466598D01*
X109577561Y-117520123D01*
X109577558Y-117520125D01*
X109423214Y-117598766D01*
X109339601Y-117659515D01*
X109283074Y-117700585D01*
X109283068Y-117700589D01*
X109273193Y-117710463D01*
X109218674Y-117738236D01*
X109165170Y-117731860D01*
X107745781Y-117141396D01*
X107688882Y-117117726D01*
X107664237Y-117103497D01*
X107637377Y-117096300D01*
X107611709Y-117085622D01*
X107589862Y-117082711D01*
X107577314Y-117080206D01*
X107556018Y-117074500D01*
X107528213Y-117074500D01*
X107500654Y-117070829D01*
X107472437Y-117074500D01*
X107443982Y-117074500D01*
X107443976Y-117074500D01*
X107423460Y-117079996D01*
X107423461Y-117079997D01*
X107417122Y-117081695D01*
X107389554Y-117085283D01*
X107363250Y-117096130D01*
X107357050Y-117097792D01*
X107357047Y-117097791D01*
X107335770Y-117103494D01*
X107335759Y-117103498D01*
X107317368Y-117114116D01*
X107305623Y-117119897D01*
X107285984Y-117127997D01*
X107285977Y-117128001D01*
X107268463Y-117141397D01*
X107268462Y-117141396D01*
X107263361Y-117145297D01*
X107238737Y-117159515D01*
X107219086Y-117179164D01*
X107213867Y-117183157D01*
X107213867Y-117183158D01*
X107196994Y-117196065D01*
X107196991Y-117196068D01*
X107183544Y-117213537D01*
X107175105Y-117223145D01*
X107159518Y-117238734D01*
X107159512Y-117238741D01*
X107148890Y-117257138D01*
X107148889Y-117257137D01*
X107145604Y-117262825D01*
X107128654Y-117284848D01*
X107117729Y-117311106D01*
X107114527Y-117316654D01*
X107114523Y-117316663D01*
X107103498Y-117335759D01*
X107103495Y-117335768D01*
X107097997Y-117356281D01*
X107097998Y-117356282D01*
X107096297Y-117362627D01*
X107085622Y-117388291D01*
X107081865Y-117416489D01*
X107080205Y-117422687D01*
X107080203Y-117422688D01*
X107074500Y-117443978D01*
X107074500Y-117443982D01*
X107074500Y-117471786D01*
X107070829Y-117499346D01*
X100500000Y-117499346D01*
X100500000Y-115406893D01*
X108899500Y-115406893D01*
X108899500Y-116593106D01*
X108910123Y-116681565D01*
X108965637Y-116822339D01*
X108965638Y-116822341D01*
X108965639Y-116822342D01*
X109057078Y-116942922D01*
X109177658Y-117034361D01*
X109177659Y-117034361D01*
X109177660Y-117034362D01*
X109218581Y-117050499D01*
X109318436Y-117089877D01*
X109406898Y-117100500D01*
X109406900Y-117100500D01*
X110593100Y-117100500D01*
X110593102Y-117100500D01*
X110681564Y-117089877D01*
X110822342Y-117034361D01*
X110942922Y-116942922D01*
X111034361Y-116822342D01*
X111089877Y-116681564D01*
X111100500Y-116593102D01*
X111100500Y-115406898D01*
X111089877Y-115318436D01*
X111034361Y-115177658D01*
X110942922Y-115057078D01*
X110822342Y-114965639D01*
X110822341Y-114965638D01*
X110822339Y-114965637D01*
X110681565Y-114910123D01*
X110590164Y-114899147D01*
X110590273Y-114898231D01*
X110536619Y-114877171D01*
X110503683Y-114825607D01*
X110500500Y-114800705D01*
X110500500Y-113248322D01*
X110519407Y-113190131D01*
X110529496Y-113178318D01*
X113178318Y-110529496D01*
X113232835Y-110501719D01*
X113248322Y-110500500D01*
X113959230Y-110500500D01*
X114017421Y-110519407D01*
X114047439Y-110554554D01*
X114058768Y-110576788D01*
X114160586Y-110716928D01*
X114283072Y-110839414D01*
X114423212Y-110941232D01*
X114577555Y-111019873D01*
X114577557Y-111019873D01*
X114577558Y-111019874D01*
X114577561Y-111019876D01*
X114742293Y-111073401D01*
X114742297Y-111073402D01*
X114913386Y-111100500D01*
X114913389Y-111100500D01*
X115086614Y-111100500D01*
X115257702Y-111073402D01*
X115257706Y-111073401D01*
X115422438Y-111019876D01*
X115422440Y-111019874D01*
X115422445Y-111019873D01*
X115576788Y-110941232D01*
X115716928Y-110839414D01*
X115839414Y-110716928D01*
X115941232Y-110576788D01*
X116019873Y-110422445D01*
X116019874Y-110422440D01*
X116019876Y-110422438D01*
X116073401Y-110257706D01*
X116073402Y-110257702D01*
X116100500Y-110086614D01*
X116100500Y-109913385D01*
X116073402Y-109742297D01*
X116073401Y-109742293D01*
X116019876Y-109577561D01*
X116019874Y-109577558D01*
X116019873Y-109577557D01*
X116019873Y-109577555D01*
X115941232Y-109423212D01*
X115839414Y-109283072D01*
X115716928Y-109160586D01*
X115576788Y-109058768D01*
X115576787Y-109058767D01*
X115576785Y-109058766D01*
X115554553Y-109047438D01*
X115511289Y-109004172D01*
X115500500Y-108959229D01*
X115500500Y-106599500D01*
X115519407Y-106541309D01*
X115568907Y-106505345D01*
X115599500Y-106500500D01*
X138400500Y-106500500D01*
X138458691Y-106519407D01*
X138494655Y-106568907D01*
X138499500Y-106599500D01*
X138499500Y-108959229D01*
X138480593Y-109017420D01*
X138445447Y-109047438D01*
X138423214Y-109058766D01*
X138283073Y-109160585D01*
X138160585Y-109283073D01*
X138058766Y-109423214D01*
X138047439Y-109445446D01*
X138004174Y-109488710D01*
X137959230Y-109499500D01*
X136065892Y-109499500D01*
X135934108Y-109499500D01*
X135860776Y-109519149D01*
X135806809Y-109533609D01*
X135692690Y-109599496D01*
X135599496Y-109692690D01*
X135533609Y-109806809D01*
X135499500Y-109934109D01*
X135499500Y-113751677D01*
X135480593Y-113809868D01*
X135470504Y-113821681D01*
X134382026Y-114910158D01*
X134327509Y-114937935D01*
X134281430Y-114934308D01*
X134257701Y-114926598D01*
X134257695Y-114926596D01*
X134257697Y-114926596D01*
X134086614Y-114899500D01*
X134086611Y-114899500D01*
X133913389Y-114899500D01*
X133913386Y-114899500D01*
X133742297Y-114926597D01*
X133742293Y-114926598D01*
X133577561Y-114980123D01*
X133577558Y-114980125D01*
X133423214Y-115058766D01*
X133283073Y-115160585D01*
X133160585Y-115283073D01*
X133058766Y-115423214D01*
X132980125Y-115577558D01*
X132980123Y-115577561D01*
X132926598Y-115742293D01*
X132926597Y-115742297D01*
X132899500Y-115913385D01*
X132899500Y-116086614D01*
X132926597Y-116257702D01*
X132926598Y-116257706D01*
X132980123Y-116422438D01*
X132980125Y-116422441D01*
X133018418Y-116497597D01*
X133058768Y-116576788D01*
X133160586Y-116716928D01*
X133283072Y-116839414D01*
X133423212Y-116941232D01*
X133577555Y-117019873D01*
X133577557Y-117019873D01*
X133577558Y-117019874D01*
X133577561Y-117019876D01*
X133742293Y-117073401D01*
X133742297Y-117073402D01*
X133913386Y-117100500D01*
X133913389Y-117100500D01*
X134086614Y-117100500D01*
X134257702Y-117073402D01*
X134257706Y-117073401D01*
X134422438Y-117019876D01*
X134422440Y-117019874D01*
X134422445Y-117019873D01*
X134576788Y-116941232D01*
X134716928Y-116839414D01*
X134839414Y-116716928D01*
X134941232Y-116576788D01*
X135019873Y-116422445D01*
X135019874Y-116422440D01*
X135019876Y-116422438D01*
X135073401Y-116257706D01*
X135073402Y-116257702D01*
X135100500Y-116086614D01*
X135100500Y-115913385D01*
X135073403Y-115742303D01*
X135065691Y-115718569D01*
X135065690Y-115657384D01*
X135089839Y-115617973D01*
X136400500Y-114307314D01*
X136466392Y-114193186D01*
X136500500Y-114065893D01*
X136500500Y-113934108D01*
X136500500Y-110599500D01*
X136519407Y-110541309D01*
X136568907Y-110505345D01*
X136599500Y-110500500D01*
X137959230Y-110500500D01*
X138017421Y-110519407D01*
X138047439Y-110554554D01*
X138058768Y-110576788D01*
X138160586Y-110716928D01*
X138283072Y-110839414D01*
X138423212Y-110941232D01*
X138577555Y-111019873D01*
X138577557Y-111019873D01*
X138577558Y-111019874D01*
X138577561Y-111019876D01*
X138742293Y-111073401D01*
X138742297Y-111073402D01*
X138913386Y-111100500D01*
X138913389Y-111100500D01*
X139086614Y-111100500D01*
X139257702Y-111073402D01*
X139257706Y-111073401D01*
X139422438Y-111019876D01*
X139422440Y-111019874D01*
X139422445Y-111019873D01*
X139576788Y-110941232D01*
X139716928Y-110839414D01*
X139839414Y-110716928D01*
X139941232Y-110576788D01*
X140019873Y-110422445D01*
X140019874Y-110422440D01*
X140019876Y-110422438D01*
X140073401Y-110257706D01*
X140073402Y-110257702D01*
X140100500Y-110086614D01*
X140100500Y-109913385D01*
X144899500Y-109913385D01*
X144899500Y-110086614D01*
X144926597Y-110257702D01*
X144926598Y-110257706D01*
X144980123Y-110422438D01*
X144980125Y-110422441D01*
X145040690Y-110541309D01*
X145058768Y-110576788D01*
X145160586Y-110716928D01*
X145283072Y-110839414D01*
X145423212Y-110941232D01*
X145520444Y-110990773D01*
X145563709Y-111034037D01*
X145574500Y-111078983D01*
X145574500Y-112556018D01*
X145586151Y-112599499D01*
X145603498Y-112664241D01*
X145659513Y-112761260D01*
X145659515Y-112761263D01*
X145738737Y-112840485D01*
X145738739Y-112840486D01*
X145835759Y-112896501D01*
X145835757Y-112896501D01*
X145835761Y-112896502D01*
X145835763Y-112896503D01*
X145943982Y-112925500D01*
X146056018Y-112925500D01*
X159695621Y-112925500D01*
X159753812Y-112944407D01*
X159781577Y-112975382D01*
X161139671Y-115352047D01*
X161152126Y-115411952D01*
X161136032Y-115456165D01*
X161095642Y-115516615D01*
X161018717Y-115702329D01*
X161018717Y-115702331D01*
X160979500Y-115899486D01*
X160979500Y-116100513D01*
X161018717Y-116297668D01*
X161018717Y-116297670D01*
X161095642Y-116483385D01*
X161095642Y-116483386D01*
X161207325Y-116650530D01*
X161207326Y-116650531D01*
X161349469Y-116792674D01*
X161516612Y-116904356D01*
X161516613Y-116904356D01*
X161516614Y-116904357D01*
X161526776Y-116908566D01*
X161702331Y-116981283D01*
X161899489Y-117020500D01*
X161899490Y-117020500D01*
X162100510Y-117020500D01*
X162100511Y-117020500D01*
X162297669Y-116981283D01*
X162483388Y-116904356D01*
X162650531Y-116792674D01*
X162792674Y-116650531D01*
X162904356Y-116483388D01*
X162981283Y-116297669D01*
X163020500Y-116100511D01*
X163020500Y-115899489D01*
X162981283Y-115702331D01*
X162904357Y-115516614D01*
X162904357Y-115516613D01*
X162792674Y-115349469D01*
X162650530Y-115207325D01*
X162483385Y-115095642D01*
X162297669Y-115018717D01*
X162100513Y-114979500D01*
X162100511Y-114979500D01*
X161964379Y-114979500D01*
X161906188Y-114960593D01*
X161878423Y-114929618D01*
X160396751Y-112336693D01*
X160396503Y-112335763D01*
X160368953Y-112288045D01*
X160341645Y-112240256D01*
X160341644Y-112240255D01*
X160341631Y-112240232D01*
X160341183Y-112239647D01*
X160341183Y-112239646D01*
X160340485Y-112238736D01*
X160301627Y-112199878D01*
X160301316Y-112199566D01*
X160262775Y-112160679D01*
X160262019Y-112160094D01*
X160261934Y-112160029D01*
X160261296Y-112159535D01*
X160261265Y-112159517D01*
X160261263Y-112159515D01*
X160230569Y-112141794D01*
X160213731Y-112132072D01*
X160213731Y-112132071D01*
X160213339Y-112131844D01*
X160166001Y-112104232D01*
X160165076Y-112103979D01*
X160164242Y-112103498D01*
X160138586Y-112096623D01*
X160111367Y-112089330D01*
X160111053Y-112089245D01*
X160057913Y-112074753D01*
X160056765Y-112074597D01*
X160056764Y-112074596D01*
X160056752Y-112074595D01*
X160056056Y-112074500D01*
X160056018Y-112074500D01*
X160001210Y-112074500D01*
X160000770Y-112074499D01*
X159941838Y-112074236D01*
X159937681Y-112074500D01*
X146524500Y-112074500D01*
X146466309Y-112055593D01*
X146430345Y-112006093D01*
X146425500Y-111975500D01*
X146425500Y-111078983D01*
X146444407Y-111020792D01*
X146479554Y-110990774D01*
X146576788Y-110941232D01*
X146716928Y-110839414D01*
X146839414Y-110716928D01*
X146941232Y-110576788D01*
X147019873Y-110422445D01*
X147019874Y-110422440D01*
X147019876Y-110422438D01*
X147073401Y-110257706D01*
X147073402Y-110257702D01*
X147100500Y-110086614D01*
X147100500Y-109913385D01*
X147073402Y-109742297D01*
X147073401Y-109742293D01*
X147019876Y-109577561D01*
X147019874Y-109577558D01*
X147019873Y-109577557D01*
X147019873Y-109577555D01*
X146941232Y-109423212D01*
X146839414Y-109283072D01*
X146716928Y-109160586D01*
X146576788Y-109058768D01*
X146576787Y-109058767D01*
X146576785Y-109058766D01*
X146422441Y-108980125D01*
X146422438Y-108980123D01*
X146257706Y-108926598D01*
X146257702Y-108926597D01*
X146086614Y-108899500D01*
X146086611Y-108899500D01*
X145913389Y-108899500D01*
X145913386Y-108899500D01*
X145742297Y-108926597D01*
X145742293Y-108926598D01*
X145577561Y-108980123D01*
X145577558Y-108980125D01*
X145423214Y-109058766D01*
X145283073Y-109160585D01*
X145160585Y-109283073D01*
X145058766Y-109423214D01*
X144980125Y-109577558D01*
X144980123Y-109577561D01*
X144926598Y-109742293D01*
X144926597Y-109742297D01*
X144899500Y-109913385D01*
X140100500Y-109913385D01*
X140073402Y-109742297D01*
X140073401Y-109742293D01*
X140019876Y-109577561D01*
X140019874Y-109577558D01*
X140019873Y-109577557D01*
X140019873Y-109577555D01*
X139941232Y-109423212D01*
X139839414Y-109283072D01*
X139716928Y-109160586D01*
X139576788Y-109058768D01*
X139576787Y-109058767D01*
X139576785Y-109058766D01*
X139554553Y-109047438D01*
X139511289Y-109004172D01*
X139500500Y-108959229D01*
X139500500Y-106599500D01*
X139519407Y-106541309D01*
X139568907Y-106505345D01*
X139599500Y-106500500D01*
X153020500Y-106500500D01*
X153078691Y-106519407D01*
X153114655Y-106568907D01*
X153119500Y-106599500D01*
X153119500Y-108959229D01*
X153100593Y-109017420D01*
X153065447Y-109047438D01*
X153043214Y-109058766D01*
X152903073Y-109160585D01*
X152780585Y-109283073D01*
X152678766Y-109423214D01*
X152600125Y-109577558D01*
X152600123Y-109577561D01*
X152546598Y-109742293D01*
X152546597Y-109742297D01*
X152519500Y-109913385D01*
X152519500Y-110086614D01*
X152546597Y-110257702D01*
X152546598Y-110257706D01*
X152600123Y-110422438D01*
X152600125Y-110422441D01*
X152660690Y-110541309D01*
X152678768Y-110576788D01*
X152780586Y-110716928D01*
X152903072Y-110839414D01*
X153043212Y-110941232D01*
X153197555Y-111019873D01*
X153197557Y-111019873D01*
X153197558Y-111019874D01*
X153197561Y-111019876D01*
X153362293Y-111073401D01*
X153362297Y-111073402D01*
X153533386Y-111100500D01*
X153533389Y-111100500D01*
X153706614Y-111100500D01*
X153877702Y-111073402D01*
X153877706Y-111073401D01*
X154042438Y-111019876D01*
X154042440Y-111019874D01*
X154042445Y-111019873D01*
X154196788Y-110941232D01*
X154336928Y-110839414D01*
X154459414Y-110716928D01*
X154561232Y-110576788D01*
X154639873Y-110422445D01*
X154672321Y-110322579D01*
X154708284Y-110273081D01*
X154744436Y-110256657D01*
X157947692Y-109525321D01*
X158001030Y-109527916D01*
X169431808Y-113338176D01*
X169481032Y-113374514D01*
X169499500Y-113432095D01*
X169499500Y-135292313D01*
X169480593Y-135350504D01*
X169431093Y-135386468D01*
X169384224Y-135389966D01*
X158110876Y-133511074D01*
X158110876Y-133511073D01*
X158106140Y-133510283D01*
X158065892Y-133499500D01*
X158041428Y-133499500D01*
X158033345Y-133498153D01*
X158033342Y-133498153D01*
X158017286Y-133495477D01*
X157980556Y-133499038D01*
X157971003Y-133499500D01*
X154660770Y-133499500D01*
X154602579Y-133480593D01*
X154572561Y-133445446D01*
X154561233Y-133423214D01*
X154550643Y-133408638D01*
X154459414Y-133283072D01*
X154336928Y-133160586D01*
X154196788Y-133058768D01*
X154196787Y-133058767D01*
X154196785Y-133058766D01*
X154042441Y-132980125D01*
X154042438Y-132980123D01*
X153877706Y-132926598D01*
X153877702Y-132926597D01*
X153706614Y-132899500D01*
X153706611Y-132899500D01*
X153533389Y-132899500D01*
X153533386Y-132899500D01*
X153362297Y-132926597D01*
X153362293Y-132926598D01*
X153197561Y-132980123D01*
X153197558Y-132980125D01*
X153043214Y-133058766D01*
X152903073Y-133160585D01*
X152780585Y-133283073D01*
X152678766Y-133423214D01*
X152600125Y-133577558D01*
X152600123Y-133577561D01*
X152546598Y-133742293D01*
X152546597Y-133742297D01*
X152519500Y-133913385D01*
X152519500Y-134086614D01*
X152546597Y-134257698D01*
X152593133Y-134400921D01*
X152593133Y-134462107D01*
X152575907Y-134493827D01*
X151630831Y-135660588D01*
X151627564Y-135664620D01*
X151599500Y-135692686D01*
X151586269Y-135715600D01*
X151581359Y-135721663D01*
X151581360Y-135721663D01*
X151569608Y-135736173D01*
X151569604Y-135736179D01*
X151555561Y-135767703D01*
X151555562Y-135767704D01*
X151553451Y-135772442D01*
X151533608Y-135806814D01*
X151526758Y-135832375D01*
X151523585Y-135839501D01*
X151515989Y-135856556D01*
X151515988Y-135856559D01*
X151513115Y-135874682D01*
X151509773Y-135895767D01*
X151499500Y-135934108D01*
X151499500Y-135960574D01*
X151498279Y-135968277D01*
X151498279Y-135968279D01*
X151495356Y-135986715D01*
X151495356Y-135986719D01*
X151498959Y-136021041D01*
X151499500Y-136031376D01*
X151499500Y-137751677D01*
X151480593Y-137809868D01*
X151470504Y-137821681D01*
X150471681Y-138820504D01*
X150417164Y-138848281D01*
X150401677Y-138849500D01*
X149206514Y-138849500D01*
X149151599Y-138832873D01*
X149133045Y-138820504D01*
X147336527Y-137622825D01*
X147336515Y-137622816D01*
X144814051Y-135941175D01*
X144305304Y-135602010D01*
X144296538Y-135595436D01*
X142737564Y-134285374D01*
X142705179Y-134233465D01*
X142703475Y-134194100D01*
X142718006Y-134102356D01*
X142720500Y-134086612D01*
X142720500Y-133913385D01*
X142693402Y-133742297D01*
X142693401Y-133742293D01*
X142639876Y-133577561D01*
X142639874Y-133577558D01*
X142639873Y-133577557D01*
X142639873Y-133577555D01*
X142575655Y-133451520D01*
X142574758Y-133445857D01*
X142571183Y-133441375D01*
X142570044Y-133416087D01*
X142566085Y-133391090D01*
X142568688Y-133385981D01*
X142568430Y-133380252D01*
X142582370Y-133359126D01*
X142593862Y-133336573D01*
X142598972Y-133333969D01*
X142602130Y-133329184D01*
X142625824Y-133320287D01*
X142648379Y-133308796D01*
X142654042Y-133309692D01*
X142659412Y-133307677D01*
X142683812Y-133314407D01*
X142708811Y-133318367D01*
X142718394Y-133323947D01*
X142718805Y-133324218D01*
X142718806Y-133324219D01*
X142721210Y-133325806D01*
X142736675Y-133338423D01*
X142738737Y-133340485D01*
X142738739Y-133340486D01*
X142738741Y-133340488D01*
X142763712Y-133354904D01*
X142776208Y-133362119D01*
X142812302Y-133385950D01*
X142824564Y-133390037D01*
X142835763Y-133396503D01*
X142874697Y-133406935D01*
X142880347Y-133408631D01*
X144841612Y-134062386D01*
X144890836Y-134098724D01*
X144908085Y-134140818D01*
X144926597Y-134257702D01*
X144926598Y-134257706D01*
X144980123Y-134422438D01*
X144980125Y-134422441D01*
X145019897Y-134500500D01*
X145058768Y-134576788D01*
X145160586Y-134716928D01*
X145283072Y-134839414D01*
X145423212Y-134941232D01*
X145577555Y-135019873D01*
X145577557Y-135019873D01*
X145577558Y-135019874D01*
X145577561Y-135019876D01*
X145742293Y-135073401D01*
X145742297Y-135073402D01*
X145913386Y-135100500D01*
X145913389Y-135100500D01*
X146086614Y-135100500D01*
X146257702Y-135073402D01*
X146257706Y-135073401D01*
X146422438Y-135019876D01*
X146422440Y-135019874D01*
X146422445Y-135019873D01*
X146576788Y-134941232D01*
X146716928Y-134839414D01*
X146839414Y-134716928D01*
X146941232Y-134576788D01*
X147019873Y-134422445D01*
X147019874Y-134422440D01*
X147019876Y-134422438D01*
X147073401Y-134257706D01*
X147073402Y-134257702D01*
X147100500Y-134086614D01*
X147100500Y-133913385D01*
X147073402Y-133742297D01*
X147073401Y-133742293D01*
X147019876Y-133577561D01*
X147019874Y-133577558D01*
X147019873Y-133577557D01*
X147019873Y-133577555D01*
X146941232Y-133423212D01*
X146839414Y-133283072D01*
X146716928Y-133160586D01*
X146576788Y-133058768D01*
X146576787Y-133058767D01*
X146576785Y-133058766D01*
X146422441Y-132980125D01*
X146422438Y-132980123D01*
X146257706Y-132926598D01*
X146257702Y-132926597D01*
X146086614Y-132899500D01*
X146086611Y-132899500D01*
X145913389Y-132899500D01*
X145913386Y-132899500D01*
X145742297Y-132926597D01*
X145742293Y-132926598D01*
X145577561Y-132980123D01*
X145577558Y-132980125D01*
X145423214Y-133058766D01*
X145283073Y-133160585D01*
X145212394Y-133231263D01*
X145157877Y-133259039D01*
X145111084Y-133255178D01*
X143493193Y-132715881D01*
X143443968Y-132679542D01*
X143425500Y-132621961D01*
X143425500Y-131524500D01*
X143444407Y-131466309D01*
X143493907Y-131430345D01*
X143524500Y-131425500D01*
X153676016Y-131425500D01*
X153676018Y-131425500D01*
X153784237Y-131396503D01*
X153784239Y-131396501D01*
X153784241Y-131396501D01*
X153813064Y-131379859D01*
X153881263Y-131340485D01*
X153960485Y-131261263D01*
X154016503Y-131164237D01*
X154045500Y-131056018D01*
X154045500Y-129125859D01*
X154064407Y-129067668D01*
X154113907Y-129031704D01*
X154175093Y-129031704D01*
X154208189Y-129050066D01*
X154541722Y-129330345D01*
X154942761Y-129667352D01*
X154975147Y-129719263D01*
X154976168Y-129762457D01*
X154949500Y-129896530D01*
X154949500Y-130103467D01*
X154989869Y-130306418D01*
X155069058Y-130497597D01*
X155120443Y-130574500D01*
X155184023Y-130669655D01*
X155330345Y-130815977D01*
X155502402Y-130930941D01*
X155693580Y-131010130D01*
X155896535Y-131050500D01*
X155896536Y-131050500D01*
X156103464Y-131050500D01*
X156103465Y-131050500D01*
X156306420Y-131010130D01*
X156497598Y-130930941D01*
X156669655Y-130815977D01*
X156815977Y-130669655D01*
X156930941Y-130497598D01*
X157010130Y-130306420D01*
X157050500Y-130103465D01*
X157050500Y-129896535D01*
X157010130Y-129693580D01*
X156930941Y-129502402D01*
X156815977Y-129330345D01*
X156669655Y-129184023D01*
X156582606Y-129125859D01*
X156497597Y-129069058D01*
X156306418Y-128989869D01*
X156103467Y-128949500D01*
X156103465Y-128949500D01*
X155896535Y-128949500D01*
X155896532Y-128949500D01*
X155693580Y-128989870D01*
X155693578Y-128989870D01*
X155592221Y-129031853D01*
X155531224Y-129036653D01*
X155490645Y-129016181D01*
X154721888Y-128370167D01*
X154689502Y-128318256D01*
X154691427Y-128263776D01*
X154693402Y-128257701D01*
X154720500Y-128086611D01*
X154720500Y-127913389D01*
X154720500Y-127913385D01*
X154693402Y-127742297D01*
X154693401Y-127742293D01*
X154639876Y-127577561D01*
X154639874Y-127577558D01*
X154639873Y-127577557D01*
X154639873Y-127577555D01*
X154561232Y-127423212D01*
X154459414Y-127283072D01*
X154336928Y-127160586D01*
X154196788Y-127058768D01*
X154196787Y-127058767D01*
X154196785Y-127058766D01*
X154042441Y-126980125D01*
X154042438Y-126980123D01*
X153877706Y-126926598D01*
X153877702Y-126926597D01*
X153706614Y-126899500D01*
X153706611Y-126899500D01*
X153533389Y-126899500D01*
X153533386Y-126899500D01*
X153362297Y-126926597D01*
X153362293Y-126926598D01*
X153197561Y-126980123D01*
X153197558Y-126980125D01*
X153043214Y-127058766D01*
X152903073Y-127160585D01*
X152780585Y-127283073D01*
X152678766Y-127423214D01*
X152600125Y-127577558D01*
X152600123Y-127577561D01*
X152546598Y-127742293D01*
X152546597Y-127742297D01*
X152519500Y-127913385D01*
X152519500Y-128086614D01*
X152546597Y-128257702D01*
X152546598Y-128257706D01*
X152600123Y-128422438D01*
X152600125Y-128422441D01*
X152665499Y-128550747D01*
X152678768Y-128576788D01*
X152780586Y-128716928D01*
X152903072Y-128839414D01*
X153043212Y-128941232D01*
X153140444Y-128990773D01*
X153183709Y-129034037D01*
X153194500Y-129078983D01*
X153194500Y-130475500D01*
X153175593Y-130533691D01*
X153126093Y-130569655D01*
X153095500Y-130574500D01*
X143524500Y-130574500D01*
X143466309Y-130555593D01*
X143430345Y-130506093D01*
X143425500Y-130475500D01*
X143425500Y-127913385D01*
X144899500Y-127913385D01*
X144899500Y-128086614D01*
X144926597Y-128257702D01*
X144926598Y-128257706D01*
X144980123Y-128422438D01*
X144980125Y-128422441D01*
X145045499Y-128550747D01*
X145058768Y-128576788D01*
X145160586Y-128716928D01*
X145283072Y-128839414D01*
X145423212Y-128941232D01*
X145577555Y-129019873D01*
X145577557Y-129019873D01*
X145577558Y-129019874D01*
X145577561Y-129019876D01*
X145742293Y-129073401D01*
X145742297Y-129073402D01*
X145913386Y-129100500D01*
X145913389Y-129100500D01*
X146086614Y-129100500D01*
X146257702Y-129073402D01*
X146257706Y-129073401D01*
X146422438Y-129019876D01*
X146422440Y-129019874D01*
X146422445Y-129019873D01*
X146576788Y-128941232D01*
X146716928Y-128839414D01*
X146839414Y-128716928D01*
X146941232Y-128576788D01*
X147019873Y-128422445D01*
X147019874Y-128422440D01*
X147019876Y-128422438D01*
X147073401Y-128257706D01*
X147073402Y-128257702D01*
X147100500Y-128086614D01*
X147100500Y-127913385D01*
X147073402Y-127742297D01*
X147073401Y-127742293D01*
X147019876Y-127577561D01*
X147019874Y-127577558D01*
X147019873Y-127577557D01*
X147019873Y-127577555D01*
X146941232Y-127423212D01*
X146839414Y-127283072D01*
X146716928Y-127160586D01*
X146576788Y-127058768D01*
X146576787Y-127058767D01*
X146576785Y-127058766D01*
X146422441Y-126980125D01*
X146422438Y-126980123D01*
X146257706Y-126926598D01*
X146257702Y-126926597D01*
X146086614Y-126899500D01*
X146086611Y-126899500D01*
X145913389Y-126899500D01*
X145913386Y-126899500D01*
X145742297Y-126926597D01*
X145742293Y-126926598D01*
X145577561Y-126980123D01*
X145577558Y-126980125D01*
X145423214Y-127058766D01*
X145283073Y-127160585D01*
X145160585Y-127283073D01*
X145058766Y-127423214D01*
X144980125Y-127577558D01*
X144980123Y-127577561D01*
X144926598Y-127742293D01*
X144926597Y-127742297D01*
X144899500Y-127913385D01*
X143425500Y-127913385D01*
X143425500Y-117824157D01*
X143444407Y-117765966D01*
X143480223Y-117735611D01*
X145225009Y-116863217D01*
X145285511Y-116854105D01*
X145327473Y-116871673D01*
X145423213Y-116941233D01*
X145497501Y-116979084D01*
X145577555Y-117019873D01*
X145577557Y-117019873D01*
X145577558Y-117019874D01*
X145577561Y-117019876D01*
X145742293Y-117073401D01*
X145742297Y-117073402D01*
X145913386Y-117100500D01*
X145913389Y-117100500D01*
X146086614Y-117100500D01*
X146257702Y-117073402D01*
X146257706Y-117073401D01*
X146422438Y-117019876D01*
X146422440Y-117019874D01*
X146422445Y-117019873D01*
X146576788Y-116941232D01*
X146716928Y-116839414D01*
X146839414Y-116716928D01*
X146941232Y-116576788D01*
X147019873Y-116422445D01*
X147019874Y-116422440D01*
X147019876Y-116422438D01*
X147073401Y-116257706D01*
X147073402Y-116257702D01*
X147100500Y-116086614D01*
X147100500Y-115913385D01*
X152519500Y-115913385D01*
X152519500Y-116086614D01*
X152546597Y-116257702D01*
X152546598Y-116257706D01*
X152600123Y-116422438D01*
X152600125Y-116422441D01*
X152638418Y-116497597D01*
X152678768Y-116576788D01*
X152780586Y-116716928D01*
X152903072Y-116839414D01*
X153043212Y-116941232D01*
X153140444Y-116990773D01*
X153183709Y-117034037D01*
X153194500Y-117078983D01*
X153194500Y-120921015D01*
X153175593Y-120979206D01*
X153140445Y-121009225D01*
X153043214Y-121058766D01*
X152903073Y-121160585D01*
X152780585Y-121283073D01*
X152678766Y-121423214D01*
X152600125Y-121577558D01*
X152600123Y-121577561D01*
X152546598Y-121742293D01*
X152546597Y-121742297D01*
X152519500Y-121913385D01*
X152519500Y-122086614D01*
X152546597Y-122257702D01*
X152546598Y-122257706D01*
X152600123Y-122422438D01*
X152600125Y-122422441D01*
X152663385Y-122546598D01*
X152678768Y-122576788D01*
X152780586Y-122716928D01*
X152903072Y-122839414D01*
X153043212Y-122941232D01*
X153197555Y-123019873D01*
X153197557Y-123019873D01*
X153197558Y-123019874D01*
X153197561Y-123019876D01*
X153362293Y-123073401D01*
X153362297Y-123073402D01*
X153533386Y-123100500D01*
X153533389Y-123100500D01*
X153706614Y-123100500D01*
X153877702Y-123073402D01*
X153877706Y-123073401D01*
X154042437Y-123019876D01*
X154042439Y-123019874D01*
X154042445Y-123019873D01*
X154064829Y-123008467D01*
X154125259Y-122998896D01*
X154173463Y-123020884D01*
X154809767Y-123555593D01*
X154942761Y-123667352D01*
X154975147Y-123719263D01*
X154976168Y-123762457D01*
X154949500Y-123896530D01*
X154949500Y-124103467D01*
X154989869Y-124306418D01*
X155069058Y-124497597D01*
X155180153Y-124663863D01*
X155184023Y-124669655D01*
X155330345Y-124815977D01*
X155502402Y-124930941D01*
X155693580Y-125010130D01*
X155896535Y-125050500D01*
X155896536Y-125050500D01*
X156103464Y-125050500D01*
X156103465Y-125050500D01*
X156306420Y-125010130D01*
X156497598Y-124930941D01*
X156669655Y-124815977D01*
X156815977Y-124669655D01*
X156930941Y-124497598D01*
X157010130Y-124306420D01*
X157050500Y-124103465D01*
X157050500Y-123896535D01*
X157010130Y-123693580D01*
X156930941Y-123502402D01*
X156815977Y-123330345D01*
X156669655Y-123184023D01*
X156657039Y-123175593D01*
X156497597Y-123069058D01*
X156306418Y-122989869D01*
X156103467Y-122949500D01*
X156103465Y-122949500D01*
X155896535Y-122949500D01*
X155896532Y-122949500D01*
X155693580Y-122989870D01*
X155693578Y-122989870D01*
X155592221Y-123031853D01*
X155531224Y-123036653D01*
X155490645Y-123016181D01*
X154721888Y-122370167D01*
X154689502Y-122318256D01*
X154691427Y-122263776D01*
X154693402Y-122257701D01*
X154706203Y-122176872D01*
X154720500Y-122086614D01*
X154720500Y-121913385D01*
X154693402Y-121742297D01*
X154693401Y-121742293D01*
X154639876Y-121577561D01*
X154639874Y-121577558D01*
X154639873Y-121577557D01*
X154639873Y-121577555D01*
X154561232Y-121423212D01*
X154459414Y-121283072D01*
X154336928Y-121160586D01*
X154196788Y-121058768D01*
X154196787Y-121058767D01*
X154196785Y-121058766D01*
X154099555Y-121009225D01*
X154056290Y-120965960D01*
X154045500Y-120921015D01*
X154045500Y-118760176D01*
X154064407Y-118701985D01*
X154113907Y-118666021D01*
X154175093Y-118666021D01*
X154224593Y-118701985D01*
X154236599Y-118723861D01*
X154265715Y-118797706D01*
X154587862Y-119614748D01*
X154595270Y-119633535D01*
X154603497Y-119664237D01*
X154615727Y-119685420D01*
X154618419Y-119692248D01*
X154624704Y-119708188D01*
X154640266Y-119729204D01*
X154643622Y-119733736D01*
X154659515Y-119761263D01*
X154676813Y-119778561D01*
X154681184Y-119784464D01*
X154681184Y-119784465D01*
X154691373Y-119798224D01*
X154691378Y-119798230D01*
X154711844Y-119814498D01*
X154720243Y-119821992D01*
X154730958Y-119832706D01*
X154738737Y-119840485D01*
X154759926Y-119852718D01*
X154779079Y-119867943D01*
X154808224Y-119880604D01*
X154813099Y-119883419D01*
X154813110Y-119883424D01*
X154835763Y-119896503D01*
X154859400Y-119902836D01*
X154881838Y-119912584D01*
X154913272Y-119917271D01*
X154943982Y-119925500D01*
X154968454Y-119925500D01*
X154992649Y-119929108D01*
X155024225Y-119925500D01*
X164483982Y-119925500D01*
X164596018Y-119925500D01*
X164704237Y-119896503D01*
X164704239Y-119896501D01*
X164704241Y-119896501D01*
X164753704Y-119867943D01*
X164801263Y-119840485D01*
X164880485Y-119761263D01*
X164924271Y-119685424D01*
X164936501Y-119664241D01*
X164936501Y-119664239D01*
X164936503Y-119664237D01*
X164965500Y-119556018D01*
X164965500Y-116994483D01*
X164984407Y-116936292D01*
X165019968Y-116908266D01*
X165019102Y-116906646D01*
X165023381Y-116904358D01*
X165023388Y-116904356D01*
X165190531Y-116792674D01*
X165332674Y-116650531D01*
X165444356Y-116483388D01*
X165521283Y-116297669D01*
X165560500Y-116100511D01*
X165560500Y-115899489D01*
X165560499Y-115899486D01*
X166059500Y-115899486D01*
X166059500Y-116100513D01*
X166098717Y-116297668D01*
X166098717Y-116297670D01*
X166175642Y-116483385D01*
X166175642Y-116483386D01*
X166287325Y-116650530D01*
X166287326Y-116650531D01*
X166429469Y-116792674D01*
X166596612Y-116904356D01*
X166596613Y-116904356D01*
X166596614Y-116904357D01*
X166606776Y-116908566D01*
X166782331Y-116981283D01*
X166979489Y-117020500D01*
X166979490Y-117020500D01*
X167180510Y-117020500D01*
X167180511Y-117020500D01*
X167377669Y-116981283D01*
X167563388Y-116904356D01*
X167730531Y-116792674D01*
X167872674Y-116650531D01*
X167984356Y-116483388D01*
X168061283Y-116297669D01*
X168100500Y-116100511D01*
X168100500Y-115899489D01*
X168061283Y-115702331D01*
X167984357Y-115516614D01*
X167984357Y-115516613D01*
X167872674Y-115349469D01*
X167730530Y-115207325D01*
X167563385Y-115095642D01*
X167377669Y-115018717D01*
X167180513Y-114979500D01*
X167180511Y-114979500D01*
X166979489Y-114979500D01*
X166979486Y-114979500D01*
X166782331Y-115018717D01*
X166782329Y-115018717D01*
X166596614Y-115095642D01*
X166596613Y-115095642D01*
X166429469Y-115207325D01*
X166287325Y-115349469D01*
X166175642Y-115516613D01*
X166175642Y-115516614D01*
X166098717Y-115702329D01*
X166098717Y-115702331D01*
X166059500Y-115899486D01*
X165560499Y-115899486D01*
X165521283Y-115702331D01*
X165444357Y-115516614D01*
X165444357Y-115516613D01*
X165332674Y-115349469D01*
X165190530Y-115207325D01*
X165023385Y-115095642D01*
X164837669Y-115018717D01*
X164640513Y-114979500D01*
X164640511Y-114979500D01*
X164439489Y-114979500D01*
X164439486Y-114979500D01*
X164242331Y-115018717D01*
X164242329Y-115018717D01*
X164056614Y-115095642D01*
X164056613Y-115095642D01*
X163889469Y-115207325D01*
X163747325Y-115349469D01*
X163635642Y-115516613D01*
X163635642Y-115516614D01*
X163558717Y-115702329D01*
X163558717Y-115702331D01*
X163519500Y-115899486D01*
X163519500Y-116100513D01*
X163558717Y-116297668D01*
X163558717Y-116297670D01*
X163635642Y-116483385D01*
X163635642Y-116483386D01*
X163747325Y-116650530D01*
X163889469Y-116792674D01*
X164056605Y-116904352D01*
X164060898Y-116906646D01*
X164059871Y-116908566D01*
X164099898Y-116942733D01*
X164114500Y-116994483D01*
X164114500Y-118975500D01*
X164095593Y-119033691D01*
X164046093Y-119069655D01*
X164015500Y-119074500D01*
X155356995Y-119074500D01*
X155298804Y-119055593D01*
X155264895Y-119011814D01*
X154977255Y-118282293D01*
X154411966Y-116848592D01*
X154408212Y-116787525D01*
X154434065Y-116742276D01*
X154459414Y-116716928D01*
X154561232Y-116576788D01*
X154639873Y-116422445D01*
X154639874Y-116422440D01*
X154639876Y-116422438D01*
X154693401Y-116257706D01*
X154693402Y-116257702D01*
X154720500Y-116086614D01*
X154720500Y-115913385D01*
X154693402Y-115742297D01*
X154693401Y-115742293D01*
X154639876Y-115577561D01*
X154639874Y-115577558D01*
X154639873Y-115577557D01*
X154639873Y-115577555D01*
X154561232Y-115423212D01*
X154459414Y-115283072D01*
X154336928Y-115160586D01*
X154196788Y-115058768D01*
X154196787Y-115058767D01*
X154196785Y-115058766D01*
X154042441Y-114980125D01*
X154042438Y-114980123D01*
X153877706Y-114926598D01*
X153877702Y-114926597D01*
X153706614Y-114899500D01*
X153706611Y-114899500D01*
X153533389Y-114899500D01*
X153533386Y-114899500D01*
X153362297Y-114926597D01*
X153362293Y-114926598D01*
X153197561Y-114980123D01*
X153197558Y-114980125D01*
X153043214Y-115058766D01*
X152903073Y-115160585D01*
X152780585Y-115283073D01*
X152678766Y-115423214D01*
X152600125Y-115577558D01*
X152600123Y-115577561D01*
X152546598Y-115742293D01*
X152546597Y-115742297D01*
X152519500Y-115913385D01*
X147100500Y-115913385D01*
X147073402Y-115742297D01*
X147073401Y-115742293D01*
X147019876Y-115577561D01*
X147019874Y-115577558D01*
X147019873Y-115577557D01*
X147019873Y-115577555D01*
X146941232Y-115423212D01*
X146839414Y-115283072D01*
X146716928Y-115160586D01*
X146576788Y-115058768D01*
X146576787Y-115058767D01*
X146576785Y-115058766D01*
X146422441Y-114980125D01*
X146422438Y-114980123D01*
X146257706Y-114926598D01*
X146257702Y-114926597D01*
X146086614Y-114899500D01*
X146086611Y-114899500D01*
X145913389Y-114899500D01*
X145913386Y-114899500D01*
X145742297Y-114926597D01*
X145742293Y-114926598D01*
X145577561Y-114980123D01*
X145577558Y-114980125D01*
X145423214Y-115058766D01*
X145283073Y-115160585D01*
X145160585Y-115283073D01*
X145058768Y-115423211D01*
X145009226Y-115520445D01*
X144965961Y-115563710D01*
X144921016Y-115574500D01*
X142819500Y-115574500D01*
X142761309Y-115555593D01*
X142725345Y-115506093D01*
X142720500Y-115475500D01*
X142720500Y-115406899D01*
X142720499Y-115406893D01*
X142713913Y-115352047D01*
X142709877Y-115318436D01*
X142654361Y-115177658D01*
X142562922Y-115057078D01*
X142442342Y-114965639D01*
X142442341Y-114965638D01*
X142442339Y-114965637D01*
X142301565Y-114910123D01*
X142213106Y-114899500D01*
X142213102Y-114899500D01*
X141026898Y-114899500D01*
X141026893Y-114899500D01*
X140938434Y-114910123D01*
X140797660Y-114965637D01*
X140797656Y-114965640D01*
X140677081Y-115057075D01*
X140677075Y-115057081D01*
X140585640Y-115177656D01*
X140585637Y-115177660D01*
X140530123Y-115318434D01*
X140519500Y-115406893D01*
X140519500Y-116593106D01*
X140530123Y-116681565D01*
X140585637Y-116822339D01*
X140585638Y-116822341D01*
X140585639Y-116822342D01*
X140677078Y-116942922D01*
X140797658Y-117034361D01*
X140797659Y-117034361D01*
X140797660Y-117034362D01*
X140838581Y-117050499D01*
X140938436Y-117089877D01*
X141026898Y-117100500D01*
X141026900Y-117100500D01*
X142213100Y-117100500D01*
X142213102Y-117100500D01*
X142301564Y-117089877D01*
X142442342Y-117034361D01*
X142562922Y-116942922D01*
X142654361Y-116822342D01*
X142709877Y-116681564D01*
X142720500Y-116593102D01*
X142720500Y-116524500D01*
X142739407Y-116466309D01*
X142788907Y-116430345D01*
X142819500Y-116425500D01*
X143778182Y-116425500D01*
X143836373Y-116444407D01*
X143872337Y-116493907D01*
X143872337Y-116555093D01*
X143836373Y-116604593D01*
X143822456Y-116613048D01*
X142857217Y-117095666D01*
X142848246Y-117100151D01*
X142835763Y-117103497D01*
X142798322Y-117125112D01*
X142795649Y-117126449D01*
X142795636Y-117126457D01*
X142759608Y-117144472D01*
X142759606Y-117144473D01*
X142757429Y-117146404D01*
X142741257Y-117158059D01*
X142738738Y-117159513D01*
X142738737Y-117159513D01*
X142708139Y-117190110D01*
X142675780Y-117218806D01*
X142668656Y-117229593D01*
X142661575Y-117236675D01*
X142661575Y-117236676D01*
X142659518Y-117238733D01*
X142659510Y-117238742D01*
X142639366Y-117273632D01*
X142639367Y-117273633D01*
X142637886Y-117276199D01*
X142614050Y-117312301D01*
X142609961Y-117324565D01*
X142604957Y-117333233D01*
X142603495Y-117335765D01*
X142603494Y-117335767D01*
X142593067Y-117374681D01*
X142593068Y-117374682D01*
X142592299Y-117377553D01*
X142578621Y-117418589D01*
X142577846Y-117431490D01*
X142575251Y-117441175D01*
X142575249Y-117441176D01*
X142574501Y-117443969D01*
X142574500Y-117443981D01*
X142574500Y-117443982D01*
X142574500Y-117487242D01*
X142571908Y-117530423D01*
X142574500Y-117543089D01*
X142574500Y-117699151D01*
X142555593Y-117757342D01*
X142506093Y-117793306D01*
X142444907Y-117793306D01*
X142405498Y-117769156D01*
X142336928Y-117700586D01*
X142196788Y-117598768D01*
X142196787Y-117598767D01*
X142196785Y-117598766D01*
X142042441Y-117520125D01*
X142042438Y-117520123D01*
X141877706Y-117466598D01*
X141877702Y-117466597D01*
X141706614Y-117439500D01*
X141706611Y-117439500D01*
X141533389Y-117439500D01*
X141533386Y-117439500D01*
X141362297Y-117466597D01*
X141362293Y-117466598D01*
X141197561Y-117520123D01*
X141197558Y-117520125D01*
X141043214Y-117598766D01*
X140903073Y-117700585D01*
X140780585Y-117823073D01*
X140678766Y-117963214D01*
X140600125Y-118117558D01*
X140600123Y-118117561D01*
X140546598Y-118282293D01*
X140546597Y-118282297D01*
X140519500Y-118453385D01*
X140519500Y-118626615D01*
X140523416Y-118651341D01*
X140513844Y-118711773D01*
X140478030Y-118750825D01*
X139502224Y-119359498D01*
X139449829Y-119374500D01*
X136046154Y-119374500D01*
X136036515Y-119372384D01*
X135990261Y-119374500D01*
X135943982Y-119374500D01*
X135943979Y-119374500D01*
X135939912Y-119375036D01*
X135928575Y-119376793D01*
X135924596Y-119377503D01*
X135882622Y-119390833D01*
X135880475Y-119391516D01*
X135835763Y-119403497D01*
X135827218Y-119408429D01*
X135817820Y-119411414D01*
X135817810Y-119411419D01*
X135780731Y-119435149D01*
X135776869Y-119437498D01*
X135738739Y-119459513D01*
X135735508Y-119461992D01*
X135722717Y-119472278D01*
X134682417Y-120138069D01*
X134623213Y-120153512D01*
X134580480Y-120140089D01*
X134580254Y-120140534D01*
X134577612Y-120139188D01*
X134577332Y-120139100D01*
X134576800Y-120138774D01*
X134422441Y-120060125D01*
X134422438Y-120060123D01*
X134257706Y-120006598D01*
X134257702Y-120006597D01*
X134086614Y-119979500D01*
X134086611Y-119979500D01*
X133913389Y-119979500D01*
X133913386Y-119979500D01*
X133742297Y-120006597D01*
X133742293Y-120006598D01*
X133577561Y-120060123D01*
X133577558Y-120060125D01*
X133423214Y-120138766D01*
X133283073Y-120240585D01*
X133160585Y-120363073D01*
X133058766Y-120503214D01*
X132980125Y-120657558D01*
X132980123Y-120657561D01*
X132926598Y-120822293D01*
X132926597Y-120822297D01*
X132899500Y-120993385D01*
X132899500Y-121166614D01*
X132914509Y-121261379D01*
X132904938Y-121321811D01*
X132874041Y-121357589D01*
X131804304Y-122117103D01*
X131794747Y-122123887D01*
X131789514Y-122125989D01*
X131749128Y-122156277D01*
X131748066Y-122157032D01*
X131748064Y-122157032D01*
X131707994Y-122185483D01*
X131703239Y-122189898D01*
X131702819Y-122189446D01*
X131695028Y-122196851D01*
X129884567Y-123554700D01*
X129826670Y-123574489D01*
X129825167Y-123574500D01*
X123683985Y-123574500D01*
X123625794Y-123555593D01*
X123622140Y-123552806D01*
X123384006Y-123362299D01*
X122772765Y-122873306D01*
X122110453Y-122343456D01*
X122076825Y-122292340D01*
X122074517Y-122250663D01*
X122100500Y-122086614D01*
X122100500Y-121913385D01*
X122073402Y-121742297D01*
X122073401Y-121742293D01*
X122019876Y-121577561D01*
X122019874Y-121577558D01*
X122019873Y-121577557D01*
X122019873Y-121577555D01*
X121941232Y-121423212D01*
X121839414Y-121283072D01*
X121716928Y-121160586D01*
X121576788Y-121058768D01*
X121576787Y-121058767D01*
X121576785Y-121058766D01*
X121422441Y-120980125D01*
X121422438Y-120980123D01*
X121257706Y-120926598D01*
X121257702Y-120926597D01*
X121086614Y-120899500D01*
X121086611Y-120899500D01*
X120913389Y-120899500D01*
X120913386Y-120899500D01*
X120742297Y-120926597D01*
X120742293Y-120926598D01*
X120577561Y-120980123D01*
X120577558Y-120980125D01*
X120423214Y-121058766D01*
X120309075Y-121141694D01*
X120250884Y-121160601D01*
X120192693Y-121141694D01*
X120156729Y-121092194D01*
X120155458Y-121035240D01*
X120162645Y-121009225D01*
X120303829Y-120498139D01*
X120337548Y-120447084D01*
X120394837Y-120425599D01*
X120399255Y-120425500D01*
X126749868Y-120425500D01*
X126808059Y-120444407D01*
X126826797Y-120462187D01*
X126860029Y-120503214D01*
X127605227Y-121423212D01*
X127609898Y-121428978D01*
X127631833Y-121486097D01*
X127621180Y-121536234D01*
X127600125Y-121577559D01*
X127600122Y-121577564D01*
X127546598Y-121742293D01*
X127546597Y-121742297D01*
X127519500Y-121913385D01*
X127519500Y-122086614D01*
X127546597Y-122257702D01*
X127546598Y-122257706D01*
X127600123Y-122422438D01*
X127600125Y-122422441D01*
X127663385Y-122546598D01*
X127678768Y-122576788D01*
X127780586Y-122716928D01*
X127903072Y-122839414D01*
X128043212Y-122941232D01*
X128197555Y-123019873D01*
X128197557Y-123019873D01*
X128197558Y-123019874D01*
X128197561Y-123019876D01*
X128362293Y-123073401D01*
X128362297Y-123073402D01*
X128533386Y-123100500D01*
X128533389Y-123100500D01*
X128706614Y-123100500D01*
X128877702Y-123073402D01*
X128877706Y-123073401D01*
X129042438Y-123019876D01*
X129042440Y-123019874D01*
X129042445Y-123019873D01*
X129196788Y-122941232D01*
X129336928Y-122839414D01*
X129459414Y-122716928D01*
X129561232Y-122576788D01*
X129639873Y-122422445D01*
X129639874Y-122422440D01*
X129639876Y-122422438D01*
X129693401Y-122257706D01*
X129693402Y-122257702D01*
X129720500Y-122086614D01*
X129720500Y-121913385D01*
X129693402Y-121742297D01*
X129693401Y-121742293D01*
X129639876Y-121577561D01*
X129639874Y-121577558D01*
X129639873Y-121577557D01*
X129639873Y-121577555D01*
X129561232Y-121423212D01*
X129459414Y-121283072D01*
X129336928Y-121160586D01*
X129196788Y-121058768D01*
X129196787Y-121058767D01*
X129196785Y-121058766D01*
X129042441Y-120980125D01*
X129042438Y-120980123D01*
X128877706Y-120926598D01*
X128877702Y-120926597D01*
X128706614Y-120899500D01*
X128706611Y-120899500D01*
X128533389Y-120899500D01*
X128533386Y-120899500D01*
X128361861Y-120926666D01*
X128301429Y-120917094D01*
X128269445Y-120891198D01*
X127841663Y-120363072D01*
X127351735Y-119758222D01*
X127340485Y-119738737D01*
X127316625Y-119714877D01*
X127295382Y-119688651D01*
X127283482Y-119680007D01*
X127271665Y-119669916D01*
X127261264Y-119659516D01*
X127261263Y-119659515D01*
X127253601Y-119655091D01*
X127236517Y-119645227D01*
X127236517Y-119645226D01*
X127232025Y-119642633D01*
X127204734Y-119622810D01*
X127183725Y-119614748D01*
X127164237Y-119603497D01*
X127159546Y-119602240D01*
X127136638Y-119596101D01*
X127136638Y-119596100D01*
X127131627Y-119594757D01*
X127100134Y-119582673D01*
X127077758Y-119580323D01*
X127070228Y-119578306D01*
X127070224Y-119578306D01*
X127056018Y-119574500D01*
X127056016Y-119574500D01*
X127027453Y-119574500D01*
X127017119Y-119573959D01*
X126988710Y-119570977D01*
X126988705Y-119570977D01*
X126974187Y-119573279D01*
X126958687Y-119574500D01*
X120001733Y-119574500D01*
X119947269Y-119574079D01*
X119945648Y-119574500D01*
X119943982Y-119574500D01*
X119923572Y-119579968D01*
X119891906Y-119588452D01*
X119891174Y-119588645D01*
X119838825Y-119602240D01*
X119837013Y-119602975D01*
X119837012Y-119602975D01*
X119835851Y-119603445D01*
X119788981Y-119630505D01*
X119788588Y-119630731D01*
X119741374Y-119657508D01*
X119740184Y-119658679D01*
X119738737Y-119659515D01*
X119738734Y-119659517D01*
X119700562Y-119697688D01*
X119700023Y-119698223D01*
X119661539Y-119736118D01*
X119660384Y-119737600D01*
X119660264Y-119737756D01*
X119659560Y-119738657D01*
X119632511Y-119785506D01*
X119632129Y-119786162D01*
X119609853Y-119824068D01*
X119564069Y-119864657D01*
X119503172Y-119870584D01*
X119450421Y-119839584D01*
X119425966Y-119783499D01*
X119425500Y-119773909D01*
X119425500Y-118453385D01*
X132899500Y-118453385D01*
X132899500Y-118626614D01*
X132926597Y-118797702D01*
X132926598Y-118797706D01*
X132980123Y-118962438D01*
X132980125Y-118962441D01*
X133045499Y-119090747D01*
X133058768Y-119116788D01*
X133160586Y-119256928D01*
X133283072Y-119379414D01*
X133423212Y-119481232D01*
X133577555Y-119559873D01*
X133577557Y-119559873D01*
X133577558Y-119559874D01*
X133577561Y-119559876D01*
X133742293Y-119613401D01*
X133742297Y-119613402D01*
X133913386Y-119640500D01*
X133913389Y-119640500D01*
X134086614Y-119640500D01*
X134257702Y-119613402D01*
X134257706Y-119613401D01*
X134422438Y-119559876D01*
X134422440Y-119559874D01*
X134422445Y-119559873D01*
X134576788Y-119481232D01*
X134716928Y-119379414D01*
X134839414Y-119256928D01*
X134941232Y-119116788D01*
X135019873Y-118962445D01*
X135019874Y-118962440D01*
X135019876Y-118962438D01*
X135073401Y-118797706D01*
X135073402Y-118797702D01*
X135100500Y-118626614D01*
X135100500Y-118453385D01*
X135073402Y-118282297D01*
X135073401Y-118282293D01*
X135019876Y-118117561D01*
X135019874Y-118117558D01*
X135019873Y-118117557D01*
X135019873Y-118117555D01*
X134941232Y-117963212D01*
X134839414Y-117823072D01*
X134716928Y-117700586D01*
X134576788Y-117598768D01*
X134576787Y-117598767D01*
X134576785Y-117598766D01*
X134422441Y-117520125D01*
X134422438Y-117520123D01*
X134257706Y-117466598D01*
X134257702Y-117466597D01*
X134086614Y-117439500D01*
X134086611Y-117439500D01*
X133913389Y-117439500D01*
X133913386Y-117439500D01*
X133742297Y-117466597D01*
X133742293Y-117466598D01*
X133577561Y-117520123D01*
X133577558Y-117520125D01*
X133423214Y-117598766D01*
X133283073Y-117700585D01*
X133160585Y-117823073D01*
X133058766Y-117963214D01*
X132980125Y-118117558D01*
X132980123Y-118117561D01*
X132926598Y-118282293D01*
X132926597Y-118282297D01*
X132899500Y-118453385D01*
X119425500Y-118453385D01*
X119425500Y-118217255D01*
X119444407Y-118159064D01*
X119454490Y-118147257D01*
X120574708Y-117027038D01*
X120629223Y-116999263D01*
X120682595Y-117005579D01*
X120693580Y-117010130D01*
X120896535Y-117050500D01*
X120896536Y-117050500D01*
X121103464Y-117050500D01*
X121103465Y-117050500D01*
X121306420Y-117010130D01*
X121497598Y-116930941D01*
X121669655Y-116815977D01*
X121815977Y-116669655D01*
X121930941Y-116497598D01*
X122010130Y-116306420D01*
X122050500Y-116103465D01*
X122050500Y-115896535D01*
X122010130Y-115693580D01*
X121930941Y-115502402D01*
X121815977Y-115330345D01*
X121669655Y-115184023D01*
X121669651Y-115184020D01*
X121497597Y-115069058D01*
X121306418Y-114989869D01*
X121103467Y-114949500D01*
X121103465Y-114949500D01*
X120896535Y-114949500D01*
X120896532Y-114949500D01*
X120693581Y-114989869D01*
X120502402Y-115069058D01*
X120330348Y-115184020D01*
X120184020Y-115330348D01*
X120069058Y-115502402D01*
X119989869Y-115693581D01*
X119949500Y-115896532D01*
X119949500Y-116103467D01*
X119989869Y-116306417D01*
X119989871Y-116306423D01*
X119994419Y-116317402D01*
X119999220Y-116378399D01*
X119972959Y-116425292D01*
X118738737Y-117659515D01*
X118738736Y-117659514D01*
X118659514Y-117738737D01*
X118619793Y-117807534D01*
X118574323Y-117848474D01*
X118513473Y-117854868D01*
X118462531Y-117825455D01*
X118462164Y-117825823D01*
X118460792Y-117824451D01*
X118460485Y-117824274D01*
X118459555Y-117823214D01*
X118459416Y-117823075D01*
X118459414Y-117823072D01*
X118336928Y-117700586D01*
X118196788Y-117598768D01*
X118196787Y-117598767D01*
X118196785Y-117598766D01*
X118042441Y-117520125D01*
X118042438Y-117520123D01*
X117877706Y-117466598D01*
X117877702Y-117466597D01*
X117706614Y-117439500D01*
X117706611Y-117439500D01*
X117533389Y-117439500D01*
X117533386Y-117439500D01*
X117362297Y-117466597D01*
X117362293Y-117466598D01*
X117197561Y-117520123D01*
X117197558Y-117520125D01*
X117043214Y-117598766D01*
X116903073Y-117700585D01*
X116780585Y-117823073D01*
X116678766Y-117963214D01*
X116600125Y-118117558D01*
X116600123Y-118117561D01*
X116546598Y-118282293D01*
X116546597Y-118282297D01*
X116519500Y-118453385D01*
X116519500Y-118626614D01*
X116546597Y-118797702D01*
X116546598Y-118797706D01*
X116600123Y-118962438D01*
X116600125Y-118962441D01*
X116665499Y-119090747D01*
X116678768Y-119116788D01*
X116780586Y-119256928D01*
X116903072Y-119379414D01*
X117043212Y-119481232D01*
X117197555Y-119559873D01*
X117197557Y-119559873D01*
X117197558Y-119559874D01*
X117197561Y-119559876D01*
X117362293Y-119613401D01*
X117362297Y-119613402D01*
X117533386Y-119640500D01*
X117533389Y-119640500D01*
X117706614Y-119640500D01*
X117877702Y-119613402D01*
X117877706Y-119613401D01*
X118042438Y-119559876D01*
X118042440Y-119559874D01*
X118042445Y-119559873D01*
X118196788Y-119481232D01*
X118336928Y-119379414D01*
X118405498Y-119310843D01*
X118460013Y-119283068D01*
X118520445Y-119292639D01*
X118563710Y-119335904D01*
X118574500Y-119380849D01*
X118574500Y-120239151D01*
X118555593Y-120297342D01*
X118506093Y-120333306D01*
X118444907Y-120333306D01*
X118405498Y-120309156D01*
X118336928Y-120240586D01*
X118196788Y-120138768D01*
X118196787Y-120138767D01*
X118196785Y-120138766D01*
X118042441Y-120060125D01*
X118042438Y-120060123D01*
X117877706Y-120006598D01*
X117877702Y-120006597D01*
X117706614Y-119979500D01*
X117706611Y-119979500D01*
X117533389Y-119979500D01*
X117533386Y-119979500D01*
X117362297Y-120006597D01*
X117362293Y-120006598D01*
X117197561Y-120060123D01*
X117197558Y-120060125D01*
X117043214Y-120138766D01*
X116903073Y-120240585D01*
X116780585Y-120363073D01*
X116678766Y-120503214D01*
X116600125Y-120657558D01*
X116600123Y-120657561D01*
X116546598Y-120822293D01*
X116546597Y-120822297D01*
X116519500Y-120993385D01*
X116519500Y-121166614D01*
X116546597Y-121337702D01*
X116546598Y-121337706D01*
X116600123Y-121502438D01*
X116600125Y-121502441D01*
X116665499Y-121630747D01*
X116678768Y-121656788D01*
X116780586Y-121796928D01*
X116903072Y-121919414D01*
X117043212Y-122021232D01*
X117197555Y-122099873D01*
X117197557Y-122099873D01*
X117197558Y-122099874D01*
X117197561Y-122099876D01*
X117362293Y-122153401D01*
X117362297Y-122153402D01*
X117533386Y-122180500D01*
X117533389Y-122180500D01*
X117706614Y-122180500D01*
X117877702Y-122153402D01*
X117877706Y-122153401D01*
X118042438Y-122099876D01*
X118042440Y-122099874D01*
X118042445Y-122099873D01*
X118196788Y-122021232D01*
X118336928Y-121919414D01*
X118405498Y-121850843D01*
X118460013Y-121823068D01*
X118520445Y-121832639D01*
X118563710Y-121875904D01*
X118574500Y-121920849D01*
X118574500Y-122779151D01*
X118555593Y-122837342D01*
X118506093Y-122873306D01*
X118444907Y-122873306D01*
X118405498Y-122849156D01*
X118336928Y-122780586D01*
X118196788Y-122678768D01*
X118196787Y-122678767D01*
X118196785Y-122678766D01*
X118042441Y-122600125D01*
X118042438Y-122600123D01*
X117877706Y-122546598D01*
X117877702Y-122546597D01*
X117706614Y-122519500D01*
X117706611Y-122519500D01*
X117533389Y-122519500D01*
X117533386Y-122519500D01*
X117362297Y-122546597D01*
X117362293Y-122546598D01*
X117197561Y-122600123D01*
X117197558Y-122600125D01*
X117043214Y-122678766D01*
X116903073Y-122780585D01*
X116780585Y-122903073D01*
X116678768Y-123043211D01*
X116629226Y-123140445D01*
X116585961Y-123183710D01*
X116541016Y-123194500D01*
X111078984Y-123194500D01*
X111020793Y-123175593D01*
X110990774Y-123140445D01*
X110956614Y-123073401D01*
X110941232Y-123043212D01*
X110839414Y-122903072D01*
X110716928Y-122780586D01*
X110576788Y-122678768D01*
X110576787Y-122678767D01*
X110576785Y-122678766D01*
X110422441Y-122600125D01*
X110422438Y-122600123D01*
X110257706Y-122546598D01*
X110257702Y-122546597D01*
X110086614Y-122519500D01*
X110086611Y-122519500D01*
X109913389Y-122519500D01*
X109913386Y-122519500D01*
X109742297Y-122546597D01*
X109742293Y-122546598D01*
X109577561Y-122600123D01*
X109577558Y-122600125D01*
X109423214Y-122678766D01*
X109283073Y-122780585D01*
X109160585Y-122903073D01*
X109058766Y-123043214D01*
X108980125Y-123197558D01*
X108980123Y-123197561D01*
X108926598Y-123362293D01*
X108926597Y-123362297D01*
X108899500Y-123533385D01*
X108899500Y-123706614D01*
X108926597Y-123877702D01*
X108926598Y-123877706D01*
X108980123Y-124042438D01*
X108980125Y-124042441D01*
X108980126Y-124042444D01*
X108980127Y-124042445D01*
X109058768Y-124196788D01*
X109160586Y-124336928D01*
X109283072Y-124459414D01*
X109423212Y-124561232D01*
X109577555Y-124639873D01*
X109577557Y-124639873D01*
X109577558Y-124639874D01*
X109577561Y-124639876D01*
X109742293Y-124693401D01*
X109742297Y-124693402D01*
X109913386Y-124720500D01*
X109913389Y-124720500D01*
X110086614Y-124720500D01*
X110257702Y-124693402D01*
X110257706Y-124693401D01*
X110422438Y-124639876D01*
X110422440Y-124639874D01*
X110422445Y-124639873D01*
X110576788Y-124561232D01*
X110716928Y-124459414D01*
X110839414Y-124336928D01*
X110941232Y-124196788D01*
X110990774Y-124099555D01*
X111034039Y-124056290D01*
X111078984Y-124045500D01*
X116541016Y-124045500D01*
X116599207Y-124064407D01*
X116629226Y-124099555D01*
X116678768Y-124196788D01*
X116780586Y-124336928D01*
X116903072Y-124459414D01*
X117043212Y-124561232D01*
X117140444Y-124610773D01*
X117183709Y-124654037D01*
X117194500Y-124698983D01*
X117194500Y-126921015D01*
X117175593Y-126979206D01*
X117140445Y-127009225D01*
X117043214Y-127058766D01*
X116903073Y-127160585D01*
X116780585Y-127283073D01*
X116678766Y-127423214D01*
X116600125Y-127577558D01*
X116600123Y-127577561D01*
X116546598Y-127742293D01*
X116546597Y-127742297D01*
X116519500Y-127913385D01*
X116519500Y-128086614D01*
X116546597Y-128257702D01*
X116546598Y-128257706D01*
X116600123Y-128422438D01*
X116600125Y-128422441D01*
X116665499Y-128550747D01*
X116678768Y-128576788D01*
X116780586Y-128716928D01*
X116903072Y-128839414D01*
X117043212Y-128941232D01*
X117197555Y-129019873D01*
X117197557Y-129019873D01*
X117197558Y-129019874D01*
X117197561Y-129019876D01*
X117362293Y-129073401D01*
X117362297Y-129073402D01*
X117533386Y-129100500D01*
X117533389Y-129100500D01*
X117706614Y-129100500D01*
X117877702Y-129073402D01*
X117877706Y-129073401D01*
X118042438Y-129019876D01*
X118042440Y-129019874D01*
X118042445Y-129019873D01*
X118196788Y-128941232D01*
X118336928Y-128839414D01*
X118459414Y-128716928D01*
X118561232Y-128576788D01*
X118639873Y-128422445D01*
X118639874Y-128422440D01*
X118639876Y-128422438D01*
X118693401Y-128257706D01*
X118693402Y-128257702D01*
X118720500Y-128086614D01*
X118720500Y-127913385D01*
X118693402Y-127742297D01*
X118693401Y-127742293D01*
X118639876Y-127577561D01*
X118639874Y-127577558D01*
X118639873Y-127577557D01*
X118639873Y-127577555D01*
X118561232Y-127423212D01*
X118459414Y-127283072D01*
X118336928Y-127160586D01*
X118196788Y-127058768D01*
X118196787Y-127058767D01*
X118196785Y-127058766D01*
X118099555Y-127009225D01*
X118056290Y-126965960D01*
X118045500Y-126921015D01*
X118045500Y-124698983D01*
X118064407Y-124640792D01*
X118099554Y-124610774D01*
X118196788Y-124561232D01*
X118336928Y-124459414D01*
X118459414Y-124336928D01*
X118561232Y-124196788D01*
X118610774Y-124099555D01*
X118654039Y-124056290D01*
X118698984Y-124045500D01*
X118943982Y-124045500D01*
X118998333Y-124045500D01*
X119052731Y-124045920D01*
X119054348Y-124045500D01*
X119056018Y-124045500D01*
X119108414Y-124031459D01*
X119108566Y-124031419D01*
X119161170Y-124017760D01*
X119161172Y-124017758D01*
X119162882Y-124017065D01*
X119162981Y-124017025D01*
X119164161Y-124016546D01*
X119164234Y-124016503D01*
X119164237Y-124016503D01*
X119211065Y-123989465D01*
X119211610Y-123989155D01*
X119258619Y-123962496D01*
X119258619Y-123962495D01*
X119258626Y-123962492D01*
X119258631Y-123962486D01*
X119260257Y-123961259D01*
X119260258Y-123961258D01*
X119261205Y-123960541D01*
X119261258Y-123960487D01*
X119261263Y-123960485D01*
X119299567Y-123922179D01*
X119299850Y-123921898D01*
X119338457Y-123883885D01*
X119338461Y-123883877D01*
X119339692Y-123882299D01*
X119339708Y-123882278D01*
X119340443Y-123881334D01*
X119340482Y-123881265D01*
X119340485Y-123881263D01*
X119367503Y-123834465D01*
X119367853Y-123833865D01*
X119372592Y-123825800D01*
X119395223Y-123787294D01*
X119395226Y-123787281D01*
X119396034Y-123785374D01*
X119396036Y-123785369D01*
X119396483Y-123784311D01*
X119396503Y-123784237D01*
X119410501Y-123731992D01*
X119410626Y-123731531D01*
X119780028Y-122394298D01*
X119813745Y-122343247D01*
X119871034Y-122321762D01*
X119930011Y-122338053D01*
X119968148Y-122385899D01*
X119969606Y-122390068D01*
X119980126Y-122422443D01*
X120043385Y-122546598D01*
X120058768Y-122576788D01*
X120160586Y-122716928D01*
X120283072Y-122839414D01*
X120423212Y-122941232D01*
X120577555Y-123019873D01*
X120577557Y-123019873D01*
X120577558Y-123019874D01*
X120577561Y-123019876D01*
X120742293Y-123073401D01*
X120742297Y-123073402D01*
X120913386Y-123100500D01*
X120913389Y-123100500D01*
X121086614Y-123100500D01*
X121257702Y-123073402D01*
X121257706Y-123073401D01*
X121422436Y-123019876D01*
X121422436Y-123019875D01*
X121422445Y-123019873D01*
X121470157Y-122995561D01*
X121530589Y-122985990D01*
X121576948Y-123006465D01*
X123037345Y-124174782D01*
X123070973Y-124225898D01*
X123074500Y-124252088D01*
X123074500Y-125967781D01*
X123070916Y-125991313D01*
X123074500Y-126023567D01*
X123074500Y-131747911D01*
X123055593Y-131806102D01*
X123037345Y-131825217D01*
X121533361Y-133028404D01*
X121476110Y-133049991D01*
X121433631Y-133042562D01*
X121306420Y-132989870D01*
X121103467Y-132949500D01*
X121103465Y-132949500D01*
X120896535Y-132949500D01*
X120896532Y-132949500D01*
X120693581Y-132989869D01*
X120502402Y-133069058D01*
X120330348Y-133184020D01*
X120184020Y-133330348D01*
X120069058Y-133502402D01*
X119989869Y-133693581D01*
X119949500Y-133896532D01*
X119949500Y-134103467D01*
X119989869Y-134306418D01*
X120069058Y-134497597D01*
X120183947Y-134669542D01*
X120184023Y-134669655D01*
X120261972Y-134747604D01*
X120289748Y-134802119D01*
X120280177Y-134862551D01*
X120236912Y-134905816D01*
X120236241Y-134906154D01*
X118857217Y-135595666D01*
X118848246Y-135600151D01*
X118835763Y-135603497D01*
X118798322Y-135625112D01*
X118795649Y-135626449D01*
X118795636Y-135626457D01*
X118759608Y-135644472D01*
X118759606Y-135644473D01*
X118757429Y-135646404D01*
X118741257Y-135658059D01*
X118738738Y-135659513D01*
X118738737Y-135659513D01*
X118708139Y-135690110D01*
X118675780Y-135718806D01*
X118668656Y-135729593D01*
X118661575Y-135736675D01*
X118661575Y-135736676D01*
X118659518Y-135738733D01*
X118659510Y-135738742D01*
X118639366Y-135773632D01*
X118639367Y-135773633D01*
X118637886Y-135776199D01*
X118614050Y-135812301D01*
X118609961Y-135824565D01*
X118604957Y-135833233D01*
X118603495Y-135835765D01*
X118603494Y-135835767D01*
X118593067Y-135874681D01*
X118593068Y-135874682D01*
X118592299Y-135877553D01*
X118578621Y-135918589D01*
X118577846Y-135931490D01*
X118575251Y-135941175D01*
X118575249Y-135941176D01*
X118574501Y-135943969D01*
X118574500Y-135943981D01*
X118574500Y-135943982D01*
X118574500Y-135987242D01*
X118571908Y-136030423D01*
X118574500Y-136043089D01*
X118574500Y-149056018D01*
X118600072Y-149151455D01*
X118603498Y-149164241D01*
X118659513Y-149261260D01*
X118659515Y-149261263D01*
X118738737Y-149340485D01*
X118738739Y-149340486D01*
X118835759Y-149396501D01*
X118835757Y-149396501D01*
X118835761Y-149396502D01*
X118835763Y-149396503D01*
X118943982Y-149425500D01*
X118943984Y-149425500D01*
X154056016Y-149425500D01*
X154056018Y-149425500D01*
X154164237Y-149396503D01*
X154164239Y-149396501D01*
X154164241Y-149396501D01*
X154193064Y-149379859D01*
X154261263Y-149340485D01*
X154340485Y-149261263D01*
X154396503Y-149164237D01*
X154425500Y-149056018D01*
X154425500Y-147126628D01*
X154444407Y-147068437D01*
X154469494Y-147044315D01*
X154574035Y-146974464D01*
X154699464Y-146849035D01*
X154798013Y-146701547D01*
X154865894Y-146537666D01*
X154900500Y-146363691D01*
X154900500Y-145636309D01*
X154900499Y-145636306D01*
X155099500Y-145636306D01*
X155099500Y-146363693D01*
X155134106Y-146537665D01*
X155134106Y-146537667D01*
X155201985Y-146701544D01*
X155201985Y-146701545D01*
X155212264Y-146716928D01*
X155300536Y-146849035D01*
X155425965Y-146974464D01*
X155573453Y-147073013D01*
X155573454Y-147073013D01*
X155573455Y-147073014D01*
X155574392Y-147073402D01*
X155737334Y-147140894D01*
X155911309Y-147175500D01*
X155911310Y-147175500D01*
X156088690Y-147175500D01*
X156088691Y-147175500D01*
X156262666Y-147140894D01*
X156426547Y-147073013D01*
X156574035Y-146974464D01*
X156699464Y-146849035D01*
X156798013Y-146701547D01*
X156865894Y-146537666D01*
X156900500Y-146363691D01*
X156900500Y-145636309D01*
X156900499Y-145636306D01*
X157099500Y-145636306D01*
X157099500Y-146363693D01*
X157134106Y-146537665D01*
X157134106Y-146537667D01*
X157201985Y-146701544D01*
X157201985Y-146701545D01*
X157212264Y-146716928D01*
X157300536Y-146849035D01*
X157425965Y-146974464D01*
X157573453Y-147073013D01*
X157573454Y-147073013D01*
X157573455Y-147073014D01*
X157574392Y-147073402D01*
X157737334Y-147140894D01*
X157911309Y-147175500D01*
X157911310Y-147175500D01*
X158088690Y-147175500D01*
X158088691Y-147175500D01*
X158262666Y-147140894D01*
X158426547Y-147073013D01*
X158574035Y-146974464D01*
X158699464Y-146849035D01*
X158798013Y-146701547D01*
X158865894Y-146537666D01*
X158900500Y-146363691D01*
X158900500Y-145636309D01*
X158865894Y-145462334D01*
X158811867Y-145331899D01*
X158798014Y-145298454D01*
X158765182Y-145249317D01*
X158748574Y-145190428D01*
X158754350Y-145160783D01*
X158754421Y-145160586D01*
X160175046Y-141214403D01*
X160212545Y-141166059D01*
X160252706Y-141150158D01*
X160316594Y-141140039D01*
X160429409Y-141122171D01*
X160601639Y-141066211D01*
X160762994Y-140983996D01*
X160909501Y-140877553D01*
X161037553Y-140749501D01*
X161143996Y-140602994D01*
X161226211Y-140441639D01*
X161282171Y-140269409D01*
X161310500Y-140090546D01*
X161310500Y-139909454D01*
X161310500Y-139909450D01*
X161282171Y-139730593D01*
X161282171Y-139730591D01*
X161226211Y-139558361D01*
X161143996Y-139397006D01*
X161037553Y-139250499D01*
X160909501Y-139122447D01*
X160762994Y-139016004D01*
X160762993Y-139016003D01*
X160762991Y-139016002D01*
X160601637Y-138933788D01*
X160429406Y-138877828D01*
X160250549Y-138849500D01*
X160250546Y-138849500D01*
X160069454Y-138849500D01*
X160069451Y-138849500D01*
X159890593Y-138877828D01*
X159718362Y-138933788D01*
X159557008Y-139016002D01*
X159498149Y-139058766D01*
X159410499Y-139122447D01*
X159282447Y-139250499D01*
X159258781Y-139283073D01*
X159176002Y-139397008D01*
X159093788Y-139558362D01*
X159037828Y-139730593D01*
X159009500Y-139909450D01*
X159009500Y-140090549D01*
X159037828Y-140269406D01*
X159093788Y-140441637D01*
X159162649Y-140576785D01*
X159176004Y-140602994D01*
X159282447Y-140749501D01*
X159282451Y-140749505D01*
X159282452Y-140749506D01*
X159352360Y-140819415D01*
X159380137Y-140873932D01*
X159375504Y-140922951D01*
X157994328Y-144759551D01*
X157956828Y-144807898D01*
X157915913Y-144822719D01*
X157916079Y-144823551D01*
X157737334Y-144859106D01*
X157737332Y-144859106D01*
X157573455Y-144926985D01*
X157573454Y-144926985D01*
X157425965Y-145025535D01*
X157300535Y-145150965D01*
X157201985Y-145298454D01*
X157201985Y-145298455D01*
X157134106Y-145462332D01*
X157134106Y-145462334D01*
X157099500Y-145636306D01*
X156900499Y-145636306D01*
X156865894Y-145462334D01*
X156798013Y-145298453D01*
X156703445Y-145156924D01*
X156686837Y-145098037D01*
X156690182Y-145076124D01*
X157735144Y-141205892D01*
X157768566Y-141154644D01*
X157815235Y-141133919D01*
X157889406Y-141122172D01*
X157904268Y-141117343D01*
X158061639Y-141066211D01*
X158222994Y-140983996D01*
X158369501Y-140877553D01*
X158497553Y-140749501D01*
X158603996Y-140602994D01*
X158686211Y-140441639D01*
X158742171Y-140269409D01*
X158770500Y-140090546D01*
X158770500Y-139909454D01*
X158770500Y-139909450D01*
X158742171Y-139730593D01*
X158742171Y-139730591D01*
X158686211Y-139558361D01*
X158603996Y-139397006D01*
X158497553Y-139250499D01*
X158369501Y-139122447D01*
X158222994Y-139016004D01*
X158222993Y-139016003D01*
X158222991Y-139016002D01*
X158061637Y-138933788D01*
X157889406Y-138877828D01*
X157710549Y-138849500D01*
X157710546Y-138849500D01*
X157529454Y-138849500D01*
X157529451Y-138849500D01*
X157350593Y-138877828D01*
X157178362Y-138933788D01*
X157017008Y-139016002D01*
X156958149Y-139058766D01*
X156870499Y-139122447D01*
X156742447Y-139250499D01*
X156718781Y-139283073D01*
X156636002Y-139397008D01*
X156553788Y-139558362D01*
X156497828Y-139730593D01*
X156469500Y-139909450D01*
X156469500Y-140090549D01*
X156497828Y-140269406D01*
X156553788Y-140441637D01*
X156622649Y-140576785D01*
X156636004Y-140602994D01*
X156742447Y-140749501D01*
X156870499Y-140877553D01*
X156870502Y-140877555D01*
X156875384Y-140881102D01*
X156911349Y-140930601D01*
X156912772Y-140987002D01*
X155890693Y-144772477D01*
X155857271Y-144823727D01*
X155814432Y-144843768D01*
X155737341Y-144859104D01*
X155737332Y-144859106D01*
X155573455Y-144926985D01*
X155573454Y-144926985D01*
X155425965Y-145025535D01*
X155300535Y-145150965D01*
X155201985Y-145298454D01*
X155201985Y-145298455D01*
X155134106Y-145462332D01*
X155134106Y-145462334D01*
X155099500Y-145636306D01*
X154900499Y-145636306D01*
X154865894Y-145462334D01*
X154798014Y-145298455D01*
X154798014Y-145298454D01*
X154699464Y-145150965D01*
X154639198Y-145090699D01*
X154611421Y-145036182D01*
X154611767Y-145003161D01*
X155297424Y-141193959D01*
X155326341Y-141140039D01*
X155364263Y-141117344D01*
X155521639Y-141066211D01*
X155682994Y-140983996D01*
X155829501Y-140877553D01*
X155957553Y-140749501D01*
X156063996Y-140602994D01*
X156146211Y-140441639D01*
X156202171Y-140269409D01*
X156230500Y-140090546D01*
X156230500Y-139909454D01*
X156230500Y-139909450D01*
X156202171Y-139730593D01*
X156202171Y-139730591D01*
X156146211Y-139558361D01*
X156063996Y-139397006D01*
X155957553Y-139250499D01*
X155829501Y-139122447D01*
X155682994Y-139016004D01*
X155682993Y-139016003D01*
X155682991Y-139016002D01*
X155521637Y-138933788D01*
X155349406Y-138877828D01*
X155170549Y-138849500D01*
X155170546Y-138849500D01*
X154989454Y-138849500D01*
X154989451Y-138849500D01*
X154810593Y-138877828D01*
X154638362Y-138933788D01*
X154477008Y-139016002D01*
X154418149Y-139058766D01*
X154330499Y-139122447D01*
X154202447Y-139250499D01*
X154178781Y-139283073D01*
X154096002Y-139397008D01*
X154013788Y-139558362D01*
X153957828Y-139730593D01*
X153929500Y-139909450D01*
X153929500Y-140090549D01*
X153957828Y-140269406D01*
X154013788Y-140441637D01*
X154082649Y-140576785D01*
X154096004Y-140602994D01*
X154202447Y-140749501D01*
X154330499Y-140877553D01*
X154330502Y-140877555D01*
X154330504Y-140877557D01*
X154421042Y-140943336D01*
X154457006Y-140992836D01*
X154460286Y-141040967D01*
X153785478Y-144789904D01*
X153756561Y-144843825D01*
X153725929Y-144863830D01*
X153573455Y-144926985D01*
X153573454Y-144926985D01*
X153425965Y-145025535D01*
X153300535Y-145150965D01*
X153201985Y-145298454D01*
X153201985Y-145298455D01*
X153134106Y-145462332D01*
X153134106Y-145462334D01*
X153099500Y-145636306D01*
X153099500Y-146363693D01*
X153134106Y-146537665D01*
X153134106Y-146537667D01*
X153201985Y-146701544D01*
X153201985Y-146701545D01*
X153212264Y-146716928D01*
X153300536Y-146849035D01*
X153425965Y-146974464D01*
X153530502Y-147044314D01*
X153568381Y-147092362D01*
X153574500Y-147126628D01*
X153574500Y-148475500D01*
X153555593Y-148533691D01*
X153506093Y-148569655D01*
X153475500Y-148574500D01*
X119524500Y-148574500D01*
X119466309Y-148555593D01*
X119430345Y-148506093D01*
X119425500Y-148475500D01*
X119425500Y-139913385D01*
X119899500Y-139913385D01*
X119899500Y-140086614D01*
X119926597Y-140257702D01*
X119926598Y-140257706D01*
X119980123Y-140422438D01*
X119980125Y-140422441D01*
X120022222Y-140505063D01*
X120058768Y-140576788D01*
X120160586Y-140716928D01*
X120283072Y-140839414D01*
X120423212Y-140941232D01*
X120520444Y-140990773D01*
X120563709Y-141034037D01*
X120574500Y-141078983D01*
X120574500Y-144921015D01*
X120555593Y-144979206D01*
X120520445Y-145009225D01*
X120423214Y-145058766D01*
X120283073Y-145160585D01*
X120160585Y-145283073D01*
X120058766Y-145423214D01*
X119980125Y-145577558D01*
X119980123Y-145577561D01*
X119926598Y-145742293D01*
X119926597Y-145742297D01*
X119899500Y-145913385D01*
X119899500Y-146086614D01*
X119926597Y-146257702D01*
X119926598Y-146257706D01*
X119980123Y-146422438D01*
X119980125Y-146422441D01*
X120038834Y-146537666D01*
X120058768Y-146576788D01*
X120160586Y-146716928D01*
X120283072Y-146839414D01*
X120423212Y-146941232D01*
X120577555Y-147019873D01*
X120577557Y-147019873D01*
X120577558Y-147019874D01*
X120577561Y-147019876D01*
X120742293Y-147073401D01*
X120742297Y-147073402D01*
X120913386Y-147100500D01*
X120913389Y-147100500D01*
X121086614Y-147100500D01*
X121257702Y-147073402D01*
X121257706Y-147073401D01*
X121422438Y-147019876D01*
X121422440Y-147019874D01*
X121422445Y-147019873D01*
X121576788Y-146941232D01*
X121716928Y-146839414D01*
X121839414Y-146716928D01*
X121941232Y-146576788D01*
X122019873Y-146422445D01*
X122019874Y-146422440D01*
X122019876Y-146422438D01*
X122073401Y-146257706D01*
X122073402Y-146257702D01*
X122100500Y-146086614D01*
X122100500Y-145913385D01*
X122073402Y-145742297D01*
X122073401Y-145742293D01*
X122019876Y-145577561D01*
X122019874Y-145577558D01*
X122019873Y-145577557D01*
X122019873Y-145577555D01*
X121941232Y-145423212D01*
X121839414Y-145283072D01*
X121716928Y-145160586D01*
X121576788Y-145058768D01*
X121576787Y-145058767D01*
X121576785Y-145058766D01*
X121479555Y-145009225D01*
X121436290Y-144965960D01*
X121425500Y-144921015D01*
X121425500Y-141078983D01*
X121444407Y-141020792D01*
X121479554Y-140990774D01*
X121576788Y-140941232D01*
X121716928Y-140839414D01*
X121839414Y-140716928D01*
X121941232Y-140576788D01*
X122019873Y-140422445D01*
X122019874Y-140422440D01*
X122019876Y-140422438D01*
X122073401Y-140257706D01*
X122073402Y-140257702D01*
X122100500Y-140086614D01*
X122100500Y-139913385D01*
X122073402Y-139742297D01*
X122073401Y-139742293D01*
X122019876Y-139577561D01*
X122019874Y-139577558D01*
X122019873Y-139577557D01*
X122019873Y-139577555D01*
X121941232Y-139423212D01*
X121839414Y-139283072D01*
X121716928Y-139160586D01*
X121576788Y-139058768D01*
X121576787Y-139058767D01*
X121576785Y-139058766D01*
X121422441Y-138980125D01*
X121422438Y-138980123D01*
X121257706Y-138926598D01*
X121257702Y-138926597D01*
X121086614Y-138899500D01*
X121086611Y-138899500D01*
X120913389Y-138899500D01*
X120913386Y-138899500D01*
X120742297Y-138926597D01*
X120742293Y-138926598D01*
X120577561Y-138980123D01*
X120577558Y-138980125D01*
X120423214Y-139058766D01*
X120283073Y-139160585D01*
X120160585Y-139283073D01*
X120058766Y-139423214D01*
X119980125Y-139577558D01*
X119980123Y-139577561D01*
X119926598Y-139742293D01*
X119926597Y-139742297D01*
X119899500Y-139913385D01*
X119425500Y-139913385D01*
X119425500Y-136324158D01*
X119444407Y-136265967D01*
X119480226Y-136235610D01*
X120760580Y-135595433D01*
X122148513Y-134901467D01*
X122157545Y-134899209D01*
X122198496Y-134876475D01*
X122240393Y-134855527D01*
X122247359Y-134849349D01*
X122255499Y-134844831D01*
X122289167Y-134812276D01*
X122324220Y-134781194D01*
X122329351Y-134773422D01*
X122336042Y-134766953D01*
X122360135Y-134726796D01*
X122385950Y-134687699D01*
X122385950Y-134687697D01*
X122385952Y-134687695D01*
X122388791Y-134681859D01*
X122388817Y-134681871D01*
X122394484Y-134669547D01*
X123832873Y-132272232D01*
X123833362Y-132271427D01*
X123838190Y-132263556D01*
X123840485Y-132261263D01*
X123854642Y-132236740D01*
X123855323Y-132235631D01*
X123855624Y-132235374D01*
X123859952Y-132228751D01*
X123875941Y-132207019D01*
X123880262Y-132195957D01*
X123885532Y-132184635D01*
X123886512Y-132182834D01*
X123893684Y-132170883D01*
X123894414Y-132168326D01*
X123896056Y-132165313D01*
X123896498Y-132164244D01*
X123896503Y-132164237D01*
X123903489Y-132138159D01*
X123906891Y-132127797D01*
X123916711Y-132102664D01*
X123918021Y-132090867D01*
X123920181Y-132078567D01*
X123920662Y-132076573D01*
X123924498Y-132063167D01*
X123924542Y-132060502D01*
X123925348Y-132057167D01*
X123925500Y-132056017D01*
X123925500Y-132029046D01*
X123926106Y-132018111D01*
X123929084Y-131991313D01*
X123927296Y-131979578D01*
X123926199Y-131967135D01*
X123926147Y-131965067D01*
X123926382Y-131951147D01*
X123925737Y-131948569D01*
X123925531Y-131940255D01*
X123925622Y-131939946D01*
X123925500Y-131937795D01*
X123925500Y-127091287D01*
X123944407Y-127033096D01*
X123993907Y-126997132D01*
X124055093Y-126997132D01*
X124086341Y-127013978D01*
X124460303Y-127313148D01*
X124889546Y-127656543D01*
X124923174Y-127707659D01*
X124925482Y-127749335D01*
X124899500Y-127913384D01*
X124899500Y-128086614D01*
X124926597Y-128257702D01*
X124926598Y-128257706D01*
X124980123Y-128422438D01*
X124980125Y-128422441D01*
X125045499Y-128550747D01*
X125058768Y-128576788D01*
X125160586Y-128716928D01*
X125283072Y-128839414D01*
X125423212Y-128941232D01*
X125577555Y-129019873D01*
X125577557Y-129019873D01*
X125577558Y-129019874D01*
X125577561Y-129019876D01*
X125742293Y-129073401D01*
X125742297Y-129073402D01*
X125913386Y-129100500D01*
X125913389Y-129100500D01*
X126086614Y-129100500D01*
X126257702Y-129073402D01*
X126257706Y-129073401D01*
X126422438Y-129019876D01*
X126422440Y-129019874D01*
X126422445Y-129019873D01*
X126576788Y-128941232D01*
X126716928Y-128839414D01*
X126839414Y-128716928D01*
X126941232Y-128576788D01*
X127019873Y-128422445D01*
X127019874Y-128422440D01*
X127019876Y-128422438D01*
X127073401Y-128257706D01*
X127073402Y-128257702D01*
X127100500Y-128086614D01*
X127100500Y-127913385D01*
X127073402Y-127742297D01*
X127073401Y-127742293D01*
X127019876Y-127577561D01*
X127019874Y-127577558D01*
X127019873Y-127577557D01*
X127019873Y-127577555D01*
X126941232Y-127423212D01*
X126839414Y-127283072D01*
X126716928Y-127160586D01*
X126576788Y-127058768D01*
X126576787Y-127058767D01*
X126576785Y-127058766D01*
X126422441Y-126980125D01*
X126422438Y-126980123D01*
X126257706Y-126926598D01*
X126257702Y-126926597D01*
X126086614Y-126899500D01*
X126086611Y-126899500D01*
X125913389Y-126899500D01*
X125913386Y-126899500D01*
X125742297Y-126926597D01*
X125742293Y-126926598D01*
X125577561Y-126980123D01*
X125577552Y-126980127D01*
X125529839Y-127004438D01*
X125469406Y-127014009D01*
X125423050Y-126993534D01*
X125408236Y-126981683D01*
X125012648Y-126665212D01*
X123962655Y-125825217D01*
X123929027Y-125774101D01*
X123925500Y-125747911D01*
X123925500Y-124524500D01*
X123944407Y-124466309D01*
X123993907Y-124430345D01*
X124024500Y-124425500D01*
X129969760Y-124425500D01*
X129995281Y-124429146D01*
X130025544Y-124425500D01*
X130056018Y-124425500D01*
X130056019Y-124425500D01*
X130063693Y-124423443D01*
X130074115Y-124420650D01*
X130087901Y-124417986D01*
X130106512Y-124415745D01*
X130134799Y-124404390D01*
X130164237Y-124396503D01*
X130186561Y-124383614D01*
X130210486Y-124374011D01*
X130234869Y-124355723D01*
X130261263Y-124340485D01*
X130279490Y-124322257D01*
X132249818Y-122844509D01*
X132251893Y-122842996D01*
X132256938Y-122839414D01*
X133366255Y-122051798D01*
X133424646Y-122033528D01*
X133468507Y-122044311D01*
X133577555Y-122099873D01*
X133577557Y-122099873D01*
X133577558Y-122099874D01*
X133577561Y-122099876D01*
X133742293Y-122153401D01*
X133742297Y-122153402D01*
X133913386Y-122180500D01*
X133913389Y-122180500D01*
X134086614Y-122180500D01*
X134257702Y-122153402D01*
X134257706Y-122153401D01*
X134422438Y-122099876D01*
X134422440Y-122099874D01*
X134422445Y-122099873D01*
X134576788Y-122021232D01*
X134716928Y-121919414D01*
X134839414Y-121796928D01*
X134941232Y-121656788D01*
X135019873Y-121502445D01*
X135019874Y-121502440D01*
X135019876Y-121502438D01*
X135073401Y-121337706D01*
X135073402Y-121337702D01*
X135100500Y-121166614D01*
X135100500Y-120993387D01*
X135094448Y-120955182D01*
X135104018Y-120894750D01*
X135138861Y-120856309D01*
X135909545Y-120363073D01*
X136100105Y-120241115D01*
X136153471Y-120225500D01*
X139551349Y-120225500D01*
X139558526Y-120227163D01*
X139607259Y-120225500D01*
X139656018Y-120225500D01*
X139656019Y-120225500D01*
X139663135Y-120223592D01*
X139670497Y-120223342D01*
X139717136Y-120209123D01*
X139764237Y-120196503D01*
X139764244Y-120196498D01*
X139770233Y-120194019D01*
X139770362Y-120194332D01*
X139771900Y-120193664D01*
X139771760Y-120193355D01*
X139777658Y-120190672D01*
X139777664Y-120190671D01*
X139777668Y-120190667D01*
X139777671Y-120190667D01*
X139817614Y-120165751D01*
X139817614Y-120165750D01*
X139819034Y-120164865D01*
X139861263Y-120140485D01*
X139866472Y-120135275D01*
X140927385Y-119473516D01*
X140986764Y-119458763D01*
X141037968Y-119477422D01*
X141043212Y-119481232D01*
X141197555Y-119559873D01*
X141197557Y-119559873D01*
X141197558Y-119559874D01*
X141197561Y-119559876D01*
X141362293Y-119613401D01*
X141362297Y-119613402D01*
X141533386Y-119640500D01*
X141533389Y-119640500D01*
X141706614Y-119640500D01*
X141877702Y-119613402D01*
X141877706Y-119613401D01*
X142042438Y-119559876D01*
X142042440Y-119559874D01*
X142042445Y-119559873D01*
X142196788Y-119481232D01*
X142336928Y-119379414D01*
X142405498Y-119310843D01*
X142460013Y-119283068D01*
X142520445Y-119292639D01*
X142563710Y-119335904D01*
X142574500Y-119380849D01*
X142574500Y-120239151D01*
X142555593Y-120297342D01*
X142506093Y-120333306D01*
X142444907Y-120333306D01*
X142405498Y-120309156D01*
X142336928Y-120240586D01*
X142196788Y-120138768D01*
X142196787Y-120138767D01*
X142196785Y-120138766D01*
X142042441Y-120060125D01*
X142042438Y-120060123D01*
X141877706Y-120006598D01*
X141877702Y-120006597D01*
X141706614Y-119979500D01*
X141706611Y-119979500D01*
X141533389Y-119979500D01*
X141533386Y-119979500D01*
X141362297Y-120006597D01*
X141362293Y-120006598D01*
X141197561Y-120060123D01*
X141197558Y-120060125D01*
X141043214Y-120138766D01*
X140903073Y-120240585D01*
X140780585Y-120363073D01*
X140678766Y-120503214D01*
X140600125Y-120657558D01*
X140600123Y-120657561D01*
X140546598Y-120822293D01*
X140546597Y-120822297D01*
X140519500Y-120993385D01*
X140519500Y-121166614D01*
X140546597Y-121337702D01*
X140546598Y-121337706D01*
X140600123Y-121502438D01*
X140600125Y-121502441D01*
X140665499Y-121630747D01*
X140678768Y-121656788D01*
X140780586Y-121796928D01*
X140903072Y-121919414D01*
X141043212Y-122021232D01*
X141197555Y-122099873D01*
X141197557Y-122099873D01*
X141197558Y-122099874D01*
X141197561Y-122099876D01*
X141362293Y-122153401D01*
X141362297Y-122153402D01*
X141533386Y-122180500D01*
X141533389Y-122180500D01*
X141706614Y-122180500D01*
X141877702Y-122153402D01*
X141877706Y-122153401D01*
X142042438Y-122099876D01*
X142042440Y-122099874D01*
X142042445Y-122099873D01*
X142196788Y-122021232D01*
X142336928Y-121919414D01*
X142405498Y-121850843D01*
X142460013Y-121823068D01*
X142520445Y-121832639D01*
X142563710Y-121875904D01*
X142574500Y-121920849D01*
X142574500Y-127159151D01*
X142555593Y-127217342D01*
X142506093Y-127253306D01*
X142444907Y-127253306D01*
X142405498Y-127229156D01*
X142336928Y-127160586D01*
X142196788Y-127058768D01*
X142196787Y-127058767D01*
X142196785Y-127058766D01*
X142042441Y-126980125D01*
X142042438Y-126980123D01*
X141877706Y-126926598D01*
X141877702Y-126926597D01*
X141706614Y-126899500D01*
X141706611Y-126899500D01*
X141568357Y-126899500D01*
X141510166Y-126880593D01*
X141481246Y-126847540D01*
X141213862Y-126352385D01*
X140398094Y-124841704D01*
X140396503Y-124835763D01*
X140371518Y-124792487D01*
X140360371Y-124771844D01*
X140347783Y-124748533D01*
X140344215Y-124743600D01*
X140340487Y-124738741D01*
X140340485Y-124738737D01*
X140340481Y-124738733D01*
X140306146Y-124704397D01*
X140305136Y-124703387D01*
X140270848Y-124667089D01*
X140265611Y-124663863D01*
X140261263Y-124659515D01*
X140261261Y-124659513D01*
X140219215Y-124635238D01*
X140216815Y-124633807D01*
X140175456Y-124608332D01*
X140175453Y-124608331D01*
X140175454Y-124608331D01*
X140169562Y-124606571D01*
X140164237Y-124603497D01*
X140115976Y-124590565D01*
X140114635Y-124590164D01*
X140114634Y-124590163D01*
X140068109Y-124576267D01*
X140067564Y-124576251D01*
X140061959Y-124576091D01*
X140056018Y-124574500D01*
X140006053Y-124574500D01*
X140004647Y-124574459D01*
X139956113Y-124573077D01*
X139949666Y-124573741D01*
X139949610Y-124573201D01*
X139938530Y-124574500D01*
X136163393Y-124574500D01*
X136107168Y-124556985D01*
X135129566Y-123882439D01*
X135092409Y-123833829D01*
X135088010Y-123785466D01*
X135088026Y-123785369D01*
X135092816Y-123755119D01*
X135100500Y-123706613D01*
X135100500Y-123533385D01*
X135073402Y-123362297D01*
X135073401Y-123362293D01*
X135019876Y-123197561D01*
X135019874Y-123197558D01*
X135019873Y-123197557D01*
X135019873Y-123197555D01*
X134941232Y-123043212D01*
X134839414Y-122903072D01*
X134716928Y-122780586D01*
X134576788Y-122678768D01*
X134576787Y-122678767D01*
X134576785Y-122678766D01*
X134422441Y-122600125D01*
X134422438Y-122600123D01*
X134257706Y-122546598D01*
X134257702Y-122546597D01*
X134086614Y-122519500D01*
X134086611Y-122519500D01*
X133913389Y-122519500D01*
X133913386Y-122519500D01*
X133742297Y-122546597D01*
X133742293Y-122546598D01*
X133577561Y-122600123D01*
X133577558Y-122600125D01*
X133423214Y-122678766D01*
X133283073Y-122780585D01*
X133160585Y-122903073D01*
X133058766Y-123043214D01*
X132980125Y-123197558D01*
X132980123Y-123197561D01*
X132926598Y-123362293D01*
X132926597Y-123362297D01*
X132899500Y-123533385D01*
X132899500Y-123706614D01*
X132926597Y-123877702D01*
X132926598Y-123877706D01*
X132980123Y-124042438D01*
X132980125Y-124042441D01*
X132980126Y-124042444D01*
X132980127Y-124042445D01*
X133058768Y-124196788D01*
X133160586Y-124336928D01*
X133283072Y-124459414D01*
X133423212Y-124561232D01*
X133577555Y-124639873D01*
X133577557Y-124639873D01*
X133577558Y-124639874D01*
X133577561Y-124639876D01*
X133742293Y-124693401D01*
X133742297Y-124693402D01*
X133913386Y-124720500D01*
X133913389Y-124720500D01*
X134086614Y-124720500D01*
X134257702Y-124693402D01*
X134257706Y-124693401D01*
X134422438Y-124639876D01*
X134422440Y-124639874D01*
X134422445Y-124639873D01*
X134546114Y-124576860D01*
X134606545Y-124567290D01*
X134647282Y-124583585D01*
X135726493Y-125328241D01*
X135738737Y-125340485D01*
X135772429Y-125359937D01*
X135804455Y-125382035D01*
X135820767Y-125387845D01*
X135835763Y-125396503D01*
X135873343Y-125406572D01*
X135909996Y-125419628D01*
X135918279Y-125420295D01*
X135918282Y-125420296D01*
X135927260Y-125421019D01*
X135943982Y-125425500D01*
X135982888Y-125425500D01*
X135986861Y-125425820D01*
X136021670Y-125428624D01*
X136029843Y-125427124D01*
X136047704Y-125425500D01*
X139687142Y-125425500D01*
X139745333Y-125444407D01*
X139774253Y-125477460D01*
X140733024Y-127252962D01*
X140744036Y-127313148D01*
X140726007Y-127358192D01*
X140678768Y-127423212D01*
X140600125Y-127577558D01*
X140600123Y-127577561D01*
X140546598Y-127742293D01*
X140546597Y-127742297D01*
X140519500Y-127913385D01*
X140519500Y-128086614D01*
X140546597Y-128257702D01*
X140546598Y-128257706D01*
X140600123Y-128422438D01*
X140600125Y-128422441D01*
X140665499Y-128550747D01*
X140678768Y-128576788D01*
X140780586Y-128716928D01*
X140903072Y-128839414D01*
X141043212Y-128941232D01*
X141197555Y-129019873D01*
X141197557Y-129019873D01*
X141197558Y-129019874D01*
X141197561Y-129019876D01*
X141362293Y-129073401D01*
X141362297Y-129073402D01*
X141533386Y-129100500D01*
X141533389Y-129100500D01*
X141706614Y-129100500D01*
X141877702Y-129073402D01*
X141877706Y-129073401D01*
X142042438Y-129019876D01*
X142042440Y-129019874D01*
X142042445Y-129019873D01*
X142196788Y-128941232D01*
X142336928Y-128839414D01*
X142405498Y-128770843D01*
X142460013Y-128743068D01*
X142520445Y-128752639D01*
X142563710Y-128795904D01*
X142574500Y-128840849D01*
X142574500Y-132987242D01*
X142571908Y-133030424D01*
X142574500Y-133043090D01*
X142574500Y-133056018D01*
X142584925Y-133094927D01*
X142586286Y-133100696D01*
X142594367Y-133140180D01*
X142594370Y-133140188D01*
X142595668Y-133142784D01*
X142602744Y-133161428D01*
X142604104Y-133166503D01*
X142600903Y-133227605D01*
X142562400Y-133275156D01*
X142503300Y-133290993D01*
X142446178Y-133269068D01*
X142438484Y-133262142D01*
X142336928Y-133160586D01*
X142196788Y-133058768D01*
X142196787Y-133058767D01*
X142196785Y-133058766D01*
X142042441Y-132980125D01*
X142042438Y-132980123D01*
X141877706Y-132926598D01*
X141877702Y-132926597D01*
X141706614Y-132899500D01*
X141706611Y-132899500D01*
X141533389Y-132899500D01*
X141533386Y-132899500D01*
X141362297Y-132926597D01*
X141362293Y-132926598D01*
X141197561Y-132980123D01*
X141197558Y-132980125D01*
X141043214Y-133058766D01*
X140903073Y-133160585D01*
X140780585Y-133283073D01*
X140678766Y-133423214D01*
X140600125Y-133577558D01*
X140600123Y-133577561D01*
X140546598Y-133742293D01*
X140546597Y-133742297D01*
X140519500Y-133913385D01*
X140519500Y-134086614D01*
X140546597Y-134257702D01*
X140546598Y-134257706D01*
X140600123Y-134422438D01*
X140600125Y-134422441D01*
X140639897Y-134500500D01*
X140678768Y-134576788D01*
X140780586Y-134716928D01*
X140903072Y-134839414D01*
X141043212Y-134941232D01*
X141197555Y-135019873D01*
X141197557Y-135019873D01*
X141197558Y-135019874D01*
X141197561Y-135019876D01*
X141362293Y-135073401D01*
X141362297Y-135073402D01*
X141533386Y-135100500D01*
X141533389Y-135100500D01*
X141706614Y-135100500D01*
X141877702Y-135073402D01*
X141945726Y-135051299D01*
X141999754Y-135033743D01*
X142060940Y-135033743D01*
X142094036Y-135052104D01*
X143618781Y-136333402D01*
X143643302Y-136354008D01*
X143646774Y-136359574D01*
X143653975Y-136364447D01*
X143657953Y-136368974D01*
X143666259Y-136378426D01*
X143667547Y-136379891D01*
X143694695Y-136397990D01*
X143695785Y-136399369D01*
X143697463Y-136399903D01*
X143703464Y-136404565D01*
X143716413Y-136415446D01*
X143728085Y-136425255D01*
X143760470Y-136477167D01*
X143756157Y-136538200D01*
X143716792Y-136585042D01*
X143657414Y-136599800D01*
X143638768Y-136596672D01*
X143619288Y-136591452D01*
X143615847Y-136590463D01*
X143571384Y-136576807D01*
X143571382Y-136576806D01*
X143571380Y-136576806D01*
X143571377Y-136576805D01*
X143564986Y-136575728D01*
X143565030Y-136575466D01*
X143562484Y-136575084D01*
X143562450Y-136575347D01*
X143556018Y-136574500D01*
X143556017Y-136574500D01*
X143507694Y-136574500D01*
X143459418Y-136572752D01*
X143451801Y-136574500D01*
X134524500Y-136574500D01*
X134466309Y-136555593D01*
X134430345Y-136506093D01*
X134425500Y-136475500D01*
X134425500Y-135078983D01*
X134444407Y-135020792D01*
X134479554Y-134990774D01*
X134576788Y-134941232D01*
X134716928Y-134839414D01*
X134839414Y-134716928D01*
X134941232Y-134576788D01*
X135019873Y-134422445D01*
X135019874Y-134422440D01*
X135019876Y-134422438D01*
X135073401Y-134257706D01*
X135073402Y-134257702D01*
X135100500Y-134086614D01*
X135100500Y-133913385D01*
X135073402Y-133742297D01*
X135073401Y-133742293D01*
X135019876Y-133577561D01*
X135019874Y-133577558D01*
X135019873Y-133577557D01*
X135019873Y-133577555D01*
X134941232Y-133423212D01*
X134839414Y-133283072D01*
X134716928Y-133160586D01*
X134576788Y-133058768D01*
X134576787Y-133058767D01*
X134576785Y-133058766D01*
X134479555Y-133009225D01*
X134436290Y-132965960D01*
X134425500Y-132921015D01*
X134425500Y-129078983D01*
X134444407Y-129020792D01*
X134479554Y-128990774D01*
X134576788Y-128941232D01*
X134716928Y-128839414D01*
X134839414Y-128716928D01*
X134941232Y-128576788D01*
X135019873Y-128422445D01*
X135019874Y-128422440D01*
X135019876Y-128422438D01*
X135073401Y-128257706D01*
X135073402Y-128257702D01*
X135100500Y-128086614D01*
X135100500Y-127913385D01*
X135073402Y-127742297D01*
X135073401Y-127742293D01*
X135019876Y-127577561D01*
X135019874Y-127577558D01*
X135019873Y-127577557D01*
X135019873Y-127577555D01*
X134941232Y-127423212D01*
X134839414Y-127283072D01*
X134716928Y-127160586D01*
X134576788Y-127058768D01*
X134576787Y-127058767D01*
X134576785Y-127058766D01*
X134422441Y-126980125D01*
X134422438Y-126980123D01*
X134257706Y-126926598D01*
X134257702Y-126926597D01*
X134086614Y-126899500D01*
X134086611Y-126899500D01*
X133913389Y-126899500D01*
X133913386Y-126899500D01*
X133742297Y-126926597D01*
X133742293Y-126926598D01*
X133577561Y-126980123D01*
X133577558Y-126980125D01*
X133423214Y-127058766D01*
X133283073Y-127160585D01*
X133160585Y-127283073D01*
X133058766Y-127423214D01*
X132980125Y-127577558D01*
X132980123Y-127577561D01*
X132926598Y-127742293D01*
X132926597Y-127742297D01*
X132899500Y-127913385D01*
X132899500Y-128086614D01*
X132926597Y-128257702D01*
X132926598Y-128257706D01*
X132980123Y-128422438D01*
X132980125Y-128422441D01*
X133045499Y-128550747D01*
X133058768Y-128576788D01*
X133160586Y-128716928D01*
X133283072Y-128839414D01*
X133423212Y-128941232D01*
X133520444Y-128990773D01*
X133563709Y-129034037D01*
X133574500Y-129078983D01*
X133574500Y-132921015D01*
X133555593Y-132979206D01*
X133520445Y-133009225D01*
X133423214Y-133058766D01*
X133283073Y-133160585D01*
X133160585Y-133283073D01*
X133058766Y-133423214D01*
X132980125Y-133577558D01*
X132980123Y-133577561D01*
X132926598Y-133742293D01*
X132926597Y-133742297D01*
X132899500Y-133913385D01*
X132899500Y-134086614D01*
X132926597Y-134257702D01*
X132926598Y-134257706D01*
X132980123Y-134422438D01*
X132980125Y-134422441D01*
X133019897Y-134500500D01*
X133058768Y-134576788D01*
X133160586Y-134716928D01*
X133283072Y-134839414D01*
X133423212Y-134941232D01*
X133520444Y-134990773D01*
X133563709Y-135034037D01*
X133574500Y-135078983D01*
X133574500Y-137056018D01*
X133600072Y-137151455D01*
X133603498Y-137164241D01*
X133659513Y-137261260D01*
X133659515Y-137261263D01*
X133738737Y-137340485D01*
X133738739Y-137340486D01*
X133835759Y-137396501D01*
X133835757Y-137396501D01*
X133835761Y-137396502D01*
X133835763Y-137396503D01*
X133943982Y-137425500D01*
X134056018Y-137425500D01*
X142552334Y-137425500D01*
X142610525Y-137444407D01*
X142646489Y-137493907D01*
X142646489Y-137555093D01*
X142636223Y-137577070D01*
X141833137Y-138858588D01*
X141786215Y-138897857D01*
X141733763Y-138903799D01*
X141706617Y-138899500D01*
X141706611Y-138899500D01*
X141533389Y-138899500D01*
X141533386Y-138899500D01*
X141362297Y-138926597D01*
X141362293Y-138926598D01*
X141197561Y-138980123D01*
X141197558Y-138980125D01*
X141043214Y-139058766D01*
X140903073Y-139160585D01*
X140780585Y-139283073D01*
X140678766Y-139423214D01*
X140600125Y-139577558D01*
X140600123Y-139577561D01*
X140546598Y-139742293D01*
X140546597Y-139742297D01*
X140519500Y-139913385D01*
X140519500Y-140086614D01*
X140546597Y-140257702D01*
X140546598Y-140257706D01*
X140600123Y-140422438D01*
X140600125Y-140422441D01*
X140642222Y-140505063D01*
X140678768Y-140576788D01*
X140780586Y-140716928D01*
X140903072Y-140839414D01*
X141043212Y-140941232D01*
X141197555Y-141019873D01*
X141197557Y-141019873D01*
X141197558Y-141019874D01*
X141197561Y-141019876D01*
X141362293Y-141073401D01*
X141362297Y-141073402D01*
X141533386Y-141100500D01*
X141533389Y-141100500D01*
X141706614Y-141100500D01*
X141877702Y-141073402D01*
X141877706Y-141073401D01*
X142042438Y-141019876D01*
X142042440Y-141019874D01*
X142042445Y-141019873D01*
X142196788Y-140941232D01*
X142336928Y-140839414D01*
X142459414Y-140716928D01*
X142561232Y-140576788D01*
X142639873Y-140422445D01*
X142639874Y-140422440D01*
X142639876Y-140422438D01*
X142693401Y-140257706D01*
X142693402Y-140257702D01*
X142720500Y-140086614D01*
X142720500Y-139913385D01*
X142693402Y-139742297D01*
X142693401Y-139742293D01*
X142639876Y-139577561D01*
X142639874Y-139577558D01*
X142639873Y-139577557D01*
X142639873Y-139577555D01*
X142561232Y-139423212D01*
X142561228Y-139423206D01*
X142558856Y-139419941D01*
X142539948Y-139361751D01*
X142555058Y-139309182D01*
X143834956Y-137266791D01*
X143840485Y-137261263D01*
X143864648Y-137219411D01*
X143890299Y-137178479D01*
X143890301Y-137178469D01*
X143892999Y-137172573D01*
X143893242Y-137172684D01*
X143894266Y-137170333D01*
X143894019Y-137170231D01*
X143896496Y-137164248D01*
X143896503Y-137164237D01*
X143909008Y-137117565D01*
X143923194Y-137071381D01*
X143923475Y-137063572D01*
X143925499Y-137056022D01*
X143925500Y-137056017D01*
X143925500Y-137007694D01*
X143927248Y-136959418D01*
X143925500Y-136951801D01*
X143925500Y-136943982D01*
X143912993Y-136897305D01*
X143902187Y-136850220D01*
X143898526Y-136843313D01*
X143896503Y-136835763D01*
X143872341Y-136793914D01*
X143849717Y-136751231D01*
X143844394Y-136745508D01*
X143840485Y-136738737D01*
X143816789Y-136715041D01*
X143789014Y-136660527D01*
X143798585Y-136600095D01*
X143841850Y-136556830D01*
X143902282Y-136547259D01*
X143941710Y-136562667D01*
X144844066Y-137164237D01*
X146663478Y-138377178D01*
X146663488Y-138377185D01*
X148805415Y-139805136D01*
X148843345Y-139853146D01*
X148849500Y-139887509D01*
X148849500Y-140401677D01*
X148830593Y-140459868D01*
X148820504Y-140471681D01*
X146821682Y-142470504D01*
X146767165Y-142498281D01*
X146751678Y-142499500D01*
X131289641Y-142499500D01*
X131231450Y-142480593D01*
X131212083Y-142462029D01*
X130217469Y-141208314D01*
X129659556Y-140505062D01*
X129638204Y-140447725D01*
X129642961Y-140412940D01*
X129693402Y-140257702D01*
X129720500Y-140086614D01*
X129720500Y-139913385D01*
X132899500Y-139913385D01*
X132899500Y-140086614D01*
X132926597Y-140257702D01*
X132926598Y-140257706D01*
X132980123Y-140422438D01*
X132980125Y-140422441D01*
X133022222Y-140505063D01*
X133058768Y-140576788D01*
X133160586Y-140716928D01*
X133283072Y-140839414D01*
X133423212Y-140941232D01*
X133577555Y-141019873D01*
X133577557Y-141019873D01*
X133577558Y-141019874D01*
X133577561Y-141019876D01*
X133742293Y-141073401D01*
X133742297Y-141073402D01*
X133913386Y-141100500D01*
X133913389Y-141100500D01*
X134086614Y-141100500D01*
X134257702Y-141073402D01*
X134257706Y-141073401D01*
X134422438Y-141019876D01*
X134422440Y-141019874D01*
X134422445Y-141019873D01*
X134576788Y-140941232D01*
X134716928Y-140839414D01*
X134839414Y-140716928D01*
X134941232Y-140576788D01*
X135019873Y-140422445D01*
X135019874Y-140422440D01*
X135019876Y-140422438D01*
X135073401Y-140257706D01*
X135073402Y-140257702D01*
X135100500Y-140086614D01*
X135100500Y-139913385D01*
X135073402Y-139742297D01*
X135073401Y-139742293D01*
X135019876Y-139577561D01*
X135019874Y-139577558D01*
X135019873Y-139577557D01*
X135019873Y-139577555D01*
X134941232Y-139423212D01*
X134839414Y-139283072D01*
X134716928Y-139160586D01*
X134576788Y-139058768D01*
X134576787Y-139058767D01*
X134576785Y-139058766D01*
X134422441Y-138980125D01*
X134422438Y-138980123D01*
X134257706Y-138926598D01*
X134257702Y-138926597D01*
X134086614Y-138899500D01*
X134086611Y-138899500D01*
X133913389Y-138899500D01*
X133913386Y-138899500D01*
X133742297Y-138926597D01*
X133742293Y-138926598D01*
X133577561Y-138980123D01*
X133577558Y-138980125D01*
X133423214Y-139058766D01*
X133283073Y-139160585D01*
X133160585Y-139283073D01*
X133058766Y-139423214D01*
X132980125Y-139577558D01*
X132980123Y-139577561D01*
X132926598Y-139742293D01*
X132926597Y-139742297D01*
X132899500Y-139913385D01*
X129720500Y-139913385D01*
X129693402Y-139742297D01*
X129693401Y-139742293D01*
X129639876Y-139577561D01*
X129639874Y-139577558D01*
X129639873Y-139577557D01*
X129639873Y-139577555D01*
X129561232Y-139423212D01*
X129459414Y-139283072D01*
X129336928Y-139160586D01*
X129196788Y-139058768D01*
X129196787Y-139058767D01*
X129196785Y-139058766D01*
X129042441Y-138980125D01*
X129042438Y-138980123D01*
X128877706Y-138926598D01*
X128877702Y-138926597D01*
X128706614Y-138899500D01*
X128706611Y-138899500D01*
X128533389Y-138899500D01*
X128533386Y-138899500D01*
X128362297Y-138926597D01*
X128362293Y-138926598D01*
X128197561Y-138980123D01*
X128197558Y-138980125D01*
X128043214Y-139058766D01*
X127903073Y-139160585D01*
X127780585Y-139283073D01*
X127678766Y-139423214D01*
X127600125Y-139577558D01*
X127600123Y-139577561D01*
X127546598Y-139742293D01*
X127546597Y-139742297D01*
X127519500Y-139913385D01*
X127519500Y-140086614D01*
X127546597Y-140257702D01*
X127546598Y-140257706D01*
X127600123Y-140422438D01*
X127600125Y-140422441D01*
X127642222Y-140505063D01*
X127678768Y-140576788D01*
X127780586Y-140716928D01*
X127903072Y-140839414D01*
X128043212Y-140941232D01*
X128197555Y-141019873D01*
X128197557Y-141019873D01*
X128197558Y-141019874D01*
X128197561Y-141019876D01*
X128362293Y-141073401D01*
X128362297Y-141073402D01*
X128533386Y-141100500D01*
X128533389Y-141100500D01*
X128706613Y-141100500D01*
X128725370Y-141097528D01*
X128780607Y-141088779D01*
X128841037Y-141098349D01*
X128873650Y-141125030D01*
X130584987Y-143282177D01*
X130599500Y-143307314D01*
X130625768Y-143333582D01*
X130648855Y-143362683D01*
X130666308Y-143375633D01*
X130677314Y-143385129D01*
X130692684Y-143400498D01*
X130692687Y-143400501D01*
X130719928Y-143416228D01*
X130729418Y-143422459D01*
X130754688Y-143441208D01*
X130754690Y-143441209D01*
X130781679Y-143451880D01*
X130806814Y-143466392D01*
X130842699Y-143476007D01*
X130847979Y-143478095D01*
X130847983Y-143478097D01*
X130861455Y-143483423D01*
X130877241Y-143489665D01*
X130898826Y-143492152D01*
X130913115Y-143494874D01*
X130934108Y-143500500D01*
X130971257Y-143500500D01*
X131008160Y-143504753D01*
X131036870Y-143500500D01*
X146934108Y-143500500D01*
X147065892Y-143500500D01*
X147193186Y-143466392D01*
X147193188Y-143466390D01*
X147193190Y-143466390D01*
X147307309Y-143400503D01*
X147307309Y-143400502D01*
X147307314Y-143400500D01*
X149330498Y-141377315D01*
X149385013Y-141349540D01*
X149445445Y-141359111D01*
X149488710Y-141402376D01*
X149499500Y-141447321D01*
X149499500Y-144775211D01*
X149480593Y-144833402D01*
X149436819Y-144867308D01*
X149377659Y-144890637D01*
X149257081Y-144982075D01*
X149257075Y-144982081D01*
X149165640Y-145102656D01*
X149165637Y-145102660D01*
X149110123Y-145243434D01*
X149099500Y-145331893D01*
X149099500Y-146668106D01*
X149110123Y-146756565D01*
X149165637Y-146897339D01*
X149165638Y-146897341D01*
X149165639Y-146897342D01*
X149257078Y-147017922D01*
X149377658Y-147109361D01*
X149377659Y-147109361D01*
X149377660Y-147109362D01*
X149421444Y-147126628D01*
X149518436Y-147164877D01*
X149606898Y-147175500D01*
X149606900Y-147175500D01*
X150393100Y-147175500D01*
X150393102Y-147175500D01*
X150481564Y-147164877D01*
X150622342Y-147109361D01*
X150742922Y-147017922D01*
X150834361Y-146897342D01*
X150889877Y-146756564D01*
X150900500Y-146668102D01*
X150900500Y-145331898D01*
X150889877Y-145243436D01*
X150853411Y-145150965D01*
X150834362Y-145102660D01*
X150834361Y-145102659D01*
X150834361Y-145102658D01*
X150742922Y-144982078D01*
X150670274Y-144926987D01*
X150622340Y-144890637D01*
X150563181Y-144867308D01*
X150515984Y-144828371D01*
X150500500Y-144775211D01*
X150500500Y-141249499D01*
X150519407Y-141191308D01*
X150568907Y-141155344D01*
X150599500Y-141150499D01*
X150894861Y-141150499D01*
X150894864Y-141150499D01*
X150919991Y-141147585D01*
X151022765Y-141102206D01*
X151102206Y-141022765D01*
X151147585Y-140919991D01*
X151150500Y-140894865D01*
X151150499Y-139598320D01*
X151169406Y-139540130D01*
X151179489Y-139528324D01*
X152400500Y-138307314D01*
X152466392Y-138193186D01*
X152500500Y-138065893D01*
X152500500Y-137934108D01*
X152500500Y-136212337D01*
X152519407Y-136154146D01*
X152522558Y-136150039D01*
X153354988Y-135122348D01*
X153406305Y-135089032D01*
X153447402Y-135086881D01*
X153483195Y-135092550D01*
X153533387Y-135100500D01*
X153533389Y-135100500D01*
X153706614Y-135100500D01*
X153877702Y-135073402D01*
X153877706Y-135073401D01*
X154042438Y-135019876D01*
X154042440Y-135019874D01*
X154042445Y-135019873D01*
X154196788Y-134941232D01*
X154336928Y-134839414D01*
X154459414Y-134716928D01*
X154561232Y-134576788D01*
X154572561Y-134554554D01*
X154615826Y-134511290D01*
X154660770Y-134500500D01*
X157950382Y-134500500D01*
X157966657Y-134501847D01*
X169893843Y-136489711D01*
X169934108Y-136500500D01*
X169958576Y-136500500D01*
X169982714Y-136504523D01*
X170024209Y-136500500D01*
X170065892Y-136500500D01*
X170089525Y-136494167D01*
X170113883Y-136491806D01*
X170152922Y-136477180D01*
X170193186Y-136466392D01*
X170214376Y-136454157D01*
X170237291Y-136445573D01*
X170271212Y-136421343D01*
X170307314Y-136400500D01*
X170324617Y-136383196D01*
X170344529Y-136368974D01*
X170367989Y-136340475D01*
X170374399Y-136333414D01*
X170400500Y-136307314D01*
X170408636Y-136293219D01*
X170417944Y-136279795D01*
X170428287Y-136267232D01*
X170428287Y-136267231D01*
X170443567Y-136233643D01*
X170443567Y-136233642D01*
X170445550Y-136229284D01*
X170466392Y-136193186D01*
X170472724Y-136169550D01*
X170482858Y-136147277D01*
X170489711Y-136106155D01*
X170500500Y-136065892D01*
X170500500Y-136041424D01*
X170504523Y-136017286D01*
X170500962Y-135980555D01*
X170500500Y-135971002D01*
X170500500Y-113015010D01*
X170503549Y-112964214D01*
X170500500Y-112949314D01*
X170500500Y-112934108D01*
X170487330Y-112884958D01*
X170477129Y-112835106D01*
X170470328Y-112821504D01*
X170467734Y-112811822D01*
X170467734Y-112811820D01*
X170466394Y-112806820D01*
X170466393Y-112806817D01*
X170466392Y-112806814D01*
X170440947Y-112762742D01*
X170418193Y-112717234D01*
X170408103Y-112705856D01*
X170400500Y-112692686D01*
X170364520Y-112656706D01*
X170330759Y-112618633D01*
X170318067Y-112610253D01*
X170307314Y-112599500D01*
X170307312Y-112599498D01*
X170265812Y-112575537D01*
X170263232Y-112574047D01*
X170220783Y-112546021D01*
X170206360Y-112541213D01*
X170197684Y-112536204D01*
X170197679Y-112536202D01*
X170193185Y-112533607D01*
X170193182Y-112533606D01*
X170146901Y-112521205D01*
X170141218Y-112519499D01*
X158226614Y-108547964D01*
X158215326Y-108544201D01*
X158210460Y-108541144D01*
X158152899Y-108523392D01*
X158151837Y-108523038D01*
X158151835Y-108523036D01*
X158095765Y-108504347D01*
X158090121Y-108503257D01*
X158084530Y-108502307D01*
X158025440Y-108500100D01*
X158025440Y-108500099D01*
X158024269Y-108500055D01*
X157964214Y-108496451D01*
X157958581Y-108497603D01*
X157952836Y-108497389D01*
X157952835Y-108497389D01*
X157952834Y-108497389D01*
X157895184Y-108510550D01*
X157895183Y-108510549D01*
X157894016Y-108510815D01*
X157835106Y-108522871D01*
X157829966Y-108525439D01*
X157818373Y-108528087D01*
X154522451Y-109280581D01*
X154461511Y-109275101D01*
X154430412Y-109254069D01*
X154336930Y-109160588D01*
X154336928Y-109160586D01*
X154196788Y-109058768D01*
X154196787Y-109058767D01*
X154196785Y-109058766D01*
X154174553Y-109047438D01*
X154131289Y-109004172D01*
X154120500Y-108959229D01*
X154120500Y-105934109D01*
X154120500Y-105934108D01*
X154086392Y-105806814D01*
X154086390Y-105806811D01*
X154086390Y-105806809D01*
X154020503Y-105692690D01*
X154020501Y-105692688D01*
X154020500Y-105692686D01*
X153927314Y-105599500D01*
X153927311Y-105599498D01*
X153927309Y-105599496D01*
X153813189Y-105533609D01*
X153813191Y-105533609D01*
X153763799Y-105520375D01*
X153685892Y-105499500D01*
X115065892Y-105499500D01*
X114934108Y-105499500D01*
X114856200Y-105520375D01*
X114806809Y-105533609D01*
X114692690Y-105599496D01*
X114599496Y-105692690D01*
X114533609Y-105806809D01*
X114499500Y-105934109D01*
X114499500Y-108959229D01*
X114480593Y-109017420D01*
X114445447Y-109047438D01*
X114423214Y-109058766D01*
X114283073Y-109160585D01*
X114160585Y-109283073D01*
X114058766Y-109423214D01*
X114047439Y-109445446D01*
X114004174Y-109488710D01*
X113959230Y-109499500D01*
X113065893Y-109499500D01*
X112934108Y-109499500D01*
X112860776Y-109519149D01*
X112806809Y-109533609D01*
X112692690Y-109599496D01*
X109692686Y-112599500D01*
X109692685Y-112599499D01*
X109599500Y-112692685D01*
X109599496Y-112692690D01*
X109533609Y-112806809D01*
X109532266Y-112811823D01*
X109501807Y-112925500D01*
X109499500Y-112934109D01*
X109499500Y-114800705D01*
X109480593Y-114858896D01*
X109431093Y-114894860D01*
X109409804Y-114898887D01*
X109409836Y-114899147D01*
X109318434Y-114910123D01*
X109177660Y-114965637D01*
X109177656Y-114965640D01*
X109057081Y-115057075D01*
X109057075Y-115057081D01*
X108965640Y-115177656D01*
X108965637Y-115177660D01*
X108910123Y-115318434D01*
X108899500Y-115406893D01*
X100500000Y-115406893D01*
X100500000Y-100599000D01*
X100518907Y-100540809D01*
X100568407Y-100504845D01*
X100599000Y-100500000D01*
X174401000Y-100500000D01*
X174459191Y-100518907D01*
G37*
%TD.AperFunction*%
%TD*%
M02*
